solid Bar clampFIXED
facet normal 0.866025403784446 2.15661682375134e-015 -0.499999999999988
outer loop
vertex 13.4343577080371 4.76273533541281 9.22539509911894
vertex 14.0859240606885 0.0962196415801464 10.0745329019838
vertex 13.4343577080371 0.0962196415801464 9.22539509911892
endloop
endfacet
facet normal 0.707106781186546 4.40295426938656e-015 -0.707106781186549
outer loop
vertex 14.0859240606885 0.0962196415801464 10.0745329019838
vertex 13.4343577080371 4.76273533541281 9.22539509911894
vertex 14.0859240606885 4.76273533541281 10.0745329019838
endloop
endfacet
facet normal -0.866025403784446 -6.08508452426945e-016 0.499999999999987
outer loop
vertex 20.5357660190695 9.7804941459855 5.12539509911896
vertex 19.8841996664181 14.4470098398181 4.27625729625412
vertex 19.8841996664181 9.78049414598545 4.27625729625409
endloop
endfacet
facet normal -0.707106781186542 -1.65121578920489e-015 0.707106781186553
outer loop
vertex 19.8841996664181 14.4470098398181 4.27625729625412
vertex 20.5357660190695 9.7804941459855 5.12539509911896
vertex 20.5357660190695 14.4470098398181 5.12539509911895
endloop
endfacet
facet normal -0.96592582628907 -9.5009211814272e-015 0.258819045102514
outer loop
vertex 20.9453577513384 14.4470098398181 6.11423701419861
vertex 20.5357660190695 9.7804941459855 5.12539509911896
vertex 20.9453577513384 9.7804941459855 6.11423701419861
endloop
endfacet
facet normal -0.866025403784446 -6.08508452426945e-016 0.499999999999987
outer loop
vertex 20.5357660190695 9.7804941459855 5.12539509911896
vertex 20.9453577513384 14.4470098398181 6.11423701419861
vertex 20.5357660190695 14.4470098398181 5.12539509911895
endloop
endfacet
facet normal 0.707106781186533 4.66911425631845e-016 0.707106781186562
outer loop
vertex 14.0859240606885 4.76273533541281 4.27625729625409
vertex 13.4343577080371 0.0962196415801464 5.12539509911895
vertex 14.0859240606885 0.0962196415801464 4.27625729625412
endloop
endfacet
facet normal 0.866025403784446 2.0786141786153e-015 0.499999999999987
outer loop
vertex 13.4343577080371 0.0962196415801464 5.12539509911895
vertex 14.0859240606885 4.76273533541281 4.27625729625409
vertex 13.4343577080371 4.76273533541281 5.12539509911893
endloop
endfacet
facet normal 0.725401504582461 0.688325981748112 4.49843217874818e-016
outer loop
vertex 4.12593083793697 4.44948323329074 14.3507901982379
vertex 4.9576950917267 3.77587953208415 -1.25231668703836e-030
vertex 4.12593083793697 4.44948323329074 -1.25231668703836e-030
endloop
endfacet
facet normal 0.522532174389864 0.852619567408232 4.15917937289789e-016
outer loop
vertex 4.9576950917267 3.77587953208415 -1.25231668703836e-030
vertex 4.12593083793697 4.44948323329074 14.3507901982379
vertex 4.9576950917267 3.77587953208415 14.3507901982379
endloop
endfacet
facet normal 0.258819045102528 -6.71929782326133e-015 0.965925826289066
outer loop
vertex 15.9239037786329 0.0962196415801464 3.21509921133379
vertex 14.9350618635533 4.76273533541281 3.62469094360282
vertex 14.9350618635533 0.0962196415801464 3.62469094360277
endloop
endfacet
facet normal 0.499999999999999 -6.0164408803618e-015 0.866025403784439
outer loop
vertex 14.9350618635533 4.76273533541281 3.62469094360282
vertex 15.9239037786329 0.0962196415801464 3.21509921133379
vertex 15.9239037786331 4.76273533541281 3.21509921133376
endloop
endfacet
facet normal -1.0 1.93868842481826e-014 -1.15844428643411e-016
outer loop
vertex 21.0850618635534 4.76273533541281 7.17539509911895
vertex 20.9453577513384 0.0962196415801464 6.11423701419861
vertex 21.0850618635532 0.0962196415801464 7.17539509911894
endloop
endfacet
facet normal -0.96592582628907 9.50096158058622e-015 0.258819045102514
outer loop
vertex 20.9453577513384 0.0962196415801464 6.11423701419861
vertex 21.0850618635534 4.76273533541281 7.17539509911895
vertex 20.9453577513384 4.76273533541281 6.11423701419861
endloop
endfacet
facet normal -0.866025403784432 -4.3899147783508e-015 -0.500000000000012
outer loop
vertex 20.5357660190695 4.76273533541281 9.22539509911894
vertex 20.9453577513384 0.0962196415801464 8.23655318403927
vertex 20.5357660190695 0.0962196415801464 9.22539509911893
endloop
endfacet
facet normal -0.96592582628907 1.04091323716415e-014 -0.258819045102513
outer loop
vertex 20.9453577513384 0.0962196415801464 8.23655318403927
vertex 20.5357660190695 4.76273533541281 9.22539509911894
vertex 20.9453577513384 4.76273533541281 8.23655318403928
endloop
endfacet
facet normal -0.707106781186543 -4.4588112168786e-015 -0.707106781186553
outer loop
vertex 19.8841996664179 4.76273533541281 10.0745329019838
vertex 20.5357660190695 0.0962196415801464 9.22539509911893
vertex 19.8841996664181 0.0962196415801464 10.0745329019838
endloop
endfacet
facet normal -0.866025403784432 -4.38991477835078e-015 -0.500000000000011
outer loop
vertex 20.5357660190695 0.0962196415801464 9.22539509911893
vertex 19.8841996664179 4.76273533541281 10.0745329019838
vertex 20.5357660190695 4.76273533541281 9.22539509911894
endloop
endfacet
facet normal -0.96592582628907 1.04091323716414e-014 -0.258819045102513
outer loop
vertex 20.9453577513384 4.76273533541281 8.23655318403928
vertex 21.0850618635532 0.0962196415801464 7.17539509911894
vertex 20.9453577513384 0.0962196415801464 8.23655318403927
endloop
endfacet
facet normal -1.0 1.93868842481827e-014 1.96044417704232e-016
outer loop
vertex 21.0850618635532 0.0962196415801464 7.17539509911894
vertex 20.9453577513384 4.76273533541281 8.23655318403928
vertex 21.0850618635534 4.76273533541281 7.17539509911895
endloop
endfacet
facet normal 0.499999999999998 -6.01644088036183e-015 0.86602540378444
outer loop
vertex 14.9350618635533 0.0962196415801464 3.62469094360277
vertex 14.0859240606885 4.76273533541281 4.27625729625409
vertex 14.0859240606885 0.0962196415801464 4.27625729625412
endloop
endfacet
facet normal 0.707106781186533 4.66911425631845e-016 0.707106781186562
outer loop
vertex 14.0859240606885 4.76273533541281 4.27625729625409
vertex 14.9350618635533 0.0962196415801464 3.62469094360277
vertex 14.9350618635533 4.76273533541281 3.62469094360282
endloop
endfacet
facet normal -4.61595492594509e-015 -3.02742647004741e-016 1.0
outer loop
vertex 16.9850618635532 0.0962196415801464 3.07539509911897
vertex 15.9239037786331 4.76273533541281 3.21509921133376
vertex 15.9239037786329 0.0962196415801464 3.21509921133379
endloop
endfacet
facet normal 0.258819045102522 -6.71929782326117e-015 0.965925826289068
outer loop
vertex 15.9239037786331 4.76273533541281 3.21509921133376
vertex 16.9850618635532 0.0962196415801464 3.07539509911897
vertex 16.9850618635534 4.76273533541281 3.07539509911898
endloop
endfacet
facet normal -0.500000000000019 5.05033125938335e-015 -0.866025403784428
outer loop
vertex 19.0350618635535 4.76273533541281 10.7260992546351
vertex 19.8841996664181 0.0962196415801464 10.0745329019838
vertex 19.0350618635533 0.0962196415801464 10.7260992546351
endloop
endfacet
facet normal -0.707106781186547 -4.45881121687886e-015 -0.707106781186548
outer loop
vertex 19.8841996664181 0.0962196415801464 10.0745329019838
vertex 19.0350618635535 4.76273533541281 10.7260992546351
vertex 19.8841996664179 4.76273533541281 10.0745329019838
endloop
endfacet
facet normal 0.866025403784446 2.07861417861531e-015 0.499999999999987
outer loop
vertex 13.4343577080371 4.76273533541281 5.12539509911893
vertex 13.0247659757682 0.0962196415801464 6.11423701419861
vertex 13.4343577080371 0.0962196415801464 5.12539509911895
endloop
endfacet
facet normal 0.96592582628906 5.59126032953202e-016 0.258819045102552
outer loop
vertex 13.0247659757682 0.0962196415801464 6.11423701419861
vertex 13.4343577080371 4.76273533541281 5.12539509911893
vertex 13.0247659757682 4.76273533541281 6.11423701419861
endloop
endfacet
facet normal -0.258819045102513 5.99535733232192e-015 -0.965925826289071
outer loop
vertex 18.0462199484737 4.76273533541281 11.1356909869041
vertex 19.0350618635533 0.0962196415801464 10.7260992546351
vertex 18.0462199484735 0.0962196415801464 11.1356909869041
endloop
endfacet
facet normal -0.500000000000013 5.05033125938355e-015 -0.866025403784431
outer loop
vertex 19.0350618635533 0.0962196415801464 10.7260992546351
vertex 18.0462199484737 4.76273533541281 11.1356909869041
vertex 19.0350618635535 4.76273533541281 10.7260992546351
endloop
endfacet
facet normal -0.707106781186542 1.65089758809318e-015 0.707106781186553
outer loop
vertex 19.8841996664181 0.0962196415801464 4.27625729625412
vertex 19.0350618635535 4.76273533541281 3.62469094360291
vertex 19.0350618635533 0.0962196415801464 3.62469094360277
endloop
endfacet
facet normal -0.500000000000007 1.06263167122043e-015 0.866025403784435
outer loop
vertex 19.0350618635535 4.76273533541281 3.62469094360291
vertex 19.8841996664181 0.0962196415801464 4.27625729625412
vertex 19.8841996664181 4.76273533541281 4.27625729625409
endloop
endfacet
facet normal 0.258819045102516 -4.00055380914963e-015 -0.96592582628907
outer loop
vertex 15.9239037786331 4.76273533541281 11.1356909869041
vertex 16.9850618635532 0.0962196415801464 11.2753950991189
vertex 15.9239037786329 0.0962196415801464 11.1356909869041
endloop
endfacet
facet normal -7.23582123526528e-015 3.01939616111395e-016 -1.0
outer loop
vertex 16.9850618635532 0.0962196415801464 11.2753950991189
vertex 15.9239037786331 4.76273533541281 11.1356909869041
vertex 16.9850618635534 4.76273533541281 11.2753950991189
endloop
endfacet
facet normal -0.5 1.06263167122038e-015 0.866025403784439
outer loop
vertex 19.0350618635533 0.0962196415801464 3.62469094360277
vertex 18.0462199484737 4.76273533541281 3.2150992113338
vertex 18.0462199484735 0.0962196415801464 3.21509921133379
endloop
endfacet
facet normal -0.258819045102532 1.59532001880897e-015 0.965925826289065
outer loop
vertex 18.0462199484737 4.76273533541281 3.2150992113338
vertex 19.0350618635533 0.0962196415801464 3.62469094360277
vertex 19.0350618635535 4.76273533541281 3.62469094360291
endloop
endfacet
facet normal -0.258819045102526 1.59532001880904e-015 0.965925826289067
outer loop
vertex 18.0462199484735 0.0962196415801464 3.21509921133379
vertex 16.9850618635534 4.76273533541281 3.07539509911898
vertex 16.9850618635532 0.0962196415801464 3.07539509911897
endloop
endfacet
facet normal -1.10497762706022e-014 -3.0274264700458e-016 1.0
outer loop
vertex 16.9850618635534 4.76273533541281 3.07539509911898
vertex 18.0462199484735 0.0962196415801464 3.21509921133379
vertex 18.0462199484737 4.76273533541281 3.2150992113338
endloop
endfacet
facet normal 0.258819045102516 -4.00055380914963e-015 -0.96592582628907
outer loop
vertex 15.9239037786331 4.76273533541281 11.1356909869041
vertex 14.9350618635533 0.0962196415801464 10.7260992546351
vertex 14.9350618635531 4.76273533541281 10.726099254635
endloop
endfacet
facet normal 0.500000000000008 1.00721579615389e-016 -0.866025403784434
outer loop
vertex 14.9350618635533 0.0962196415801464 10.7260992546351
vertex 15.9239037786331 4.76273533541281 11.1356909869041
vertex 15.9239037786329 0.0962196415801464 11.1356909869041
endloop
endfacet
facet normal 0.500000000000014 1.00721579615703e-016 -0.866025403784431
outer loop
vertex 14.9350618635531 4.76273533541281 10.726099254635
vertex 14.0859240606885 0.0962196415801464 10.0745329019838
vertex 14.0859240606885 4.76273533541281 10.0745329019838
endloop
endfacet
facet normal 0.707106781186546 4.40295426938656e-015 -0.707106781186549
outer loop
vertex 14.0859240606885 0.0962196415801464 10.0745329019838
vertex 14.9350618635531 4.76273533541281 10.726099254635
vertex 14.9350618635533 0.0962196415801464 10.7260992546351
endloop
endfacet
facet normal 0.96592582628906 5.59126032953202e-016 0.258819045102552
outer loop
vertex 13.0247659757682 4.76273533541281 6.11423701419861
vertex 12.8850618635532 0.0962196415801464 7.17539509911894
vertex 13.0247659757682 0.0962196415801464 6.11423701419861
endloop
endfacet
facet normal 1.0 8.45768182587958e-017 2.49511077078117e-016
outer loop
vertex 12.8850618635532 0.0962196415801464 7.17539509911894
vertex 13.0247659757682 4.76273533541281 6.11423701419861
vertex 12.8850618635532 4.76273533541281 7.17539509911894
endloop
endfacet
facet normal -1.36607314700267e-014 3.01939616111526e-016 -1.0
outer loop
vertex 16.9850618635534 4.76273533541281 11.2753950991189
vertex 18.0462199484735 0.0962196415801464 11.1356909869041
vertex 16.9850618635532 0.0962196415801464 11.2753950991189
endloop
endfacet
facet normal -0.258819045102506 5.99535733232177e-015 -0.965925826289072
outer loop
vertex 18.0462199484735 0.0962196415801464 11.1356909869041
vertex 16.9850618635534 4.76273533541281 11.2753950991189
vertex 18.0462199484737 4.76273533541281 11.1356909869041
endloop
endfacet
facet normal 1.0 8.45768182587958e-017 3.38622176034587e-016
outer loop
vertex 12.8850618635532 4.76273533541281 7.17539509911894
vertex 13.0247659757682 0.0962196415801464 8.23655318403927
vertex 12.8850618635532 0.0962196415801464 7.17539509911894
endloop
endfacet
facet normal 0.96592582628906 7.19410370603027e-016 -0.258819045102553
outer loop
vertex 13.0247659757682 0.0962196415801464 8.23655318403927
vertex 12.8850618635532 4.76273533541281 7.17539509911894
vertex 13.0247659757682 4.76273533541281 8.23655318403928
endloop
endfacet
facet normal -0.866025403784447 6.08190251315223e-016 0.499999999999985
outer loop
vertex 20.5357660190695 4.76273533541281 5.12539509911896
vertex 19.8841996664181 0.0962196415801464 4.27625729625412
vertex 20.5357660190695 0.0962196415801464 5.12539509911895
endloop
endfacet
facet normal -0.707106781186542 1.65089758809318e-015 0.707106781186553
outer loop
vertex 19.8841996664181 0.0962196415801464 4.27625729625412
vertex 20.5357660190695 4.76273533541281 5.12539509911896
vertex 19.8841996664181 4.76273533541281 4.27625729625409
endloop
endfacet
facet normal 0.68832598174808 -0.725401504582492 1.56026550023225e-016
outer loop
vertex 4.27794048155797 10.2457659272461 -1.25231668703836e-030
vertex 3.60433678035138 9.41400167345638 14.3507901982379
vertex 3.60433678035138 9.41400167345638 -1.25231668703836e-030
endloop
endfacet
facet normal 0.852619567408224 -0.522532174389877 -1.96254937238927e-016
outer loop
vertex 3.60433678035138 9.41400167345638 14.3507901982379
vertex 4.27794048155797 10.2457659272461 -1.25231668703836e-030
vertex 4.27794048155797 10.2457659272461 14.3507901982379
endloop
endfacet
facet normal 0.0262163536122348 0.999656292334159 1.74988618084728e-016
outer loop
vertex 6.99258995691495 3.17302895988782 14.3507901982379
vertex 8.05704584607378 3.2848653591356 -1.25231668703836e-030
vertex 6.99258995691495 3.17302895988782 -1.25231668703836e-030
endloop
endfacet
facet normal -0.233407033987492 0.972379121785922 3.41830427407162e-016
outer loop
vertex 8.05704584607378 3.2848653591356 -1.25231668703836e-030
vertex 6.99258995691495 3.17302895988782 14.3507901982379
vertex 8.05704584607378 3.2848653591356 14.3507901982379
endloop
endfacet
facet normal 0.284053140037847 0.958808538569948 1.5390573161529e-016
outer loop
vertex 5.93545913257004 3.3405047503211 14.3507901982379
vertex 6.95038650384511 3.17971503553629 -1.25231668703836e-030
vertex 5.93545913257004 3.3405047503211 -1.25231668703836e-030
endloop
endfacet
facet normal 0.156473398440024 0.987682173363795 2.19880154577095e-016
outer loop
vertex 6.95038650384511 3.17971503553629 -1.25231668703836e-030
vertex 5.93545913257004 3.3405047503211 14.3507901982379
vertex 6.99258995691495 3.17302895988782 -1.25231668703836e-030
endloop
endfacet
facet normal 0.0262163536122348 0.999656292334159 1.74988618084728e-016
outer loop
vertex 6.99258995691495 3.17302895988782 -1.25231668703836e-030
vertex 5.93545913257004 3.3405047503211 14.3507901982379
vertex 6.99258995691495 3.17302895988782 14.3507901982379
endloop
endfacet
facet normal 0.852619567408224 -0.522532174389877 -1.96254937238927e-016
outer loop
vertex 3.60433678035138 9.41400167345638 -1.25231668703836e-030
vertex 3.16896199858833 8.43623763261304 14.3507901982379
vertex 3.16896199858833 8.43623763261304 -1.25231668703836e-030
endloop
endfacet
facet normal 0.958808538569951 -0.284053140037838 -4.88443288543371e-016
outer loop
vertex 3.16896199858833 8.43623763261304 14.3507901982379
vertex 3.60433678035138 9.41400167345638 -1.25231668703836e-030
vertex 3.60433678035138 9.41400167345638 14.3507901982379
endloop
endfacet
facet normal 0.972379121785928 0.23340703398747 -6.63661840743231e-016
outer loop
vertex 3.11332260740278 6.31465091910926 -1.25231668703836e-030
vertex 3.4968497305412 5.3154108748863 14.3507901982379
vertex 3.4968497305412 5.3154108748863 -1.25231668703836e-030
endloop
endfacet
facet normal 0.878835921020449 0.477124117944313 -1.07511457114952e-016
outer loop
vertex 3.4968497305412 5.3154108748863 14.3507901982379
vertex 3.11332260740278 6.31465091910926 -1.25231668703836e-030
vertex 3.11332260740278 6.31465091910926 14.3507901982379
endloop
endfacet
facet normal 0.878835921020449 0.477124117944313 -1.07511457114952e-016
outer loop
vertex 3.4968497305412 5.3154108748863 -1.25231668703836e-030
vertex 4.12593083793697 4.44948323329074 14.3507901982379
vertex 4.12593083793697 4.44948323329074 -1.25231668703836e-030
endloop
endfacet
facet normal 0.725401504582461 0.688325981748112 4.49843217874818e-016
outer loop
vertex 4.12593083793697 4.44948323329074 14.3507901982379
vertex 3.4968497305412 5.3154108748863 -1.25231668703836e-030
vertex 3.4968497305412 5.3154108748863 14.3507901982379
endloop
endfacet
facet normal -0.809040163554832 -0.58775336133039 0.0
outer loop
vertex 10.2744176437896 9.81818939449584 14.3507901982379
vertex 10.3018025747439 9.78049414598545 -1.25231668703836e-030
vertex 10.3018025747439 9.78049414598545 14.3507901982379
endloop
endfacet
facet normal -0.809040163554832 -0.58775336133039 0.0
outer loop
vertex 10.3018025747439 9.78049414598545 -1.25231668703836e-030
vertex 10.2744176437896 9.81818939449584 14.3507901982379
vertex 10.0742231755133 10.0937562836251 -1.25231668703836e-030
endloop
endfacet
facet normal -0.725401504582475 -0.688325981748097 0.0
outer loop
vertex 10.0742231755133 10.0937562836251 -1.25231668703836e-030
vertex 10.2744176437896 9.81818939449584 14.3507901982379
vertex 10.0742231755133 10.0937562836251 14.3507901982379
endloop
endfacet
facet normal -0.725401504582475 -0.688325981748097 0.0
outer loop
vertex 10.0742231755133 10.0937562836251 14.3507901982379
vertex 9.24245892172357 10.7673599848317 -1.25231668703836e-030
vertex 10.0742231755133 10.0937562836251 -1.25231668703836e-030
endloop
endfacet
facet normal -0.522532174389869 -0.852619567408229 2.61072377006591e-016
outer loop
vertex 9.24245892172357 10.7673599848317 -1.25231668703836e-030
vertex 10.0742231755133 10.0937562836251 14.3507901982379
vertex 9.24245892172357 10.7673599848317 14.3507901982379
endloop
endfacet
facet normal 0.999656292334159 -0.0262163536122416 -7.71396468614053e-016
outer loop
vertex 3.00148620815505 7.37910680826804 -1.25231668703836e-030
vertex 3.11332260740278 6.31465091910926 14.3507901982379
vertex 3.11332260740278 6.31465091910926 -1.25231668703836e-030
endloop
endfacet
facet normal 0.972379121785928 0.23340703398747 -6.63661840743231e-016
outer loop
vertex 3.11332260740278 6.31465091910926 14.3507901982379
vertex 3.00148620815505 7.37910680826804 -1.25231668703836e-030
vertex 3.00148620815505 7.37910680826804 14.3507901982379
endloop
endfacet
facet normal -0.0262163536122359 -0.999656292334159 3.53551767383429e-016
outer loop
vertex 7.20756405653532 11.3702105570279 14.3507901982379
vertex 6.14310816737649 11.2583741577802 -1.25231668703836e-030
vertex 7.20756405653532 11.3702105570279 -1.25231668703836e-030
endloop
endfacet
facet normal 0.233407033987471 -0.972379121785928 1.69866932084281e-016
outer loop
vertex 6.14310816737649 11.2583741577802 -1.25231668703836e-030
vertex 7.20756405653532 11.3702105570279 14.3507901982379
vertex 6.14310816737649 11.2583741577802 14.3507901982379
endloop
endfacet
facet normal -0.284053140037831 -0.958808538569953 3.93271154660398e-016
outer loop
vertex 8.26469488088023 11.2027347665947 14.3507901982379
vertex 7.20756405653532 11.3702105570279 -1.25231668703836e-030
vertex 8.26469488088023 11.2027347665947 -1.25231668703836e-030
endloop
endfacet
facet normal -0.0262163536122359 -0.999656292334159 3.53551767383429e-016
outer loop
vertex 7.20756405653532 11.3702105570279 -1.25231668703836e-030
vertex 8.26469488088023 11.2027347665947 14.3507901982379
vertex 7.20756405653532 11.3702105570279 14.3507901982379
endloop
endfacet
facet normal -0.522532174389869 -0.852619567408229 2.61072377006591e-016
outer loop
vertex 9.24245892172357 10.7673599848317 14.3507901982379
vertex 8.26469488088023 11.2027347665947 -1.25231668703836e-030
vertex 9.24245892172357 10.7673599848317 -1.25231668703836e-030
endloop
endfacet
facet normal -0.284053140037831 -0.958808538569953 3.93271154660398e-016
outer loop
vertex 8.26469488088023 11.2027347665947 -1.25231668703836e-030
vertex 9.24245892172357 10.7673599848317 14.3507901982379
vertex 8.26469488088023 11.2027347665947 14.3507901982379
endloop
endfacet
facet normal 0.477124117944294 -0.87883592102046 1.04540492377882e-016
outer loop
vertex 5.14386812315357 10.8748470346418 14.3507901982379
vertex 4.27794048155797 10.2457659272461 -1.25231668703836e-030
vertex 5.14386812315357 10.8748470346418 -1.25231668703836e-030
endloop
endfacet
facet normal 0.68832598174808 -0.725401504582492 1.56026550023225e-016
outer loop
vertex 4.27794048155797 10.2457659272461 -1.25231668703836e-030
vertex 5.14386812315357 10.8748470346418 14.3507901982379
vertex 4.27794048155797 10.2457659272461 14.3507901982379
endloop
endfacet
facet normal 0.233407033987471 -0.972379121785928 1.69866932084281e-016
outer loop
vertex 6.14310816737649 11.2583741577802 14.3507901982379
vertex 5.14386812315357 10.8748470346418 -1.25231668703836e-030
vertex 6.14310816737649 11.2583741577802 -1.25231668703836e-030
endloop
endfacet
facet normal 0.477124117944294 -0.87883592102046 1.04540492377882e-016
outer loop
vertex 5.14386812315357 10.8748470346418 -1.25231668703836e-030
vertex 6.14310816737649 11.2583741577802 14.3507901982379
vertex 5.14386812315357 10.8748470346418 14.3507901982379
endloop
endfacet
facet normal -0.477124117944293 0.87883592102046 3.8447512541701e-016
outer loop
vertex 9.0562858902967 3.66839248227402 14.3507901982379
vertex 9.9222135318923 4.29747358966974 -1.25231668703836e-030
vertex 9.0562858902967 3.66839248227402 -1.25231668703836e-030
endloop
endfacet
facet normal -0.688325981748064 0.725401504582506 2.59441361324196e-016
outer loop
vertex 9.9222135318923 4.29747358966974 -1.25231668703836e-030
vertex 9.0562858902967 3.66839248227402 14.3507901982379
vertex 9.9222135318923 4.29747358966974 14.3507901982379
endloop
endfacet
facet normal 0.96592582628906 7.19410370603029e-016 -0.258819045102553
outer loop
vertex 13.0247659757682 4.76273533541281 8.23655318403928
vertex 13.4343577080371 0.0962196415801464 9.22539509911892
vertex 13.0247659757682 0.0962196415801464 8.23655318403927
endloop
endfacet
facet normal 0.866025403784446 2.15661682375134e-015 -0.499999999999987
outer loop
vertex 13.4343577080371 0.0962196415801464 9.22539509911892
vertex 13.0247659757682 4.76273533541281 8.23655318403928
vertex 13.4343577080371 4.76273533541281 9.22539509911894
endloop
endfacet
facet normal -0.96592582628907 9.50096158058623e-015 0.258819045102514
outer loop
vertex 20.9453577513384 4.76273533541281 6.11423701419861
vertex 20.5357660190695 0.0962196415801464 5.12539509911895
vertex 20.9453577513384 0.0962196415801464 6.11423701419861
endloop
endfacet
facet normal -0.866025403784447 6.08190251315224e-016 0.499999999999985
outer loop
vertex 20.5357660190695 0.0962196415801464 5.12539509911895
vertex 20.9453577513384 4.76273533541281 6.11423701419861
vertex 20.5357660190695 4.76273533541281 5.12539509911896
endloop
endfacet
facet normal -0.777121153778039 0.62935102474747 3.02780897791076e-016
outer loop
vertex 10.2990054324031 4.76273533541276 14.3507901982379
vertex 9.9222135318923 4.29747358966974 -1.25231668703836e-030
vertex 9.9222135318923 4.29747358966974 14.3507901982379
endloop
endfacet
facet normal -0.688325981748064 0.725401504582506 2.59441361324196e-016
outer loop
vertex 9.9222135318923 4.29747358966974 -1.25231668703836e-030
vertex 10.2990054324031 4.76273533541276 14.3507901982379
vertex 10.2990054324031 4.76273533541276 -1.25231668703836e-030
endloop
endfacet
facet normal 0.866025403784446 -2.15743747554785e-015 -0.499999999999987
outer loop
vertex 13.4343577080371 14.4470098398181 9.22539509911892
vertex 14.0859240606885 9.78049414598545 10.0745329019838
vertex 13.4343577080371 9.78049414598545 9.22539509911894
endloop
endfacet
facet normal 0.707106781186545 -4.40295426938656e-015 -0.70710678118655
outer loop
vertex 14.0859240606885 9.78049414598545 10.0745329019838
vertex 13.4343577080371 14.4470098398181 9.22539509911892
vertex 14.0859240606885 14.4470098398181 10.0745329019838
endloop
endfacet
facet normal 1.0 -8.45364190996397e-017 2.31688857286823e-016
outer loop
vertex 12.8850618635532 14.4470098398181 7.17539509911894
vertex 13.0247659757682 9.7804941459855 8.23655318403928
vertex 12.8850618635532 9.78049414598545 7.17539509911894
endloop
endfacet
facet normal 0.96592582628906 -7.20190623240387e-016 -0.258819045102553
outer loop
vertex 13.0247659757682 9.7804941459855 8.23655318403928
vertex 12.8850618635532 14.4470098398181 7.17539509911894
vertex 13.0247659757682 14.4470098398181 8.23655318403927
endloop
endfacet
facet normal 0.958808538569951 -0.284053140037838 -4.88443288543371e-016
outer loop
vertex 3.16896199858833 8.43623763261304 -1.25231668703836e-030
vertex 3.00148620815505 7.37910680826804 14.3507901982379
vertex 3.00148620815505 7.37910680826804 -1.25231668703836e-030
endloop
endfacet
facet normal 0.999656292334159 -0.0262163536122416 -7.71396468614053e-016
outer loop
vertex 3.00148620815505 7.37910680826804 14.3507901982379
vertex 3.16896199858833 8.43623763261304 -1.25231668703836e-030
vertex 3.16896199858833 8.43623763261304 14.3507901982379
endloop
endfacet
facet normal 0.500000000000008 -1.00721579615389e-016 -0.866025403784434
outer loop
vertex 14.9350618635533 14.4470098398181 10.7260992546351
vertex 14.0859240606885 9.78049414598545 10.0745329019838
vertex 14.0859240606885 14.4470098398181 10.0745329019838
endloop
endfacet
facet normal 0.707106781186545 -4.40295426938656e-015 -0.70710678118655
outer loop
vertex 14.0859240606885 9.78049414598545 10.0745329019838
vertex 14.9350618635533 14.4470098398181 10.7260992546351
vertex 14.9350618635531 9.78049414598545 10.726099254635
endloop
endfacet
facet normal 0.522532174389864 0.852619567408232 4.15917937289789e-016
outer loop
vertex 4.9576950917267 3.77587953208415 14.3507901982379
vertex 5.93545913257004 3.3405047503211 -1.25231668703836e-030
vertex 4.9576950917267 3.77587953208415 -1.25231668703836e-030
endloop
endfacet
facet normal 0.284053140037847 0.958808538569948 1.5390573161529e-016
outer loop
vertex 5.93545913257004 3.3405047503211 -1.25231668703836e-030
vertex 4.9576950917267 3.77587953208415 14.3507901982379
vertex 5.93545913257004 3.3405047503211 14.3507901982379
endloop
endfacet
facet normal 0.500000000000008 -1.00721579615389e-016 -0.866025403784434
outer loop
vertex 14.9350618635533 14.4470098398181 10.7260992546351
vertex 15.9239037786331 9.78049414598545 11.1356909869041
vertex 14.9350618635531 9.78049414598545 10.726099254635
endloop
endfacet
facet normal 0.258819045102516 4.00055380914963e-015 -0.96592582628907
outer loop
vertex 15.9239037786331 9.78049414598545 11.1356909869041
vertex 14.9350618635533 14.4470098398181 10.7260992546351
vertex 15.9239037786329 14.4470098398181 11.1356909869041
endloop
endfacet
facet normal 0.96592582628906 -5.59946684749704e-016 0.258819045102552
outer loop
vertex 13.0247659757682 14.4470098398181 6.11423701419861
vertex 12.8850618635532 9.78049414598545 7.17539509911894
vertex 13.0247659757682 9.78049414598545 6.11423701419861
endloop
endfacet
facet normal 1.0 -8.45364190996395e-017 2.09411082547708e-015
outer loop
vertex 12.8850618635532 9.78049414598545 7.17539509911894
vertex 13.0247659757682 14.4470098398181 6.11423701419861
vertex 12.8850618635532 14.4470098398181 7.17539509911894
endloop
endfacet
facet normal -1.10497762706022e-014 3.0274264700458e-016 1.0
outer loop
vertex 16.9850618635534 9.78049414598545 3.07539509911898
vertex 18.0462199484735 14.4470098398181 3.21509921133379
vertex 16.9850618635532 14.4470098398181 3.07539509911897
endloop
endfacet
facet normal -0.258819045102526 -1.59532001880904e-015 0.965925826289067
outer loop
vertex 18.0462199484735 14.4470098398181 3.21509921133379
vertex 16.9850618635534 9.78049414598545 3.07539509911898
vertex 18.0462199484737 9.78049414598545 3.2150992113338
endloop
endfacet
facet normal 0.707106781186533 -4.67229626743525e-016 0.707106781186562
outer loop
vertex 14.0859240606885 14.4470098398181 4.27625729625412
vertex 13.4343577080371 9.78049414598541 5.12539509911893
vertex 14.0859240606885 9.78049414598541 4.27625729625409
endloop
endfacet
facet normal 0.866025403784445 -2.07943483041179e-015 0.499999999999989
outer loop
vertex 13.4343577080371 9.78049414598541 5.12539509911893
vertex 14.0859240606885 14.4470098398181 4.27625729625412
vertex 13.4343577080371 14.4470098398181 5.12539509911895
endloop
endfacet
facet normal -0.258819045102506 -5.99535733232177e-015 -0.965925826289072
outer loop
vertex 18.0462199484735 14.4470098398181 11.1356909869041
vertex 16.9850618635534 9.78049414598545 11.2753950991189
vertex 16.9850618635532 14.4470098398181 11.2753950991189
endloop
endfacet
facet normal -1.36607314700267e-014 -3.01939616111526e-016 -1.0
outer loop
vertex 16.9850618635534 9.78049414598545 11.2753950991189
vertex 18.0462199484735 14.4470098398181 11.1356909869041
vertex 18.0462199484737 9.78049414598545 11.1356909869041
endloop
endfacet
facet normal -0.258819045102532 -1.59532001880897e-015 0.965925826289065
outer loop
vertex 18.0462199484737 9.78049414598545 3.2150992113338
vertex 19.0350618635533 14.4470098398181 3.62469094360277
vertex 18.0462199484735 14.4470098398181 3.21509921133379
endloop
endfacet
facet normal -0.5 -1.06263167122038e-015 0.866025403784439
outer loop
vertex 19.0350618635533 14.4470098398181 3.62469094360277
vertex 18.0462199484737 9.78049414598545 3.2150992113338
vertex 19.0350618635535 9.78049414598545 3.62469094360291
endloop
endfacet
facet normal 0.96592582628906 -7.20190623240387e-016 -0.258819045102553
outer loop
vertex 13.0247659757682 9.7804941459855 8.23655318403928
vertex 13.4343577080371 14.4470098398181 9.22539509911892
vertex 13.4343577080371 9.78049414598545 9.22539509911894
endloop
endfacet
facet normal 0.866025403784446 -2.15743747554785e-015 -0.499999999999987
outer loop
vertex 13.4343577080371 14.4470098398181 9.22539509911892
vertex 13.0247659757682 9.7804941459855 8.23655318403928
vertex 13.0247659757682 14.4470098398181 8.23655318403927
endloop
endfacet
facet normal -0.233407033987492 0.972379121785922 3.41830427407162e-016
outer loop
vertex 8.05704584607378 3.2848653591356 14.3507901982379
vertex 9.0562858902967 3.66839248227402 -1.25231668703836e-030
vertex 8.05704584607378 3.2848653591356 -1.25231668703836e-030
endloop
endfacet
facet normal -0.477124117944293 0.87883592102046 3.8447512541701e-016
outer loop
vertex 9.0562858902967 3.66839248227402 -1.25231668703836e-030
vertex 8.05704584607378 3.2848653591356 14.3507901982379
vertex 9.0562858902967 3.66839248227402 14.3507901982379
endloop
endfacet
facet normal -7.23582123526528e-015 -3.01939616111395e-016 -1.0
outer loop
vertex 16.9850618635532 14.4470098398181 11.2753950991189
vertex 15.9239037786331 9.78049414598545 11.1356909869041
vertex 15.9239037786329 14.4470098398181 11.1356909869041
endloop
endfacet
facet normal 0.258819045102516 4.00055380914963e-015 -0.96592582628907
outer loop
vertex 15.9239037786331 9.78049414598545 11.1356909869041
vertex 16.9850618635532 14.4470098398181 11.2753950991189
vertex 16.9850618635534 9.78049414598545 11.2753950991189
endloop
endfacet
facet normal 0.258819045102522 6.71929782326117e-015 0.965925826289068
outer loop
vertex 15.9239037786331 9.78049414598545 3.21509921133376
vertex 16.9850618635532 14.4470098398181 3.07539509911897
vertex 15.9239037786329 14.4470098398181 3.21509921133379
endloop
endfacet
facet normal -4.61595492594509e-015 3.02742647004741e-016 1.0
outer loop
vertex 16.9850618635532 14.4470098398181 3.07539509911897
vertex 15.9239037786331 9.78049414598545 3.21509921133376
vertex 16.9850618635534 9.78049414598545 3.07539509911898
endloop
endfacet
facet normal -1.0 -1.93868438490236e-014 1.96044417704232e-016
outer loop
vertex 21.0850618635532 14.4470098398181 7.17539509911894
vertex 20.9453577513384 9.7804941459855 6.11423701419861
vertex 21.0850618635534 9.78049414598545 7.17539509911895
endloop
endfacet
facet normal -0.965925826289071 -9.50092118142734e-015 0.258819045102512
outer loop
vertex 20.9453577513384 9.7804941459855 6.11423701419861
vertex 21.0850618635532 14.4470098398181 7.17539509911894
vertex 20.9453577513384 14.4470098398181 6.11423701419861
endloop
endfacet
facet normal -0.500000000000007 -1.06263167122043e-015 0.866025403784435
outer loop
vertex 19.0350618635535 9.78049414598545 3.62469094360291
vertex 19.8841996664181 14.4470098398181 4.27625729625412
vertex 19.0350618635533 14.4470098398181 3.62469094360277
endloop
endfacet
facet normal -0.707106781186542 -1.65121578920489e-015 0.707106781186553
outer loop
vertex 19.8841996664181 14.4470098398181 4.27625729625412
vertex 19.0350618635535 9.78049414598545 3.62469094360291
vertex 19.8841996664181 9.78049414598545 4.27625729625409
endloop
endfacet
facet normal 0.500000000000001 6.01612267925005e-015 0.866025403784438
outer loop
vertex 14.9350618635533 9.78049414598545 3.62469094360282
vertex 14.0859240606885 14.4470098398181 4.27625729625412
vertex 14.0859240606885 9.78049414598541 4.27625729625409
endloop
endfacet
facet normal 0.707106781186533 -4.67229626743525e-016 0.707106781186562
outer loop
vertex 14.0859240606885 14.4470098398181 4.27625729625412
vertex 14.9350618635533 9.78049414598545 3.62469094360282
vertex 14.9350618635533 14.4470098398181 3.62469094360277
endloop
endfacet
facet normal -0.866025403784432 4.38867494492887e-015 -0.500000000000011
outer loop
vertex 20.5357660190695 14.4470098398181 9.22539509911893
vertex 20.9453577513384 9.78049414598545 8.23655318403928
vertex 20.5357660190695 9.78049414598545 9.22539509911894
endloop
endfacet
facet normal -0.96592582628907 -1.04103722050633e-014 -0.258819045102513
outer loop
vertex 20.9453577513384 9.78049414598545 8.23655318403928
vertex 20.5357660190695 14.4470098398181 9.22539509911893
vertex 20.9453577513384 14.4470098398181 8.23655318403927
endloop
endfacet
facet normal 0.258819045102522 6.71929782326117e-015 0.965925826289068
outer loop
vertex 15.9239037786331 9.78049414598545 3.21509921133376
vertex 14.9350618635533 14.4470098398181 3.62469094360277
vertex 14.9350618635533 9.78049414598545 3.62469094360282
endloop
endfacet
facet normal 0.499999999999998 6.01612267925013e-015 0.86602540378444
outer loop
vertex 14.9350618635533 14.4470098398181 3.62469094360277
vertex 15.9239037786331 9.78049414598545 3.21509921133376
vertex 15.9239037786329 14.4470098398181 3.21509921133379
endloop
endfacet
facet normal -0.707106781186547 4.45881121687886e-015 -0.707106781186548
outer loop
vertex 19.8841996664181 14.4470098398181 10.0745329019838
vertex 19.0350618635535 9.78049414598545 10.7260992546351
vertex 19.0350618635533 14.4470098398181 10.7260992546351
endloop
endfacet
facet normal -0.500000000000019 -5.05033125938335e-015 -0.866025403784428
outer loop
vertex 19.0350618635535 9.78049414598545 10.7260992546351
vertex 19.8841996664181 14.4470098398181 10.0745329019838
vertex 19.8841996664179 9.78049414598545 10.0745329019838
endloop
endfacet
facet normal 0.866025403784446 -2.07943483041177e-015 0.499999999999987
outer loop
vertex 13.4343577080371 14.4470098398181 5.12539509911895
vertex 13.0247659757682 9.78049414598545 6.11423701419861
vertex 13.4343577080371 9.78049414598541 5.12539509911893
endloop
endfacet
facet normal 0.965925826289059 -5.59946684749711e-016 0.258819045102554
outer loop
vertex 13.0247659757682 9.78049414598545 6.11423701419861
vertex 13.4343577080371 14.4470098398181 5.12539509911895
vertex 13.0247659757682 14.4470098398181 6.11423701419861
endloop
endfacet
facet normal -0.500000000000013 -5.05033125938355e-015 -0.866025403784431
outer loop
vertex 19.0350618635533 14.4470098398181 10.7260992546351
vertex 18.0462199484737 9.78049414598545 11.1356909869041
vertex 18.0462199484735 14.4470098398181 11.1356909869041
endloop
endfacet
facet normal -0.258819045102513 -5.99535733232192e-015 -0.965925826289071
outer loop
vertex 18.0462199484737 9.78049414598545 11.1356909869041
vertex 19.0350618635533 14.4470098398181 10.7260992546351
vertex 19.0350618635535 9.78049414598545 10.7260992546351
endloop
endfacet
facet normal -0.707106781186547 4.45881121687886e-015 -0.707106781186548
outer loop
vertex 19.8841996664181 14.4470098398181 10.0745329019838
vertex 20.5357660190695 9.78049414598545 9.22539509911894
vertex 19.8841996664179 9.78049414598545 10.0745329019838
endloop
endfacet
facet normal -0.866025403784432 4.38867494492889e-015 -0.500000000000012
outer loop
vertex 20.5357660190695 9.78049414598545 9.22539509911894
vertex 19.8841996664181 14.4470098398181 10.0745329019838
vertex 20.5357660190695 14.4470098398181 9.22539509911893
endloop
endfacet
facet normal -0.96592582628907 -1.04103722050634e-014 -0.258819045102513
outer loop
vertex 20.9453577513384 14.4470098398181 8.23655318403927
vertex 21.0850618635534 9.78049414598545 7.17539509911895
vertex 20.9453577513384 9.78049414598545 8.23655318403928
endloop
endfacet
facet normal -1.0 -1.93868438490236e-014 -1.87133307808589e-015
outer loop
vertex 21.0850618635534 9.78049414598545 7.17539509911895
vertex 20.9453577513384 14.4470098398181 8.23655318403927
vertex 21.0850618635532 14.4470098398181 7.17539509911894
endloop
endfacet
facet normal 0.0 0.0 1.0
outer loop
vertex 0.275870832551101 5.05429722885991 14.3507901982379
vertex 0.275870832551101 9.48893225253831 14.3507901982379
vertex -0.0753180923938718 7.27161474069911 14.3507901982379
endloop
endfacet
facet normal 0.0 0.0 1.0
outer loop
vertex 0.275870832551101 9.48893225253831 14.3507901982379
vertex 0.275870832551101 5.05429722885991 14.3507901982379
vertex 1.29506194532639 3.05401785661319 14.3507901982379
endloop
endfacet
facet normal 0.0 0.0 1.0
outer loop
vertex 0.275870832551101 9.48893225253831 14.3507901982379
vertex 1.29506194532639 3.05401785661319 14.3507901982379
vertex 1.29506194532639 11.4892417313379 14.3507901982379
endloop
endfacet
facet normal 0.0 0.0 1.0
outer loop
vertex 1.29506194532639 11.4892417313379 14.3507901982379
vertex 1.29506194532639 3.05401785661319 14.3507901982379
vertex 2.88248012263918 1.4665996793004 14.3507901982379
endloop
endfacet
facet normal 0.0 0.0 1.0
outer loop
vertex 1.29506194532639 11.4892417313379 14.3507901982379
vertex 2.88248012263918 1.4665996793004 14.3507901982379
vertex 2.88248012263918 13.0766599086506 14.3507901982379
endloop
endfacet
facet normal 0.0 0.0 1.0
outer loop
vertex 2.88248012263918 13.0766599086506 14.3507901982379
vertex 2.88248012263918 1.4665996793004 14.3507901982379
vertex 3.00148620815505 7.37910680826804 14.3507901982379
endloop
endfacet
facet normal 0.0 0.0 1.0
outer loop
vertex 3.00148620815505 7.37910680826804 14.3507901982379
vertex 2.88248012263918 1.4665996793004 14.3507901982379
vertex 3.11332260740278 6.31465091910926 14.3507901982379
endloop
endfacet
facet normal 0.0 0.0 1.0
outer loop
vertex 3.11332260740278 6.31465091910926 14.3507901982379
vertex 2.88248012263918 1.4665996793004 14.3507901982379
vertex 4.88275949488584 0.447408566525074 14.3507901982379
endloop
endfacet
facet normal 0.0 0.0 1.0
outer loop
vertex 3.11332260740278 6.31465091910926 14.3507901982379
vertex 4.88275949488584 0.447408566525074 14.3507901982379
vertex 3.4968497305412 5.3154108748863 14.3507901982379
endloop
endfacet
facet normal 0.0 0.0 1.0
outer loop
vertex 3.4968497305412 5.3154108748863 14.3507901982379
vertex 4.88275949488584 0.447408566525074 14.3507901982379
vertex 4.12593083793697 4.44948323329074 14.3507901982379
endloop
endfacet
facet normal 0.0 0.0 1.0
outer loop
vertex 4.12593083793697 4.44948323329074 14.3507901982379
vertex 4.88275949488584 0.447408566525074 14.3507901982379
vertex 4.9576950917267 3.77587953208415 14.3507901982379
endloop
endfacet
facet normal 0.0 0.0 1.0
outer loop
vertex 4.9576950917267 3.77587953208415 14.3507901982379
vertex 4.88275949488584 0.447408566525074 14.3507901982379
vertex 7.10007700672505 0.0962196415801464 14.3507901982379
endloop
endfacet
facet normal 0.0 0.0 1.0
outer loop
vertex 4.9576950917267 3.77587953208415 14.3507901982379
vertex 7.10007700672505 0.0962196415801464 14.3507901982379
vertex 5.93545913257004 3.3405047503211 14.3507901982379
endloop
endfacet
facet normal 0.0 0.0 1.0
outer loop
vertex 5.93545913257004 3.3405047503211 14.3507901982379
vertex 7.10007700672505 0.0962196415801464 14.3507901982379
vertex 6.99258995691495 3.17302895988782 14.3507901982379
endloop
endfacet
facet normal 0.0 0.0 1.0
outer loop
vertex 6.99258995691495 3.17302895988782 14.3507901982379
vertex 7.10007700672505 0.0962196415801464 14.3507901982379
vertex 8.05704584607378 3.2848653591356 14.3507901982379
endloop
endfacet
facet normal 0.0 0.0 1.0
outer loop
vertex 8.05704584607378 3.2848653591356 14.3507901982379
vertex 7.10007700672505 0.0962196415801464 14.3507901982379
vertex 22.1313756548528 0.0962196415801464 14.3507901982379
endloop
endfacet
facet normal 0.0 0.0 1.0
outer loop
vertex 8.05704584607378 3.2848653591356 14.3507901982379
vertex 22.1313756548528 0.0962196415801464 14.3507901982379
vertex 9.0562858902967 3.66839248227402 14.3507901982379
endloop
endfacet
facet normal 0.0 0.0 1.0
outer loop
vertex 9.0562858902967 3.66839248227402 14.3507901982379
vertex 22.1313756548528 0.0962196415801464 14.3507901982379
vertex 9.9222135318923 4.29747358966974 14.3507901982379
endloop
endfacet
facet normal 0.0 0.0 1.0
outer loop
vertex 9.9222135318923 4.29747358966974 14.3507901982379
vertex 22.1313756548528 0.0962196415801464 14.3507901982379
vertex 10.2990054324031 4.76273533541276 14.3507901982379
endloop
endfacet
facet normal 0.0 0.0 1.0
outer loop
vertex 10.2990054324031 4.76273533541276 14.3507901982379
vertex 22.1313756548528 0.0962196415801464 14.3507901982379
vertex 22.1313756548528 4.76273533541276 14.3507901982379
endloop
endfacet
facet normal 0.0 0.0 1.0
outer loop
vertex 2.88248012263918 13.0766599086506 14.3507901982379
vertex 3.16896199858833 8.43623763261304 14.3507901982379
vertex 4.88275949488584 14.0958670782542 14.3507901982379
endloop
endfacet
facet normal 0.0 0.0 1.0
outer loop
vertex 3.16896199858833 8.43623763261304 14.3507901982379
vertex 2.88248012263918 13.0766599086506 14.3507901982379
vertex 3.00148620815505 7.37910680826804 14.3507901982379
endloop
endfacet
facet normal 0.0 0.0 1.0
outer loop
vertex 4.88275949488584 14.0958670782542 14.3507901982379
vertex 3.16896199858833 8.43623763261304 14.3507901982379
vertex 3.60433678035138 9.41400167345638 14.3507901982379
endloop
endfacet
facet normal 0.0 0.0 1.0
outer loop
vertex 4.88275949488584 14.0958670782542 14.3507901982379
vertex 3.60433678035138 9.41400167345638 14.3507901982379
vertex 4.27794048155797 10.2457659272461 14.3507901982379
endloop
endfacet
facet normal 0.0 0.0 1.0
outer loop
vertex 4.88275949488584 14.0958670782542 14.3507901982379
vertex 4.27794048155797 10.2457659272461 14.3507901982379
vertex 5.14386812315357 10.8748470346418 14.3507901982379
endloop
endfacet
facet normal 0.0 0.0 1.0
outer loop
vertex 4.88275949488584 14.0958670782542 14.3507901982379
vertex 5.14386812315357 10.8748470346418 14.3507901982379
vertex 7.10007700672505 14.447009839818 14.3507901982379
endloop
endfacet
facet normal 0.0 0.0 1.0
outer loop
vertex 7.10007700672505 14.447009839818 14.3507901982379
vertex 5.14386812315357 10.8748470346418 14.3507901982379
vertex 6.14310816737649 11.2583741577802 14.3507901982379
endloop
endfacet
facet normal 0.0 0.0 1.0
outer loop
vertex 7.10007700672505 14.447009839818 14.3507901982379
vertex 6.14310816737649 11.2583741577802 14.3507901982379
vertex 7.20756405653532 11.3702105570279 14.3507901982379
endloop
endfacet
facet normal 0.0 0.0 1.0
outer loop
vertex 7.10007700672505 14.447009839818 14.3507901982379
vertex 7.20756405653532 11.3702105570279 14.3507901982379
vertex 22.1313756548528 14.447009839818 14.3507901982379
endloop
endfacet
facet normal 0.0 0.0 1.0
outer loop
vertex 22.1313756548528 14.447009839818 14.3507901982379
vertex 7.20756405653532 11.3702105570279 14.3507901982379
vertex 8.26469488088023 11.2027347665947 14.3507901982379
endloop
endfacet
facet normal 0.0 0.0 1.0
outer loop
vertex 22.1313756548528 14.447009839818 14.3507901982379
vertex 8.26469488088023 11.2027347665947 14.3507901982379
vertex 9.24245892172357 10.7673599848317 14.3507901982379
endloop
endfacet
facet normal 0.0 0.0 1.0
outer loop
vertex 22.1313756548528 14.447009839818 14.3507901982379
vertex 9.24245892172357 10.7673599848317 14.3507901982379
vertex 10.0742231755133 10.0937562836251 14.3507901982379
endloop
endfacet
facet normal 0.0 0.0 1.0
outer loop
vertex 22.1313756548528 14.447009839818 14.3507901982379
vertex 10.0742231755133 10.0937562836251 14.3507901982379
vertex 10.2744176437896 9.81818939449584 14.3507901982379
endloop
endfacet
facet normal 0.0 0.0 1.0
outer loop
vertex 22.1313756548528 14.447009839818 14.3507901982379
vertex 10.2744176437896 9.81818939449584 14.3507901982379
vertex 13.8458515964828 9.78049414598545 14.3507901982379
endloop
endfacet
facet normal 0.0 0.0 1.0
outer loop
vertex 22.1313756548528 14.447009839818 14.3507901982379
vertex 13.8458515964828 9.78049414598545 14.3507901982379
vertex 22.1313756548528 9.78049414598545 14.3507901982379
endloop
endfacet
facet normal 0.0 -1.0 0.0
outer loop
vertex 22.1313756548528 9.78049414598545 1.03617722990088e-015
vertex 18.0462199484737 9.78049414598545 3.2150992113338
vertex 16.9850618635534 9.78049414598545 3.07539509911898
endloop
endfacet
facet normal 0.0 -1.0 0.0
outer loop
vertex 18.0462199484737 9.78049414598545 3.2150992113338
vertex 22.1313756548528 9.78049414598545 1.03617722990088e-015
vertex 19.0350618635535 9.78049414598545 3.62469094360291
endloop
endfacet
facet normal 0.0 -1.0 0.0
outer loop
vertex 19.0350618635535 9.78049414598545 3.62469094360291
vertex 22.1313756548528 9.78049414598545 1.03617722990088e-015
vertex 26.2740373288617 9.78049414598545 7.17539509911894
endloop
endfacet
facet normal 0.0 -1.0 0.0
outer loop
vertex 19.0350618635535 9.78049414598545 3.62469094360291
vertex 26.2740373288617 9.78049414598545 7.17539509911894
vertex 19.8841996664181 9.78049414598545 4.27625729625409
endloop
endfacet
facet normal 0.0 -1.0 0.0
outer loop
vertex 19.8841996664181 9.78049414598545 4.27625729625409
vertex 26.2740373288617 9.78049414598545 7.17539509911894
vertex 20.5357660190695 9.7804941459855 5.12539509911896
endloop
endfacet
facet normal 0.0 -1.0 0.0
outer loop
vertex 20.5357660190695 9.7804941459855 5.12539509911896
vertex 26.2740373288617 9.78049414598545 7.17539509911894
vertex 20.9453577513384 9.7804941459855 6.11423701419861
endloop
endfacet
facet normal 0.0 -1.0 0.0
outer loop
vertex 20.9453577513384 9.7804941459855 6.11423701419861
vertex 26.2740373288617 9.78049414598545 7.17539509911894
vertex 21.0850618635534 9.78049414598545 7.17539509911895
endloop
endfacet
facet normal 0.0 -1.0 0.0
outer loop
vertex 21.0850618635534 9.78049414598545 7.17539509911895
vertex 26.2740373288617 9.78049414598545 7.17539509911894
vertex 22.1313756548528 9.78049414598545 14.3507901982379
endloop
endfacet
facet normal 0.0 -1.0 0.0
outer loop
vertex 21.0850618635534 9.78049414598545 7.17539509911895
vertex 22.1313756548528 9.78049414598545 14.3507901982379
vertex 20.9453577513384 9.78049414598545 8.23655318403928
endloop
endfacet
facet normal 0.0 -1.0 0.0
outer loop
vertex 20.9453577513384 9.78049414598545 8.23655318403928
vertex 22.1313756548528 9.78049414598545 14.3507901982379
vertex 20.5357660190695 9.78049414598545 9.22539509911894
endloop
endfacet
facet normal 0.0 -1.0 0.0
outer loop
vertex 20.5357660190695 9.78049414598545 9.22539509911894
vertex 22.1313756548528 9.78049414598545 14.3507901982379
vertex 19.8841996664179 9.78049414598545 10.0745329019838
endloop
endfacet
facet normal 0.0 -1.0 0.0
outer loop
vertex 19.8841996664179 9.78049414598545 10.0745329019838
vertex 22.1313756548528 9.78049414598545 14.3507901982379
vertex 19.0350618635535 9.78049414598545 10.7260992546351
endloop
endfacet
facet normal 0.0 -1.0 0.0
outer loop
vertex 19.0350618635535 9.78049414598545 10.7260992546351
vertex 22.1313756548528 9.78049414598545 14.3507901982379
vertex 18.0462199484737 9.78049414598545 11.1356909869041
endloop
endfacet
facet normal 0.0 -1.0 0.0
outer loop
vertex 18.0462199484737 9.78049414598545 11.1356909869041
vertex 22.1313756548528 9.78049414598545 14.3507901982379
vertex 16.9850618635534 9.78049414598545 11.2753950991189
endloop
endfacet
facet normal 0.0 -1.0 0.0
outer loop
vertex 10.3018025747439 9.78049414598545 -1.25231668703836e-030
vertex 13.0247659757682 9.78049414598545 6.11423701419861
vertex 10.3018025747439 9.78049414598545 14.3507901982379
endloop
endfacet
facet normal 0.0 -1.0 0.0
outer loop
vertex 13.0247659757682 9.78049414598545 6.11423701419861
vertex 10.3018025747439 9.78049414598545 -1.25231668703836e-030
vertex 13.4343577080371 9.78049414598541 5.12539509911893
endloop
endfacet
facet normal 0.0 -1.0 0.0
outer loop
vertex 13.4343577080371 9.78049414598541 5.12539509911893
vertex 10.3018025747439 9.78049414598545 -1.25231668703836e-030
vertex 14.0859240606885 9.78049414598541 4.27625729625409
endloop
endfacet
facet normal 0.0 -1.0 0.0
outer loop
vertex 14.0859240606885 9.78049414598541 4.27625729625409
vertex 10.3018025747439 9.78049414598545 -1.25231668703836e-030
vertex 14.9350618635533 9.78049414598545 3.62469094360282
endloop
endfacet
facet normal 0.0 -1.0 0.0
outer loop
vertex 14.9350618635533 9.78049414598545 3.62469094360282
vertex 10.3018025747439 9.78049414598545 -1.25231668703836e-030
vertex 22.1313756548528 9.78049414598545 1.03617722990088e-015
endloop
endfacet
facet normal 0.0 -1.0 0.0
outer loop
vertex 14.9350618635533 9.78049414598545 3.62469094360282
vertex 22.1313756548528 9.78049414598545 1.03617722990088e-015
vertex 15.9239037786331 9.78049414598545 3.21509921133376
endloop
endfacet
facet normal 0.0 -1.0 0.0
outer loop
vertex 15.9239037786331 9.78049414598545 3.21509921133376
vertex 22.1313756548528 9.78049414598545 1.03617722990088e-015
vertex 16.9850618635534 9.78049414598545 3.07539509911898
endloop
endfacet
facet normal 0.0 -1.0 0.0
outer loop
vertex 10.3018025747439 9.78049414598545 14.3507901982379
vertex 13.0247659757682 9.78049414598545 6.11423701419861
vertex 12.8850618635532 9.78049414598545 7.17539509911894
endloop
endfacet
facet normal 0.0 -1.0 0.0
outer loop
vertex 10.3018025747439 9.78049414598545 14.3507901982379
vertex 12.8850618635532 9.78049414598545 7.17539509911894
vertex 13.0247659757682 9.7804941459855 8.23655318403928
endloop
endfacet
facet normal 0.0 -1.0 0.0
outer loop
vertex 10.3018025747439 9.78049414598545 14.3507901982379
vertex 13.0247659757682 9.7804941459855 8.23655318403928
vertex 13.4343577080371 9.78049414598545 9.22539509911894
endloop
endfacet
facet normal 0.0 -1.0 0.0
outer loop
vertex 10.3018025747439 9.78049414598545 14.3507901982379
vertex 13.4343577080371 9.78049414598545 9.22539509911894
vertex 14.0859240606885 9.78049414598545 10.0745329019838
endloop
endfacet
facet normal 0.0 -1.0 0.0
outer loop
vertex 10.3018025747439 9.78049414598545 14.3507901982379
vertex 14.0859240606885 9.78049414598545 10.0745329019838
vertex 14.9350618635531 9.78049414598545 10.726099254635
endloop
endfacet
facet normal 0.0 -1.0 0.0
outer loop
vertex 10.3018025747439 9.78049414598545 14.3507901982379
vertex 14.9350618635531 9.78049414598545 10.726099254635
vertex 15.9239037786331 9.78049414598545 11.1356909869041
endloop
endfacet
facet normal 0.0 -1.0 0.0
outer loop
vertex 10.3018025747439 9.78049414598545 14.3507901982379
vertex 15.9239037786331 9.78049414598545 11.1356909869041
vertex 16.9850618635534 9.78049414598545 11.2753950991189
endloop
endfacet
facet normal 0.0 -1.0 0.0
outer loop
vertex 10.3018025747439 9.78049414598545 14.3507901982379
vertex 16.9850618635534 9.78049414598545 11.2753950991189
vertex 22.1313756548528 9.78049414598545 14.3507901982379
endloop
endfacet
facet normal 0.0 -1.0 0.0
outer loop
vertex 10.3018025747439 9.78049414598545 14.3507901982379
vertex 22.1313756548528 9.78049414598545 14.3507901982379
vertex 13.8458515964828 9.78049414598545 14.3507901982379
endloop
endfacet
facet normal -0.078449044770771 0.996918124709624 0.0
outer loop
vertex 7.10007700672505 14.447009839818 -1.25231668703836e-030
vertex 14.9350618635533 14.4470098398181 3.62469094360277
vertex 22.1313756548528 14.447009839818 -1.25231668703836e-030
endloop
endfacet
facet normal 0.0 1.0 0.0
outer loop
vertex 14.9350618635533 14.4470098398181 3.62469094360277
vertex 7.10007700672505 14.447009839818 -1.25231668703836e-030
vertex 14.0859240606885 14.4470098398181 4.27625729625412
endloop
endfacet
facet normal 0.0 1.0 0.0
outer loop
vertex 14.0859240606885 14.4470098398181 4.27625729625412
vertex 7.10007700672505 14.447009839818 -1.25231668703836e-030
vertex 13.4343577080371 14.4470098398181 5.12539509911895
endloop
endfacet
facet normal 0.0 1.0 0.0
outer loop
vertex 13.4343577080371 14.4470098398181 5.12539509911895
vertex 7.10007700672505 14.447009839818 -1.25231668703836e-030
vertex 7.10007700672505 14.447009839818 14.3507901982379
endloop
endfacet
facet normal 0.0 1.0 0.0
outer loop
vertex 22.1313756548528 14.447009839818 -1.25231668703836e-030
vertex 14.9350618635533 14.4470098398181 3.62469094360277
vertex 15.9239037786329 14.4470098398181 3.21509921133379
endloop
endfacet
facet normal 0.0 1.0 0.0
outer loop
vertex 22.1313756548528 14.447009839818 -1.25231668703836e-030
vertex 15.9239037786329 14.4470098398181 3.21509921133379
vertex 16.9850618635532 14.4470098398181 3.07539509911897
endloop
endfacet
facet normal 0.0 1.0 0.0
outer loop
vertex 13.4343577080371 14.4470098398181 5.12539509911895
vertex 7.10007700672505 14.447009839818 14.3507901982379
vertex 13.0247659757682 14.4470098398181 6.11423701419861
endloop
endfacet
facet normal 0.0 1.0 0.0
outer loop
vertex 13.0247659757682 14.4470098398181 6.11423701419861
vertex 7.10007700672505 14.447009839818 14.3507901982379
vertex 12.8850618635532 14.4470098398181 7.17539509911894
endloop
endfacet
facet normal 0.0 1.0 0.0
outer loop
vertex 12.8850618635532 14.4470098398181 7.17539509911894
vertex 7.10007700672505 14.447009839818 14.3507901982379
vertex 13.0247659757682 14.4470098398181 8.23655318403927
endloop
endfacet
facet normal 0.0 1.0 0.0
outer loop
vertex 13.0247659757682 14.4470098398181 8.23655318403927
vertex 7.10007700672505 14.447009839818 14.3507901982379
vertex 13.4343577080371 14.4470098398181 9.22539509911892
endloop
endfacet
facet normal 0.0 1.0 0.0
outer loop
vertex 13.4343577080371 14.4470098398181 9.22539509911892
vertex 7.10007700672505 14.447009839818 14.3507901982379
vertex 14.0859240606885 14.4470098398181 10.0745329019838
endloop
endfacet
facet normal 0.0 1.0 0.0
outer loop
vertex 14.0859240606885 14.4470098398181 10.0745329019838
vertex 7.10007700672505 14.447009839818 14.3507901982379
vertex 14.9350618635533 14.4470098398181 10.7260992546351
endloop
endfacet
facet normal 0.0 1.0 0.0
outer loop
vertex 14.9350618635533 14.4470098398181 10.7260992546351
vertex 7.10007700672505 14.447009839818 14.3507901982379
vertex 15.9239037786329 14.4470098398181 11.1356909869041
endloop
endfacet
facet normal 0.0 1.0 0.0
outer loop
vertex 15.9239037786329 14.4470098398181 11.1356909869041
vertex 7.10007700672505 14.447009839818 14.3507901982379
vertex 16.9850618635532 14.4470098398181 11.2753950991189
endloop
endfacet
facet normal 0.0 1.0 0.0
outer loop
vertex 22.1313756548528 14.447009839818 -1.25231668703836e-030
vertex 19.0350618635533 14.4470098398181 3.62469094360277
vertex 26.2740373288617 14.447009839818 7.17539509911894
endloop
endfacet
facet normal 0.0 1.0 0.0
outer loop
vertex 19.0350618635533 14.4470098398181 3.62469094360277
vertex 22.1313756548528 14.447009839818 -1.25231668703836e-030
vertex 18.0462199484735 14.4470098398181 3.21509921133379
endloop
endfacet
facet normal 0.0 1.0 0.0
outer loop
vertex 18.0462199484735 14.4470098398181 3.21509921133379
vertex 22.1313756548528 14.447009839818 -1.25231668703836e-030
vertex 16.9850618635532 14.4470098398181 3.07539509911897
endloop
endfacet
facet normal 0.0 1.0 0.0
outer loop
vertex 26.2740373288617 14.447009839818 7.17539509911894
vertex 19.0350618635533 14.4470098398181 3.62469094360277
vertex 19.8841996664181 14.4470098398181 4.27625729625412
endloop
endfacet
facet normal 0.0 1.0 0.0
outer loop
vertex 26.2740373288617 14.447009839818 7.17539509911894
vertex 19.8841996664181 14.4470098398181 4.27625729625412
vertex 20.5357660190695 14.4470098398181 5.12539509911895
endloop
endfacet
facet normal 0.0 1.0 0.0
outer loop
vertex 26.2740373288617 14.447009839818 7.17539509911894
vertex 20.5357660190695 14.4470098398181 5.12539509911895
vertex 20.9453577513384 14.4470098398181 6.11423701419861
endloop
endfacet
facet normal 0.0 1.0 0.0
outer loop
vertex 26.2740373288617 14.447009839818 7.17539509911894
vertex 20.9453577513384 14.4470098398181 6.11423701419861
vertex 21.0850618635532 14.4470098398181 7.17539509911894
endloop
endfacet
facet normal 0.0 1.0 0.0
outer loop
vertex 26.2740373288617 14.447009839818 7.17539509911894
vertex 21.0850618635532 14.4470098398181 7.17539509911894
vertex 20.9453577513384 14.4470098398181 8.23655318403927
endloop
endfacet
facet normal 0.0 1.0 0.0
outer loop
vertex 26.2740373288617 14.447009839818 7.17539509911894
vertex 20.9453577513384 14.4470098398181 8.23655318403927
vertex 22.1313756548528 14.447009839818 14.3507901982379
endloop
endfacet
facet normal 0.0 1.0 0.0
outer loop
vertex 22.1313756548528 14.447009839818 14.3507901982379
vertex 20.9453577513384 14.4470098398181 8.23655318403927
vertex 20.5357660190695 14.4470098398181 9.22539509911893
endloop
endfacet
facet normal 0.0 1.0 0.0
outer loop
vertex 22.1313756548528 14.447009839818 14.3507901982379
vertex 20.5357660190695 14.4470098398181 9.22539509911893
vertex 19.8841996664181 14.4470098398181 10.0745329019838
endloop
endfacet
facet normal 0.0 1.0 0.0
outer loop
vertex 22.1313756548528 14.447009839818 14.3507901982379
vertex 19.8841996664181 14.4470098398181 10.0745329019838
vertex 19.0350618635533 14.4470098398181 10.7260992546351
endloop
endfacet
facet normal 0.0 1.0 0.0
outer loop
vertex 22.1313756548528 14.447009839818 14.3507901982379
vertex 19.0350618635533 14.4470098398181 10.7260992546351
vertex 18.0462199484735 14.4470098398181 11.1356909869041
endloop
endfacet
facet normal 0.0 1.0 0.0
outer loop
vertex 22.1313756548528 14.447009839818 14.3507901982379
vertex 18.0462199484735 14.4470098398181 11.1356909869041
vertex 16.9850618635532 14.4470098398181 11.2753950991189
endloop
endfacet
facet normal 0.0 1.0 0.0
outer loop
vertex 22.1313756548528 14.447009839818 14.3507901982379
vertex 16.9850618635532 14.4470098398181 11.2753950991189
vertex 7.10007700672505 14.447009839818 14.3507901982379
endloop
endfacet
facet normal -0.309010033568705 0.951058777970041 0.0
outer loop
vertex 4.88275949488584 14.0958670782542 14.3507901982379
vertex 7.10007700672505 14.447009839818 -1.25231668703836e-030
vertex 4.88275949488584 14.0958670782542 -1.25231668703836e-030
endloop
endfacet
facet normal -0.078449044770771 0.996918124709624 0.0
outer loop
vertex 7.10007700672505 14.447009839818 -1.25231668703836e-030
vertex 4.88275949488584 14.0958670782542 14.3507901982379
vertex 7.10007700672505 14.447009839818 14.3507901982379
endloop
endfacet
facet normal -0.587787487617548 0.809015370311499 0.0
outer loop
vertex 2.88248012263918 13.0766599086506 14.3507901982379
vertex 4.88275949488584 14.0958670782542 -1.25231668703836e-030
vertex 2.88248012263918 13.0766599086506 -1.25231668703836e-030
endloop
endfacet
facet normal -0.309010033568705 0.951058777970041 0.0
outer loop
vertex 4.88275949488584 14.0958670782542 -1.25231668703836e-030
vertex 2.88248012263918 13.0766599086506 14.3507901982379
vertex 4.88275949488584 14.0958670782542 14.3507901982379
endloop
endfacet
facet normal -0.587787487617548 0.809015370311499 0.0
outer loop
vertex 2.88248012263918 13.0766599086506 14.3507901982379
vertex 1.29506194532639 11.4892417313379 -1.25231668703836e-030
vertex 1.29506194532639 11.4892417313379 14.3507901982379
endloop
endfacet
facet normal -0.809019032517763 0.587782447019323 0.0
outer loop
vertex 1.29506194532639 11.4892417313379 -1.25231668703836e-030
vertex 2.88248012263918 13.0766599086506 14.3507901982379
vertex 2.88248012263918 13.0766599086506 -1.25231668703836e-030
endloop
endfacet
facet normal -0.809019032517763 0.587782447019323 0.0
outer loop
vertex 1.29506194532639 11.4892417313379 14.3507901982379
vertex 0.275870832551101 9.48893225253831 -1.25231668703836e-030
vertex 0.275870832551101 9.48893225253831 14.3507901982379
endloop
endfacet
facet normal -0.951057565251715 0.309013765999964 0.0
outer loop
vertex 0.275870832551101 9.48893225253831 -1.25231668703836e-030
vertex 1.29506194532639 11.4892417313379 14.3507901982379
vertex 1.29506194532639 11.4892417313379 -1.25231668703836e-030
endloop
endfacet
facet normal 0.0 0.0 1.0
outer loop
vertex 13.8458515964828 9.78049414598545 14.3507901982379
vertex 10.2744176437896 9.81818939449584 14.3507901982379
vertex 10.3018025747439 9.78049414598545 14.3507901982379
endloop
endfacet
facet normal 0.86602825822234 -2.56967345100812e-017 -0.499995055935937
outer loop
vertex 22.1313756548528 14.447009839818 -1.25231668703836e-030
vertex 26.2740373288617 9.78049414598545 7.17539509911894
vertex 22.1313756548528 9.78049414598545 1.03617722990088e-015
endloop
endfacet
facet normal 0.86602825822234 -2.56967345100812e-017 -0.499995055935937
outer loop
vertex 26.2740373288617 9.78049414598545 7.17539509911894
vertex 22.1313756548528 14.447009839818 -1.25231668703836e-030
vertex 26.2740373288617 14.447009839818 7.17539509911894
endloop
endfacet
facet normal 0.86602825822234 0.0 0.499995055935937
outer loop
vertex 26.2740373288617 14.447009839818 7.17539509911894
vertex 22.1313756548528 9.78049414598545 14.3507901982379
vertex 26.2740373288617 9.78049414598545 7.17539509911894
endloop
endfacet
facet normal 0.86602825822234 0.0 0.499995055935937
outer loop
vertex 22.1313756548528 9.78049414598545 14.3507901982379
vertex 26.2740373288617 14.447009839818 7.17539509911894
vertex 22.1313756548528 14.447009839818 14.3507901982379
endloop
endfacet
facet normal 0.86602825822234 0.0 0.499995055935937
outer loop
vertex 26.2740373288617 4.76273533541276 7.17539509911894
vertex 22.1313756548528 0.0962196415801464 14.3507901982379
vertex 26.2740373288617 0.0962196415801464 7.17539509911894
endloop
endfacet
facet normal 0.86602825822234 0.0 0.499995055935937
outer loop
vertex 22.1313756548528 0.0962196415801464 14.3507901982379
vertex 26.2740373288617 4.76273533541276 7.17539509911894
vertex 22.1313756548528 4.76273533541276 14.3507901982379
endloop
endfacet
facet normal 0.866028258222339 -7.70902035302422e-017 -0.499995055935937
outer loop
vertex 22.1313756548528 4.76273533541276 2.15034046723568e-015
vertex 26.2740373288617 0.0962196415801464 7.17539509911894
vertex 22.1313756548528 0.0962196415801464 3.18651769713656e-015
endloop
endfacet
facet normal 0.866028258222339 -7.70902035302422e-017 -0.499995055935937
outer loop
vertex 26.2740373288617 0.0962196415801464 7.17539509911894
vertex 22.1313756548528 4.76273533541276 2.15034046723568e-015
vertex 26.2740373288617 4.76273533541276 7.17539509911894
endloop
endfacet
facet normal 0.0 -1.0 0.0
outer loop
vertex 26.2740373288617 0.0962196415801464 7.17539509911894
vertex 13.8458515964828 0.0962196415801464 3.18651769713656e-015
vertex 22.1313756548528 0.0962196415801464 3.18651769713656e-015
endloop
endfacet
facet normal 0.0 -1.0 0.0
outer loop
vertex 13.8458515964828 0.0962196415801464 3.18651769713656e-015
vertex 26.2740373288617 0.0962196415801464 7.17539509911894
vertex 19.0350618635533 0.0962196415801464 3.62469094360277
endloop
endfacet
facet normal 0.0 -1.0 0.0
outer loop
vertex 13.8458515964828 0.0962196415801464 3.18651769713656e-015
vertex 19.0350618635533 0.0962196415801464 3.62469094360277
vertex 18.0462199484735 0.0962196415801464 3.21509921133379
endloop
endfacet
facet normal 0.0 -1.0 0.0
outer loop
vertex 13.8458515964828 0.0962196415801464 3.18651769713656e-015
vertex 18.0462199484735 0.0962196415801464 3.21509921133379
vertex 16.9850618635532 0.0962196415801464 3.07539509911897
endloop
endfacet
facet normal 0.0 -1.0 0.0
outer loop
vertex 19.0350618635533 0.0962196415801464 3.62469094360277
vertex 26.2740373288617 0.0962196415801464 7.17539509911894
vertex 19.8841996664181 0.0962196415801464 4.27625729625412
endloop
endfacet
facet normal 0.0 -1.0 0.0
outer loop
vertex 19.8841996664181 0.0962196415801464 4.27625729625412
vertex 26.2740373288617 0.0962196415801464 7.17539509911894
vertex 20.5357660190695 0.0962196415801464 5.12539509911895
endloop
endfacet
facet normal 0.0 -1.0 0.0
outer loop
vertex 20.5357660190695 0.0962196415801464 5.12539509911895
vertex 26.2740373288617 0.0962196415801464 7.17539509911894
vertex 20.9453577513384 0.0962196415801464 6.11423701419861
endloop
endfacet
facet normal 0.0 -1.0 0.0
outer loop
vertex 20.9453577513384 0.0962196415801464 6.11423701419861
vertex 26.2740373288617 0.0962196415801464 7.17539509911894
vertex 21.0850618635532 0.0962196415801464 7.17539509911894
endloop
endfacet
facet normal 0.0 -1.0 0.0
outer loop
vertex 21.0850618635532 0.0962196415801464 7.17539509911894
vertex 26.2740373288617 0.0962196415801464 7.17539509911894
vertex 22.1313756548528 0.0962196415801464 14.3507901982379
endloop
endfacet
facet normal 0.0 -1.0 0.0
outer loop
vertex 21.0850618635532 0.0962196415801464 7.17539509911894
vertex 22.1313756548528 0.0962196415801464 14.3507901982379
vertex 20.9453577513384 0.0962196415801464 8.23655318403927
endloop
endfacet
facet normal 0.0 -1.0 0.0
outer loop
vertex 20.9453577513384 0.0962196415801464 8.23655318403927
vertex 22.1313756548528 0.0962196415801464 14.3507901982379
vertex 20.5357660190695 0.0962196415801464 9.22539509911893
endloop
endfacet
facet normal 0.0 -1.0 0.0
outer loop
vertex 20.5357660190695 0.0962196415801464 9.22539509911893
vertex 22.1313756548528 0.0962196415801464 14.3507901982379
vertex 19.8841996664181 0.0962196415801464 10.0745329019838
endloop
endfacet
facet normal 0.0 -1.0 0.0
outer loop
vertex 19.8841996664181 0.0962196415801464 10.0745329019838
vertex 22.1313756548528 0.0962196415801464 14.3507901982379
vertex 19.0350618635533 0.0962196415801464 10.7260992546351
endloop
endfacet
facet normal 0.0 -1.0 0.0
outer loop
vertex 19.0350618635533 0.0962196415801464 10.7260992546351
vertex 22.1313756548528 0.0962196415801464 14.3507901982379
vertex 18.0462199484735 0.0962196415801464 11.1356909869041
endloop
endfacet
facet normal 0.0 -1.0 0.0
outer loop
vertex 18.0462199484735 0.0962196415801464 11.1356909869041
vertex 22.1313756548528 0.0962196415801464 14.3507901982379
vertex 16.9850618635532 0.0962196415801464 11.2753950991189
endloop
endfacet
facet normal 0.0 -1.0 0.0
outer loop
vertex 13.8458515964828 0.0962196415801464 3.18651769713656e-015
vertex 7.10007700672505 0.0962196415801464 14.3507901982379
vertex 7.10007700672505 0.0962196415801464 -1.25231668703836e-030
endloop
endfacet
facet normal -0.0784591684942985 -0.996917328006281 0.0
outer loop
vertex 7.10007700672505 0.0962196415801464 14.3507901982379
vertex 13.8458515964828 0.0962196415801464 3.18651769713656e-015
vertex 13.4343577080371 0.0962196415801464 5.12539509911895
endloop
endfacet
facet normal 0.0 -1.0 0.0
outer loop
vertex 13.4343577080371 0.0962196415801464 5.12539509911895
vertex 13.8458515964828 0.0962196415801464 3.18651769713656e-015
vertex 14.0859240606885 0.0962196415801464 4.27625729625412
endloop
endfacet
facet normal 0.0 -1.0 0.0
outer loop
vertex 14.0859240606885 0.0962196415801464 4.27625729625412
vertex 13.8458515964828 0.0962196415801464 3.18651769713656e-015
vertex 14.9350618635533 0.0962196415801464 3.62469094360277
endloop
endfacet
facet normal 0.0 -1.0 0.0
outer loop
vertex 14.9350618635533 0.0962196415801464 3.62469094360277
vertex 13.8458515964828 0.0962196415801464 3.18651769713656e-015
vertex 15.9239037786329 0.0962196415801464 3.21509921133379
endloop
endfacet
facet normal 0.0 -1.0 0.0
outer loop
vertex 15.9239037786329 0.0962196415801464 3.21509921133379
vertex 13.8458515964828 0.0962196415801464 3.18651769713656e-015
vertex 16.9850618635532 0.0962196415801464 3.07539509911897
endloop
endfacet
facet normal -0.0784591684942985 -0.996917328006281 0.0
outer loop
vertex 7.10007700672505 0.0962196415801464 14.3507901982379
vertex 13.4343577080371 0.0962196415801464 5.12539509911895
vertex 13.0247659757682 0.0962196415801464 6.11423701419861
endloop
endfacet
facet normal -0.0784591684942985 -0.996917328006281 0.0
outer loop
vertex 7.10007700672505 0.0962196415801464 14.3507901982379
vertex 13.0247659757682 0.0962196415801464 6.11423701419861
vertex 12.8850618635532 0.0962196415801464 7.17539509911894
endloop
endfacet
facet normal -0.0784591684942985 -0.996917328006281 0.0
outer loop
vertex 7.10007700672505 0.0962196415801464 14.3507901982379
vertex 12.8850618635532 0.0962196415801464 7.17539509911894
vertex 13.0247659757682 0.0962196415801464 8.23655318403927
endloop
endfacet
facet normal -0.0784591684942985 -0.996917328006281 0.0
outer loop
vertex 7.10007700672505 0.0962196415801464 14.3507901982379
vertex 13.0247659757682 0.0962196415801464 8.23655318403927
vertex 13.4343577080371 0.0962196415801464 9.22539509911892
endloop
endfacet
facet normal -0.0784591684942985 -0.996917328006281 0.0
outer loop
vertex 7.10007700672505 0.0962196415801464 14.3507901982379
vertex 13.4343577080371 0.0962196415801464 9.22539509911892
vertex 14.0859240606885 0.0962196415801464 10.0745329019838
endloop
endfacet
facet normal -0.0784591684942985 -0.996917328006281 0.0
outer loop
vertex 7.10007700672505 0.0962196415801464 14.3507901982379
vertex 14.0859240606885 0.0962196415801464 10.0745329019838
vertex 14.9350618635533 0.0962196415801464 10.7260992546351
endloop
endfacet
facet normal -0.0784591684942985 -0.996917328006281 0.0
outer loop
vertex 7.10007700672505 0.0962196415801464 14.3507901982379
vertex 14.9350618635533 0.0962196415801464 10.7260992546351
vertex 15.9239037786329 0.0962196415801464 11.1356909869041
endloop
endfacet
facet normal -0.0784591684942985 -0.996917328006281 0.0
outer loop
vertex 7.10007700672505 0.0962196415801464 14.3507901982379
vertex 15.9239037786329 0.0962196415801464 11.1356909869041
vertex 16.9850618635532 0.0962196415801464 11.2753950991189
endloop
endfacet
facet normal -0.0784591684942985 -0.996917328006281 0.0
outer loop
vertex 7.10007700672505 0.0962196415801464 14.3507901982379
vertex 16.9850618635532 0.0962196415801464 11.2753950991189
vertex 22.1313756548528 0.0962196415801464 14.3507901982379
endloop
endfacet
facet normal 7.80031784886826e-017 -5.63500821411759e-017 -1.0
outer loop
vertex 1.29506194532639 11.4892417313379 -1.25231668703836e-030
vertex 0.275870832551101 5.05429722885991 -1.25231668703836e-030
vertex 0.275870832551101 9.48893225253831 -1.25231668703836e-030
endloop
endfacet
facet normal 7.80031784886826e-017 -5.63500821411759e-017 -1.0
outer loop
vertex 0.275870832551101 5.05429722885991 -1.25231668703836e-030
vertex 1.29506194532639 11.4892417313379 -1.25231668703836e-030
vertex 1.29506194532639 3.05401785661319 -1.25231668703836e-030
endloop
endfacet
facet normal 7.80031784886826e-017 -5.63500821411759e-017 -1.0
outer loop
vertex 1.29506194532639 3.05401785661319 -1.25231668703836e-030
vertex 1.29506194532639 11.4892417313379 -1.25231668703836e-030
vertex 2.88248012263918 13.0766599086506 -1.25231668703836e-030
endloop
endfacet
facet normal 7.80031784886826e-017 -5.63500821411759e-017 -1.0
outer loop
vertex 1.29506194532639 3.05401785661319 -1.25231668703836e-030
vertex 2.88248012263918 13.0766599086506 -1.25231668703836e-030
vertex 2.88248012263918 1.4665996793004 -1.25231668703836e-030
endloop
endfacet
facet normal 7.80031784886826e-017 -5.63500821411759e-017 -1.0
outer loop
vertex 2.88248012263918 1.4665996793004 -1.25231668703836e-030
vertex 2.88248012263918 13.0766599086506 -1.25231668703836e-030
vertex 3.00148620815505 7.37910680826804 -1.25231668703836e-030
endloop
endfacet
facet normal 7.80031784886826e-017 -5.63500821411759e-017 -1.0
outer loop
vertex 3.00148620815505 7.37910680826804 -1.25231668703836e-030
vertex 2.88248012263918 13.0766599086506 -1.25231668703836e-030
vertex 3.16896199858833 8.43623763261304 -1.25231668703836e-030
endloop
endfacet
facet normal 7.80031784886826e-017 -5.63500821411759e-017 -1.0
outer loop
vertex 3.16896199858833 8.43623763261304 -1.25231668703836e-030
vertex 2.88248012263918 13.0766599086506 -1.25231668703836e-030
vertex 4.88275949488584 14.0958670782542 -1.25231668703836e-030
endloop
endfacet
facet normal 7.80031784886826e-017 -5.63500821411759e-017 -1.0
outer loop
vertex 3.16896199858833 8.43623763261304 -1.25231668703836e-030
vertex 4.88275949488584 14.0958670782542 -1.25231668703836e-030
vertex 3.60433678035138 9.41400167345638 -1.25231668703836e-030
endloop
endfacet
facet normal 7.80031784886826e-017 -5.63500821411759e-017 -1.0
outer loop
vertex 3.60433678035138 9.41400167345638 -1.25231668703836e-030
vertex 4.88275949488584 14.0958670782542 -1.25231668703836e-030
vertex 4.27794048155797 10.2457659272461 -1.25231668703836e-030
endloop
endfacet
facet normal 7.80031784886826e-017 -5.63500821411759e-017 -1.0
outer loop
vertex 4.27794048155797 10.2457659272461 -1.25231668703836e-030
vertex 4.88275949488584 14.0958670782542 -1.25231668703836e-030
vertex 5.14386812315357 10.8748470346418 -1.25231668703836e-030
endloop
endfacet
facet normal 7.80031784886826e-017 -5.63500821411759e-017 -1.0
outer loop
vertex 5.14386812315357 10.8748470346418 -1.25231668703836e-030
vertex 4.88275949488584 14.0958670782542 -1.25231668703836e-030
vertex 7.10007700672505 14.447009839818 -1.25231668703836e-030
endloop
endfacet
facet normal 7.80031784886826e-017 -5.63500821411759e-017 -1.0
outer loop
vertex 5.14386812315357 10.8748470346418 -1.25231668703836e-030
vertex 7.10007700672505 14.447009839818 -1.25231668703836e-030
vertex 6.14310816737649 11.2583741577802 -1.25231668703836e-030
endloop
endfacet
facet normal 7.80031784886826e-017 -5.63500821411759e-017 -1.0
outer loop
vertex 6.14310816737649 11.2583741577802 -1.25231668703836e-030
vertex 7.10007700672505 14.447009839818 -1.25231668703836e-030
vertex 7.20756405653532 11.3702105570279 -1.25231668703836e-030
endloop
endfacet
facet normal 7.80031784886826e-017 -5.63500821411759e-017 -1.0
outer loop
vertex 7.20756405653532 11.3702105570279 -1.25231668703836e-030
vertex 7.10007700672505 14.447009839818 -1.25231668703836e-030
vertex 22.1313756548528 14.447009839818 -1.25231668703836e-030
endloop
endfacet
facet normal 7.80031784886826e-017 -5.63500821411759e-017 -1.0
outer loop
vertex 7.20756405653532 11.3702105570279 -1.25231668703836e-030
vertex 22.1313756548528 14.447009839818 -1.25231668703836e-030
vertex 8.26469488088023 11.2027347665947 -1.25231668703836e-030
endloop
endfacet
facet normal 7.80031784886826e-017 -5.63500821411759e-017 -1.0
outer loop
vertex 8.26469488088023 11.2027347665947 -1.25231668703836e-030
vertex 22.1313756548528 14.447009839818 -1.25231668703836e-030
vertex 9.24245892172357 10.7673599848317 -1.25231668703836e-030
endloop
endfacet
facet normal 7.80031784886826e-017 -5.63500821411759e-017 -1.0
outer loop
vertex 9.24245892172357 10.7673599848317 -1.25231668703836e-030
vertex 22.1313756548528 14.447009839818 -1.25231668703836e-030
vertex 10.0742231755133 10.0937562836251 -1.25231668703836e-030
endloop
endfacet
facet normal 7.80031784886826e-017 -5.63500821411759e-017 -1.0
outer loop
vertex 10.0742231755133 10.0937562836251 -1.25231668703836e-030
vertex 22.1313756548528 14.447009839818 -1.25231668703836e-030
vertex 10.3018025747439 9.78049414598545 -1.25231668703836e-030
endloop
endfacet
facet normal 7.80031784886826e-017 -5.63500821411759e-017 -1.0
outer loop
vertex 10.3018025747439 9.78049414598545 -1.25231668703836e-030
vertex 22.1313756548528 14.447009839818 -1.25231668703836e-030
vertex 22.1313756548528 9.78049414598545 1.03617722990088e-015
endloop
endfacet
facet normal 7.80031784886826e-017 -5.63500821411759e-017 -1.0
outer loop
vertex 2.88248012263918 1.4665996793004 -1.25231668703836e-030
vertex 3.11332260740278 6.31465091910926 -1.25231668703836e-030
vertex 4.88275949488584 0.447408566525074 -1.25231668703836e-030
endloop
endfacet
facet normal 7.80031784886826e-017 -5.63500821411759e-017 -1.0
outer loop
vertex 3.11332260740278 6.31465091910926 -1.25231668703836e-030
vertex 2.88248012263918 1.4665996793004 -1.25231668703836e-030
vertex 3.00148620815505 7.37910680826804 -1.25231668703836e-030
endloop
endfacet
facet normal 7.80031784886826e-017 -5.63500821411759e-017 -1.0
outer loop
vertex 4.88275949488584 0.447408566525074 -1.25231668703836e-030
vertex 3.11332260740278 6.31465091910926 -1.25231668703836e-030
vertex 3.4968497305412 5.3154108748863 -1.25231668703836e-030
endloop
endfacet
facet normal 7.80031784886826e-017 -5.63500821411759e-017 -1.0
outer loop
vertex 4.88275949488584 0.447408566525074 -1.25231668703836e-030
vertex 3.4968497305412 5.3154108748863 -1.25231668703836e-030
vertex 4.12593083793697 4.44948323329074 -1.25231668703836e-030
endloop
endfacet
facet normal 7.80031784886826e-017 -5.63500821411759e-017 -1.0
outer loop
vertex 4.88275949488584 0.447408566525074 -1.25231668703836e-030
vertex 4.12593083793697 4.44948323329074 -1.25231668703836e-030
vertex 4.9576950917267 3.77587953208415 -1.25231668703836e-030
endloop
endfacet
facet normal 7.80031784886826e-017 -5.63500821411759e-017 -1.0
outer loop
vertex 4.88275949488584 0.447408566525074 -1.25231668703836e-030
vertex 4.9576950917267 3.77587953208415 -1.25231668703836e-030
vertex 7.10007700672505 0.0962196415801464 -1.25231668703836e-030
endloop
endfacet
facet normal 7.80031784886826e-017 -5.63500821411759e-017 -1.0
outer loop
vertex 7.10007700672505 0.0962196415801464 -1.25231668703836e-030
vertex 4.9576950917267 3.77587953208415 -1.25231668703836e-030
vertex 5.93545913257004 3.3405047503211 -1.25231668703836e-030
endloop
endfacet
facet normal 7.80031784886826e-017 -5.63500821411759e-017 -1.0
outer loop
vertex 7.10007700672505 0.0962196415801464 -1.25231668703836e-030
vertex 5.93545913257004 3.3405047503211 -1.25231668703836e-030
vertex 6.95038650384511 3.17971503553629 -1.25231668703836e-030
endloop
endfacet
facet normal 7.80031784886826e-017 -5.63500821411759e-017 -1.0
outer loop
vertex 7.10007700672505 0.0962196415801464 -1.25231668703836e-030
vertex 6.95038650384511 3.17971503553629 -1.25231668703836e-030
vertex 6.99258995691495 3.17302895988782 -1.25231668703836e-030
endloop
endfacet
facet normal 7.80031784886826e-017 -5.63500821411759e-017 -1.0
outer loop
vertex 7.10007700672505 0.0962196415801464 -1.25231668703836e-030
vertex 6.99258995691495 3.17302895988782 -1.25231668703836e-030
vertex 8.05704584607378 3.2848653591356 -1.25231668703836e-030
endloop
endfacet
facet normal 7.80031784886826e-017 -5.63500821411759e-017 -1.0
outer loop
vertex 7.10007700672505 0.0962196415801464 -1.25231668703836e-030
vertex 8.05704584607378 3.2848653591356 -1.25231668703836e-030
vertex 13.8458515964828 0.0962196415801464 3.18651769713656e-015
endloop
endfacet
facet normal 7.80031784886826e-017 -5.63500821411759e-017 -1.0
outer loop
vertex 13.8458515964828 0.0962196415801464 3.18651769713656e-015
vertex 8.05704584607378 3.2848653591356 -1.25231668703836e-030
vertex 9.0562858902967 3.66839248227402 -1.25231668703836e-030
endloop
endfacet
facet normal 7.80031784886826e-017 -5.63500821411759e-017 -1.0
outer loop
vertex 13.8458515964828 0.0962196415801464 3.18651769713656e-015
vertex 9.0562858902967 3.66839248227402 -1.25231668703836e-030
vertex 9.9222135318923 4.29747358966974 -1.25231668703836e-030
endloop
endfacet
facet normal 7.80031784886826e-017 -5.63500821411759e-017 -1.0
outer loop
vertex 13.8458515964828 0.0962196415801464 3.18651769713656e-015
vertex 9.9222135318923 4.29747358966974 -1.25231668703836e-030
vertex 10.2990054324031 4.76273533541276 -1.25231668703836e-030
endloop
endfacet
facet normal 7.80031784886826e-017 -5.63500821411759e-017 -1.0
outer loop
vertex 13.8458515964828 0.0962196415801464 3.18651769713656e-015
vertex 10.2990054324031 4.76273533541276 -1.25231668703836e-030
vertex 22.1313756548528 4.76273533541276 2.15034046723568e-015
endloop
endfacet
facet normal 7.80031784886826e-017 -5.63500821411759e-017 -1.0
outer loop
vertex 13.8458515964828 0.0962196415801464 3.18651769713656e-015
vertex 22.1313756548528 4.76273533541276 2.15034046723568e-015
vertex 22.1313756548528 0.0962196415801464 3.18651769713656e-015
endloop
endfacet
facet normal 0.0 0.0 -1.0
outer loop
vertex 0.275870832551101 5.05429722885991 -1.25231668703836e-030
vertex -0.0753180923938718 7.27161474069911 -1.25231668703836e-030
vertex 0.275870832551101 9.48893225253831 -1.25231668703836e-030
endloop
endfacet
facet normal 0.0 1.0 0.0
outer loop
vertex 10.2990054324031 4.76273533541276 -1.25231668703836e-030
vertex 14.9350618635533 4.76273533541281 3.62469094360282
vertex 22.1313756548528 4.76273533541276 2.15034046723568e-015
endloop
endfacet
facet normal 0.0 1.0 0.0
outer loop
vertex 14.9350618635533 4.76273533541281 3.62469094360282
vertex 10.2990054324031 4.76273533541276 -1.25231668703836e-030
vertex 14.0859240606885 4.76273533541281 4.27625729625409
endloop
endfacet
facet normal 0.0 1.0 0.0
outer loop
vertex 14.0859240606885 4.76273533541281 4.27625729625409
vertex 10.2990054324031 4.76273533541276 -1.25231668703836e-030
vertex 13.4343577080371 4.76273533541281 5.12539509911893
endloop
endfacet
facet normal 0.0 1.0 0.0
outer loop
vertex 13.4343577080371 4.76273533541281 5.12539509911893
vertex 10.2990054324031 4.76273533541276 -1.25231668703836e-030
vertex 13.0247659757682 4.76273533541281 6.11423701419861
endloop
endfacet
facet normal 0.0 1.0 0.0
outer loop
vertex 13.0247659757682 4.76273533541281 6.11423701419861
vertex 10.2990054324031 4.76273533541276 -1.25231668703836e-030
vertex 10.2990054324031 4.76273533541276 14.3507901982379
endloop
endfacet
facet normal 0.0 1.0 0.0
outer loop
vertex 22.1313756548528 4.76273533541276 2.15034046723568e-015
vertex 14.9350618635533 4.76273533541281 3.62469094360282
vertex 15.9239037786331 4.76273533541281 3.21509921133376
endloop
endfacet
facet normal 0.0 1.0 0.0
outer loop
vertex 22.1313756548528 4.76273533541276 2.15034046723568e-015
vertex 15.9239037786331 4.76273533541281 3.21509921133376
vertex 16.9850618635534 4.76273533541281 3.07539509911898
endloop
endfacet
facet normal 0.0 1.0 0.0
outer loop
vertex 13.0247659757682 4.76273533541281 6.11423701419861
vertex 10.2990054324031 4.76273533541276 14.3507901982379
vertex 12.8850618635532 4.76273533541281 7.17539509911894
endloop
endfacet
facet normal 0.0 1.0 0.0
outer loop
vertex 12.8850618635532 4.76273533541281 7.17539509911894
vertex 10.2990054324031 4.76273533541276 14.3507901982379
vertex 13.0247659757682 4.76273533541281 8.23655318403928
endloop
endfacet
facet normal 0.0 1.0 0.0
outer loop
vertex 13.0247659757682 4.76273533541281 8.23655318403928
vertex 10.2990054324031 4.76273533541276 14.3507901982379
vertex 13.4343577080371 4.76273533541281 9.22539509911894
endloop
endfacet
facet normal 0.0 1.0 0.0
outer loop
vertex 13.4343577080371 4.76273533541281 9.22539509911894
vertex 10.2990054324031 4.76273533541276 14.3507901982379
vertex 14.0859240606885 4.76273533541281 10.0745329019838
endloop
endfacet
facet normal 0.0 1.0 0.0
outer loop
vertex 14.0859240606885 4.76273533541281 10.0745329019838
vertex 10.2990054324031 4.76273533541276 14.3507901982379
vertex 14.9350618635531 4.76273533541281 10.726099254635
endloop
endfacet
facet normal 0.0 1.0 0.0
outer loop
vertex 14.9350618635531 4.76273533541281 10.726099254635
vertex 10.2990054324031 4.76273533541276 14.3507901982379
vertex 15.9239037786331 4.76273533541281 11.1356909869041
endloop
endfacet
facet normal 0.0 1.0 0.0
outer loop
vertex 15.9239037786331 4.76273533541281 11.1356909869041
vertex 10.2990054324031 4.76273533541276 14.3507901982379
vertex 16.9850618635534 4.76273533541281 11.2753950991189
endloop
endfacet
facet normal 0.0 1.0 0.0
outer loop
vertex 22.1313756548528 4.76273533541276 2.15034046723568e-015
vertex 19.0350618635535 4.76273533541281 3.62469094360291
vertex 26.2740373288617 4.76273533541276 7.17539509911894
endloop
endfacet
facet normal 0.0 1.0 0.0
outer loop
vertex 19.0350618635535 4.76273533541281 3.62469094360291
vertex 22.1313756548528 4.76273533541276 2.15034046723568e-015
vertex 18.0462199484737 4.76273533541281 3.2150992113338
endloop
endfacet
facet normal 0.0 1.0 0.0
outer loop
vertex 18.0462199484737 4.76273533541281 3.2150992113338
vertex 22.1313756548528 4.76273533541276 2.15034046723568e-015
vertex 16.9850618635534 4.76273533541281 3.07539509911898
endloop
endfacet
facet normal 0.0 1.0 0.0
outer loop
vertex 26.2740373288617 4.76273533541276 7.17539509911894
vertex 19.0350618635535 4.76273533541281 3.62469094360291
vertex 19.8841996664181 4.76273533541281 4.27625729625409
endloop
endfacet
facet normal 0.0 1.0 0.0
outer loop
vertex 26.2740373288617 4.76273533541276 7.17539509911894
vertex 19.8841996664181 4.76273533541281 4.27625729625409
vertex 20.5357660190695 4.76273533541281 5.12539509911896
endloop
endfacet
facet normal 0.0 1.0 0.0
outer loop
vertex 26.2740373288617 4.76273533541276 7.17539509911894
vertex 20.5357660190695 4.76273533541281 5.12539509911896
vertex 20.9453577513384 4.76273533541281 6.11423701419861
endloop
endfacet
facet normal 0.0 1.0 0.0
outer loop
vertex 26.2740373288617 4.76273533541276 7.17539509911894
vertex 20.9453577513384 4.76273533541281 6.11423701419861
vertex 21.0850618635534 4.76273533541281 7.17539509911895
endloop
endfacet
facet normal 0.0 1.0 0.0
outer loop
vertex 26.2740373288617 4.76273533541276 7.17539509911894
vertex 21.0850618635534 4.76273533541281 7.17539509911895
vertex 22.1313756548528 4.76273533541276 14.3507901982379
endloop
endfacet
facet normal 0.0 1.0 0.0
outer loop
vertex 22.1313756548528 4.76273533541276 14.3507901982379
vertex 21.0850618635534 4.76273533541281 7.17539509911895
vertex 20.9453577513384 4.76273533541281 8.23655318403928
endloop
endfacet
facet normal 0.0 1.0 0.0
outer loop
vertex 22.1313756548528 4.76273533541276 14.3507901982379
vertex 20.9453577513384 4.76273533541281 8.23655318403928
vertex 20.5357660190695 4.76273533541281 9.22539509911894
endloop
endfacet
facet normal 0.0 1.0 0.0
outer loop
vertex 22.1313756548528 4.76273533541276 14.3507901982379
vertex 20.5357660190695 4.76273533541281 9.22539509911894
vertex 19.8841996664179 4.76273533541281 10.0745329019838
endloop
endfacet
facet normal 0.0 1.0 0.0
outer loop
vertex 22.1313756548528 4.76273533541276 14.3507901982379
vertex 19.8841996664179 4.76273533541281 10.0745329019838
vertex 19.0350618635535 4.76273533541281 10.7260992546351
endloop
endfacet
facet normal 0.0 1.0 0.0
outer loop
vertex 22.1313756548528 4.76273533541276 14.3507901982379
vertex 19.0350618635535 4.76273533541281 10.7260992546351
vertex 18.0462199484737 4.76273533541281 11.1356909869041
endloop
endfacet
facet normal 0.0 1.0 0.0
outer loop
vertex 22.1313756548528 4.76273533541276 14.3507901982379
vertex 18.0462199484737 4.76273533541281 11.1356909869041
vertex 16.9850618635534 4.76273533541281 11.2753950991189
endloop
endfacet
facet normal 0.0 1.0 0.0
outer loop
vertex 22.1313756548528 4.76273533541276 14.3507901982379
vertex 16.9850618635534 4.76273533541281 11.2753950991189
vertex 10.2990054324031 4.76273533541276 14.3507901982379
endloop
endfacet
facet normal -0.0784591684942985 -0.996917328006281 0.0
outer loop
vertex 7.10007700672505 0.0962196415801464 14.3507901982379
vertex 4.88275949488584 0.447408566525074 -1.25231668703836e-030
vertex 7.10007700672505 0.0962196415801464 -1.25231668703836e-030
endloop
endfacet
facet normal -0.309016661135469 -0.951056624571159 0.0
outer loop
vertex 4.88275949488584 0.447408566525074 -1.25231668703836e-030
vertex 7.10007700672505 0.0962196415801464 14.3507901982379
vertex 4.88275949488584 0.447408566525074 14.3507901982379
endloop
endfacet
facet normal -0.309016661135469 -0.951056624571159 0.0
outer loop
vertex 4.88275949488584 0.447408566525074 14.3507901982379
vertex 2.88248012263918 1.4665996793004 -1.25231668703836e-030
vertex 4.88275949488584 0.447408566525074 -1.25231668703836e-030
endloop
endfacet
facet normal -0.587784909770672 -0.809017243231492 0.0
outer loop
vertex 2.88248012263918 1.4665996793004 -1.25231668703836e-030
vertex 4.88275949488584 0.447408566525074 14.3507901982379
vertex 2.88248012263918 1.4665996793004 14.3507901982379
endloop
endfacet
facet normal -0.8090172432315 -0.587784909770661 0.0
outer loop
vertex 1.29506194532639 3.05401785661319 14.3507901982379
vertex 2.88248012263918 1.4665996793004 -1.25231668703836e-030
vertex 2.88248012263918 1.4665996793004 14.3507901982379
endloop
endfacet
facet normal -0.587784909770672 -0.809017243231492 0.0
outer loop
vertex 2.88248012263918 1.4665996793004 -1.25231668703836e-030
vertex 1.29506194532639 3.05401785661319 14.3507901982379
vertex 1.29506194532639 3.05401785661319 -1.25231668703836e-030
endloop
endfacet
facet normal -0.95105662457116 -0.309016661135466 0.0
outer loop
vertex 0.275870832551101 5.05429722885991 14.3507901982379
vertex 1.29506194532639 3.05401785661319 -1.25231668703836e-030
vertex 1.29506194532639 3.05401785661319 14.3507901982379
endloop
endfacet
facet normal -0.8090172432315 -0.587784909770661 0.0
outer loop
vertex 1.29506194532639 3.05401785661319 -1.25231668703836e-030
vertex 0.275870832551101 5.05429722885991 14.3507901982379
vertex 0.275870832551101 5.05429722885991 -1.25231668703836e-030
endloop
endfacet
facet normal -1.0 0.0 0.0
outer loop
vertex -0.0753180923938718 7.27161474069911 14.3507901982379
vertex 0.275870832551101 5.05429722885991 -1.25231668703836e-030
vertex 0.275870832551101 5.05429722885991 14.3507901982379
endloop
endfacet
facet normal -0.95105662457116 -0.309016661135466 0.0
outer loop
vertex 0.275870832551101 5.05429722885991 -1.25231668703836e-030
vertex -0.0753180923938718 7.27161474069911 14.3507901982379
vertex -0.0753180923938718 7.27161474069911 -1.25231668703836e-030
endloop
endfacet
facet normal -0.951057565251715 0.309013765999964 0.0
outer loop
vertex 0.275870832551101 9.48893225253831 14.3507901982379
vertex -0.0753180923938718 7.27161474069911 -1.25231668703836e-030
vertex -0.0753180923938718 7.27161474069911 14.3507901982379
endloop
endfacet
facet normal -1.0 0.0 0.0
outer loop
vertex -0.0753180923938718 7.27161474069911 -1.25231668703836e-030
vertex 0.275870832551101 9.48893225253831 14.3507901982379
vertex 0.275870832551101 9.48893225253831 -1.25231668703836e-030
endloop
endfacet
endsolid Bar clampFIXED
