solid Beltclamp FIXED
facet normal -0.863108078655568 -0.505019251672145 0.0
outer loop
vertex 8.2062816911671 -0.686703094107106 7.00000000000002
vertex 8.46995465084144 -1.13733593803221 2.25597318603832e-014
vertex 8.46995465084144 -1.13733593803221 7.00000000000002
endloop
endfacet
facet normal -0.863108078655568 -0.505019251672145 0.0
outer loop
vertex 8.46995465084144 -1.13733593803221 2.25597318603832e-014
vertex 8.2062816911671 -0.686703094107106 7.00000000000002
vertex 8.2062816911671 -0.686703094107106 2.25597318603832e-014
endloop
endfacet
facet normal -0.253207037827141 -0.967412112801367 0.0
outer loop
vertex 7.38129690403551 -0.0612457648464179 7.00000000000002
vertex 6.87620642646943 0.0709548371171643 2.25597318603832e-014
vertex 7.38129690403551 -0.0612457648464179 2.25597318603832e-014
endloop
endfacet
facet normal -0.253207037827141 -0.967412112801367 0.0
outer loop
vertex 6.87620642646943 0.0709548371171643 2.25597318603832e-014
vertex 7.38129690403551 -0.0612457648464179 7.00000000000002
vertex 6.87620642646943 0.0709548371171643 7.00000000000002
endloop
endfacet
facet normal -0.711199946701185 0.702989783576 0.0
outer loop
vertex 8.22041825658971 -3.12170777514941 7.00000000000002
vertex 7.85338393811064 -3.49302865894943 2.25597318603832e-014
vertex 7.85338393811064 -3.49302865894943 7.00000000000002
endloop
endfacet
facet normal -0.711199946701185 0.702989783576 0.0
outer loop
vertex 7.85338393811064 -3.49302865894943 2.25597318603832e-014
vertex 8.22041825658971 -3.12170777514941 7.00000000000002
vertex 8.22041825658971 -3.12170777514941 2.25597318603832e-014
endloop
endfacet
facet normal 0.94716813505336 -0.320737468873749 -0.0
outer loop
vertex 2.84522099372014 -1.03016946914876 2.25597318603832e-014
vertex 2.6777624316626 -1.52469046939146 7.00000000000002
vertex 2.6777624316626 -1.52469046939146 2.25597318603832e-014
endloop
endfacet
facet normal 0.94716813505336 -0.320737468873749 -0.0
outer loop
vertex 2.6777624316626 -1.52469046939146 7.00000000000002
vertex 2.84522099372014 -1.03016946914876 2.25597318603832e-014
vertex 2.84522099372014 -1.03016946914876 7.00000000000002
endloop
endfacet
facet normal -0.0 1.0 -0.0
outer loop
vertex 10.119398 3.086583 7.00000000000002
vertex 10.119398 3.086583 6.5
vertex 4.61939800000001 3.086583 7.00000000000002
endloop
endfacet
facet normal -0.0 1.0 -0.0
outer loop
vertex 10.119398 -0.31341700000004 7.00000000000002
vertex 17.119398 -0.31341700000004 6.5
vertex 10.119398 -0.31341700000004 6.5
endloop
endfacet
facet normal -0.0 1.0 -0.0
outer loop
vertex 17.119398 -0.31341700000004 6.5
vertex 10.119398 -0.31341700000004 7.00000000000002
vertex 17.119398 -0.31341700000004 7.00000000000002
endloop
endfacet
facet normal 0.130526192219993 -0.991444861373818 0.0
outer loop
vertex 20.6390953519719 0.0865829999999597 7.00000000000002
vertex 20.1214572617669 0.0184346525781301 2.25597318603832e-014
vertex 20.6390953519719 0.0865829999999597 2.25597318603832e-014
endloop
endfacet
facet normal 0.130526192219993 -0.991444861373818 0.0
outer loop
vertex 20.1214572617669 0.0184346525781301 2.25597318603832e-014
vertex 20.6390953519719 0.0865829999999597 7.00000000000002
vertex 20.1214572617669 0.0184346525781301 7.00000000000002
endloop
endfacet
facet normal 0.00678930704755054 -0.999976952389311 0.0
outer loop
vertex 22.7734421640786 0.101074069837848 7.00000000000002
vertex 20.6390953519719 0.0865829999999597 2.25597318603832e-014
vertex 22.7734421640786 0.101074069837848 2.25597318603832e-014
endloop
endfacet
facet normal 0.00678930704755054 -0.999976952389311 0.0
outer loop
vertex 20.6390953519719 0.0865829999999597 2.25597318603832e-014
vertex 22.7734421640786 0.101074069837848 7.00000000000002
vertex 20.6390953519719 0.0865829999999597 7.00000000000002
endloop
endfacet
facet normal -0.868913540676084 0.494963896491199 0.0
outer loop
vertex 8.47884126737132 -2.6680438718178 7.00000000000002
vertex 8.22041825658971 -3.12170777514941 2.25597318603832e-014
vertex 8.22041825658971 -3.12170777514941 7.00000000000002
endloop
endfacet
facet normal -0.868913540676084 0.494963896491199 0.0
outer loop
vertex 8.22041825658971 -3.12170777514941 2.25597318603832e-014
vertex 8.47884126737132 -2.6680438718178 7.00000000000002
vertex 8.47884126737132 -2.6680438718178 2.25597318603832e-014
endloop
endfacet
facet normal -1.0 0.0 0.0
outer loop
vertex 17.119398 -3.51341700000003 7.00000000000002
vertex 17.119398 -5.31341700000005 6.5
vertex 17.119398 -5.31341700000005 7.00000000000002
endloop
endfacet
facet normal -1.0 0.0 0.0
outer loop
vertex 17.119398 -5.31341700000005 6.5
vertex 17.119398 -3.51341700000003 7.00000000000002
vertex 17.119398 -3.51341700000003 6.5
endloop
endfacet
facet normal 0.793353340291252 0.608761429008699 -0.0
outer loop
vertex 18.9070445444031 -2.91341700000003 2.25597318603832e-014
vertex 19.2248817895988 -3.32763056237314 7.00000000000002
vertex 19.2248817895988 -3.32763056237314 2.25597318603832e-014
endloop
endfacet
facet normal 0.793353340291252 0.608761429008699 -0.0
outer loop
vertex 19.2248817895988 -3.32763056237314 7.00000000000002
vertex 18.9070445444031 -2.91341700000003 2.25597318603832e-014
vertex 18.9070445444031 -2.91341700000003 7.00000000000002
endloop
endfacet
facet normal 0.608761429008699 0.793353340291252 -0.0
outer loop
vertex 19.2248817895988 -3.32763056237314 7.00000000000002
vertex 19.6390953519719 -3.6454678075689 2.25597318603832e-014
vertex 19.2248817895988 -3.32763056237314 2.25597318603832e-014
endloop
endfacet
facet normal 0.608761429008699 0.793353340291252 -0.0
outer loop
vertex 19.6390953519719 -3.6454678075689 2.25597318603832e-014
vertex 19.2248817895988 -3.32763056237314 7.00000000000002
vertex 19.6390953519719 -3.6454678075689 7.00000000000002
endloop
endfacet
facet normal -0.0 1.0 -0.0
outer loop
vertex 4.61939800000001 3.086583 7.00000000000002
vertex 22.619398 3.086583 0.0
vertex 4.61939800000001 3.086583 0.0
endloop
endfacet
facet normal -0.0 1.0 -0.0
outer loop
vertex 22.619398 3.086583 0.0
vertex 4.61939800000001 3.086583 7.00000000000002
vertex 10.119398 3.086583 6.5
endloop
endfacet
facet normal -0.0 1.0 -0.0
outer loop
vertex 22.619398 3.086583 0.0
vertex 17.119398 3.086583 6.5
vertex 22.619398 3.086583 7.00000000000002
endloop
endfacet
facet normal -0.0 1.0 -0.0
outer loop
vertex 17.119398 3.086583 6.5
vertex 22.619398 3.086583 0.0
vertex 10.119398 3.086583 6.5
endloop
endfacet
facet normal -0.0 1.0 -0.0
outer loop
vertex 22.619398 3.086583 7.00000000000002
vertex 17.119398 3.086583 6.5
vertex 17.119398 3.086583 7.00000000000002
endloop
endfacet
facet normal 0.382683432365071 0.923879532511295 -0.0
outer loop
vertex 19.6390953519719 -3.6454678075689 7.00000000000002
vertex 20.1214572617669 -3.84526865257816 2.25597318603832e-014
vertex 19.6390953519719 -3.6454678075689 2.25597318603832e-014
endloop
endfacet
facet normal 0.382683432365071 0.923879532511295 -0.0
outer loop
vertex 20.1214572617669 -3.84526865257816 2.25597318603832e-014
vertex 19.6390953519719 -3.6454678075689 7.00000000000002
vertex 20.1214572617669 -3.84526865257816 7.00000000000002
endloop
endfacet
facet normal -0.0 1.0 -0.0
outer loop
vertex 10.119398 2.18658299999998 7.00000000000002
vertex 17.119398 2.18658299999998 6.5
vertex 10.119398 2.18658299999998 6.5
endloop
endfacet
facet normal -0.0 1.0 -0.0
outer loop
vertex 17.119398 2.18658299999998 6.5
vertex 10.119398 2.18658299999998 7.00000000000002
vertex 17.119398 2.18658299999998 7.00000000000002
endloop
endfacet
facet normal -0.0 1.0 -0.0
outer loop
vertex 10.119398 -2.81341700000006 7.00000000000002
vertex 17.119398 -2.81341700000006 6.5
vertex 10.119398 -2.81341700000006 6.5
endloop
endfacet
facet normal -0.0 1.0 -0.0
outer loop
vertex 17.119398 -2.81341700000006 6.5
vertex 10.119398 -2.81341700000006 7.00000000000002
vertex 17.119398 -2.81341700000006 7.00000000000002
endloop
endfacet
facet normal 0.0 0.0 -1.0
outer loop
vertex 0.0 0.0 0.0
vertex 0.0 -3.82683400000003 0.0
vertex -0.380602000000023 -1.91341700000004 0.0
endloop
endfacet
facet normal 0.0 0.0 -1.0
outer loop
vertex 0.0 -3.82683400000003 0.0
vertex 0.0 0.0 0.0
vertex 1.083864 1.62211699999998 0.0
endloop
endfacet
facet normal 0.0 0.0 -1.0
outer loop
vertex 0.0 -3.82683400000003 0.0
vertex 1.083864 1.62211699999998 0.0
vertex 1.083864 -5.44895100000003 0.0
endloop
endfacet
facet normal 0.0 0.0 -1.0
outer loop
vertex 1.083864 -5.44895100000003 0.0
vertex 1.083864 1.62211699999998 0.0
vertex 2.70598099999998 2.70598099999998 0.0
endloop
endfacet
facet normal 0.0 0.0 -1.0
outer loop
vertex 1.083864 -5.44895100000003 0.0
vertex 2.70598099999998 2.70598099999998 0.0
vertex 2.6440013348039 -2.04570254029423 2.25597318603832e-014
endloop
endfacet
facet normal 0.0 0.0 -1.0
outer loop
vertex 2.6440013348039 -2.04570254029423 2.25597318603832e-014
vertex 2.70598099999998 2.70598099999998 0.0
vertex 2.6777624316626 -1.52469046939146 2.25597318603832e-014
endloop
endfacet
facet normal 0.0 0.0 -1.0
outer loop
vertex 2.6777624316626 -1.52469046939146 2.25597318603832e-014
vertex 2.70598099999998 2.70598099999998 0.0
vertex 2.84522099372014 -1.03016946914876 2.25597318603832e-014
endloop
endfacet
facet normal 0.0 0.0 -1.0
outer loop
vertex 2.84522099372014 -1.03016946914876 2.25597318603832e-014
vertex 2.70598099999998 2.70598099999998 0.0
vertex 4.61939800000001 3.086583 0.0
endloop
endfacet
facet normal 0.0 0.0 -1.0
outer loop
vertex 2.84522099372014 -1.03016946914876 2.25597318603832e-014
vertex 4.61939800000001 3.086583 0.0
vertex 3.13496499671076 -0.595840328497973 2.25597318603832e-014
endloop
endfacet
facet normal 0.0 0.0 -1.0
outer loop
vertex 3.13496499671076 -0.595840328497973 2.25597318603832e-014
vertex 4.61939800000001 3.086583 0.0
vertex 3.52724886565522 -0.251301860611669 2.25597318603832e-014
endloop
endfacet
facet normal 0.0 0.0 -1.0
outer loop
vertex 3.52724886565522 -0.251301860611669 2.25597318603832e-014
vertex 4.61939800000001 3.086583 0.0
vertex 3.99533910316466 -0.0200337926995687 2.25597318603832e-014
endloop
endfacet
facet normal 0.0 0.0 -1.0
outer loop
vertex 3.99533910316466 -0.0200337926995687 2.25597318603832e-014
vertex 4.61939800000001 3.086583 0.0
vertex 4.50733613310851 0.0822033385987581 2.25597318603832e-014
endloop
endfacet
facet normal 0.0 0.0 -1.0
outer loop
vertex 4.50733613310851 0.0822033385987581 2.25597318603832e-014
vertex 4.61939800000001 3.086583 0.0
vertex 6.87620642646943 0.0709548371171643 2.25597318603832e-014
endloop
endfacet
facet normal 0.0 0.0 -1.0
outer loop
vertex 6.87620642646943 0.0709548371171643 2.25597318603832e-014
vertex 4.61939800000001 3.086583 0.0
vertex 22.619398 3.086583 0.0
endloop
endfacet
facet normal 0.0 0.0 -1.0
outer loop
vertex 6.87620642646943 0.0709548371171643 2.25597318603832e-014
vertex 22.619398 3.086583 0.0
vertex 7.38129690403551 -0.0612457648464179 2.25597318603832e-014
endloop
endfacet
facet normal 0.0 0.0 -1.0
outer loop
vertex 7.38129690403551 -0.0612457648464179 2.25597318603832e-014
vertex 22.619398 3.086583 0.0
vertex 7.83496080736704 -0.319668775628029 2.25597318603832e-014
endloop
endfacet
facet normal 0.0 0.0 -1.0
outer loop
vertex 7.83496080736704 -0.319668775628029 2.25597318603832e-014
vertex 22.619398 3.086583 0.0
vertex 8.2062816911671 -0.686703094107106 2.25597318603832e-014
endloop
endfacet
facet normal 0.0 0.0 -1.0
outer loop
vertex 8.2062816911671 -0.686703094107106 2.25597318603832e-014
vertex 22.619398 3.086583 0.0
vertex 8.46995465084144 -1.13733593803221 2.25597318603832e-014
endloop
endfacet
facet normal 0.0 0.0 -1.0
outer loop
vertex 8.46995465084144 -1.13733593803221 2.25597318603832e-014
vertex 22.619398 3.086583 0.0
vertex 8.60801080992844 -1.64085742379581 2.25597318603832e-014
endloop
endfacet
facet normal 0.0 0.0 -1.0
outer loop
vertex 8.60801080992844 -1.64085742379581 2.25597318603832e-014
vertex 22.619398 3.086583 0.0
vertex 8.6110418693349 -2.16295339425177 2.25597318603832e-014
endloop
endfacet
facet normal 0.0 0.0 -1.0
outer loop
vertex 8.6110418693349 -2.16295339425177 2.25597318603832e-014
vertex 22.619398 3.086583 0.0
vertex 19.2248817895988 -0.499203437626938 2.25597318603832e-014
endloop
endfacet
facet normal 0.0 0.0 -1.0
outer loop
vertex 8.6110418693349 -2.16295339425177 2.25597318603832e-014
vertex 19.2248817895988 -0.499203437626938 2.25597318603832e-014
vertex 18.9070445444031 -0.913417000000038 2.25597318603832e-014
endloop
endfacet
facet normal 0.0 0.0 -1.0
outer loop
vertex 8.6110418693349 -2.16295339425177 2.25597318603832e-014
vertex 18.9070445444031 -0.913417000000038 2.25597318603832e-014
vertex 18.7072436993938 -1.39577890979501 2.25597318603832e-014
endloop
endfacet
facet normal 0.0 0.0 -1.0
outer loop
vertex 8.6110418693349 -2.16295339425177 2.25597318603832e-014
vertex 18.7072436993938 -1.39577890979501 2.25597318603832e-014
vertex 18.6390953519719 -1.91341700000004 2.25597318603832e-014
endloop
endfacet
facet normal 0.0 0.0 -1.0
outer loop
vertex 19.2248817895988 -0.499203437626938 2.25597318603832e-014
vertex 22.619398 3.086583 0.0
vertex 19.6390953519719 -0.18136619243117 2.25597318603832e-014
endloop
endfacet
facet normal 0.0 0.0 -1.0
outer loop
vertex 19.6390953519719 -0.18136619243117 2.25597318603832e-014
vertex 22.619398 3.086583 0.0
vertex 20.1214572617669 0.0184346525781301 2.25597318603832e-014
endloop
endfacet
facet normal 0.0 0.0 -1.0
outer loop
vertex 20.1214572617669 0.0184346525781301 2.25597318603832e-014
vertex 22.619398 3.086583 0.0
vertex 20.6390953519719 0.0865829999999597 2.25597318603832e-014
endloop
endfacet
facet normal 0.0 0.0 -1.0
outer loop
vertex 20.6390953519719 0.0865829999999597 2.25597318603832e-014
vertex 22.619398 3.086583 0.0
vertex 22.7734421640786 0.101074069837848 2.25597318603832e-014
endloop
endfacet
facet normal 0.0 0.0 -1.0
outer loop
vertex 22.7734421640786 0.101074069837848 2.25597318603832e-014
vertex 22.619398 3.086583 0.0
vertex 24.532815 2.70598099999998 0.0
endloop
endfacet
facet normal 0.0 0.0 -1.0
outer loop
vertex 22.7734421640786 0.101074069837848 2.25597318603832e-014
vertex 24.532815 2.70598099999998 0.0
vertex 23.2845400783897 -0.00556697139025175 2.25597318603832e-014
endloop
endfacet
facet normal 0.0 0.0 -1.0
outer loop
vertex 23.2845400783897 -0.00556697139025175 2.25597318603832e-014
vertex 24.532815 2.70598099999998 0.0
vertex 23.750622021126 -0.240856181390776 2.25597318603832e-014
endloop
endfacet
facet normal 0.0 0.0 -1.0
outer loop
vertex 23.750622021126 -0.240856181390776 2.25597318603832e-014
vertex 24.532815 2.70598099999998 0.0
vertex 24.1399252781266 -0.588758989335965 2.25597318603832e-014
endloop
endfacet
facet normal 0.0 0.0 -1.0
outer loop
vertex 24.1399252781266 -0.588758989335965 2.25597318603832e-014
vertex 24.532815 2.70598099999998 0.0
vertex 24.4259194757812 -1.02556639380087 2.25597318603832e-014
endloop
endfacet
facet normal 0.0 0.0 -1.0
outer loop
vertex 24.4259194757812 -1.02556639380087 2.25597318603832e-014
vertex 24.532815 2.70598099999998 0.0
vertex 24.5891145821472 -1.52151069202965 2.25597318603832e-014
endloop
endfacet
facet normal 0.0 0.0 -1.0
outer loop
vertex 24.5891145821472 -1.52151069202965 2.25597318603832e-014
vertex 24.532815 2.70598099999998 0.0
vertex 26.154932 1.62211699999998 0.0
endloop
endfacet
facet normal 0.0 0.0 -1.0
outer loop
vertex 24.5891145821472 -1.52151069202965 2.25597318603832e-014
vertex 26.154932 1.62211699999998 0.0
vertex 24.6183891204185 -2.04279409968469 2.25597318603832e-014
endloop
endfacet
facet normal 0.0 0.0 -1.0
outer loop
vertex 2.6440013348039 -2.04570254029423 2.25597318603832e-014
vertex 2.70598099999998 -6.53281500000007 0.0
vertex 1.083864 -5.44895100000003 0.0
endloop
endfacet
facet normal 0.0 0.0 -1.0
outer loop
vertex 2.70598099999998 -6.53281500000007 0.0
vertex 2.6440013348039 -2.04570254029423 2.25597318603832e-014
vertex 2.74623846610218 -2.55769957023811 2.25597318603832e-014
endloop
endfacet
facet normal 0.0 0.0 -1.0
outer loop
vertex 2.70598099999998 -6.53281500000007 0.0
vertex 2.74623846610218 -2.55769957023811 2.25597318603832e-014
vertex 4.61939800000001 -6.91341700000005 0.0
endloop
endfacet
facet normal 0.0 0.0 -1.0
outer loop
vertex 4.61939800000001 -6.91341700000005 0.0
vertex 2.74623846610218 -2.55769957023811 2.25597318603832e-014
vertex 2.97750653401433 -3.02578980774756 2.25597318603832e-014
endloop
endfacet
facet normal 0.0 0.0 -1.0
outer loop
vertex 4.61939800000001 -6.91341700000005 0.0
vertex 2.97750653401433 -3.02578980774756 2.25597318603832e-014
vertex 3.32204500190063 -3.41807367669197 2.25597318603832e-014
endloop
endfacet
facet normal 0.0 0.0 -1.0
outer loop
vertex 4.61939800000001 -6.91341700000005 0.0
vertex 3.32204500190063 -3.41807367669197 2.25597318603832e-014
vertex 3.75637414255142 -3.70781767968255 2.25597318603832e-014
endloop
endfacet
facet normal 0.0 0.0 -1.0
outer loop
vertex 4.61939800000001 -6.91341700000005 0.0
vertex 3.75637414255142 -3.70781767968255 2.25597318603832e-014
vertex 4.25089514279412 -3.87527624174013 2.25597318603832e-014
endloop
endfacet
facet normal 0.0 0.0 -1.0
outer loop
vertex 4.61939800000001 -6.91341700000005 0.0
vertex 4.25089514279412 -3.87527624174013 2.25597318603832e-014
vertex 4.77190721369689 -3.90903733859883 2.25597318603832e-014
endloop
endfacet
facet normal 0.0 0.0 -1.0
outer loop
vertex 4.61939800000001 -6.91341700000005 0.0
vertex 4.77190721369689 -3.90903733859883 2.25597318603832e-014
vertex 22.619398 -6.91341700000005 0.0
endloop
endfacet
facet normal 0.0 0.0 -1.0
outer loop
vertex 22.619398 -6.91341700000005 0.0
vertex 4.77190721369689 -3.90903733859883 2.25597318603832e-014
vertex 6.89922960842193 -3.89475777771077 2.25597318603832e-014
endloop
endfacet
facet normal 0.0 0.0 -1.0
outer loop
vertex 22.619398 -6.91341700000005 0.0
vertex 6.89922960842193 -3.89475777771077 2.25597318603832e-014
vertex 7.40275109418553 -3.75670161862377 2.25597318603832e-014
endloop
endfacet
facet normal 0.0 0.0 -1.0
outer loop
vertex 22.619398 -6.91341700000005 0.0
vertex 7.40275109418553 -3.75670161862377 2.25597318603832e-014
vertex 7.85338393811064 -3.49302865894943 2.25597318603832e-014
endloop
endfacet
facet normal 0.0 0.0 -1.0
outer loop
vertex 22.619398 -6.91341700000005 0.0
vertex 7.85338393811064 -3.49302865894943 2.25597318603832e-014
vertex 8.22041825658971 -3.12170777514941 2.25597318603832e-014
endloop
endfacet
facet normal 0.0 0.0 -1.0
outer loop
vertex 22.619398 -6.91341700000005 0.0
vertex 8.22041825658971 -3.12170777514941 2.25597318603832e-014
vertex 8.47884126737132 -2.6680438718178 2.25597318603832e-014
endloop
endfacet
facet normal 0.0 0.0 -1.0
outer loop
vertex 22.619398 -6.91341700000005 0.0
vertex 8.47884126737132 -2.6680438718178 2.25597318603832e-014
vertex 8.6110418693349 -2.16295339425177 2.25597318603832e-014
endloop
endfacet
facet normal 0.0 0.0 -1.0
outer loop
vertex 22.619398 -6.91341700000005 0.0
vertex 8.6110418693349 -2.16295339425177 2.25597318603832e-014
vertex 19.2248817895988 -3.32763056237314 2.25597318603832e-014
endloop
endfacet
facet normal 0.0 0.0 -1.0
outer loop
vertex 19.2248817895988 -3.32763056237314 2.25597318603832e-014
vertex 8.6110418693349 -2.16295339425177 2.25597318603832e-014
vertex 18.9070445444031 -2.91341700000003 2.25597318603832e-014
endloop
endfacet
facet normal 0.0 0.0 -1.0
outer loop
vertex 18.9070445444031 -2.91341700000003 2.25597318603832e-014
vertex 8.6110418693349 -2.16295339425177 2.25597318603832e-014
vertex 18.7072436993938 -2.43105509020506 2.25597318603832e-014
endloop
endfacet
facet normal 0.0 0.0 -1.0
outer loop
vertex 18.7072436993938 -2.43105509020506 2.25597318603832e-014
vertex 8.6110418693349 -2.16295339425177 2.25597318603832e-014
vertex 18.6390953519719 -1.91341700000004 2.25597318603832e-014
endloop
endfacet
facet normal 0.0 0.0 -1.0
outer loop
vertex 22.619398 -6.91341700000005 0.0
vertex 19.2248817895988 -3.32763056237314 2.25597318603832e-014
vertex 19.6390953519719 -3.6454678075689 2.25597318603832e-014
endloop
endfacet
facet normal 0.0 0.0 -1.0
outer loop
vertex 22.619398 -6.91341700000005 0.0
vertex 19.6390953519719 -3.6454678075689 2.25597318603832e-014
vertex 20.1214572617669 -3.84526865257816 2.25597318603832e-014
endloop
endfacet
facet normal 0.0 0.0 -1.0
outer loop
vertex 22.619398 -6.91341700000005 0.0
vertex 20.1214572617669 -3.84526865257816 2.25597318603832e-014
vertex 20.6390953519719 -3.91341700000003 2.25597318603832e-014
endloop
endfacet
facet normal 0.0 0.0 -1.0
outer loop
vertex 22.619398 -6.91341700000005 0.0
vertex 20.6390953519719 -3.91341700000003 2.25597318603832e-014
vertex 22.4745209508959 -3.88774105602462 2.25597318603832e-014
endloop
endfacet
facet normal 0.0 0.0 -1.0
outer loop
vertex 22.619398 -6.91341700000005 0.0
vertex 22.4745209508959 -3.88774105602462 2.25597318603832e-014
vertex 22.995804358551 -3.8584665177533 2.25597318603832e-014
endloop
endfacet
facet normal 0.0 0.0 -1.0
outer loop
vertex 22.619398 -6.91341700000005 0.0
vertex 22.995804358551 -3.8584665177533 2.25597318603832e-014
vertex 24.532815 -6.53281500000007 0.0
endloop
endfacet
facet normal 0.0 0.0 -1.0
outer loop
vertex 24.532815 -6.53281500000007 0.0
vertex 22.995804358551 -3.8584665177533 2.25597318603832e-014
vertex 23.4917486567797 -3.69527141138727 2.25597318603832e-014
endloop
endfacet
facet normal 0.0 0.0 -1.0
outer loop
vertex 24.532815 -6.53281500000007 0.0
vertex 23.4917486567797 -3.69527141138727 2.25597318603832e-014
vertex 23.9285560612447 -3.40927721373276 2.25597318603832e-014
endloop
endfacet
facet normal 0.0 0.0 -1.0
outer loop
vertex 24.532815 -6.53281500000007 0.0
vertex 23.9285560612447 -3.40927721373276 2.25597318603832e-014
vertex 24.2764588691898 -3.01997395673208 2.25597318603832e-014
endloop
endfacet
facet normal 0.0 0.0 -1.0
outer loop
vertex 24.532815 -6.53281500000007 0.0
vertex 24.2764588691898 -3.01997395673208 2.25597318603832e-014
vertex 24.5117480791904 -2.55389201399586 2.25597318603832e-014
endloop
endfacet
facet normal 0.0 0.0 -1.0
outer loop
vertex 24.532815 -6.53281500000007 0.0
vertex 24.5117480791904 -2.55389201399586 2.25597318603832e-014
vertex 24.6183891204185 -2.04279409968469 2.25597318603832e-014
endloop
endfacet
facet normal 0.0 0.0 -1.0
outer loop
vertex 24.532815 -6.53281500000007 0.0
vertex 24.6183891204185 -2.04279409968469 2.25597318603832e-014
vertex 26.154932 -5.44895100000003 0.0
endloop
endfacet
facet normal 0.0 0.0 -1.0
outer loop
vertex 26.154932 -5.44895100000003 0.0
vertex 24.6183891204185 -2.04279409968469 2.25597318603832e-014
vertex 26.154932 1.62211699999998 0.0
endloop
endfacet
facet normal 0.0 0.0 -1.0
outer loop
vertex 26.154932 -5.44895100000003 0.0
vertex 26.154932 1.62211699999998 0.0
vertex 27.238796 0.0 0.0
endloop
endfacet
facet normal 0.0 0.0 -1.0
outer loop
vertex 26.154932 -5.44895100000003 0.0
vertex 27.238796 0.0 0.0
vertex 27.238796 -3.82683400000003 0.0
endloop
endfacet
facet normal 0.0 0.0 -1.0
outer loop
vertex 27.238796 -3.82683400000003 0.0
vertex 27.238796 0.0 0.0
vertex 27.619398 -1.91341700000004 0.0
endloop
endfacet
facet normal 0.195090171503055 0.98078531034213 -0.0
outer loop
vertex 22.619398 3.086583 7.00000000000002
vertex 24.532815 2.70598099999998 0.0
vertex 22.619398 3.086583 0.0
endloop
endfacet
facet normal 0.195090171503055 0.98078531034213 -0.0
outer loop
vertex 24.532815 2.70598099999998 0.0
vertex 22.619398 3.086583 7.00000000000002
vertex 24.532815 2.70598099999998 7.00000000000002
endloop
endfacet
facet normal -0.204252187653491 -0.978918302944001 0.0
outer loop
vertex 23.2845400783897 -0.00556697139025175 7.00000000000002
vertex 22.7734421640786 0.101074069837848 2.25597318603832e-014
vertex 23.2845400783897 -0.00556697139025175 2.25597318603832e-014
endloop
endfacet
facet normal -0.204252187653491 -0.978918302944001 0.0
outer loop
vertex 22.7734421640786 0.101074069837848 2.25597318603832e-014
vertex 23.2845400783897 -0.00556697139025175 7.00000000000002
vertex 22.7734421640786 0.101074069837848 7.00000000000002
endloop
endfacet
facet normal 1.0 -0.0 -0.0
outer loop
vertex 10.119398 -1.01341700000002 6.5
vertex 10.119398 -2.81341700000006 7.00000000000002
vertex 10.119398 -2.81341700000006 6.5
endloop
endfacet
facet normal 1.0 -0.0 -0.0
outer loop
vertex 10.119398 -2.81341700000006 7.00000000000002
vertex 10.119398 -1.01341700000002 6.5
vertex 10.119398 -1.01341700000002 7.00000000000002
endloop
endfacet
facet normal 0.130526192220078 0.991444861373807 -0.0
outer loop
vertex 20.1214572617669 -3.84526865257816 7.00000000000002
vertex 20.6390953519719 -3.91341700000003 2.25597318603832e-014
vertex 20.1214572617669 -3.84526865257816 2.25597318603832e-014
endloop
endfacet
facet normal 0.130526192220078 0.991444861373807 -0.0
outer loop
vertex 20.6390953519719 -3.91341700000003 2.25597318603832e-014
vertex 20.1214572617669 -3.84526865257816 7.00000000000002
vertex 20.6390953519719 -3.91341700000003 7.00000000000002
endloop
endfacet
facet normal 0.555570258673961 0.83146959516085 -0.0
outer loop
vertex 24.532815 2.70598099999998 7.00000000000002
vertex 26.154932 1.62211699999998 0.0
vertex 24.532815 2.70598099999998 0.0
endloop
endfacet
facet normal 0.555570258673961 0.83146959516085 -0.0
outer loop
vertex 26.154932 1.62211699999998 0.0
vertex 24.532815 2.70598099999998 7.00000000000002
vertex 26.154932 1.62211699999998 7.00000000000002
endloop
endfacet
facet normal 0.83146959516085 0.555570258673961 -0.0
outer loop
vertex 26.154932 1.62211699999998 0.0
vertex 27.238796 0.0 7.00000000000002
vertex 27.238796 0.0 0.0
endloop
endfacet
facet normal 0.83146959516085 0.555570258673961 -0.0
outer loop
vertex 27.238796 0.0 7.00000000000002
vertex 26.154932 1.62211699999998 0.0
vertex 26.154932 1.62211699999998 7.00000000000002
endloop
endfacet
facet normal 0.980785310342131 0.19509017150305 -0.0
outer loop
vertex 27.238796 0.0 0.0
vertex 27.619398 -1.91341700000004 7.00000000000002
vertex 27.619398 -1.91341700000004 0.0
endloop
endfacet
facet normal 0.980785310342131 0.19509017150305 -0.0
outer loop
vertex 27.619398 -1.91341700000004 7.00000000000002
vertex 27.238796 0.0 0.0
vertex 27.238796 0.0 7.00000000000002
endloop
endfacet
facet normal 0.98078531034213 -0.195090171503055 -0.0
outer loop
vertex 27.619398 -1.91341700000004 0.0
vertex 27.238796 -3.82683400000003 7.00000000000002
vertex 27.238796 -3.82683400000003 0.0
endloop
endfacet
facet normal 0.98078531034213 -0.195090171503055 -0.0
outer loop
vertex 27.238796 -3.82683400000003 7.00000000000002
vertex 27.619398 -1.91341700000004 0.0
vertex 27.619398 -1.91341700000004 7.00000000000002
endloop
endfacet
facet normal -0.0139877268982606 0.999902166962458 -0.0
outer loop
vertex 20.6390953519719 -3.91341700000003 7.00000000000002
vertex 22.4745209508959 -3.88774105602462 2.25597318603832e-014
vertex 20.6390953519719 -3.91341700000003 2.25597318603832e-014
endloop
endfacet
facet normal -0.0139877268982606 0.999902166962458 -0.0
outer loop
vertex 22.4745209508959 -3.88774105602462 2.25597318603832e-014
vertex 20.6390953519719 -3.91341700000003 7.00000000000002
vertex 22.4745209508959 -3.88774105602462 7.00000000000002
endloop
endfacet
facet normal -0.0 -0.0 1.0
outer loop
vertex 17.119398 -3.51341700000003 7.00000000000002
vertex 10.119398 -2.81341700000006 7.00000000000002
vertex 10.119398 -3.51341700000003 7.00000000000002
endloop
endfacet
facet normal -0.0 -0.0 1.0
outer loop
vertex 10.119398 -2.81341700000006 7.00000000000002
vertex 17.119398 -3.51341700000003 7.00000000000002
vertex 17.119398 -2.81341700000006 7.00000000000002
endloop
endfacet
facet normal -0.505019251672145 0.863108078655568 -0.0
outer loop
vertex 7.40275109418553 -3.75670161862377 7.00000000000002
vertex 7.85338393811064 -3.49302865894943 2.25597318603832e-014
vertex 7.40275109418553 -3.75670161862377 2.25597318603832e-014
endloop
endfacet
facet normal -0.505019251672145 0.863108078655568 -0.0
outer loop
vertex 7.85338393811064 -3.49302865894943 2.25597318603832e-014
vertex 7.40275109418553 -3.75670161862377 7.00000000000002
vertex 7.85338393811064 -3.49302865894943 7.00000000000002
endloop
endfacet
facet normal -0.056070237270781 0.998426826809255 -0.0
outer loop
vertex 22.4745209508959 -3.88774105602462 7.00000000000002
vertex 22.995804358551 -3.8584665177533 2.25597318603832e-014
vertex 22.4745209508959 -3.88774105602462 2.25597318603832e-014
endloop
endfacet
facet normal -0.056070237270781 0.998426826809255 -0.0
outer loop
vertex 22.995804358551 -3.8584665177533 2.25597318603832e-014
vertex 22.4745209508959 -3.88774105602462 7.00000000000002
vertex 22.995804358551 -3.8584665177533 7.00000000000002
endloop
endfacet
facet normal -0.312571568185522 0.949894212405805 -0.0
outer loop
vertex 22.995804358551 -3.8584665177533 7.00000000000002
vertex 23.4917486567797 -3.69527141138727 2.25597318603832e-014
vertex 22.995804358551 -3.8584665177533 2.25597318603832e-014
endloop
endfacet
facet normal -0.312571568185522 0.949894212405805 -0.0
outer loop
vertex 23.4917486567797 -3.69527141138727 2.25597318603832e-014
vertex 22.995804358551 -3.8584665177533 7.00000000000002
vertex 23.4917486567797 -3.69527141138727 7.00000000000002
endloop
endfacet
facet normal -0.547771663277292 0.836627877201345 -0.0
outer loop
vertex 23.4917486567797 -3.69527141138727 7.00000000000002
vertex 23.9285560612447 -3.40927721373276 2.25597318603832e-014
vertex 23.4917486567797 -3.69527141138727 2.25597318603832e-014
endloop
endfacet
facet normal -0.547771663277292 0.836627877201345 -0.0
outer loop
vertex 23.9285560612447 -3.40927721373276 2.25597318603832e-014
vertex 23.4917486567797 -3.69527141138727 7.00000000000002
vertex 23.9285560612447 -3.40927721373276 7.00000000000002
endloop
endfacet
facet normal -0.19509017150305 0.980785310342131 -0.0
outer loop
vertex 2.70598099999998 2.70598099999998 7.00000000000002
vertex 4.61939800000001 3.086583 0.0
vertex 2.70598099999998 2.70598099999998 0.0
endloop
endfacet
facet normal -0.19509017150305 0.980785310342131 -0.0
outer loop
vertex 4.61939800000001 3.086583 0.0
vertex 2.70598099999998 2.70598099999998 7.00000000000002
vertex 4.61939800000001 3.086583 7.00000000000002
endloop
endfacet
facet normal -0.745642024752321 0.666346734758458 0.0
outer loop
vertex 24.2764588691898 -3.01997395673208 7.00000000000002
vertex 23.9285560612447 -3.40927721373276 2.25597318603832e-014
vertex 23.9285560612447 -3.40927721373276 7.00000000000002
endloop
endfacet
facet normal -0.745642024752321 0.666346734758458 0.0
outer loop
vertex 23.9285560612447 -3.40927721373276 2.25597318603832e-014
vertex 24.2764588691898 -3.01997395673208 7.00000000000002
vertex 24.2764588691898 -3.01997395673208 2.25597318603832e-014
endloop
endfacet
facet normal -0.892698114472062 0.450655163531968 0.0
outer loop
vertex 24.5117480791904 -2.55389201399586 7.00000000000002
vertex 24.2764588691898 -3.01997395673208 2.25597318603832e-014
vertex 24.2764588691898 -3.01997395673208 7.00000000000002
endloop
endfacet
facet normal -0.892698114472062 0.450655163531968 0.0
outer loop
vertex 24.2764588691898 -3.01997395673208 2.25597318603832e-014
vertex 24.5117480791904 -2.55389201399586 7.00000000000002
vertex 24.5117480791904 -2.55389201399586 2.25597318603832e-014
endloop
endfacet
facet normal -0.978918302944001 0.204252187653491 0.0
outer loop
vertex 24.6183891204185 -2.04279409968469 7.00000000000002
vertex 24.5117480791904 -2.55389201399586 2.25597318603832e-014
vertex 24.5117480791904 -2.55389201399586 7.00000000000002
endloop
endfacet
facet normal -0.978918302944001 0.204252187653491 0.0
outer loop
vertex 24.5117480791904 -2.55389201399586 2.25597318603832e-014
vertex 24.6183891204185 -2.04279409968469 7.00000000000002
vertex 24.6183891204185 -2.04279409968469 2.25597318603832e-014
endloop
endfacet
facet normal -0.99842682680926 -0.0560702372706949 0.0
outer loop
vertex 24.5891145821472 -1.52151069202965 7.00000000000002
vertex 24.6183891204185 -2.04279409968469 2.25597318603832e-014
vertex 24.6183891204185 -2.04279409968469 7.00000000000002
endloop
endfacet
facet normal -0.99842682680926 -0.0560702372706949 0.0
outer loop
vertex 24.6183891204185 -2.04279409968469 2.25597318603832e-014
vertex 24.5891145821472 -1.52151069202965 7.00000000000002
vertex 24.5891145821472 -1.52151069202965 2.25597318603832e-014
endloop
endfacet
facet normal 1.0 -0.0 -0.0
outer loop
vertex 10.119398 1.48658299999996 6.5
vertex 10.119398 -0.31341700000004 7.00000000000002
vertex 10.119398 -0.31341700000004 6.5
endloop
endfacet
facet normal 1.0 -0.0 -0.0
outer loop
vertex 10.119398 -0.31341700000004 7.00000000000002
vertex 10.119398 1.48658299999996 6.5
vertex 10.119398 1.48658299999996 7.00000000000002
endloop
endfacet
facet normal 0.991444861373807 -0.130526192220078 -0.0
outer loop
vertex 18.7072436993938 -1.39577890979501 2.25597318603832e-014
vertex 18.6390953519719 -1.91341700000004 7.00000000000002
vertex 18.6390953519719 -1.91341700000004 2.25597318603832e-014
endloop
endfacet
facet normal 0.991444861373807 -0.130526192220078 -0.0
outer loop
vertex 18.6390953519719 -1.91341700000004 7.00000000000002
vertex 18.7072436993938 -1.39577890979501 2.25597318603832e-014
vertex 18.7072436993938 -1.39577890979501 7.00000000000002
endloop
endfacet
facet normal -0.702989783575957 -0.711199946701228 0.0
outer loop
vertex 8.2062816911671 -0.686703094107106 7.00000000000002
vertex 7.83496080736704 -0.319668775628029 2.25597318603832e-014
vertex 8.2062816911671 -0.686703094107106 2.25597318603832e-014
endloop
endfacet
facet normal -0.702989783575957 -0.711199946701228 0.0
outer loop
vertex 7.83496080736704 -0.319668775628029 2.25597318603832e-014
vertex 8.2062816911671 -0.686703094107106 7.00000000000002
vertex 7.83496080736704 -0.319668775628029 7.00000000000002
endloop
endfacet
facet normal 0.0 -1.0 0.0
outer loop
vertex 17.119398 -6.01341700000007 7.00000000000002
vertex 10.119398 -6.01341700000007 6.5
vertex 17.119398 -6.01341700000007 6.5
endloop
endfacet
facet normal 0.0 -1.0 0.0
outer loop
vertex 10.119398 -6.01341700000007 6.5
vertex 17.119398 -6.01341700000007 7.00000000000002
vertex 10.119398 -6.01341700000007 7.00000000000002
endloop
endfacet
facet normal -0.949894212405805 -0.312571568185522 0.0
outer loop
vertex 24.4259194757812 -1.02556639380087 7.00000000000002
vertex 24.5891145821472 -1.52151069202965 2.25597318603832e-014
vertex 24.5891145821472 -1.52151069202965 7.00000000000002
endloop
endfacet
facet normal -0.949894212405805 -0.312571568185522 0.0
outer loop
vertex 24.5891145821472 -1.52151069202965 2.25597318603832e-014
vertex 24.4259194757812 -1.02556639380087 7.00000000000002
vertex 24.4259194757812 -1.02556639380087 2.25597318603832e-014
endloop
endfacet
facet normal 0.923879532511295 -0.382683432365071 -0.0
outer loop
vertex 18.9070445444031 -0.913417000000038 2.25597318603832e-014
vertex 18.7072436993938 -1.39577890979501 7.00000000000002
vertex 18.7072436993938 -1.39577890979501 2.25597318603832e-014
endloop
endfacet
facet normal 0.923879532511295 -0.382683432365071 -0.0
outer loop
vertex 18.7072436993938 -1.39577890979501 7.00000000000002
vertex 18.9070445444031 -0.913417000000038 2.25597318603832e-014
vertex 18.9070445444031 -0.913417000000038 7.00000000000002
endloop
endfacet
facet normal -0.494963896491274 -0.868913540676042 0.0
outer loop
vertex 7.83496080736704 -0.319668775628029 7.00000000000002
vertex 7.38129690403551 -0.0612457648464179 2.25597318603832e-014
vertex 7.83496080736704 -0.319668775628029 2.25597318603832e-014
endloop
endfacet
facet normal -0.494963896491274 -0.868913540676042 0.0
outer loop
vertex 7.38129690403551 -0.0612457648464179 2.25597318603832e-014
vertex 7.83496080736704 -0.319668775628029 7.00000000000002
vertex 7.38129690403551 -0.0612457648464179 7.00000000000002
endloop
endfacet
facet normal -0.980785310342131 0.19509017150305 0.0
outer loop
vertex 0.0 0.0 7.00000000000002
vertex -0.380602000000023 -1.91341700000004 0.0
vertex -0.380602000000023 -1.91341700000004 7.00000000000002
endloop
endfacet
facet normal -0.980785310342131 0.19509017150305 0.0
outer loop
vertex -0.380602000000023 -1.91341700000004 0.0
vertex 0.0 0.0 7.00000000000002
vertex 0.0 0.0 0.0
endloop
endfacet
facet normal 0.0 -1.0 0.0
outer loop
vertex 17.119398 -1.01341700000002 7.00000000000002
vertex 10.119398 -1.01341700000002 6.5
vertex 17.119398 -1.01341700000002 6.5
endloop
endfacet
facet normal 0.0 -1.0 0.0
outer loop
vertex 10.119398 -1.01341700000002 6.5
vertex 17.119398 -1.01341700000002 7.00000000000002
vertex 10.119398 -1.01341700000002 7.00000000000002
endloop
endfacet
facet normal 0.997907128908591 -0.0646634523777762 -0.0
outer loop
vertex 2.6777624316626 -1.52469046939146 2.25597318603832e-014
vertex 2.6440013348039 -2.04570254029423 7.00000000000002
vertex 2.6440013348039 -2.04570254029423 2.25597318603832e-014
endloop
endfacet
facet normal 0.997907128908591 -0.0646634523777762 -0.0
outer loop
vertex 2.6440013348039 -2.04570254029423 7.00000000000002
vertex 2.6777624316626 -1.52469046939146 2.25597318603832e-014
vertex 2.6777624316626 -1.52469046939146 7.00000000000002
endloop
endfacet
facet normal -0.967412112801362 0.253207037827162 0.0
outer loop
vertex 8.6110418693349 -2.16295339425177 7.00000000000002
vertex 8.47884126737132 -2.6680438718178 2.25597318603832e-014
vertex 8.47884126737132 -2.6680438718178 7.00000000000002
endloop
endfacet
facet normal -0.967412112801362 0.253207037827162 0.0
outer loop
vertex 8.47884126737132 -2.6680438718178 2.25597318603832e-014
vertex 8.6110418693349 -2.16295339425177 7.00000000000002
vertex 8.6110418693349 -2.16295339425177 2.25597318603832e-014
endloop
endfacet
facet normal -0.831469595160854 -0.555570258673956 0.0
outer loop
vertex 0.0 -3.82683400000003 7.00000000000002
vertex 1.083864 -5.44895100000003 0.0
vertex 1.083864 -5.44895100000003 7.00000000000002
endloop
endfacet
facet normal -0.831469595160854 -0.555570258673956 0.0
outer loop
vertex 1.083864 -5.44895100000003 0.0
vertex 0.0 -3.82683400000003 7.00000000000002
vertex 0.0 -3.82683400000003 0.0
endloop
endfacet
facet normal 0.831469595160854 -0.555570258673956 -0.0
outer loop
vertex 27.238796 -3.82683400000003 0.0
vertex 26.154932 -5.44895100000003 7.00000000000002
vertex 26.154932 -5.44895100000003 0.0
endloop
endfacet
facet normal 0.831469595160854 -0.555570258673956 -0.0
outer loop
vertex 26.154932 -5.44895100000003 7.00000000000002
vertex 27.238796 -3.82683400000003 0.0
vertex 27.238796 -3.82683400000003 7.00000000000002
endloop
endfacet
facet normal 0.0 -1.0 0.0
outer loop
vertex 17.119398 -3.51341700000003 7.00000000000002
vertex 10.119398 -3.51341700000003 6.5
vertex 17.119398 -3.51341700000003 6.5
endloop
endfacet
facet normal 0.0 -1.0 0.0
outer loop
vertex 10.119398 -3.51341700000003 6.5
vertex 17.119398 -3.51341700000003 7.00000000000002
vertex 10.119398 -3.51341700000003 7.00000000000002
endloop
endfacet
facet normal 0.793353340291252 -0.608761429008699 -0.0
outer loop
vertex 19.2248817895988 -0.499203437626938 2.25597318603832e-014
vertex 18.9070445444031 -0.913417000000038 7.00000000000002
vertex 18.9070445444031 -0.913417000000038 2.25597318603832e-014
endloop
endfacet
facet normal 0.793353340291252 -0.608761429008699 -0.0
outer loop
vertex 18.9070445444031 -0.913417000000038 7.00000000000002
vertex 19.2248817895988 -0.499203437626938 2.25597318603832e-014
vertex 19.2248817895988 -0.499203437626938 7.00000000000002
endloop
endfacet
facet normal -0.836627877201319 -0.547771663277331 0.0
outer loop
vertex 24.1399252781266 -0.588758989335965 7.00000000000002
vertex 24.4259194757812 -1.02556639380087 2.25597318603832e-014
vertex 24.4259194757812 -1.02556639380087 7.00000000000002
endloop
endfacet
facet normal -0.836627877201319 -0.547771663277331 0.0
outer loop
vertex 24.4259194757812 -1.02556639380087 2.25597318603832e-014
vertex 24.1399252781266 -0.588758989335965 7.00000000000002
vertex 24.1399252781266 -0.588758989335965 2.25597318603832e-014
endloop
endfacet
facet normal -0.0 -0.0 1.0
outer loop
vertex 17.119398 -6.91341700000005 6.5
vertex 10.119398 -6.01341700000007 6.5
vertex 10.119398 -6.91341700000005 6.5
endloop
endfacet
facet normal -0.0 -0.0 1.0
outer loop
vertex 10.119398 -6.01341700000007 6.5
vertex 17.119398 -6.91341700000005 6.5
vertex 17.119398 -6.01341700000007 6.5
endloop
endfacet
facet normal 0.608761429008699 -0.793353340291252 0.0
outer loop
vertex 19.6390953519719 -0.18136619243117 7.00000000000002
vertex 19.2248817895988 -0.499203437626938 2.25597318603832e-014
vertex 19.6390953519719 -0.18136619243117 2.25597318603832e-014
endloop
endfacet
facet normal 0.608761429008699 -0.793353340291252 0.0
outer loop
vertex 19.2248817895988 -0.499203437626938 2.25597318603832e-014
vertex 19.6390953519719 -0.18136619243117 7.00000000000002
vertex 19.2248817895988 -0.499203437626938 7.00000000000002
endloop
endfacet
facet normal -0.666346734758506 -0.745642024752278 0.0
outer loop
vertex 24.1399252781266 -0.588758989335965 7.00000000000002
vertex 23.750622021126 -0.240856181390776 2.25597318603832e-014
vertex 24.1399252781266 -0.588758989335965 2.25597318603832e-014
endloop
endfacet
facet normal -0.666346734758506 -0.745642024752278 0.0
outer loop
vertex 23.750622021126 -0.240856181390776 2.25597318603832e-014
vertex 24.1399252781266 -0.588758989335965 7.00000000000002
vertex 23.750622021126 -0.240856181390776 7.00000000000002
endloop
endfacet
facet normal -1.0 0.0 0.0
outer loop
vertex 17.119398 3.086583 7.00000000000002
vertex 17.119398 2.18658299999998 6.5
vertex 17.119398 2.18658299999998 7.00000000000002
endloop
endfacet
facet normal -1.0 0.0 0.0
outer loop
vertex 17.119398 2.18658299999998 6.5
vertex 17.119398 3.086583 7.00000000000002
vertex 17.119398 3.086583 6.5
endloop
endfacet
facet normal 0.382683432365144 -0.923879532511264 0.0
outer loop
vertex 20.1214572617669 0.0184346525781301 7.00000000000002
vertex 19.6390953519719 -0.18136619243117 2.25597318603832e-014
vertex 20.1214572617669 0.0184346525781301 2.25597318603832e-014
endloop
endfacet
facet normal 0.382683432365144 -0.923879532511264 0.0
outer loop
vertex 19.6390953519719 -0.18136619243117 2.25597318603832e-014
vertex 20.1214572617669 0.0184346525781301 7.00000000000002
vertex 19.6390953519719 -0.18136619243117 7.00000000000002
endloop
endfacet
facet normal -0.0 -0.0 1.0
outer loop
vertex 0.0 -3.82683400000003 7.00000000000002
vertex 0.0 0.0 7.00000000000002
vertex -0.380602000000023 -1.91341700000004 7.00000000000002
endloop
endfacet
facet normal -0.0 -0.0 1.0
outer loop
vertex 0.0 0.0 7.00000000000002
vertex 0.0 -3.82683400000003 7.00000000000002
vertex 1.083864 -5.44895100000003 7.00000000000002
endloop
endfacet
facet normal -0.0 -0.0 1.0
outer loop
vertex 0.0 0.0 7.00000000000002
vertex 1.083864 -5.44895100000003 7.00000000000002
vertex 1.083864 1.62211699999998 7.00000000000002
endloop
endfacet
facet normal -0.0 -0.0 1.0
outer loop
vertex 1.083864 1.62211699999998 7.00000000000002
vertex 1.083864 -5.44895100000003 7.00000000000002
vertex 2.70598099999998 -6.53281500000007 7.00000000000002
endloop
endfacet
facet normal -0.0 -0.0 1.0
outer loop
vertex 1.083864 1.62211699999998 7.00000000000002
vertex 2.70598099999998 -6.53281500000007 7.00000000000002
vertex 2.6440013348039 -2.04570254029423 7.00000000000002
endloop
endfacet
facet normal -0.0 -0.0 1.0
outer loop
vertex 2.6440013348039 -2.04570254029423 7.00000000000002
vertex 2.70598099999998 -6.53281500000007 7.00000000000002
vertex 2.74623846610218 -2.55769957023811 7.00000000000002
endloop
endfacet
facet normal -0.0 -0.0 1.0
outer loop
vertex 2.74623846610218 -2.55769957023811 7.00000000000002
vertex 2.70598099999998 -6.53281500000007 7.00000000000002
vertex 4.61939800000001 -6.91341700000005 7.00000000000002
endloop
endfacet
facet normal -0.0 -0.0 1.0
outer loop
vertex 2.74623846610218 -2.55769957023811 7.00000000000002
vertex 4.61939800000001 -6.91341700000005 7.00000000000002
vertex 2.97750653401433 -3.02578980774756 7.00000000000002
endloop
endfacet
facet normal -0.0 -0.0 1.0
outer loop
vertex 2.97750653401433 -3.02578980774756 7.00000000000002
vertex 4.61939800000001 -6.91341700000005 7.00000000000002
vertex 3.32204500190063 -3.41807367669197 7.00000000000002
endloop
endfacet
facet normal -0.0 -0.0 1.0
outer loop
vertex 3.32204500190063 -3.41807367669197 7.00000000000002
vertex 4.61939800000001 -6.91341700000005 7.00000000000002
vertex 3.75637414255142 -3.70781767968255 7.00000000000002
endloop
endfacet
facet normal -0.0 -0.0 1.0
outer loop
vertex 3.75637414255142 -3.70781767968255 7.00000000000002
vertex 4.61939800000001 -6.91341700000005 7.00000000000002
vertex 4.25089514279412 -3.87527624174013 7.00000000000002
endloop
endfacet
facet normal -0.0 -0.0 1.0
outer loop
vertex 4.25089514279412 -3.87527624174013 7.00000000000002
vertex 4.61939800000001 -6.91341700000005 7.00000000000002
vertex 4.77190721369689 -3.90903733859883 7.00000000000002
endloop
endfacet
facet normal -0.0 -0.0 1.0
outer loop
vertex 4.77190721369689 -3.90903733859883 7.00000000000002
vertex 4.61939800000001 -6.91341700000005 7.00000000000002
vertex 10.119398 -6.91341700000005 7.00000000000002
endloop
endfacet
facet normal -0.0 -0.0 1.0
outer loop
vertex 4.77190721369689 -3.90903733859883 7.00000000000002
vertex 10.119398 -6.91341700000005 7.00000000000002
vertex 6.89922960842193 -3.89475777771077 7.00000000000002
endloop
endfacet
facet normal -0.0 -0.0 1.0
outer loop
vertex 6.89922960842193 -3.89475777771077 7.00000000000002
vertex 10.119398 -6.91341700000005 7.00000000000002
vertex 7.40275109418553 -3.75670161862377 7.00000000000002
endloop
endfacet
facet normal -0.0 -0.0 1.0
outer loop
vertex 7.40275109418553 -3.75670161862377 7.00000000000002
vertex 10.119398 -6.91341700000005 7.00000000000002
vertex 7.85338393811064 -3.49302865894943 7.00000000000002
endloop
endfacet
facet normal -0.0 -0.0 1.0
outer loop
vertex 7.85338393811064 -3.49302865894943 7.00000000000002
vertex 10.119398 -6.91341700000005 7.00000000000002
vertex 8.22041825658971 -3.12170777514941 7.00000000000002
endloop
endfacet
facet normal -0.0 -0.0 1.0
outer loop
vertex 8.22041825658971 -3.12170777514941 7.00000000000002
vertex 10.119398 -6.91341700000005 7.00000000000002
vertex 8.47884126737132 -2.6680438718178 7.00000000000002
endloop
endfacet
facet normal -0.0 -0.0 1.0
outer loop
vertex 8.47884126737132 -2.6680438718178 7.00000000000002
vertex 10.119398 -6.91341700000005 7.00000000000002
vertex 8.6110418693349 -2.16295339425177 7.00000000000002
endloop
endfacet
facet normal -0.0 -0.0 1.0
outer loop
vertex 17.119398 -1.01341700000002 7.00000000000002
vertex 10.119398 -0.31341700000004 7.00000000000002
vertex 10.119398 -1.01341700000002 7.00000000000002
endloop
endfacet
facet normal -0.0 -0.0 1.0
outer loop
vertex 10.119398 -0.31341700000004 7.00000000000002
vertex 17.119398 -1.01341700000002 7.00000000000002
vertex 17.119398 -0.31341700000004 7.00000000000002
endloop
endfacet
facet normal -0.0 -0.0 1.0
outer loop
vertex 2.6440013348039 -2.04570254029423 7.00000000000002
vertex 2.70598099999998 2.70598099999998 7.00000000000002
vertex 1.083864 1.62211699999998 7.00000000000002
endloop
endfacet
facet normal -0.0 -0.0 1.0
outer loop
vertex 2.70598099999998 2.70598099999998 7.00000000000002
vertex 2.6440013348039 -2.04570254029423 7.00000000000002
vertex 2.6777624316626 -1.52469046939146 7.00000000000002
endloop
endfacet
facet normal -0.0 -0.0 1.0
outer loop
vertex 2.70598099999998 2.70598099999998 7.00000000000002
vertex 2.6777624316626 -1.52469046939146 7.00000000000002
vertex 2.84522099372014 -1.03016946914876 7.00000000000002
endloop
endfacet
facet normal -0.0 -0.0 1.0
outer loop
vertex 2.70598099999998 2.70598099999998 7.00000000000002
vertex 2.84522099372014 -1.03016946914876 7.00000000000002
vertex 4.61939800000001 3.086583 7.00000000000002
endloop
endfacet
facet normal -0.0 -0.0 1.0
outer loop
vertex 4.61939800000001 3.086583 7.00000000000002
vertex 2.84522099372014 -1.03016946914876 7.00000000000002
vertex 3.13496499671076 -0.595840328497973 7.00000000000002
endloop
endfacet
facet normal -0.0 -0.0 1.0
outer loop
vertex 4.61939800000001 3.086583 7.00000000000002
vertex 3.13496499671076 -0.595840328497973 7.00000000000002
vertex 3.52724886565522 -0.251301860611669 7.00000000000002
endloop
endfacet
facet normal -0.0 -0.0 1.0
outer loop
vertex 4.61939800000001 3.086583 7.00000000000002
vertex 3.52724886565522 -0.251301860611669 7.00000000000002
vertex 3.99533910316466 -0.0200337926995687 7.00000000000002
endloop
endfacet
facet normal -0.0 -0.0 1.0
outer loop
vertex 4.61939800000001 3.086583 7.00000000000002
vertex 3.99533910316466 -0.0200337926995687 7.00000000000002
vertex 4.50733613310851 0.0822033385987581 7.00000000000002
endloop
endfacet
facet normal -0.0 -0.0 1.0
outer loop
vertex 4.61939800000001 3.086583 7.00000000000002
vertex 4.50733613310851 0.0822033385987581 7.00000000000002
vertex 6.87620642646943 0.0709548371171643 7.00000000000002
endloop
endfacet
facet normal -0.0 -0.0 1.0
outer loop
vertex 4.61939800000001 3.086583 7.00000000000002
vertex 6.87620642646943 0.0709548371171643 7.00000000000002
vertex 10.119398 3.086583 7.00000000000002
endloop
endfacet
facet normal -0.0 -0.0 1.0
outer loop
vertex 10.119398 3.086583 7.00000000000002
vertex 6.87620642646943 0.0709548371171643 7.00000000000002
vertex 7.38129690403551 -0.0612457648464179 7.00000000000002
endloop
endfacet
facet normal -0.0 -0.0 1.0
outer loop
vertex 10.119398 3.086583 7.00000000000002
vertex 7.38129690403551 -0.0612457648464179 7.00000000000002
vertex 7.83496080736704 -0.319668775628029 7.00000000000002
endloop
endfacet
facet normal -0.0 -0.0 1.0
outer loop
vertex 10.119398 3.086583 7.00000000000002
vertex 7.83496080736704 -0.319668775628029 7.00000000000002
vertex 8.2062816911671 -0.686703094107106 7.00000000000002
endloop
endfacet
facet normal -0.0 -0.0 1.0
outer loop
vertex 10.119398 3.086583 7.00000000000002
vertex 8.2062816911671 -0.686703094107106 7.00000000000002
vertex 8.46995465084144 -1.13733593803221 7.00000000000002
endloop
endfacet
facet normal -0.0 -0.0 1.0
outer loop
vertex 10.119398 3.086583 7.00000000000002
vertex 8.46995465084144 -1.13733593803221 7.00000000000002
vertex 8.60801080992844 -1.64085742379581 7.00000000000002
endloop
endfacet
facet normal -0.0 -0.0 1.0
outer loop
vertex 10.119398 3.086583 7.00000000000002
vertex 8.60801080992844 -1.64085742379581 7.00000000000002
vertex 8.6110418693349 -2.16295339425177 7.00000000000002
endloop
endfacet
facet normal -0.0 -0.0 1.0
outer loop
vertex 10.119398 3.086583 7.00000000000002
vertex 8.6110418693349 -2.16295339425177 7.00000000000002
vertex 10.119398 -6.91341700000005 7.00000000000002
endloop
endfacet
facet normal -0.0 -0.0 1.0
outer loop
vertex 10.119398 3.086583 7.00000000000002
vertex 10.119398 -6.91341700000005 7.00000000000002
vertex 10.119398 -6.01341700000007 7.00000000000002
endloop
endfacet
facet normal -0.0 -0.0 1.0
outer loop
vertex 10.119398 3.086583 7.00000000000002
vertex 10.119398 -6.01341700000007 7.00000000000002
vertex 10.119398 -5.31341700000005 7.00000000000002
endloop
endfacet
facet normal -0.0 -0.0 1.0
outer loop
vertex 10.119398 3.086583 7.00000000000002
vertex 10.119398 -5.31341700000005 7.00000000000002
vertex 10.119398 -3.51341700000003 7.00000000000002
endloop
endfacet
facet normal -0.0 -0.0 1.0
outer loop
vertex 10.119398 3.086583 7.00000000000002
vertex 10.119398 -3.51341700000003 7.00000000000002
vertex 10.119398 -2.81341700000006 7.00000000000002
endloop
endfacet
facet normal -0.0 -0.0 1.0
outer loop
vertex 10.119398 3.086583 7.00000000000002
vertex 10.119398 -2.81341700000006 7.00000000000002
vertex 10.119398 -1.01341700000002 7.00000000000002
endloop
endfacet
facet normal -0.0 -0.0 1.0
outer loop
vertex 10.119398 3.086583 7.00000000000002
vertex 10.119398 -1.01341700000002 7.00000000000002
vertex 10.119398 -0.31341700000004 7.00000000000002
endloop
endfacet
facet normal -0.0 -0.0 1.0
outer loop
vertex 10.119398 3.086583 7.00000000000002
vertex 10.119398 -0.31341700000004 7.00000000000002
vertex 10.119398 1.48658299999996 7.00000000000002
endloop
endfacet
facet normal -0.0 -0.0 1.0
outer loop
vertex 10.119398 3.086583 7.00000000000002
vertex 10.119398 1.48658299999996 7.00000000000002
vertex 10.119398 2.18658299999998 7.00000000000002
endloop
endfacet
facet normal -0.450655163531968 -0.892698114472062 0.0
outer loop
vertex 23.750622021126 -0.240856181390776 7.00000000000002
vertex 23.2845400783897 -0.00556697139025175 2.25597318603832e-014
vertex 23.750622021126 -0.240856181390776 2.25597318603832e-014
endloop
endfacet
facet normal -0.450655163531968 -0.892698114472062 0.0
outer loop
vertex 23.2845400783897 -0.00556697139025175 2.25597318603832e-014
vertex 23.750622021126 -0.240856181390776 7.00000000000002
vertex 23.2845400783897 -0.00556697139025175 7.00000000000002
endloop
endfacet
facet normal -1.0 0.0 0.0
outer loop
vertex 17.119398 -1.01341700000002 7.00000000000002
vertex 17.119398 -2.81341700000006 6.5
vertex 17.119398 -2.81341700000006 7.00000000000002
endloop
endfacet
facet normal -1.0 0.0 0.0
outer loop
vertex 17.119398 -2.81341700000006 6.5
vertex 17.119398 -1.01341700000002 7.00000000000002
vertex 17.119398 -1.01341700000002 6.5
endloop
endfacet
facet normal 0.555570258673977 -0.83146959516084 0.0
outer loop
vertex 26.154932 -5.44895100000003 7.00000000000002
vertex 24.532815 -6.53281500000007 0.0
vertex 26.154932 -5.44895100000003 0.0
endloop
endfacet
facet normal 0.555570258673977 -0.83146959516084 0.0
outer loop
vertex 24.532815 -6.53281500000007 0.0
vertex 26.154932 -5.44895100000003 7.00000000000002
vertex 24.532815 -6.53281500000007 7.00000000000002
endloop
endfacet
facet normal 0.320737468873827 0.947168135053334 -0.0
outer loop
vertex 3.75637414255142 -3.70781767968255 7.00000000000002
vertex 4.25089514279412 -3.87527624174013 2.25597318603832e-014
vertex 3.75637414255142 -3.70781767968255 2.25597318603832e-014
endloop
endfacet
facet normal 0.320737468873827 0.947168135053334 -0.0
outer loop
vertex 4.25089514279412 -3.87527624174013 2.25597318603832e-014
vertex 3.75637414255142 -3.70781767968255 7.00000000000002
vertex 4.25089514279412 -3.87527624174013 7.00000000000002
endloop
endfacet
facet normal 0.65990293217441 -0.751350863516917 0.0
outer loop
vertex 3.52724886565522 -0.251301860611669 7.00000000000002
vertex 3.13496499671076 -0.595840328497973 2.25597318603832e-014
vertex 3.52724886565522 -0.251301860611669 2.25597318603832e-014
endloop
endfacet
facet normal 0.65990293217441 -0.751350863516917 0.0
outer loop
vertex 3.13496499671076 -0.595840328497973 2.25597318603832e-014
vertex 3.52724886565522 -0.251301860611669 7.00000000000002
vertex 3.13496499671076 -0.595840328497973 7.00000000000002
endloop
endfacet
facet normal 0.991444861373807 0.130526192220078 -0.0
outer loop
vertex 18.6390953519719 -1.91341700000004 2.25597318603832e-014
vertex 18.7072436993938 -2.43105509020506 7.00000000000002
vertex 18.7072436993938 -2.43105509020506 2.25597318603832e-014
endloop
endfacet
facet normal 0.991444861373807 0.130526192220078 -0.0
outer loop
vertex 18.7072436993938 -2.43105509020506 7.00000000000002
vertex 18.6390953519719 -1.91341700000004 2.25597318603832e-014
vertex 18.6390953519719 -1.91341700000004 7.00000000000002
endloop
endfacet
facet normal -0.0 -0.0 1.0
outer loop
vertex 17.119398 -0.31341700000004 6.5
vertex 10.119398 1.48658299999996 6.5
vertex 10.119398 -0.31341700000004 6.5
endloop
endfacet
facet normal -0.0 -0.0 1.0
outer loop
vertex 10.119398 1.48658299999996 6.5
vertex 17.119398 -0.31341700000004 6.5
vertex 17.119398 1.48658299999996 6.5
endloop
endfacet
facet normal -0.0 -0.0 1.0
outer loop
vertex 17.119398 -2.81341700000006 6.5
vertex 10.119398 -1.01341700000002 6.5
vertex 10.119398 -2.81341700000006 6.5
endloop
endfacet
facet normal -0.0 -0.0 1.0
outer loop
vertex 10.119398 -1.01341700000002 6.5
vertex 17.119398 -2.81341700000006 6.5
vertex 17.119398 -1.01341700000002 6.5
endloop
endfacet
facet normal -0.00671230615380678 0.999977472219298 -0.0
outer loop
vertex 4.77190721369689 -3.90903733859883 7.00000000000002
vertex 6.89922960842193 -3.89475777771077 2.25597318603832e-014
vertex 4.77190721369689 -3.90903733859883 2.25597318603832e-014
endloop
endfacet
facet normal -0.00671230615380678 0.999977472219298 -0.0
outer loop
vertex 6.89922960842193 -3.89475777771077 2.25597318603832e-014
vertex 4.77190721369689 -3.90903733859883 7.00000000000002
vertex 6.89922960842193 -3.89475777771077 7.00000000000002
endloop
endfacet
facet normal -0.83146959516085 0.555570258673961 0.0
outer loop
vertex 1.083864 1.62211699999998 7.00000000000002
vertex 0.0 0.0 0.0
vertex 0.0 0.0 7.00000000000002
endloop
endfacet
facet normal -0.83146959516085 0.555570258673961 0.0
outer loop
vertex 0.0 0.0 0.0
vertex 1.083864 1.62211699999998 7.00000000000002
vertex 1.083864 1.62211699999998 0.0
endloop
endfacet
facet normal 0.0646634523777762 0.997907128908591 -0.0
outer loop
vertex 4.25089514279412 -3.87527624174013 7.00000000000002
vertex 4.77190721369689 -3.90903733859883 2.25597318603832e-014
vertex 4.25089514279412 -3.87527624174013 2.25597318603832e-014
endloop
endfacet
facet normal 0.0646634523777762 0.997907128908591 -0.0
outer loop
vertex 4.77190721369689 -3.90903733859883 2.25597318603832e-014
vertex 4.25089514279412 -3.87527624174013 7.00000000000002
vertex 4.77190721369689 -3.90903733859883 7.00000000000002
endloop
endfacet
facet normal -0.555570258673961 0.83146959516085 -0.0
outer loop
vertex 1.083864 1.62211699999998 7.00000000000002
vertex 2.70598099999998 2.70598099999998 0.0
vertex 1.083864 1.62211699999998 0.0
endloop
endfacet
facet normal -0.555570258673961 0.83146959516085 -0.0
outer loop
vertex 2.70598099999998 2.70598099999998 0.0
vertex 1.083864 1.62211699999998 7.00000000000002
vertex 2.70598099999998 2.70598099999998 7.00000000000002
endloop
endfacet
facet normal 0.831881198063564 -0.554953756909826 -0.0
outer loop
vertex 3.13496499671076 -0.595840328497973 2.25597318603832e-014
vertex 2.84522099372014 -1.03016946914876 7.00000000000002
vertex 2.84522099372014 -1.03016946914876 2.25597318603832e-014
endloop
endfacet
facet normal 0.831881198063564 -0.554953756909826 -0.0
outer loop
vertex 2.84522099372014 -1.03016946914876 7.00000000000002
vertex 3.13496499671076 -0.595840328497973 2.25597318603832e-014
vertex 3.13496499671076 -0.595840328497973 7.00000000000002
endloop
endfacet
facet normal -0.00474841307268814 -0.999988726223097 0.0
outer loop
vertex 6.87620642646943 0.0709548371171643 7.00000000000002
vertex 4.50733613310851 0.0822033385987581 2.25597318603832e-014
vertex 6.87620642646943 0.0709548371171643 2.25597318603832e-014
endloop
endfacet
facet normal -0.00474841307268814 -0.999988726223097 0.0
outer loop
vertex 4.50733613310851 0.0822033385987581 2.25597318603832e-014
vertex 6.87620642646943 0.0709548371171643 7.00000000000002
vertex 4.50733613310851 0.0822033385987581 7.00000000000002
endloop
endfacet
facet normal 1.0 -0.0 -0.0
outer loop
vertex 10.119398 -3.51341700000003 6.5
vertex 10.119398 -5.31341700000005 7.00000000000002
vertex 10.119398 -5.31341700000005 6.5
endloop
endfacet
facet normal 1.0 -0.0 -0.0
outer loop
vertex 10.119398 -5.31341700000005 7.00000000000002
vertex 10.119398 -3.51341700000003 6.5
vertex 10.119398 -3.51341700000003 7.00000000000002
endloop
endfacet
facet normal 0.195090171503032 -0.980785310342135 0.0
outer loop
vertex 24.532815 -6.53281500000007 7.00000000000002
vertex 22.619398 -6.91341700000005 0.0
vertex 24.532815 -6.53281500000007 0.0
endloop
endfacet
facet normal 0.195090171503032 -0.980785310342135 0.0
outer loop
vertex 22.619398 -6.91341700000005 0.0
vertex 24.532815 -6.53281500000007 7.00000000000002
vertex 22.619398 -6.91341700000005 7.00000000000002
endloop
endfacet
facet normal -0.264422329225415 0.964406984528319 -0.0
outer loop
vertex 6.89922960842193 -3.89475777771077 7.00000000000002
vertex 7.40275109418553 -3.75670161862377 2.25597318603832e-014
vertex 6.89922960842193 -3.89475777771077 2.25597318603832e-014
endloop
endfacet
facet normal -0.264422329225415 0.964406984528319 -0.0
outer loop
vertex 7.40275109418553 -3.75670161862377 2.25597318603832e-014
vertex 6.89922960842193 -3.89475777771077 7.00000000000002
vertex 7.40275109418553 -3.75670161862377 7.00000000000002
endloop
endfacet
facet normal -0.0 -0.0 1.0
outer loop
vertex 22.619398 -6.91341700000005 7.00000000000002
vertex 17.119398 -6.01341700000007 7.00000000000002
vertex 17.119398 -6.91341700000005 7.00000000000002
endloop
endfacet
facet normal -0.0 -0.0 1.0
outer loop
vertex 17.119398 -6.01341700000007 7.00000000000002
vertex 22.619398 -6.91341700000005 7.00000000000002
vertex 17.119398 -5.31341700000005 7.00000000000002
endloop
endfacet
facet normal -0.0 -0.0 1.0
outer loop
vertex 17.119398 -5.31341700000005 7.00000000000002
vertex 22.619398 -6.91341700000005 7.00000000000002
vertex 17.119398 -3.51341700000003 7.00000000000002
endloop
endfacet
facet normal -0.0 -0.0 1.0
outer loop
vertex 17.119398 -3.51341700000003 7.00000000000002
vertex 22.619398 -6.91341700000005 7.00000000000002
vertex 17.119398 -2.81341700000006 7.00000000000002
endloop
endfacet
facet normal -0.0 -0.0 1.0
outer loop
vertex 17.119398 -2.81341700000006 7.00000000000002
vertex 22.619398 -6.91341700000005 7.00000000000002
vertex 19.2248817895988 -3.32763056237314 7.00000000000002
endloop
endfacet
facet normal -0.0 -0.0 1.0
outer loop
vertex 17.119398 -2.81341700000006 7.00000000000002
vertex 19.2248817895988 -3.32763056237314 7.00000000000002
vertex 17.119398 -1.01341700000002 7.00000000000002
endloop
endfacet
facet normal -0.0 -0.0 1.0
outer loop
vertex 17.119398 -1.01341700000002 7.00000000000002
vertex 19.2248817895988 -3.32763056237314 7.00000000000002
vertex 18.9070445444031 -2.91341700000003 7.00000000000002
endloop
endfacet
facet normal -0.0 -0.0 1.0
outer loop
vertex 17.119398 -1.01341700000002 7.00000000000002
vertex 18.9070445444031 -2.91341700000003 7.00000000000002
vertex 17.119398 -0.31341700000004 7.00000000000002
endloop
endfacet
facet normal -0.0 -0.0 1.0
outer loop
vertex 17.119398 -0.31341700000004 7.00000000000002
vertex 18.9070445444031 -2.91341700000003 7.00000000000002
vertex 18.7072436993938 -2.43105509020506 7.00000000000002
endloop
endfacet
facet normal -0.0 -0.0 1.0
outer loop
vertex 17.119398 -0.31341700000004 7.00000000000002
vertex 18.7072436993938 -2.43105509020506 7.00000000000002
vertex 17.119398 1.48658299999996 7.00000000000002
endloop
endfacet
facet normal -0.0 -0.0 1.0
outer loop
vertex 17.119398 1.48658299999996 7.00000000000002
vertex 18.7072436993938 -2.43105509020506 7.00000000000002
vertex 17.119398 2.18658299999998 7.00000000000002
endloop
endfacet
facet normal -0.0 -0.0 1.0
outer loop
vertex 17.119398 2.18658299999998 7.00000000000002
vertex 18.7072436993938 -2.43105509020506 7.00000000000002
vertex 17.119398 3.086583 7.00000000000002
endloop
endfacet
facet normal -0.0 -0.0 1.0
outer loop
vertex 17.119398 3.086583 7.00000000000002
vertex 18.7072436993938 -2.43105509020506 7.00000000000002
vertex 18.6390953519719 -1.91341700000004 7.00000000000002
endloop
endfacet
facet normal -0.0 -0.0 1.0
outer loop
vertex 19.2248817895988 -3.32763056237314 7.00000000000002
vertex 22.619398 -6.91341700000005 7.00000000000002
vertex 19.6390953519719 -3.6454678075689 7.00000000000002
endloop
endfacet
facet normal -0.0 -0.0 1.0
outer loop
vertex 19.6390953519719 -3.6454678075689 7.00000000000002
vertex 22.619398 -6.91341700000005 7.00000000000002
vertex 20.1214572617669 -3.84526865257816 7.00000000000002
endloop
endfacet
facet normal -0.0 -0.0 1.0
outer loop
vertex 20.1214572617669 -3.84526865257816 7.00000000000002
vertex 22.619398 -6.91341700000005 7.00000000000002
vertex 20.6390953519719 -3.91341700000003 7.00000000000002
endloop
endfacet
facet normal -0.0 -0.0 1.0
outer loop
vertex 20.6390953519719 -3.91341700000003 7.00000000000002
vertex 22.619398 -6.91341700000005 7.00000000000002
vertex 22.4745209508959 -3.88774105602462 7.00000000000002
endloop
endfacet
facet normal -0.0 -0.0 1.0
outer loop
vertex 22.4745209508959 -3.88774105602462 7.00000000000002
vertex 22.619398 -6.91341700000005 7.00000000000002
vertex 22.995804358551 -3.8584665177533 7.00000000000002
endloop
endfacet
facet normal -0.0 -0.0 1.0
outer loop
vertex 22.995804358551 -3.8584665177533 7.00000000000002
vertex 22.619398 -6.91341700000005 7.00000000000002
vertex 24.532815 -6.53281500000007 7.00000000000002
endloop
endfacet
facet normal -0.0 -0.0 1.0
outer loop
vertex 22.995804358551 -3.8584665177533 7.00000000000002
vertex 24.532815 -6.53281500000007 7.00000000000002
vertex 23.4917486567797 -3.69527141138727 7.00000000000002
endloop
endfacet
facet normal -0.0 -0.0 1.0
outer loop
vertex 23.4917486567797 -3.69527141138727 7.00000000000002
vertex 24.532815 -6.53281500000007 7.00000000000002
vertex 23.9285560612447 -3.40927721373276 7.00000000000002
endloop
endfacet
facet normal -0.0 -0.0 1.0
outer loop
vertex 23.9285560612447 -3.40927721373276 7.00000000000002
vertex 24.532815 -6.53281500000007 7.00000000000002
vertex 24.2764588691898 -3.01997395673208 7.00000000000002
endloop
endfacet
facet normal -0.0 -0.0 1.0
outer loop
vertex 24.2764588691898 -3.01997395673208 7.00000000000002
vertex 24.532815 -6.53281500000007 7.00000000000002
vertex 24.5117480791904 -2.55389201399586 7.00000000000002
endloop
endfacet
facet normal -0.0 -0.0 1.0
outer loop
vertex 24.5117480791904 -2.55389201399586 7.00000000000002
vertex 24.532815 -6.53281500000007 7.00000000000002
vertex 24.6183891204185 -2.04279409968469 7.00000000000002
endloop
endfacet
facet normal -0.0 -0.0 1.0
outer loop
vertex 24.6183891204185 -2.04279409968469 7.00000000000002
vertex 24.532815 -6.53281500000007 7.00000000000002
vertex 26.154932 -5.44895100000003 7.00000000000002
endloop
endfacet
facet normal -0.0 -0.0 1.0
outer loop
vertex 17.119398 3.086583 7.00000000000002
vertex 19.2248817895988 -0.499203437626938 7.00000000000002
vertex 22.619398 3.086583 7.00000000000002
endloop
endfacet
facet normal -0.0 -0.0 1.0
outer loop
vertex 19.2248817895988 -0.499203437626938 7.00000000000002
vertex 17.119398 3.086583 7.00000000000002
vertex 18.9070445444031 -0.913417000000038 7.00000000000002
endloop
endfacet
facet normal -0.0 -0.0 1.0
outer loop
vertex 18.9070445444031 -0.913417000000038 7.00000000000002
vertex 17.119398 3.086583 7.00000000000002
vertex 18.7072436993938 -1.39577890979501 7.00000000000002
endloop
endfacet
facet normal -0.0 -0.0 1.0
outer loop
vertex 18.7072436993938 -1.39577890979501 7.00000000000002
vertex 17.119398 3.086583 7.00000000000002
vertex 18.6390953519719 -1.91341700000004 7.00000000000002
endloop
endfacet
facet normal -0.0 -0.0 1.0
outer loop
vertex 22.619398 3.086583 7.00000000000002
vertex 19.2248817895988 -0.499203437626938 7.00000000000002
vertex 19.6390953519719 -0.18136619243117 7.00000000000002
endloop
endfacet
facet normal -0.0 -0.0 1.0
outer loop
vertex 22.619398 3.086583 7.00000000000002
vertex 19.6390953519719 -0.18136619243117 7.00000000000002
vertex 20.1214572617669 0.0184346525781301 7.00000000000002
endloop
endfacet
facet normal -0.0 -0.0 1.0
outer loop
vertex 22.619398 3.086583 7.00000000000002
vertex 20.1214572617669 0.0184346525781301 7.00000000000002
vertex 20.6390953519719 0.0865829999999597 7.00000000000002
endloop
endfacet
facet normal -0.0 -0.0 1.0
outer loop
vertex 22.619398 3.086583 7.00000000000002
vertex 20.6390953519719 0.0865829999999597 7.00000000000002
vertex 22.7734421640786 0.101074069837848 7.00000000000002
endloop
endfacet
facet normal -0.0 -0.0 1.0
outer loop
vertex 22.619398 3.086583 7.00000000000002
vertex 22.7734421640786 0.101074069837848 7.00000000000002
vertex 24.532815 2.70598099999998 7.00000000000002
endloop
endfacet
facet normal -0.0 -0.0 1.0
outer loop
vertex 24.532815 2.70598099999998 7.00000000000002
vertex 22.7734421640786 0.101074069837848 7.00000000000002
vertex 23.2845400783897 -0.00556697139025175 7.00000000000002
endloop
endfacet
facet normal -0.0 -0.0 1.0
outer loop
vertex 24.532815 2.70598099999998 7.00000000000002
vertex 23.2845400783897 -0.00556697139025175 7.00000000000002
vertex 23.750622021126 -0.240856181390776 7.00000000000002
endloop
endfacet
facet normal -0.0 -0.0 1.0
outer loop
vertex 24.532815 2.70598099999998 7.00000000000002
vertex 23.750622021126 -0.240856181390776 7.00000000000002
vertex 24.1399252781266 -0.588758989335965 7.00000000000002
endloop
endfacet
facet normal -0.0 -0.0 1.0
outer loop
vertex 24.532815 2.70598099999998 7.00000000000002
vertex 24.1399252781266 -0.588758989335965 7.00000000000002
vertex 24.4259194757812 -1.02556639380087 7.00000000000002
endloop
endfacet
facet normal -0.0 -0.0 1.0
outer loop
vertex 24.532815 2.70598099999998 7.00000000000002
vertex 24.4259194757812 -1.02556639380087 7.00000000000002
vertex 24.5891145821472 -1.52151069202965 7.00000000000002
endloop
endfacet
facet normal -0.0 -0.0 1.0
outer loop
vertex 24.532815 2.70598099999998 7.00000000000002
vertex 24.5891145821472 -1.52151069202965 7.00000000000002
vertex 26.154932 1.62211699999998 7.00000000000002
endloop
endfacet
facet normal -0.0 -0.0 1.0
outer loop
vertex 26.154932 1.62211699999998 7.00000000000002
vertex 24.5891145821472 -1.52151069202965 7.00000000000002
vertex 24.6183891204185 -2.04279409968469 7.00000000000002
endloop
endfacet
facet normal -0.0 -0.0 1.0
outer loop
vertex 26.154932 1.62211699999998 7.00000000000002
vertex 24.6183891204185 -2.04279409968469 7.00000000000002
vertex 26.154932 -5.44895100000003 7.00000000000002
endloop
endfacet
facet normal -0.0 -0.0 1.0
outer loop
vertex 26.154932 1.62211699999998 7.00000000000002
vertex 26.154932 -5.44895100000003 7.00000000000002
vertex 27.238796 -3.82683400000003 7.00000000000002
endloop
endfacet
facet normal -0.0 -0.0 1.0
outer loop
vertex 26.154932 1.62211699999998 7.00000000000002
vertex 27.238796 -3.82683400000003 7.00000000000002
vertex 27.238796 0.0 7.00000000000002
endloop
endfacet
facet normal -0.0 -0.0 1.0
outer loop
vertex 27.238796 0.0 7.00000000000002
vertex 27.238796 -3.82683400000003 7.00000000000002
vertex 27.619398 -1.91341700000004 7.00000000000002
endloop
endfacet
facet normal -0.0 -0.0 1.0
outer loop
vertex 17.119398 1.48658299999996 7.00000000000002
vertex 10.119398 2.18658299999998 7.00000000000002
vertex 10.119398 1.48658299999996 7.00000000000002
endloop
endfacet
facet normal -0.0 -0.0 1.0
outer loop
vertex 10.119398 2.18658299999998 7.00000000000002
vertex 17.119398 1.48658299999996 7.00000000000002
vertex 17.119398 2.18658299999998 7.00000000000002
endloop
endfacet
facet normal -0.0 -0.0 1.0
outer loop
vertex 17.119398 -5.31341700000005 6.5
vertex 10.119398 -3.51341700000003 6.5
vertex 10.119398 -5.31341700000005 6.5
endloop
endfacet
facet normal -0.0 -0.0 1.0
outer loop
vertex 10.119398 -3.51341700000003 6.5
vertex 17.119398 -5.31341700000005 6.5
vertex 17.119398 -3.51341700000003 6.5
endloop
endfacet
facet normal -0.98078531034213 -0.195090171503055 0.0
outer loop
vertex -0.380602000000023 -1.91341700000004 7.00000000000002
vertex 0.0 -3.82683400000003 0.0
vertex 0.0 -3.82683400000003 7.00000000000002
endloop
endfacet
facet normal -0.98078531034213 -0.195090171503055 0.0
outer loop
vertex 0.0 -3.82683400000003 0.0
vertex -0.380602000000023 -1.91341700000004 7.00000000000002
vertex -0.380602000000023 -1.91341700000004 0.0
endloop
endfacet
facet normal -0.0 1.0 -0.0
outer loop
vertex 10.119398 -5.31341700000005 7.00000000000002
vertex 17.119398 -5.31341700000005 6.5
vertex 10.119398 -5.31341700000005 6.5
endloop
endfacet
facet normal -0.0 1.0 -0.0
outer loop
vertex 17.119398 -5.31341700000005 6.5
vertex 10.119398 -5.31341700000005 7.00000000000002
vertex 17.119398 -5.31341700000005 7.00000000000002
endloop
endfacet
facet normal 1.0 -0.0 -0.0
outer loop
vertex 10.119398 -6.01341700000007 6.5
vertex 10.119398 -6.91341700000005 7.00000000000002
vertex 10.119398 -6.91341700000005 6.5
endloop
endfacet
facet normal 1.0 -0.0 -0.0
outer loop
vertex 10.119398 -6.91341700000005 7.00000000000002
vertex 10.119398 -6.01341700000007 6.5
vertex 10.119398 -6.01341700000007 7.00000000000002
endloop
endfacet
facet normal -1.0 0.0 0.0
outer loop
vertex 17.119398 -6.01341700000007 7.00000000000002
vertex 17.119398 -6.91341700000005 6.5
vertex 17.119398 -6.91341700000005 7.00000000000002
endloop
endfacet
facet normal -1.0 0.0 0.0
outer loop
vertex 17.119398 -6.91341700000005 6.5
vertex 17.119398 -6.01341700000007 7.00000000000002
vertex 17.119398 -6.01341700000007 6.5
endloop
endfacet
facet normal 0.44295337199873 -0.896544650441323 0.0
outer loop
vertex 3.99533910316466 -0.0200337926995687 7.00000000000002
vertex 3.52724886565522 -0.251301860611669 2.25597318603832e-014
vertex 3.99533910316466 -0.0200337926995687 2.25597318603832e-014
endloop
endfacet
facet normal 0.44295337199873 -0.896544650441323 0.0
outer loop
vertex 3.52724886565522 -0.251301860611669 2.25597318603832e-014
vertex 3.99533910316466 -0.0200337926995687 7.00000000000002
vertex 3.52724886565522 -0.251301860611669 7.00000000000002
endloop
endfacet
facet normal -0.999983148163372 -0.00580546202051952 0.0
outer loop
vertex 8.60801080992844 -1.64085742379581 7.00000000000002
vertex 8.6110418693349 -2.16295339425177 2.25597318603832e-014
vertex 8.6110418693349 -2.16295339425177 7.00000000000002
endloop
endfacet
facet normal -0.999983148163372 -0.00580546202051952 0.0
outer loop
vertex 8.6110418693349 -2.16295339425177 2.25597318603832e-014
vertex 8.60801080992844 -1.64085742379581 7.00000000000002
vertex 8.60801080992844 -1.64085742379581 2.25597318603832e-014
endloop
endfacet
facet normal 1.0 -0.0 -0.0
outer loop
vertex 10.119398 3.086583 6.5
vertex 10.119398 2.18658299999998 7.00000000000002
vertex 10.119398 2.18658299999998 6.5
endloop
endfacet
facet normal 1.0 -0.0 -0.0
outer loop
vertex 10.119398 2.18658299999998 7.00000000000002
vertex 10.119398 3.086583 6.5
vertex 10.119398 3.086583 7.00000000000002
endloop
endfacet
facet normal 0.195817271536528 -0.980640401048208 0.0
outer loop
vertex 4.50733613310851 0.0822033385987581 7.00000000000002
vertex 3.99533910316466 -0.0200337926995687 2.25597318603832e-014
vertex 4.50733613310851 0.0822033385987581 2.25597318603832e-014
endloop
endfacet
facet normal 0.195817271536528 -0.980640401048208 0.0
outer loop
vertex 3.99533910316466 -0.0200337926995687 2.25597318603832e-014
vertex 4.50733613310851 0.0822033385987581 7.00000000000002
vertex 3.99533910316466 -0.0200337926995687 7.00000000000002
endloop
endfacet
facet normal -0.964406984528319 -0.264422329225415 0.0
outer loop
vertex 8.46995465084144 -1.13733593803221 7.00000000000002
vertex 8.60801080992844 -1.64085742379581 2.25597318603832e-014
vertex 8.60801080992844 -1.64085742379581 7.00000000000002
endloop
endfacet
facet normal -0.964406984528319 -0.264422329225415 0.0
outer loop
vertex 8.60801080992844 -1.64085742379581 2.25597318603832e-014
vertex 8.46995465084144 -1.13733593803221 7.00000000000002
vertex 8.46995465084144 -1.13733593803221 2.25597318603832e-014
endloop
endfacet
facet normal -0.0 -0.0 1.0
outer loop
vertex 17.119398 2.18658299999998 6.5
vertex 10.119398 3.086583 6.5
vertex 10.119398 2.18658299999998 6.5
endloop
endfacet
facet normal -0.0 -0.0 1.0
outer loop
vertex 10.119398 3.086583 6.5
vertex 17.119398 2.18658299999998 6.5
vertex 17.119398 3.086583 6.5
endloop
endfacet
facet normal 0.896544650441289 0.4429533719988 -0.0
outer loop
vertex 2.74623846610218 -2.55769957023811 2.25597318603832e-014
vertex 2.97750653401433 -3.02578980774756 7.00000000000002
vertex 2.97750653401433 -3.02578980774756 2.25597318603832e-014
endloop
endfacet
facet normal 0.896544650441289 0.4429533719988 -0.0
outer loop
vertex 2.97750653401433 -3.02578980774756 7.00000000000002
vertex 2.74623846610218 -2.55769957023811 2.25597318603832e-014
vertex 2.74623846610218 -2.55769957023811 7.00000000000002
endloop
endfacet
facet normal 0.0 -1.0 0.0
outer loop
vertex 4.61939800000001 -6.91341700000005 0.0
vertex 10.119398 -6.91341700000005 6.5
vertex 4.61939800000001 -6.91341700000005 7.00000000000002
endloop
endfacet
facet normal 0.0 -1.0 0.0
outer loop
vertex 10.119398 -6.91341700000005 6.5
vertex 4.61939800000001 -6.91341700000005 0.0
vertex 17.119398 -6.91341700000005 6.5
endloop
endfacet
facet normal 0.0 -1.0 0.0
outer loop
vertex 4.61939800000001 -6.91341700000005 7.00000000000002
vertex 10.119398 -6.91341700000005 6.5
vertex 10.119398 -6.91341700000005 7.00000000000002
endloop
endfacet
facet normal 0.0 -1.0 0.0
outer loop
vertex 22.619398 -6.91341700000005 7.00000000000002
vertex 4.61939800000001 -6.91341700000005 0.0
vertex 22.619398 -6.91341700000005 0.0
endloop
endfacet
facet normal 0.0 -1.0 0.0
outer loop
vertex 4.61939800000001 -6.91341700000005 0.0
vertex 22.619398 -6.91341700000005 7.00000000000002
vertex 17.119398 -6.91341700000005 6.5
endloop
endfacet
facet normal 0.0 -1.0 0.0
outer loop
vertex 17.119398 -6.91341700000005 6.5
vertex 22.619398 -6.91341700000005 7.00000000000002
vertex 17.119398 -6.91341700000005 7.00000000000002
endloop
endfacet
facet normal 0.554953756909766 0.831881198063603 -0.0
outer loop
vertex 3.32204500190063 -3.41807367669197 7.00000000000002
vertex 3.75637414255142 -3.70781767968255 2.25597318603832e-014
vertex 3.32204500190063 -3.41807367669197 2.25597318603832e-014
endloop
endfacet
facet normal 0.554953756909766 0.831881198063603 -0.0
outer loop
vertex 3.75637414255142 -3.70781767968255 2.25597318603832e-014
vertex 3.32204500190063 -3.41807367669197 7.00000000000002
vertex 3.75637414255142 -3.70781767968255 7.00000000000002
endloop
endfacet
facet normal 0.980640401048228 0.195817271536429 -0.0
outer loop
vertex 2.6440013348039 -2.04570254029423 2.25597318603832e-014
vertex 2.74623846610218 -2.55769957023811 7.00000000000002
vertex 2.74623846610218 -2.55769957023811 2.25597318603832e-014
endloop
endfacet
facet normal 0.980640401048228 0.195817271536429 -0.0
outer loop
vertex 2.74623846610218 -2.55769957023811 7.00000000000002
vertex 2.6440013348039 -2.04570254029423 2.25597318603832e-014
vertex 2.6440013348039 -2.04570254029423 7.00000000000002
endloop
endfacet
facet normal 0.751350863516879 0.659902932174452 -0.0
outer loop
vertex 2.97750653401433 -3.02578980774756 2.25597318603832e-014
vertex 3.32204500190063 -3.41807367669197 7.00000000000002
vertex 3.32204500190063 -3.41807367669197 2.25597318603832e-014
endloop
endfacet
facet normal 0.751350863516879 0.659902932174452 -0.0
outer loop
vertex 3.32204500190063 -3.41807367669197 7.00000000000002
vertex 2.97750653401433 -3.02578980774756 2.25597318603832e-014
vertex 2.97750653401433 -3.02578980774756 7.00000000000002
endloop
endfacet
facet normal 0.0 -1.0 0.0
outer loop
vertex 17.119398 1.48658299999996 7.00000000000002
vertex 10.119398 1.48658299999996 6.5
vertex 17.119398 1.48658299999996 6.5
endloop
endfacet
facet normal 0.0 -1.0 0.0
outer loop
vertex 10.119398 1.48658299999996 6.5
vertex 17.119398 1.48658299999996 7.00000000000002
vertex 10.119398 1.48658299999996 7.00000000000002
endloop
endfacet
facet normal -0.195090171503028 -0.980785310342136 0.0
outer loop
vertex 4.61939800000001 -6.91341700000005 7.00000000000002
vertex 2.70598099999998 -6.53281500000007 0.0
vertex 4.61939800000001 -6.91341700000005 0.0
endloop
endfacet
facet normal -0.195090171503028 -0.980785310342136 0.0
outer loop
vertex 2.70598099999998 -6.53281500000007 0.0
vertex 4.61939800000001 -6.91341700000005 7.00000000000002
vertex 2.70598099999998 -6.53281500000007 7.00000000000002
endloop
endfacet
facet normal -0.0 -0.0 1.0
outer loop
vertex 17.119398 -6.01341700000007 7.00000000000002
vertex 10.119398 -5.31341700000005 7.00000000000002
vertex 10.119398 -6.01341700000007 7.00000000000002
endloop
endfacet
facet normal -0.0 -0.0 1.0
outer loop
vertex 10.119398 -5.31341700000005 7.00000000000002
vertex 17.119398 -6.01341700000007 7.00000000000002
vertex 17.119398 -5.31341700000005 7.00000000000002
endloop
endfacet
facet normal -0.555570258673977 -0.83146959516084 0.0
outer loop
vertex 2.70598099999998 -6.53281500000007 7.00000000000002
vertex 1.083864 -5.44895100000003 0.0
vertex 2.70598099999998 -6.53281500000007 0.0
endloop
endfacet
facet normal -0.555570258673977 -0.83146959516084 0.0
outer loop
vertex 1.083864 -5.44895100000003 0.0
vertex 2.70598099999998 -6.53281500000007 7.00000000000002
vertex 1.083864 -5.44895100000003 7.00000000000002
endloop
endfacet
facet normal -1.0 0.0 0.0
outer loop
vertex 17.119398 1.48658299999996 7.00000000000002
vertex 17.119398 -0.31341700000004 6.5
vertex 17.119398 -0.31341700000004 7.00000000000002
endloop
endfacet
facet normal -1.0 0.0 0.0
outer loop
vertex 17.119398 -0.31341700000004 6.5
vertex 17.119398 1.48658299999996 7.00000000000002
vertex 17.119398 1.48658299999996 6.5
endloop
endfacet
facet normal 0.923879532511295 0.382683432365071 -0.0
outer loop
vertex 18.7072436993938 -2.43105509020506 2.25597318603832e-014
vertex 18.9070445444031 -2.91341700000003 7.00000000000002
vertex 18.9070445444031 -2.91341700000003 2.25597318603832e-014
endloop
endfacet
facet normal 0.923879532511295 0.382683432365071 -0.0
outer loop
vertex 18.9070445444031 -2.91341700000003 7.00000000000002
vertex 18.7072436993938 -2.43105509020506 2.25597318603832e-014
vertex 18.7072436993938 -2.43105509020506 7.00000000000002
endloop
endfacet
endsolid Beltclamp FIXED
