solid Frame Vertex with Foot
facet normal -1.0 0.0 0.0
outer loop
vertex 2.60674062974401 21.074349371847 12.9
vertex 2.60674062974403 29.6416008358898 8.94592206645726
vertex 2.60674062974401 21.074349371847 0.0
endloop
endfacet
facet normal -1.0 0.0 0.0
outer loop
vertex 2.60674062974403 29.6416008358898 8.94592206645726
vertex 2.60674062974401 21.074349371847 12.9
vertex 2.60674062974403 30.3984277204328 9.70274885443091
endloop
endfacet
facet normal -1.0 0.0 0.0
outer loop
vertex 2.60674062974403 30.3984277204328 9.70274885443091
vertex 2.60674062974401 21.074349371847 12.9
vertex 2.60674062974403 31.3253475408141 10.2379061833967
endloop
endfacet
facet normal -1.0 0.0 0.0
outer loop
vertex 2.60674062974403 31.3253475408141 10.2379061833967
vertex 2.60674062974401 21.074349371847 12.9
vertex 2.60674062974403 32.3591922430821 10.514923965775
endloop
endfacet
facet normal -1.0 0.0 0.0
outer loop
vertex 2.60674062974403 32.3591922430821 10.514923965775
vertex 2.60674062974401 21.074349371847 12.9
vertex 2.60674062974401 41.365349371847 12.9
endloop
endfacet
facet normal -1.0 0.0 0.0
outer loop
vertex 2.60674062974401 21.074349371847 0.0
vertex 2.60674062974403 29.6416008358898 8.94592206645726
vertex 2.60674062974403 29.1064433886512 8.01900231436078
endloop
endfacet
facet normal -1.0 0.0 0.0
outer loop
vertex 2.60674062974401 21.074349371847 0.0
vertex 2.60674062974403 29.1064433886512 8.01900231436078
vertex 2.60674062974403 28.8294254743568 6.98515764743954
endloop
endfacet
facet normal -1.0 0.0 0.0
outer loop
vertex 2.60674062974401 21.074349371847 0.0
vertex 2.60674062974403 28.8294254743568 6.98515764743954
vertex 2.60674062974403 28.829425406072 5.91484287123512
endloop
endfacet
facet normal -1.0 0.0 0.0
outer loop
vertex 2.60674062974403 32.3591922430821 10.514923965775
vertex 2.60674062974401 41.365349371847 12.9
vertex 2.60674062974403 33.4295070192866 10.5149238974902
endloop
endfacet
facet normal -1.0 0.0 0.0
outer loop
vertex 2.60674062974403 33.4295070192866 10.5149238974902
vertex 2.60674062974401 41.365349371847 12.9
vertex 2.60674062974403 34.4633516862078 10.2379059831958
endloop
endfacet
facet normal -1.0 0.0 0.0
outer loop
vertex 2.60674062974403 34.4633516862078 10.2379059831958
vertex 2.60674062974401 41.365349371847 12.9
vertex 2.60674062974403 35.3902714383043 9.7027485359572
endloop
endfacet
facet normal -1.0 0.0 0.0
outer loop
vertex 2.60674062974403 35.3902714383043 9.7027485359572
vertex 2.60674062974401 41.365349371847 12.9
vertex 2.60674062974403 36.1470982262779 8.94592165141424
endloop
endfacet
facet normal -1.0 0.0 0.0
outer loop
vertex 2.60674062974403 36.1470982262779 8.94592165141424
vertex 2.60674062974401 41.365349371847 12.9
vertex 2.60674062974403 36.6822555552437 8.01900183103294
endloop
endfacet
facet normal -1.0 0.0 0.0
outer loop
vertex 2.60674062974403 36.6822555552437 8.01900183103294
vertex 2.60674062974401 41.365349371847 12.9
vertex 2.60674062974403 36.959273337622 6.98515712876488
endloop
endfacet
facet normal -1.0 0.0 0.0
outer loop
vertex 2.60674062974401 21.074349371847 0.0
vertex 2.60674062974403 32.3591917244075 2.38507610250979
vertex 2.60674062974401 41.365349371847 0.0
endloop
endfacet
facet normal -1.0 0.0 0.0
outer loop
vertex 2.60674062974403 32.3591917244075 2.38507610250979
vertex 2.60674062974401 21.074349371847 0.0
vertex 2.60674062974403 31.3253470574862 2.6620940168042
endloop
endfacet
facet normal -1.0 0.0 0.0
outer loop
vertex 2.60674062974403 31.3253470574862 2.6620940168042
vertex 2.60674062974401 21.074349371847 0.0
vertex 2.60674062974403 30.3984273053898 3.1972514640428
endloop
endfacet
facet normal -1.0 0.0 0.0
outer loop
vertex 2.60674062974403 30.3984273053898 3.1972514640428
vertex 2.60674062974401 21.074349371847 0.0
vertex 2.60674062974403 29.6416005174161 3.95407834858576
endloop
endfacet
facet normal -1.0 0.0 0.0
outer loop
vertex 2.60674062974403 29.6416005174161 3.95407834858576
vertex 2.60674062974401 21.074349371847 0.0
vertex 2.60674062974403 29.1064431884503 4.88099816896705
endloop
endfacet
facet normal -1.0 0.0 0.0
outer loop
vertex 2.60674062974403 29.1064431884503 4.88099816896705
vertex 2.60674062974401 21.074349371847 0.0
vertex 2.60674062974403 28.829425406072 5.91484287123512
endloop
endfacet
facet normal -1.0 0.0 0.0
outer loop
vertex 2.60674062974401 41.365349371847 0.0
vertex 2.60674062974403 32.3591917244075 2.38507610250979
vertex 2.60674062974403 33.4295065006119 2.38507603422498
endloop
endfacet
facet normal -1.0 0.0 0.0
outer loop
vertex 2.60674062974401 41.365349371847 0.0
vertex 2.60674062974403 33.4295065006119 2.38507603422498
vertex 2.60674062974403 34.4633512028799 2.66209381660326
endloop
endfacet
facet normal -1.0 0.0 0.0
outer loop
vertex 2.60674062974401 41.365349371847 0.0
vertex 2.60674062974403 34.4633512028799 2.66209381660326
vertex 2.60674062974403 35.3902710232613 3.19725114556909
endloop
endfacet
facet normal -1.0 0.0 0.0
outer loop
vertex 2.60674062974401 41.365349371847 0.0
vertex 2.60674062974403 35.3902710232613 3.19725114556909
vertex 2.60674062974403 36.1470979078042 3.95407793354274
endloop
endfacet
facet normal -1.0 0.0 0.0
outer loop
vertex 2.60674062974401 41.365349371847 0.0
vertex 2.60674062974403 36.1470979078042 3.95407793354274
vertex 2.60674062974403 36.6822553550428 4.88099768563922
endloop
endfacet
facet normal -1.0 0.0 0.0
outer loop
vertex 2.60674062974401 41.365349371847 0.0
vertex 2.60674062974403 36.6822553550428 4.88099768563922
vertex 2.60674062974403 36.9592732693372 5.91484235256046
endloop
endfacet
facet normal -1.0 0.0 0.0
outer loop
vertex 2.60674062974401 41.365349371847 0.0
vertex 2.60674062974403 36.9592732693372 5.91484235256046
vertex 2.60674062974403 36.959273337622 6.98515712876488
endloop
endfacet
facet normal -1.0 0.0 0.0
outer loop
vertex 2.60674062974401 41.365349371847 0.0
vertex 2.60674062974403 36.959273337622 6.98515712876488
vertex 2.60674062974401 41.365349371847 12.9
endloop
endfacet
facet normal -0.0 0.707106826299107 0.707106736073985
outer loop
vertex 2.60674062974403 29.6416005174161 3.95407834858576
vertex 32.758740629744 30.3984273053898 3.1972514640428
vertex 2.60674062974403 30.3984273053898 3.1972514640428
endloop
endfacet
facet normal -0.0 0.707106826299107 0.707106736073985
outer loop
vertex 32.758740629744 30.3984273053898 3.1972514640428
vertex 2.60674062974403 29.6416005174161 3.95407834858576
vertex 32.758740629744 29.6416005174161 3.95407834858576
endloop
endfacet
facet normal -0.718242017428594 0.41464449789818 0.558747120585753
outer loop
vertex 9.21279699111357 76.9473490152594 4.62256161680197
vertex -6.17613869716909 51.4869680003677 3.73490905566663
vertex -5.65821471264368 51.1879680580741 4.62256185993373
endloop
endfacet
facet normal -0.718242017428594 0.41464449789818 0.558747120585753
outer loop
vertex -6.17613869716909 51.4869680003677 3.73490905566663
vertex 9.21279699111357 76.9473490152594 4.62256161680197
vertex 8.69487300658816 77.246348957553 3.73490881253486
endloop
endfacet
facet normal 0.778189620864899 -0.449252521718575 0.438854287557551
outer loop
vertex 3.07434959279942 80.4911035468074 4.18522037902172
vertex -12.2034528559578 54.9665648078322 5.14696078586197
vertex -11.7966621109578 54.7317225896221 4.18522062215348
endloop
endfacet
facet normal 0.778189620864899 -0.449252521718575 0.438854287557551
outer loop
vertex -12.2034528559578 54.9665648078322 5.14696078586197
vertex 3.07434959279942 80.4911035468074 4.18522037902172
vertex 2.66755884779942 80.7259457650175 5.1469605427302
endloop
endfacet
facet normal 0.433883788312484 0.90096884421139 -0.0
outer loop
vertex -14.197916370256 68.522657371847 12.9
vertex -12.513847370256 67.711652371847 0.0
vertex -14.197916370256 68.522657371847 0.0
endloop
endfacet
facet normal 0.433883788312484 0.90096884421139 -0.0
outer loop
vertex -12.513847370256 67.711652371847 0.0
vertex -14.197916370256 68.522657371847 12.9
vertex -12.513847370256 67.711652371847 12.9
endloop
endfacet
facet normal -0.781831394071635 0.62348991270429 0.0
outer loop
vertex 21.465809629744 19.321037371847 12.9
vertex 20.300397629744 17.859657371847 0.0
vertex 20.300397629744 17.859657371847 12.9
endloop
endfacet
facet normal -0.781831394071635 0.62348991270429 0.0
outer loop
vertex 20.300397629744 17.859657371847 0.0
vertex 21.465809629744 19.321037371847 12.9
vertex 21.465809629744 19.321037371847 0.0
endloop
endfacet
facet normal 0.0 -0.866025435683847 -0.4999999447486
outer loop
vertex 32.758740629744 36.1470982262779 8.94592165141424
vertex 2.60674062974403 36.6822555552437 8.01900183103294
vertex 32.758740629744 36.6822555552437 8.01900183103294
endloop
endfacet
facet normal 0.0 -0.866025435683847 -0.4999999447486
outer loop
vertex 2.60674062974403 36.6822555552437 8.01900183103294
vertex 32.758740629744 36.1470982262779 8.94592165141424
vertex 2.60674062974403 36.1470982262779 8.94592165141424
endloop
endfacet
facet normal 0.0 0.0 -1.0
outer loop
vertex -16.606259370256 81.464349371847 0.0
vertex -19.187259370256 58.998349371847 0.0
vertex -22.592259370256 71.095349371847 0.0
endloop
endfacet
facet normal 0.0 0.0 -1.0
outer loop
vertex -19.187259370256 58.998349371847 0.0
vertex -16.606259370256 81.464349371847 0.0
vertex -15.779259370256 71.806349371847 0.0
endloop
endfacet
facet normal 0.0 0.0 -1.0
outer loop
vertex -19.187259370256 58.998349371847 0.0
vertex -15.779259370256 71.806349371847 0.0
vertex -15.363328370256 69.984037371847 0.0
endloop
endfacet
facet normal 0.0 0.0 -1.0
outer loop
vertex -19.187259370256 58.998349371847 0.0
vertex -15.363328370256 69.984037371847 0.0
vertex -1.85325937025598 48.991349371847 0.0
endloop
endfacet
facet normal 0.0 0.0 -1.0
outer loop
vertex -1.85325937025598 48.991349371847 0.0
vertex -15.363328370256 69.984037371847 0.0
vertex -14.197916370256 68.522657371847 0.0
endloop
endfacet
facet normal 0.0 0.0 -1.0
outer loop
vertex -1.85325937025598 48.991349371847 0.0
vertex -14.197916370256 68.522657371847 0.0
vertex -12.513847370256 67.711652371847 0.0
endloop
endfacet
facet normal 0.0 0.0 -1.0
outer loop
vertex -1.85325937025598 48.991349371847 0.0
vertex -12.513847370256 67.711652371847 0.0
vertex -10.644671370256 67.711652371847 0.0
endloop
endfacet
facet normal 0.0 0.0 -1.0
outer loop
vertex -1.85325937025598 48.991349371847 0.0
vertex -10.644671370256 67.711652371847 0.0
vertex -8.96060237025598 68.522657371847 0.0
endloop
endfacet
facet normal 0.0 0.0 -1.0
outer loop
vertex -1.85325937025598 48.991349371847 0.0
vertex -8.96060237025598 68.522657371847 0.0
vertex -7.79519037025598 69.984037371847 0.0
endloop
endfacet
facet normal 0.0 0.0 -1.0
outer loop
vertex -1.85325937025598 48.991349371847 0.0
vertex -7.79519037025598 69.984037371847 0.0
vertex -7.37925937025599 71.806349371847 0.0
endloop
endfacet
facet normal 0.0 0.0 -1.0
outer loop
vertex -1.85325937025598 48.991349371847 0.0
vertex -7.37925937025599 71.806349371847 0.0
vertex -4.31525937025599 84.757349371847 0.0
endloop
endfacet
facet normal 0.0 0.0 -1.0
outer loop
vertex -1.85325937025598 48.991349371847 0.0
vertex -4.31525937025599 84.757349371847 0.0
vertex 15.517740629744 73.307349371847 0.0
endloop
endfacet
facet normal 0.0 0.0 -1.0
outer loop
vertex -1.85325937025598 48.991349371847 0.0
vertex 15.517740629744 73.307349371847 0.0
vertex 2.60674062974401 41.365349371847 0.0
endloop
endfacet
facet normal 0.0 0.0 -1.0
outer loop
vertex 2.60674062974401 41.365349371847 0.0
vertex 15.517740629744 73.307349371847 0.0
vertex 2.60674062974401 21.074349371847 0.0
endloop
endfacet
facet normal 0.0 0.0 -1.0
outer loop
vertex 2.60674062974401 21.074349371847 0.0
vertex 15.517740629744 73.307349371847 0.0
vertex 10.007740629744 13.673349371847 0.0
endloop
endfacet
facet normal 0.0 0.0 -1.0
outer loop
vertex 10.007740629744 13.673349371847 0.0
vertex 15.517740629744 73.307349371847 0.0
vertex 10.007740629744 -5.105650628153 0.0
endloop
endfacet
facet normal 0.0 0.0 -1.0
outer loop
vertex 10.007740629744 -5.105650628153 0.0
vertex 15.517740629744 73.307349371847 0.0
vertex 13.481740629744 21.143349371847 0.0
endloop
endfacet
facet normal 0.0 0.0 -1.0
outer loop
vertex 13.481740629744 21.143349371847 0.0
vertex 15.517740629744 73.307349371847 0.0
vertex 13.897671629744 22.965661371847 0.0
endloop
endfacet
facet normal 0.0 0.0 -1.0
outer loop
vertex 13.897671629744 22.965661371847 0.0
vertex 15.517740629744 73.307349371847 0.0
vertex 15.063083629744 24.427041371847 0.0
endloop
endfacet
facet normal 0.0 0.0 -1.0
outer loop
vertex 15.063083629744 24.427041371847 0.0
vertex 15.517740629744 73.307349371847 0.0
vertex 16.747152629744 25.238046371847 0.0
endloop
endfacet
facet normal 0.0 0.0 -1.0
outer loop
vertex 16.747152629744 25.238046371847 0.0
vertex 15.517740629744 73.307349371847 0.0
vertex 32.758740629744 43.445349371847 0.0
endloop
endfacet
facet normal 0.0 0.0 -1.0
outer loop
vertex 16.747152629744 25.238046371847 0.0
vertex 32.758740629744 43.445349371847 0.0
vertex 18.616328629744 25.238046371847 0.0
endloop
endfacet
facet normal 0.0 0.0 -1.0
outer loop
vertex 18.616328629744 25.238046371847 0.0
vertex 32.758740629744 43.445349371847 0.0
vertex 20.300397629744 24.427041371847 0.0
endloop
endfacet
facet normal 0.0 0.0 -1.0
outer loop
vertex 20.300397629744 24.427041371847 0.0
vertex 32.758740629744 43.445349371847 0.0
vertex 21.465809629744 22.965661371847 0.0
endloop
endfacet
facet normal 0.0 0.0 -1.0
outer loop
vertex 21.465809629744 22.965661371847 0.0
vertex 32.758740629744 43.445349371847 0.0
vertex 21.881740629744 21.143349371847 0.0
endloop
endfacet
facet normal 0.0 0.0 -1.0
outer loop
vertex 21.881740629744 21.143349371847 0.0
vertex 32.758740629744 43.445349371847 0.0
vertex 25.007740629744 13.193349371847 0.0
endloop
endfacet
facet normal 0.0 0.0 -1.0
outer loop
vertex 25.007740629744 13.193349371847 0.0
vertex 32.758740629744 43.445349371847 0.0
vertex 32.758740629744 20.944349371847 0.0
endloop
endfacet
facet normal 0.0 0.0 -1.0
outer loop
vertex 10.007740629744 -5.105650628153 0.0
vertex 13.897671629744 19.321037371847 0.0
vertex 25.007740629744 -5.105650628153 0.0
endloop
endfacet
facet normal 0.0 0.0 -1.0
outer loop
vertex 13.897671629744 19.321037371847 0.0
vertex 10.007740629744 -5.105650628153 0.0
vertex 13.481740629744 21.143349371847 0.0
endloop
endfacet
facet normal 0.0 0.0 -1.0
outer loop
vertex 25.007740629744 -5.105650628153 0.0
vertex 13.897671629744 19.321037371847 0.0
vertex 15.063083629744 17.859657371847 0.0
endloop
endfacet
facet normal 0.0 0.0 -1.0
outer loop
vertex 25.007740629744 -5.105650628153 0.0
vertex 15.063083629744 17.859657371847 0.0
vertex 16.747152629744 17.048652371847 0.0
endloop
endfacet
facet normal 0.0 0.0 -1.0
outer loop
vertex 25.007740629744 -5.105650628153 0.0
vertex 16.747152629744 17.048652371847 0.0
vertex 18.616328629744 17.048652371847 0.0
endloop
endfacet
facet normal 0.0 0.0 -1.0
outer loop
vertex 25.007740629744 -5.105650628153 0.0
vertex 18.616328629744 17.048652371847 0.0
vertex 20.300397629744 17.859657371847 0.0
endloop
endfacet
facet normal 0.0 0.0 -1.0
outer loop
vertex 25.007740629744 -5.105650628153 0.0
vertex 20.300397629744 17.859657371847 0.0
vertex 21.465809629744 19.321037371847 0.0
endloop
endfacet
facet normal 0.0 0.0 -1.0
outer loop
vertex 25.007740629744 -5.105650628153 0.0
vertex 21.465809629744 19.321037371847 0.0
vertex 21.881740629744 21.143349371847 0.0
endloop
endfacet
facet normal 0.0 0.0 -1.0
outer loop
vertex 25.007740629744 -5.105650628153 0.0
vertex 21.881740629744 21.143349371847 0.0
vertex 25.007740629744 13.193349371847 0.0
endloop
endfacet
facet normal 0.0 0.0 -1.0
outer loop
vertex -16.606259370256 81.464349371847 0.0
vertex -15.363328370256 73.628661371847 0.0
vertex -15.779259370256 71.806349371847 0.0
endloop
endfacet
facet normal 0.0 0.0 -1.0
outer loop
vertex -15.363328370256 73.628661371847 0.0
vertex -16.606259370256 81.464349371847 0.0
vertex -14.197916370256 75.090041371847 0.0
endloop
endfacet
facet normal 0.0 0.0 -1.0
outer loop
vertex -14.197916370256 75.090041371847 0.0
vertex -16.606259370256 81.464349371847 0.0
vertex -4.31525937025599 84.757349371847 0.0
endloop
endfacet
facet normal 0.0 0.0 -1.0
outer loop
vertex -14.197916370256 75.090041371847 0.0
vertex -4.31525937025599 84.757349371847 0.0
vertex -12.513847370256 75.901046371847 0.0
endloop
endfacet
facet normal 0.0 0.0 -1.0
outer loop
vertex -12.513847370256 75.901046371847 0.0
vertex -4.31525937025599 84.757349371847 0.0
vertex -10.644671370256 75.901046371847 0.0
endloop
endfacet
facet normal 0.0 0.0 -1.0
outer loop
vertex -10.644671370256 75.901046371847 0.0
vertex -4.31525937025599 84.757349371847 0.0
vertex -8.96060237025598 75.090041371847 0.0
endloop
endfacet
facet normal 0.0 0.0 -1.0
outer loop
vertex -8.96060237025598 75.090041371847 0.0
vertex -4.31525937025599 84.757349371847 0.0
vertex -7.79519037025598 73.628661371847 0.0
endloop
endfacet
facet normal 0.0 0.0 -1.0
outer loop
vertex -7.79519037025598 73.628661371847 0.0
vertex -4.31525937025599 84.757349371847 0.0
vertex -7.37925937025599 71.806349371847 0.0
endloop
endfacet
facet normal 0.0 -0.258819106727439 -0.965925809776719
outer loop
vertex 32.758740629744 34.4633516862078 10.2379059831958
vertex 2.60674062974403 33.4295070192866 10.5149238974902
vertex 2.60674062974403 34.4633516862078 10.2379059831958
endloop
endfacet
facet normal 0.0 -0.258819106727439 -0.965925809776719
outer loop
vertex 2.60674062974403 33.4295070192866 10.5149238974902
vertex 32.758740629744 34.4633516862078 10.2379059831958
vertex 32.758740629744 33.4295070192866 10.5149238974902
endloop
endfacet
facet normal 0.819010727096824 -0.472818745428532 -0.325059783534846
outer loop
vertex -12.3166473223231 55.031912525308 7.26524844653796
vertex 2.85567467588896 80.6173456428052 8.27743789693451
vertex -12.0153370278683 54.8579646856199 8.27743814006627
endloop
endfacet
facet normal 0.819010727096824 -0.472818745428532 -0.325059783534846
outer loop
vertex 2.85567467588896 80.6173456428052 8.27743789693451
vertex -12.3166473223231 55.031912525308 7.26524844653796
vertex 2.55436438143415 80.7912934824933 7.2652482034062
endloop
endfacet
facet normal -0.781831394071627 -0.6234899127043 0.0
outer loop
vertex -8.96060237025598 75.090041371847 12.9
vertex -7.79519037025598 73.628661371847 0.0
vertex -7.79519037025598 73.628661371847 12.9
endloop
endfacet
facet normal -0.781831394071627 -0.6234899127043 0.0
outer loop
vertex -7.79519037025598 73.628661371847 0.0
vertex -8.96060237025598 75.090041371847 12.9
vertex -8.96060237025598 75.090041371847 0.0
endloop
endfacet
facet normal 0.281515588828281 -0.162520263716183 0.945693468904321
outer loop
vertex -9.54281568287094 53.4305664363529 2.4318698415286
vertex 4.45159673780466 79.6960122832367 2.77978588786399
vertex -10.4194149659526 53.9366313260515 2.77978613099575
endloop
endfacet
facet normal 0.281515588828281 -0.162520263716183 0.945693468904321
outer loop
vertex 4.45159673780466 79.6960122832367 2.77978588786399
vertex -9.54281568287094 53.4305664363529 2.4318698415286
vertex 5.32819602088631 79.1899473935381 2.43186959839683
endloop
endfacet
facet normal -0.781831394071628 -0.623489912704299 0.0
outer loop
vertex 20.300397629744 24.427041371847 12.9
vertex 21.465809629744 22.965661371847 0.0
vertex 21.465809629744 22.965661371847 12.9
endloop
endfacet
facet normal -0.781831394071628 -0.623489912704299 0.0
outer loop
vertex 21.465809629744 22.965661371847 0.0
vertex 20.300397629744 24.427041371847 12.9
vertex 20.300397629744 24.427041371847 0.0
endloop
endfacet
facet normal -0.819010727096827 0.472818745428534 0.325059783534835
outer loop
vertex 9.51410728556839 76.7734011755713 5.63475131033027
vertex -5.65821471264368 51.1879680580741 4.62256185993373
vertex -5.35690441818887 51.014020218386 5.63475155346204
endloop
endfacet
facet normal -0.819010727096827 0.472818745428534 0.325059783534835
outer loop
vertex -5.65821471264368 51.1879680580741 4.62256185993373
vertex 9.51410728556839 76.7734011755713 5.63475131033027
vertex 9.21279699111357 76.9473490152594 4.62256161680197
endloop
endfacet
facet normal -0.0 0.999999999999998 -6.37987912914395e-008
outer loop
vertex 2.60674062974403 28.8294254743568 6.98515764743954
vertex 32.758740629744 28.829425406072 5.91484287123512
vertex 2.60674062974403 28.829425406072 5.91484287123512
endloop
endfacet
facet normal -0.0 0.999999999999998 -6.37987912914395e-008
outer loop
vertex 32.758740629744 28.829425406072 5.91484287123512
vertex 2.60674062974403 28.8294254743568 6.98515764743954
vertex 32.758740629744 28.8294254743568 6.98515764743954
endloop
endfacet
facet normal 0.781831394071635 0.62348991270429 -0.0
outer loop
vertex -15.363328370256 69.984037371847 0.0
vertex -14.197916370256 68.522657371847 12.9
vertex -14.197916370256 68.522657371847 0.0
endloop
endfacet
facet normal 0.781831394071635 0.62348991270429 -0.0
outer loop
vertex -14.197916370256 68.522657371847 12.9
vertex -15.363328370256 69.984037371847 0.0
vertex -15.363328370256 69.984037371847 12.9
endloop
endfacet
facet normal -0.059947603436303 0.0346080238203941 -0.997601408143298
outer loop
vertex 5.81556091659081 78.9085894250301 10.542217274781
vertex -8.13073605764104 52.6153663073412 10.4681301584714
vertex -9.05545078716645 53.1492084678448 10.5422175179128
endloop
endfacet
facet normal -0.059947603436303 0.0346080238203941 -0.997601408143298
outer loop
vertex -8.13073605764104 52.6153663073412 10.4681301584714
vertex 5.81556091659081 78.9085894250301 10.542217274781
vertex 6.74027564611622 78.3747472645264 10.4681299153396
endloop
endfacet
facet normal 0.653305015035032 -0.377156049722223 0.656464676496767
outer loop
vertex -11.1881600100973 54.3804314590238 3.37782143032035
vertex 3.07434959279942 80.4911035468074 4.18522037902172
vertex -11.7966621109578 54.7317225896221 4.18522062215348
endloop
endfacet
facet normal 0.653305015035032 -0.377156049722223 0.656464676496767
outer loop
vertex 3.07434959279942 80.4911035468074 4.18522037902172
vertex -11.1881600100973 54.3804314590238 3.37782143032035
vertex 3.68285169365996 80.139812416209 3.37782118718858
endloop
endfacet
facet normal -0.568526301223668 0.328212913068503 0.754356764742004
outer loop
vertex -6.17613869716909 51.4869680003677 3.73490905566663
vertex 7.9956309956277 77.6500246505055 3.03228496922414
vertex -6.87538070812956 51.8906436933203 3.03228521235591
endloop
endfacet
facet normal -0.568526301223668 0.328212913068503 0.754356764742004
outer loop
vertex 7.9956309956277 77.6500246505055 3.03228496922414
vertex -6.17613869716909 51.4869680003677 3.73490905566663
vertex 8.69487300658816 77.246348957553 3.73490881253486
endloop
endfacet
facet normal -0.974927891557788 0.222521024316097 0.0
outer loop
vertex -7.37925937025599 71.806349371847 12.9
vertex -7.79519037025598 69.984037371847 0.0
vertex -7.79519037025598 69.984037371847 12.9
endloop
endfacet
facet normal -0.974927891557788 0.222521024316097 0.0
outer loop
vertex -7.79519037025598 69.984037371847 0.0
vertex -7.37925937025599 71.806349371847 12.9
vertex -7.37925937025599 71.806349371847 0.0
endloop
endfacet
facet normal -0.850041890051959 0.490733176784691 -0.191336704162317
outer loop
vertex -5.47009888455415 51.0793679358618 7.75303921413803
vertex 9.5782700913243 76.7363596963011 6.70249883822839
vertex -5.29274161243295 50.9769787391158 6.70249908136015
endloop
endfacet
facet normal -0.850041890051959 0.490733176784691 -0.191336704162317
outer loop
vertex 9.5782700913243 76.7363596963011 6.70249883822839
vertex -5.47009888455415 51.0793679358618 7.75303921413803
vertex 9.40091281920311 76.8387488930471 7.75303897100627
endloop
endfacet
facet normal -0.499970413440658 -0.866042484918596 0.0
outer loop
vertex -1.85325937025598 48.991349371847 0.0
vertex -8.61810095334553 52.8967242758492 2.35778248208722
vertex -19.187259370256 58.998349371847 0.0
endloop
endfacet
facet normal -0.499970413440658 -0.866042484918596 0.0
outer loop
vertex -8.61810095334553 52.8967242758492 2.35778248208722
vertex -1.85325937025598 48.991349371847 0.0
vertex -7.70828855803018 52.3714853055628 2.56257298378239
endloop
endfacet
facet normal -0.499970413440658 -0.866042484918596 0.0
outer loop
vertex -7.70828855803018 52.3714853055628 2.56257298378239
vertex -1.85325937025598 48.991349371847 0.0
vertex -6.87538070812956 51.8906436933203 3.03228521235591
endloop
endfacet
facet normal -0.499970413440658 -0.866042484918596 0.0
outer loop
vertex -6.87538070812956 51.8906436933203 3.03228521235591
vertex -1.85325937025598 48.991349371847 0.0
vertex -6.17613869716909 51.4869680003677 3.73490905566663
endloop
endfacet
facet normal -0.499970413440658 -0.866042484918596 0.0
outer loop
vertex -6.17613869716909 51.4869680003677 3.73490905566663
vertex -1.85325937025598 48.991349371847 0.0
vertex -5.65821471264368 51.1879680580741 4.62256185993373
endloop
endfacet
facet normal -0.499970413440658 -0.866042484918596 0.0
outer loop
vertex -5.65821471264368 51.1879680580741 4.62256185993373
vertex -1.85325937025598 48.991349371847 0.0
vertex -1.85325937025598 48.991349371847 12.9
endloop
endfacet
facet normal -0.499970413440658 -0.866042484918596 0.0
outer loop
vertex -5.65821471264368 51.1879680580741 4.62256185993373
vertex -1.85325937025598 48.991349371847 12.9
vertex -5.35690441818887 51.014020218386 5.63475155346204
endloop
endfacet
facet normal -0.499970413440658 -0.866042484918596 0.0
outer loop
vertex -5.35690441818887 51.014020218386 5.63475155346204
vertex -1.85325937025598 48.991349371847 12.9
vertex -5.29274161243295 50.9769787391158 6.70249908136015
endloop
endfacet
facet normal -0.499970413440658 -0.866042484918596 0.0
outer loop
vertex -5.29274161243295 50.9769787391158 6.70249908136015
vertex -1.85325937025598 48.991349371847 12.9
vertex -5.47009888455415 51.0793679358618 7.75303921413803
endloop
endfacet
facet normal -0.499970413440658 -0.866042484918596 0.0
outer loop
vertex -5.47009888455415 51.0793679358618 7.75303921413803
vertex -1.85325937025598 48.991349371847 12.9
vertex -5.87688962955414 51.3142101540719 8.71477937784652
endloop
endfacet
facet normal -0.499970413440658 -0.866042484918596 0.0
outer loop
vertex -5.87688962955414 51.3142101540719 8.71477937784652
vertex -1.85325937025598 48.991349371847 12.9
vertex -6.48539173041469 51.6655012846702 9.52217856967965
endloop
endfacet
facet normal -0.499970413440658 -0.866042484918596 0.0
outer loop
vertex -6.48539173041469 51.6655012846702 9.52217856967965
vertex -1.85325937025598 48.991349371847 12.9
vertex -7.25413677455938 52.1093014176425 10.1202138690042
endloop
endfacet
facet normal -0.499970413440658 -0.866042484918596 0.0
outer loop
vertex -7.25413677455938 52.1093014176425 10.1202138690042
vertex -1.85325937025598 48.991349371847 12.9
vertex -8.13073605764104 52.6153663073412 10.4681301584714
endloop
endfacet
facet normal -0.499970413440658 -0.866042484918596 0.0
outer loop
vertex -8.13073605764104 52.6153663073412 10.4681301584714
vertex -1.85325937025598 48.991349371847 12.9
vertex -9.05545078716645 53.1492084678448 10.5422175179128
endloop
endfacet
facet normal -0.499970413440658 -0.866042484918596 0.0
outer loop
vertex -19.187259370256 58.998349371847 0.0
vertex -11.1881600100973 54.3804314590238 3.37782143032035
vertex -19.187259370256 58.998349371847 12.9
endloop
endfacet
facet normal -0.499970413440658 -0.866042484918596 0.0
outer loop
vertex -11.1881600100973 54.3804314590238 3.37782143032035
vertex -19.187259370256 58.998349371847 0.0
vertex -10.4194149659526 53.9366313260515 2.77978613099575
endloop
endfacet
facet normal -0.499970413440658 -0.866042484918596 0.0
outer loop
vertex -10.4194149659526 53.9366313260515 2.77978613099575
vertex -19.187259370256 58.998349371847 0.0
vertex -9.54281568287094 53.4305664363529 2.4318698415286
endloop
endfacet
facet normal -0.499970413440658 -0.866042484918596 0.0
outer loop
vertex -9.54281568287094 53.4305664363529 2.4318698415286
vertex -19.187259370256 58.998349371847 0.0
vertex -8.61810095334553 52.8967242758492 2.35778248208722
endloop
endfacet
facet normal -0.499970413440658 -0.866042484918596 0.0
outer loop
vertex -19.187259370256 58.998349371847 12.9
vertex -11.1881600100973 54.3804314590238 3.37782143032035
vertex -11.7966621109578 54.7317225896221 4.18522062215348
endloop
endfacet
facet normal -0.499970413440658 -0.866042484918596 0.0
outer loop
vertex -19.187259370256 58.998349371847 12.9
vertex -11.7966621109578 54.7317225896221 4.18522062215348
vertex -12.2034528559578 54.9665648078322 5.14696078586197
endloop
endfacet
facet normal -0.499970413440658 -0.866042484918596 0.0
outer loop
vertex -19.187259370256 58.998349371847 12.9
vertex -12.2034528559578 54.9665648078322 5.14696078586197
vertex -12.380810128079 55.0689540045782 6.19750091863985
endloop
endfacet
facet normal -0.499970413440658 -0.866042484918596 0.0
outer loop
vertex -19.187259370256 58.998349371847 12.9
vertex -12.380810128079 55.0689540045782 6.19750091863985
vertex -12.3166473223231 55.031912525308 7.26524844653796
endloop
endfacet
facet normal -0.499970413440658 -0.866042484918596 0.0
outer loop
vertex -19.187259370256 58.998349371847 12.9
vertex -12.3166473223231 55.031912525308 7.26524844653796
vertex -12.0153370278683 54.8579646856199 8.27743814006627
endloop
endfacet
facet normal -0.499970413440658 -0.866042484918596 0.0
outer loop
vertex -19.187259370256 58.998349371847 12.9
vertex -12.0153370278683 54.8579646856199 8.27743814006627
vertex -11.4974130433429 54.5589647433263 9.16509094433337
endloop
endfacet
facet normal -0.499970413440658 -0.866042484918596 0.0
outer loop
vertex -19.187259370256 58.998349371847 12.9
vertex -11.4974130433429 54.5589647433263 9.16509094433337
vertex -10.7981710323824 54.1552890503737 9.8677147876441
endloop
endfacet
facet normal -0.499970413440658 -0.866042484918596 0.0
outer loop
vertex -19.187259370256 58.998349371847 12.9
vertex -10.7981710323824 54.1552890503737 9.8677147876441
vertex -9.9652631824818 53.6744474381312 10.3374270162176
endloop
endfacet
facet normal -0.499970413440658 -0.866042484918596 0.0
outer loop
vertex -19.187259370256 58.998349371847 12.9
vertex -9.9652631824818 53.6744474381312 10.3374270162176
vertex -9.05545078716645 53.1492084678448 10.5422175179128
endloop
endfacet
facet normal -0.499970413440658 -0.866042484918596 0.0
outer loop
vertex -19.187259370256 58.998349371847 12.9
vertex -9.05545078716645 53.1492084678448 10.5422175179128
vertex -1.85325937025598 48.991349371847 12.9
endloop
endfacet
facet normal -0.974927891557788 0.222521024316097 0.0
outer loop
vertex 21.881740629744 21.143349371847 12.9
vertex 21.465809629744 19.321037371847 0.0
vertex 21.465809629744 19.321037371847 12.9
endloop
endfacet
facet normal -0.974927891557788 0.222521024316097 0.0
outer loop
vertex 21.465809629744 19.321037371847 0.0
vertex 21.881740629744 21.143349371847 12.9
vertex 21.881740629744 21.143349371847 0.0
endloop
endfacet
facet normal -0.962594534068922 -0.270946051790084 0.0
outer loop
vertex -22.592259370256 71.095349371847 12.9
vertex -19.187259370256 58.998349371847 0.0
vertex -19.187259370256 58.998349371847 12.9
endloop
endfacet
facet normal -0.962594534068922 -0.270946051790084 0.0
outer loop
vertex -19.187259370256 58.998349371847 0.0
vertex -22.592259370256 71.095349371847 12.9
vertex -22.592259370256 71.095349371847 0.0
endloop
endfacet
facet normal -0.974927891557788 -0.222521024316097 0.0
outer loop
vertex 21.465809629744 22.965661371847 12.9
vertex 21.881740629744 21.143349371847 0.0
vertex 21.881740629744 21.143349371847 12.9
endloop
endfacet
facet normal -0.974927891557788 -0.222521024316097 0.0
outer loop
vertex 21.881740629744 21.143349371847 0.0
vertex 21.465809629744 22.965661371847 12.9
vertex 21.465809629744 22.965661371847 0.0
endloop
endfacet
facet normal 0.568526301223651 -0.328212913068493 -0.754356764742021
outer loop
vertex 3.37359866041437 80.3183457005116 9.16509070120161
vertex -10.7981710323824 54.1552890503737 9.8677147876441
vertex -11.4974130433429 54.5589647433263 9.16509094433337
endloop
endfacet
facet normal 0.568526301223651 -0.328212913068493 -0.754356764742021
outer loop
vertex -10.7981710323824 54.1552890503737 9.8677147876441
vertex 3.37359866041437 80.3183457005116 9.16509070120161
vertex 4.07284067137485 79.914670007559 9.86771454451234
endloop
endfacet
facet normal -0.0 1.0 -0.0
outer loop
vertex 16.747152629744 17.048652371847 12.9
vertex 18.616328629744 17.048652371847 0.0
vertex 16.747152629744 17.048652371847 0.0
endloop
endfacet
facet normal -0.0 1.0 -0.0
outer loop
vertex 18.616328629744 17.048652371847 0.0
vertex 16.747152629744 17.048652371847 12.9
vertex 18.616328629744 17.048652371847 12.9
endloop
endfacet
facet normal -0.781831394071637 0.623489912704288 0.0
outer loop
vertex -7.79519037025598 69.984037371847 12.9
vertex -8.96060237025598 68.522657371847 0.0
vertex -8.96060237025598 68.522657371847 12.9
endloop
endfacet
facet normal -0.781831394071637 0.623489912704288 0.0
outer loop
vertex -8.96060237025598 68.522657371847 0.0
vertex -7.79519037025598 69.984037371847 12.9
vertex -7.79519037025598 69.984037371847 0.0
endloop
endfacet
facet normal 0.974927891557787 -0.222521024316103 -0.0
outer loop
vertex 13.897671629744 22.965661371847 0.0
vertex 13.481740629744 21.143349371847 12.9
vertex 13.481740629744 21.143349371847 0.0
endloop
endfacet
facet normal 0.974927891557787 -0.222521024316103 -0.0
outer loop
vertex 13.481740629744 21.143349371847 12.9
vertex 13.897671629744 22.965661371847 0.0
vertex 13.897671629744 22.965661371847 12.9
endloop
endfacet
facet normal -0.866045111628456 0.499965863459152 0.0
outer loop
vertex -16.606259370256 81.464349371847 12.9
vertex -22.592259370256 71.095349371847 0.0
vertex -22.592259370256 71.095349371847 12.9
endloop
endfacet
facet normal -0.866045111628456 0.499965863459152 0.0
outer loop
vertex -22.592259370256 71.095349371847 0.0
vertex -16.606259370256 81.464349371847 12.9
vertex -16.606259370256 81.464349371847 0.0
endloop
endfacet
facet normal -0.258792389885367 0.965932968138794 -0.0
outer loop
vertex -16.606259370256 81.464349371847 12.9
vertex -4.31525937025599 84.757349371847 0.0
vertex -16.606259370256 81.464349371847 0.0
endloop
endfacet
facet normal -0.258792389885367 0.965932968138794 -0.0
outer loop
vertex -4.31525937025599 84.757349371847 0.0
vertex -16.606259370256 81.464349371847 12.9
vertex -4.31525937025599 84.757349371847 12.9
endloop
endfacet
facet normal -0.0 0.965925842801419 0.258818983477579
outer loop
vertex 2.60674062974403 28.829425406072 5.91484287123512
vertex 32.758740629744 29.1064431884503 4.88099816896705
vertex 2.60674062974403 29.1064431884503 4.88099816896705
endloop
endfacet
facet normal -0.0 0.965925842801419 0.258818983477579
outer loop
vertex 32.758740629744 29.1064431884503 4.88099816896705
vertex 2.60674062974403 28.829425406072 5.91484287123512
vertex 32.758740629744 28.829425406072 5.91484287123512
endloop
endfacet
facet normal 0.0 -1.0 0.0
outer loop
vertex -10.644671370256 75.901046371847 12.9
vertex -12.513847370256 75.901046371847 0.0
vertex -10.644671370256 75.901046371847 0.0
endloop
endfacet
facet normal 0.0 -1.0 0.0
outer loop
vertex -12.513847370256 75.901046371847 0.0
vertex -10.644671370256 75.901046371847 12.9
vertex -12.513847370256 75.901046371847 12.9
endloop
endfacet
facet normal -0.0 1.0 -0.0
outer loop
vertex -12.513847370256 67.711652371847 12.9
vertex -10.644671370256 67.711652371847 0.0
vertex -12.513847370256 67.711652371847 0.0
endloop
endfacet
facet normal -0.0 1.0 -0.0
outer loop
vertex -10.644671370256 67.711652371847 0.0
vertex -12.513847370256 67.711652371847 12.9
vertex -10.644671370256 67.711652371847 12.9
endloop
endfacet
facet normal -0.433883788312484 0.90096884421139 -0.0
outer loop
vertex -10.644671370256 67.711652371847 12.9
vertex -8.96060237025598 68.522657371847 0.0
vertex -10.644671370256 67.711652371847 0.0
endloop
endfacet
facet normal -0.433883788312484 0.90096884421139 -0.0
outer loop
vertex -8.96060237025598 68.522657371847 0.0
vertex -10.644671370256 67.711652371847 12.9
vertex -8.96060237025598 68.522657371847 12.9
endloop
endfacet
facet normal -0.0 6.37988136864541e-008 0.999999999999998
outer loop
vertex 32.758740629744 32.3591917244075 2.38507610250979
vertex 2.60674062974403 33.4295065006119 2.38507603422498
vertex 2.60674062974403 32.3591917244075 2.38507610250979
endloop
endfacet
facet normal -0.0 6.37988136864541e-008 0.999999999999998
outer loop
vertex 2.60674062974403 33.4295065006119 2.38507603422498
vertex 32.758740629744 32.3591917244075 2.38507610250979
vertex 32.758740629744 33.4295065006119 2.38507603422498
endloop
endfacet
facet normal -0.0 0.866025435683847 0.499999944748599
outer loop
vertex 2.60674062974403 29.1064431884503 4.88099816896705
vertex 32.758740629744 29.6416005174161 3.95407834858576
vertex 2.60674062974403 29.6416005174161 3.95407834858576
endloop
endfacet
facet normal -0.0 0.866025435683847 0.499999944748599
outer loop
vertex 32.758740629744 29.6416005174161 3.95407834858576
vertex 2.60674062974403 29.1064431884503 4.88099816896705
vertex 32.758740629744 29.1064431884503 4.88099816896705
endloop
endfacet
facet normal 0.781831394071631 -0.623489912704295 -0.0
outer loop
vertex 15.063083629744 24.427041371847 0.0
vertex 13.897671629744 22.965661371847 12.9
vertex 13.897671629744 22.965661371847 0.0
endloop
endfacet
facet normal 0.781831394071631 -0.623489912704295 -0.0
outer loop
vertex 13.897671629744 22.965661371847 12.9
vertex 15.063083629744 24.427041371847 0.0
vertex 15.063083629744 24.427041371847 12.9
endloop
endfacet
facet normal 0.433883788312511 -0.900968844211377 0.0
outer loop
vertex 16.747152629744 25.238046371847 12.9
vertex 15.063083629744 24.427041371847 0.0
vertex 16.747152629744 25.238046371847 0.0
endloop
endfacet
facet normal 0.433883788312511 -0.900968844211377 0.0
outer loop
vertex 15.063083629744 24.427041371847 0.0
vertex 16.747152629744 25.238046371847 12.9
vertex 15.063083629744 24.427041371847 12.9
endloop
endfacet
facet normal -0.433883788312511 -0.900968844211377 0.0
outer loop
vertex 20.300397629744 24.427041371847 12.9
vertex 18.616328629744 25.238046371847 0.0
vertex 20.300397629744 24.427041371847 0.0
endloop
endfacet
facet normal -0.433883788312511 -0.900968844211377 0.0
outer loop
vertex 18.616328629744 25.238046371847 0.0
vertex 20.300397629744 24.427041371847 12.9
vertex 18.616328629744 25.238046371847 12.9
endloop
endfacet
facet normal 0.380066457124465 -0.219414160610679 -0.8985582420146
outer loop
vertex 4.07284067137485 79.914670007559 9.86771454451234
vertex -9.9652631824818 53.6744474381312 10.3374270162176
vertex -10.7981710323824 54.1552890503737 9.8677147876441
endloop
endfacet
facet normal 0.380066457124465 -0.219414160610679 -0.8985582420146
outer loop
vertex -9.9652631824818 53.6744474381312 10.3374270162176
vertex 4.07284067137485 79.914670007559 9.86771454451234
vertex 4.90574852127546 79.4338283953165 10.3374267730858
endloop
endfacet
facet normal -0.0 0.500000055251396 0.866025371885028
outer loop
vertex 32.758740629744 30.3984273053898 3.1972514640428
vertex 2.60674062974403 31.3253470574862 2.6620940168042
vertex 2.60674062974403 30.3984273053898 3.1972514640428
endloop
endfacet
facet normal -0.0 0.500000055251396 0.866025371885028
outer loop
vertex 2.60674062974403 31.3253470574862 2.6620940168042
vertex 32.758740629744 30.3984273053898 3.1972514640428
vertex 32.758740629744 31.3253470574862 2.6620940168042
endloop
endfacet
facet normal -0.0 0.965925809776711 -0.258819106727469
outer loop
vertex 2.60674062974403 29.1064433886512 8.01900231436078
vertex 32.758740629744 28.8294254743568 6.98515764743954
vertex 2.60674062974403 28.8294254743568 6.98515764743954
endloop
endfacet
facet normal -0.0 0.965925809776711 -0.258819106727469
outer loop
vertex 32.758740629744 28.8294254743568 6.98515764743954
vertex 2.60674062974403 29.1064433886512 8.01900231436078
vertex 32.758740629744 29.1064433886512 8.01900231436078
endloop
endfacet
facet normal 0.707106781186547 -0.707106781186547 0.0
outer loop
vertex 32.758740629744 20.944349371847 0.0
vertex 25.007740629744 13.193349371847 12.9
vertex 25.007740629744 13.193349371847 0.0
endloop
endfacet
facet normal 0.707106781186547 -0.707106781186547 0.0
outer loop
vertex 25.007740629744 13.193349371847 12.9
vertex 32.758740629744 20.944349371847 0.0
vertex 32.758740629744 20.944349371847 12.9
endloop
endfacet
facet normal 0.850041890051962 -0.490733176784693 0.191336704162299
outer loop
vertex 2.66755884779942 80.7259457650175 5.1469605427302
vertex -12.380810128079 55.0689540045782 6.19750091863985
vertex -12.2034528559578 54.9665648078322 5.14696078586197
endloop
endfacet
facet normal 0.850041890051962 -0.490733176784693 0.191336704162299
outer loop
vertex -12.380810128079 55.0689540045782 6.19750091863985
vertex 2.66755884779942 80.7259457650175 5.1469605427302
vertex 2.49020157567823 80.8283349617634 6.19750067550808
endloop
endfacet
facet normal 0.718242017428596 -0.414644497898181 -0.558747120585749
outer loop
vertex -12.0153370278683 54.8579646856199 8.27743814006627
vertex 3.37359866041437 80.3183457005116 9.16509070120161
vertex -11.4974130433429 54.5589647433263 9.16509094433337
endloop
endfacet
facet normal 0.718242017428596 -0.414644497898181 -0.558747120585749
outer loop
vertex 3.37359866041437 80.3183457005116 9.16509070120161
vertex -12.0153370278683 54.8579646856199 8.27743814006627
vertex 2.85567467588896 80.6173456428052 8.27743789693451
endloop
endfacet
facet normal -0.483898752068159 0.279357016217172 -0.829338082591844
outer loop
vertex 7.61687492919788 77.8686823748278 10.1202136258725
vertex -6.48539173041469 51.6655012846702 9.52217856967965
vertex -7.25413677455938 52.1093014176425 10.1202138690042
endloop
endfacet
facet normal -0.483898752068159 0.279357016217172 -0.829338082591844
outer loop
vertex -6.48539173041469 51.6655012846702 9.52217856967965
vertex 7.61687492919788 77.8686823748278 10.1202136258725
vertex 8.38561997334257 77.4248822418555 9.52217832654789
endloop
endfacet
facet normal -0.974927891557788 -0.222521024316097 0.0
outer loop
vertex -7.79519037025598 73.628661371847 12.9
vertex -7.37925937025599 71.806349371847 0.0
vertex -7.37925937025599 71.806349371847 12.9
endloop
endfacet
facet normal -0.974927891557788 -0.222521024316097 0.0
outer loop
vertex -7.37925937025599 71.806349371847 0.0
vertex -7.79519037025598 73.628661371847 12.9
vertex -7.79519037025598 73.628661371847 0.0
endloop
endfacet
facet normal 0.97492789155779 -0.222521024316091 -0.0
outer loop
vertex -15.363328370256 73.628661371847 0.0
vertex -15.779259370256 71.806349371847 12.9
vertex -15.779259370256 71.806349371847 0.0
endloop
endfacet
facet normal 0.97492789155779 -0.222521024316091 -0.0
outer loop
vertex -15.779259370256 71.806349371847 12.9
vertex -15.363328370256 73.628661371847 0.0
vertex -15.363328370256 73.628661371847 12.9
endloop
endfacet
facet normal -0.0 -0.258818983477604 0.965925842801413
outer loop
vertex 32.758740629744 33.4295065006119 2.38507603422498
vertex 2.60674062974403 34.4633512028799 2.66209381660326
vertex 2.60674062974403 33.4295065006119 2.38507603422498
endloop
endfacet
facet normal -0.0 -0.258818983477604 0.965925842801413
outer loop
vertex 2.60674062974403 34.4633512028799 2.66209381660326
vertex 32.758740629744 33.4295065006119 2.38507603422498
vertex 32.758740629744 34.4633512028799 2.66209381660326
endloop
endfacet
facet normal -0.778189620864902 0.449252521718577 -0.438854287557544
outer loop
vertex -5.87688962955414 51.3142101540719 8.71477937784652
vertex 9.40091281920311 76.8387488930471 7.75303897100627
vertex -5.47009888455415 51.0793679358618 7.75303921413803
endloop
endfacet
facet normal -0.778189620864902 0.449252521718577 -0.438854287557544
outer loop
vertex 9.40091281920311 76.8387488930471 7.75303897100627
vertex -5.87688962955414 51.3142101540719 8.71477937784652
vertex 8.99412207420311 77.0735911112572 8.71477913471476
endloop
endfacet
facet normal -0.0 -0.499999944748602 0.866025435683846
outer loop
vertex 32.758740629744 34.4633512028799 2.66209381660326
vertex 2.60674062974403 35.3902710232613 3.19725114556909
vertex 2.60674062974403 34.4633512028799 2.66209381660326
endloop
endfacet
facet normal -0.0 -0.499999944748602 0.866025435683846
outer loop
vertex 2.60674062974403 35.3902710232613 3.19725114556909
vertex 32.758740629744 34.4633512028799 2.66209381660326
vertex 32.758740629744 35.3902710232613 3.19725114556909
endloop
endfacet
facet normal -0.0 0.866025371885028 -0.500000055251396
outer loop
vertex 2.60674062974403 29.6416008358898 8.94592206645726
vertex 32.758740629744 29.1064433886512 8.01900231436078
vertex 2.60674062974403 29.1064433886512 8.01900231436078
endloop
endfacet
facet normal -0.0 0.866025371885028 -0.500000055251396
outer loop
vertex 32.758740629744 29.1064433886512 8.01900231436078
vertex 2.60674062974403 29.6416008358898 8.94592206645726
vertex 32.758740629744 29.6416008358898 8.94592206645726
endloop
endfacet
facet normal -0.653305015035024 0.377156049722219 -0.656464676496777
outer loop
vertex 8.38561997334257 77.4248822418555 9.52217832654789
vertex -5.87688962955414 51.3142101540719 8.71477937784652
vertex -6.48539173041469 51.6655012846702 9.52217856967965
endloop
endfacet
facet normal -0.653305015035024 0.377156049722219 -0.656464676496777
outer loop
vertex -5.87688962955414 51.3142101540719 8.71477937784652
vertex 8.38561997334257 77.4248822418555 9.52217832654789
vertex 8.99412207420311 77.0735911112572 8.71477913471476
endloop
endfacet
facet normal -0.0 -0.707106736073973 0.707106826299119
outer loop
vertex 32.758740629744 35.3902710232613 3.19725114556909
vertex 2.60674062974403 36.1470979078042 3.95407793354274
vertex 2.60674062974403 35.3902710232613 3.19725114556909
endloop
endfacet
facet normal -0.0 -0.707106736073973 0.707106826299119
outer loop
vertex 2.60674062974403 36.1470979078042 3.95407793354274
vertex 32.758740629744 35.3902710232613 3.19725114556909
vertex 32.758740629744 36.1470979078042 3.95407793354274
endloop
endfacet
facet normal 0.0 -6.37988150038079e-008 -0.999999999999998
outer loop
vertex 32.758740629744 33.4295070192866 10.5149238974902
vertex 2.60674062974403 32.3591922430821 10.514923965775
vertex 2.60674062974403 33.4295070192866 10.5149238974902
endloop
endfacet
facet normal 0.0 -6.37988150038079e-008 -0.999999999999998
outer loop
vertex 2.60674062974403 32.3591922430821 10.514923965775
vertex 32.758740629744 33.4295070192866 10.5149238974902
vertex 32.758740629744 32.3591922430821 10.514923965775
endloop
endfacet
facet normal -1.0 0.0 0.0
outer loop
vertex 10.007740629744 13.673349371847 12.9
vertex 10.007740629744 -5.105650628153 0.0
vertex 10.007740629744 -5.105650628153 12.9
endloop
endfacet
facet normal -1.0 0.0 0.0
outer loop
vertex 10.007740629744 -5.105650628153 0.0
vertex 10.007740629744 13.673349371847 12.9
vertex 10.007740629744 13.673349371847 0.0
endloop
endfacet
facet normal 0.781831394071626 -0.623489912704302 -0.0
outer loop
vertex -14.197916370256 75.090041371847 0.0
vertex -15.363328370256 73.628661371847 12.9
vertex -15.363328370256 73.628661371847 0.0
endloop
endfacet
facet normal 0.781831394071626 -0.623489912704302 -0.0
outer loop
vertex -15.363328370256 73.628661371847 12.9
vertex -14.197916370256 75.090041371847 0.0
vertex -14.197916370256 75.090041371847 12.9
endloop
endfacet
facet normal 0.974927891557787 0.222521024316103 -0.0
outer loop
vertex 13.481740629744 21.143349371847 0.0
vertex 13.897671629744 19.321037371847 12.9
vertex 13.897671629744 19.321037371847 0.0
endloop
endfacet
facet normal 0.974927891557787 0.222521024316103 -0.0
outer loop
vertex 13.897671629744 19.321037371847 12.9
vertex 13.481740629744 21.143349371847 0.0
vertex 13.481740629744 21.143349371847 12.9
endloop
endfacet
facet normal 0.0 -0.866025371885028 0.500000055251396
outer loop
vertex 32.758740629744 36.6822553550428 4.88099768563922
vertex 2.60674062974403 36.1470979078042 3.95407793354274
vertex 32.758740629744 36.1470979078042 3.95407793354274
endloop
endfacet
facet normal 0.0 -0.866025371885028 0.500000055251396
outer loop
vertex 2.60674062974403 36.1470979078042 3.95407793354274
vertex 32.758740629744 36.6822553550428 4.88099768563922
vertex 2.60674062974403 36.6822553550428 4.88099768563922
endloop
endfacet
facet normal 0.0 -1.0 0.0
outer loop
vertex 25.007740629744 -5.105650628153 12.9
vertex 10.007740629744 -5.105650628153 0.0
vertex 25.007740629744 -5.105650628153 0.0
endloop
endfacet
facet normal 0.0 -1.0 0.0
outer loop
vertex 10.007740629744 -5.105650628153 0.0
vertex 25.007740629744 -5.105650628153 12.9
vertex 10.007740629744 -5.105650628153 12.9
endloop
endfacet
facet normal -0.433883788312508 -0.900968844211378 0.0
outer loop
vertex -8.96060237025598 75.090041371847 12.9
vertex -10.644671370256 75.901046371847 0.0
vertex -8.96060237025598 75.090041371847 0.0
endloop
endfacet
facet normal -0.433883788312508 -0.900968844211378 0.0
outer loop
vertex -10.644671370256 75.901046371847 0.0
vertex -8.96060237025598 75.090041371847 12.9
vertex -10.644671370256 75.901046371847 12.9
endloop
endfacet
facet normal 0.0 -0.965925809776721 0.25881910672743
outer loop
vertex 32.758740629744 36.9592732693372 5.91484235256046
vertex 2.60674062974403 36.6822553550428 4.88099768563922
vertex 32.758740629744 36.6822553550428 4.88099768563922
endloop
endfacet
facet normal 0.0 -0.965925809776721 0.25881910672743
outer loop
vertex 2.60674062974403 36.6822553550428 4.88099768563922
vertex 32.758740629744 36.9592732693372 5.91484235256046
vertex 2.60674062974403 36.9592732693372 5.91484235256046
endloop
endfacet
facet normal 1.0 -0.0 -0.0
outer loop
vertex 32.758740629744 20.944349371847 0.0
vertex 32.758740629744 29.6416005174161 3.95407834858576
vertex 32.758740629744 20.944349371847 12.9
endloop
endfacet
facet normal 1.0 -0.0 -0.0
outer loop
vertex 32.758740629744 29.6416005174161 3.95407834858576
vertex 32.758740629744 20.944349371847 0.0
vertex 32.758740629744 30.3984273053898 3.1972514640428
endloop
endfacet
facet normal 1.0 -0.0 -0.0
outer loop
vertex 32.758740629744 30.3984273053898 3.1972514640428
vertex 32.758740629744 20.944349371847 0.0
vertex 32.758740629744 31.3253470574862 2.6620940168042
endloop
endfacet
facet normal 1.0 -0.0 -0.0
outer loop
vertex 32.758740629744 31.3253470574862 2.6620940168042
vertex 32.758740629744 20.944349371847 0.0
vertex 32.758740629744 32.3591917244075 2.38507610250979
endloop
endfacet
facet normal 1.0 -0.0 -0.0
outer loop
vertex 32.758740629744 32.3591917244075 2.38507610250979
vertex 32.758740629744 20.944349371847 0.0
vertex 32.758740629744 43.445349371847 0.0
endloop
endfacet
facet normal 1.0 -0.0 -0.0
outer loop
vertex 32.758740629744 20.944349371847 12.9
vertex 32.758740629744 29.6416005174161 3.95407834858576
vertex 32.758740629744 29.1064431884503 4.88099816896705
endloop
endfacet
facet normal 1.0 -0.0 -0.0
outer loop
vertex 32.758740629744 20.944349371847 12.9
vertex 32.758740629744 29.1064431884503 4.88099816896705
vertex 32.758740629744 28.829425406072 5.91484287123512
endloop
endfacet
facet normal 1.0 -0.0 -0.0
outer loop
vertex 32.758740629744 32.3591917244075 2.38507610250979
vertex 32.758740629744 43.445349371847 0.0
vertex 32.758740629744 33.4295065006119 2.38507603422498
endloop
endfacet
facet normal 1.0 -0.0 -0.0
outer loop
vertex 32.758740629744 33.4295065006119 2.38507603422498
vertex 32.758740629744 43.445349371847 0.0
vertex 32.758740629744 34.4633512028799 2.66209381660326
endloop
endfacet
facet normal 1.0 -0.0 -0.0
outer loop
vertex 32.758740629744 34.4633512028799 2.66209381660326
vertex 32.758740629744 43.445349371847 0.0
vertex 32.758740629744 35.3902710232613 3.19725114556909
endloop
endfacet
facet normal 1.0 -0.0 -0.0
outer loop
vertex 32.758740629744 35.3902710232613 3.19725114556909
vertex 32.758740629744 43.445349371847 0.0
vertex 32.758740629744 36.1470979078042 3.95407793354274
endloop
endfacet
facet normal 1.0 -0.0 -0.0
outer loop
vertex 32.758740629744 36.1470979078042 3.95407793354274
vertex 32.758740629744 43.445349371847 0.0
vertex 32.758740629744 36.6822553550428 4.88099768563922
endloop
endfacet
facet normal 1.0 -0.0 -0.0
outer loop
vertex 32.758740629744 36.6822553550428 4.88099768563922
vertex 32.758740629744 43.445349371847 0.0
vertex 32.758740629744 36.9592732693372 5.91484235256046
endloop
endfacet
facet normal 1.0 -0.0 -0.0
outer loop
vertex 32.758740629744 36.9592732693372 5.91484235256046
vertex 32.758740629744 43.445349371847 0.0
vertex 32.758740629744 36.959273337622 6.98515712876488
endloop
endfacet
facet normal 1.0 -0.0 -0.0
outer loop
vertex 32.758740629744 20.944349371847 12.9
vertex 32.758740629744 32.3591922430821 10.514923965775
vertex 32.758740629744 43.445349371847 12.9
endloop
endfacet
facet normal 1.0 -0.0 -0.0
outer loop
vertex 32.758740629744 32.3591922430821 10.514923965775
vertex 32.758740629744 20.944349371847 12.9
vertex 32.758740629744 31.3253475408141 10.2379061833967
endloop
endfacet
facet normal 1.0 -0.0 -0.0
outer loop
vertex 32.758740629744 31.3253475408141 10.2379061833967
vertex 32.758740629744 20.944349371847 12.9
vertex 32.758740629744 30.3984277204328 9.70274885443091
endloop
endfacet
facet normal 1.0 -0.0 -0.0
outer loop
vertex 32.758740629744 30.3984277204328 9.70274885443091
vertex 32.758740629744 20.944349371847 12.9
vertex 32.758740629744 29.6416008358898 8.94592206645726
endloop
endfacet
facet normal 1.0 -0.0 -0.0
outer loop
vertex 32.758740629744 29.6416008358898 8.94592206645726
vertex 32.758740629744 20.944349371847 12.9
vertex 32.758740629744 29.1064433886512 8.01900231436078
endloop
endfacet
facet normal 1.0 -0.0 -0.0
outer loop
vertex 32.758740629744 29.1064433886512 8.01900231436078
vertex 32.758740629744 20.944349371847 12.9
vertex 32.758740629744 28.8294254743568 6.98515764743954
endloop
endfacet
facet normal 1.0 -0.0 -0.0
outer loop
vertex 32.758740629744 28.8294254743568 6.98515764743954
vertex 32.758740629744 20.944349371847 12.9
vertex 32.758740629744 28.829425406072 5.91484287123512
endloop
endfacet
facet normal 1.0 -0.0 -0.0
outer loop
vertex 32.758740629744 43.445349371847 12.9
vertex 32.758740629744 32.3591922430821 10.514923965775
vertex 32.758740629744 33.4295070192866 10.5149238974902
endloop
endfacet
facet normal 1.0 -0.0 -0.0
outer loop
vertex 32.758740629744 43.445349371847 12.9
vertex 32.758740629744 33.4295070192866 10.5149238974902
vertex 32.758740629744 34.4633516862078 10.2379059831958
endloop
endfacet
facet normal 1.0 -0.0 -0.0
outer loop
vertex 32.758740629744 43.445349371847 12.9
vertex 32.758740629744 34.4633516862078 10.2379059831958
vertex 32.758740629744 35.3902714383043 9.7027485359572
endloop
endfacet
facet normal 1.0 -0.0 -0.0
outer loop
vertex 32.758740629744 43.445349371847 12.9
vertex 32.758740629744 35.3902714383043 9.7027485359572
vertex 32.758740629744 36.1470982262779 8.94592165141424
endloop
endfacet
facet normal 1.0 -0.0 -0.0
outer loop
vertex 32.758740629744 43.445349371847 12.9
vertex 32.758740629744 36.1470982262779 8.94592165141424
vertex 32.758740629744 36.6822555552437 8.01900183103294
endloop
endfacet
facet normal 1.0 -0.0 -0.0
outer loop
vertex 32.758740629744 43.445349371847 12.9
vertex 32.758740629744 36.6822555552437 8.01900183103294
vertex 32.758740629744 36.959273337622 6.98515712876488
endloop
endfacet
facet normal 1.0 -0.0 -0.0
outer loop
vertex 32.758740629744 43.445349371847 12.9
vertex 32.758740629744 36.959273337622 6.98515712876488
vertex 32.758740629744 43.445349371847 0.0
endloop
endfacet
facet normal -0.707106781186547 -0.707106781186548 0.0
outer loop
vertex 10.007740629744 13.673349371847 12.9
vertex 2.60674062974401 21.074349371847 0.0
vertex 10.007740629744 13.673349371847 0.0
endloop
endfacet
facet normal -0.707106781186547 -0.707106781186548 0.0
outer loop
vertex 2.60674062974401 21.074349371847 0.0
vertex 10.007740629744 13.673349371847 12.9
vertex 2.60674062974401 21.074349371847 12.9
endloop
endfacet
facet normal 0.0 -0.500000055251396 -0.866025371885028
outer loop
vertex 32.758740629744 35.3902714383043 9.7027485359572
vertex 2.60674062974403 34.4633516862078 10.2379059831958
vertex 2.60674062974403 35.3902714383043 9.7027485359572
endloop
endfacet
facet normal 0.0 -0.500000055251396 -0.866025371885028
outer loop
vertex 2.60674062974403 34.4633516862078 10.2379059831958
vertex 32.758740629744 35.3902714383043 9.7027485359572
vertex 32.758740629744 34.4633516862078 10.2379059831958
endloop
endfacet
facet normal 0.0 -0.707106826299129 -0.707106736073963
outer loop
vertex 32.758740629744 35.3902714383043 9.7027485359572
vertex 2.60674062974403 36.1470982262779 8.94592165141424
vertex 32.758740629744 36.1470982262779 8.94592165141424
endloop
endfacet
facet normal 0.0 -0.707106826299129 -0.707106736073963
outer loop
vertex 2.60674062974403 36.1470982262779 8.94592165141424
vertex 32.758740629744 35.3902714383043 9.7027485359572
vertex 2.60674062974403 35.3902714383043 9.7027485359572
endloop
endfacet
facet normal -0.281515588828284 0.162520263716185 -0.94569346890432
outer loop
vertex 6.74027564611622 78.3747472645264 10.4681299153396
vertex -7.25413677455938 52.1093014176425 10.1202138690042
vertex -8.13073605764104 52.6153663073412 10.4681301584714
endloop
endfacet
facet normal -0.281515588828284 0.162520263716185 -0.94569346890432
outer loop
vertex -7.25413677455938 52.1093014176425 10.1202138690042
vertex 6.74027564611622 78.3747472645264 10.4681299153396
vertex 7.61687492919788 77.8686823748278 10.1202136258725
endloop
endfacet
facet normal 0.433883788312508 -0.900968844211378 0.0
outer loop
vertex -12.513847370256 75.901046371847 12.9
vertex -14.197916370256 75.090041371847 0.0
vertex -12.513847370256 75.901046371847 0.0
endloop
endfacet
facet normal 0.433883788312508 -0.900968844211378 0.0
outer loop
vertex -14.197916370256 75.090041371847 0.0
vertex -12.513847370256 75.901046371847 12.9
vertex -14.197916370256 75.090041371847 12.9
endloop
endfacet
facet normal 0.97492789155779 0.222521024316091 -0.0
outer loop
vertex -15.779259370256 71.806349371847 0.0
vertex -15.363328370256 69.984037371847 12.9
vertex -15.363328370256 69.984037371847 0.0
endloop
endfacet
facet normal 0.97492789155779 0.222521024316091 -0.0
outer loop
vertex -15.363328370256 69.984037371847 12.9
vertex -15.779259370256 71.806349371847 0.0
vertex -15.779259370256 71.806349371847 12.9
endloop
endfacet
facet normal 0.0599476034363024 -0.0346080238203937 0.997601408143298
outer loop
vertex -8.61810095334553 52.8967242758492 2.35778248208722
vertex 5.32819602088631 79.1899473935381 2.43186959839683
vertex -9.54281568287094 53.4305664363529 2.4318698415286
endloop
endfacet
facet normal 0.0599476034363024 -0.0346080238203937 0.997601408143298
outer loop
vertex 5.32819602088631 79.1899473935381 2.43186959839683
vertex -8.61810095334553 52.8967242758492 2.35778248208722
vertex 6.25291075041173 78.6561052330344 2.35778223895545
endloop
endfacet
facet normal 0.863965209192623 -0.498771176827851 -0.0692201594227291
outer loop
vertex -12.380810128079 55.0689540045782 6.19750091863985
vertex 2.55436438143415 80.7912934824933 7.2652482034062
vertex -12.3166473223231 55.031912525308 7.26524844653796
endloop
endfacet
facet normal 0.863965209192623 -0.498771176827851 -0.0692201594227291
outer loop
vertex 2.55436438143415 80.7912934824933 7.2652482034062
vertex -12.380810128079 55.0689540045782 6.19750091863985
vertex 2.49020157567823 80.8283349617634 6.19750067550808
endloop
endfacet
facet normal 1.0 -0.0 -0.0
outer loop
vertex 25.007740629744 13.193349371847 0.0
vertex 25.007740629744 -5.105650628153 12.9
vertex 25.007740629744 -5.105650628153 0.0
endloop
endfacet
facet normal 1.0 -0.0 -0.0
outer loop
vertex 25.007740629744 -5.105650628153 12.9
vertex 25.007740629744 13.193349371847 0.0
vertex 25.007740629744 13.193349371847 12.9
endloop
endfacet
facet normal 0.0 0.258818983477595 -0.965925842801415
outer loop
vertex 32.758740629744 32.3591922430821 10.514923965775
vertex 2.60674062974403 31.3253475408141 10.2379061833967
vertex 2.60674062974403 32.3591922430821 10.514923965775
endloop
endfacet
facet normal 0.0 0.258818983477595 -0.965925842801415
outer loop
vertex 2.60674062974403 31.3253475408141 10.2379061833967
vertex 32.758740629744 32.3591922430821 10.514923965775
vertex 32.758740629744 31.3253475408141 10.2379061833967
endloop
endfacet
facet normal -0.0 -0.0 1.0
outer loop
vertex 10.007740629744 13.673349371847 12.9
vertex 2.60674062974401 41.365349371847 12.9
vertex 2.60674062974401 21.074349371847 12.9
endloop
endfacet
facet normal -0.0 -0.0 1.0
outer loop
vertex 25.007740629744 -5.105650628153 12.9
vertex 10.007740629744 13.673349371847 12.9
vertex 10.007740629744 -5.105650628153 12.9
endloop
endfacet
facet normal -0.0 -0.0 1.0
outer loop
vertex 10.007740629744 13.673349371847 12.9
vertex 25.007740629744 -5.105650628153 12.9
vertex 13.897671629744 19.321037371847 12.9
endloop
endfacet
facet normal -0.0 -0.0 1.0
outer loop
vertex 10.007740629744 13.673349371847 12.9
vertex 13.897671629744 19.321037371847 12.9
vertex 13.481740629744 21.143349371847 12.9
endloop
endfacet
facet normal -0.0 -0.0 1.0
outer loop
vertex 13.897671629744 19.321037371847 12.9
vertex 25.007740629744 -5.105650628153 12.9
vertex 15.063083629744 17.859657371847 12.9
endloop
endfacet
facet normal -0.0 -0.0 1.0
outer loop
vertex 15.063083629744 17.859657371847 12.9
vertex 25.007740629744 -5.105650628153 12.9
vertex 16.747152629744 17.048652371847 12.9
endloop
endfacet
facet normal -0.0 -0.0 1.0
outer loop
vertex 16.747152629744 17.048652371847 12.9
vertex 25.007740629744 -5.105650628153 12.9
vertex 18.616328629744 17.048652371847 12.9
endloop
endfacet
facet normal -0.0 -0.0 1.0
outer loop
vertex 18.616328629744 17.048652371847 12.9
vertex 25.007740629744 -5.105650628153 12.9
vertex 20.300397629744 17.859657371847 12.9
endloop
endfacet
facet normal -0.0 -0.0 1.0
outer loop
vertex 20.300397629744 17.859657371847 12.9
vertex 25.007740629744 -5.105650628153 12.9
vertex 21.465809629744 19.321037371847 12.9
endloop
endfacet
facet normal -0.0 -0.0 1.0
outer loop
vertex 21.465809629744 19.321037371847 12.9
vertex 25.007740629744 -5.105650628153 12.9
vertex 21.881740629744 21.143349371847 12.9
endloop
endfacet
facet normal -0.0 -0.0 1.0
outer loop
vertex -19.187259370256 58.998349371847 12.9
vertex -16.606259370256 81.464349371847 12.9
vertex -22.592259370256 71.095349371847 12.9
endloop
endfacet
facet normal -0.0 -0.0 1.0
outer loop
vertex -16.606259370256 81.464349371847 12.9
vertex -19.187259370256 58.998349371847 12.9
vertex -15.779259370256 71.806349371847 12.9
endloop
endfacet
facet normal -0.0 -0.0 1.0
outer loop
vertex -15.779259370256 71.806349371847 12.9
vertex -19.187259370256 58.998349371847 12.9
vertex -15.363328370256 69.984037371847 12.9
endloop
endfacet
facet normal -0.0 -0.0 1.0
outer loop
vertex -15.363328370256 69.984037371847 12.9
vertex -19.187259370256 58.998349371847 12.9
vertex -1.85325937025598 48.991349371847 12.9
endloop
endfacet
facet normal -0.0 -0.0 1.0
outer loop
vertex -15.363328370256 69.984037371847 12.9
vertex -1.85325937025598 48.991349371847 12.9
vertex -14.197916370256 68.522657371847 12.9
endloop
endfacet
facet normal -0.0 -0.0 1.0
outer loop
vertex -14.197916370256 68.522657371847 12.9
vertex -1.85325937025598 48.991349371847 12.9
vertex -12.513847370256 67.711652371847 12.9
endloop
endfacet
facet normal -0.0 -0.0 1.0
outer loop
vertex -12.513847370256 67.711652371847 12.9
vertex -1.85325937025598 48.991349371847 12.9
vertex -10.644671370256 67.711652371847 12.9
endloop
endfacet
facet normal -0.0 -0.0 1.0
outer loop
vertex -10.644671370256 67.711652371847 12.9
vertex -1.85325937025598 48.991349371847 12.9
vertex -8.96060237025598 68.522657371847 12.9
endloop
endfacet
facet normal -0.0 -0.0 1.0
outer loop
vertex -8.96060237025598 68.522657371847 12.9
vertex -1.85325937025598 48.991349371847 12.9
vertex -7.79519037025598 69.984037371847 12.9
endloop
endfacet
facet normal -0.0 -0.0 1.0
outer loop
vertex -7.79519037025598 69.984037371847 12.9
vertex -1.85325937025598 48.991349371847 12.9
vertex -7.37925937025599 71.806349371847 12.9
endloop
endfacet
facet normal -0.0 -0.0 1.0
outer loop
vertex -7.37925937025599 71.806349371847 12.9
vertex -1.85325937025598 48.991349371847 12.9
vertex -4.31525937025599 84.757349371847 12.9
endloop
endfacet
facet normal -0.0 -0.0 1.0
outer loop
vertex -4.31525937025599 84.757349371847 12.9
vertex -1.85325937025598 48.991349371847 12.9
vertex 15.517740629744 73.307349371847 12.9
endloop
endfacet
facet normal -0.0 -0.0 1.0
outer loop
vertex 15.517740629744 73.307349371847 12.9
vertex -1.85325937025598 48.991349371847 12.9
vertex 2.60674062974401 41.365349371847 12.9
endloop
endfacet
facet normal -0.0 -0.0 1.0
outer loop
vertex 15.517740629744 73.307349371847 12.9
vertex 2.60674062974401 41.365349371847 12.9
vertex 10.007740629744 13.673349371847 12.9
endloop
endfacet
facet normal -0.0 -0.0 1.0
outer loop
vertex 15.517740629744 73.307349371847 12.9
vertex 10.007740629744 13.673349371847 12.9
vertex 13.481740629744 21.143349371847 12.9
endloop
endfacet
facet normal -0.0 -0.0 1.0
outer loop
vertex 15.517740629744 73.307349371847 12.9
vertex 13.481740629744 21.143349371847 12.9
vertex 13.897671629744 22.965661371847 12.9
endloop
endfacet
facet normal -0.0 -0.0 1.0
outer loop
vertex 15.517740629744 73.307349371847 12.9
vertex 13.897671629744 22.965661371847 12.9
vertex 15.063083629744 24.427041371847 12.9
endloop
endfacet
facet normal -0.0 -0.0 1.0
outer loop
vertex 15.517740629744 73.307349371847 12.9
vertex 15.063083629744 24.427041371847 12.9
vertex 16.747152629744 25.238046371847 12.9
endloop
endfacet
facet normal -0.0 -0.0 1.0
outer loop
vertex 15.517740629744 73.307349371847 12.9
vertex 16.747152629744 25.238046371847 12.9
vertex 32.758740629744 43.445349371847 12.9
endloop
endfacet
facet normal -0.0 -0.0 1.0
outer loop
vertex 32.758740629744 43.445349371847 12.9
vertex 16.747152629744 25.238046371847 12.9
vertex 18.616328629744 25.238046371847 12.9
endloop
endfacet
facet normal -0.0 -0.0 1.0
outer loop
vertex 32.758740629744 43.445349371847 12.9
vertex 18.616328629744 25.238046371847 12.9
vertex 20.300397629744 24.427041371847 12.9
endloop
endfacet
facet normal -0.0 -0.0 1.0
outer loop
vertex 32.758740629744 43.445349371847 12.9
vertex 20.300397629744 24.427041371847 12.9
vertex 21.465809629744 22.965661371847 12.9
endloop
endfacet
facet normal -0.0 -0.0 1.0
outer loop
vertex 32.758740629744 43.445349371847 12.9
vertex 21.465809629744 22.965661371847 12.9
vertex 21.881740629744 21.143349371847 12.9
endloop
endfacet
facet normal -0.0 -0.0 1.0
outer loop
vertex 32.758740629744 43.445349371847 12.9
vertex 21.881740629744 21.143349371847 12.9
vertex 25.007740629744 13.193349371847 12.9
endloop
endfacet
facet normal -0.0 -0.0 1.0
outer loop
vertex 25.007740629744 13.193349371847 12.9
vertex 21.881740629744 21.143349371847 12.9
vertex 25.007740629744 -5.105650628153 12.9
endloop
endfacet
facet normal -0.0 -0.0 1.0
outer loop
vertex 32.758740629744 43.445349371847 12.9
vertex 25.007740629744 13.193349371847 12.9
vertex 32.758740629744 20.944349371847 12.9
endloop
endfacet
facet normal -0.0 -0.0 1.0
outer loop
vertex -16.606259370256 81.464349371847 12.9
vertex -14.197916370256 75.090041371847 12.9
vertex -4.31525937025599 84.757349371847 12.9
endloop
endfacet
facet normal -0.0 -0.0 1.0
outer loop
vertex -14.197916370256 75.090041371847 12.9
vertex -16.606259370256 81.464349371847 12.9
vertex -15.363328370256 73.628661371847 12.9
endloop
endfacet
facet normal -0.0 -0.0 1.0
outer loop
vertex -15.363328370256 73.628661371847 12.9
vertex -16.606259370256 81.464349371847 12.9
vertex -15.779259370256 71.806349371847 12.9
endloop
endfacet
facet normal -0.0 -0.0 1.0
outer loop
vertex -4.31525937025599 84.757349371847 12.9
vertex -14.197916370256 75.090041371847 12.9
vertex -12.513847370256 75.901046371847 12.9
endloop
endfacet
facet normal -0.0 -0.0 1.0
outer loop
vertex -4.31525937025599 84.757349371847 12.9
vertex -12.513847370256 75.901046371847 12.9
vertex -10.644671370256 75.901046371847 12.9
endloop
endfacet
facet normal -0.0 -0.0 1.0
outer loop
vertex -4.31525937025599 84.757349371847 12.9
vertex -10.644671370256 75.901046371847 12.9
vertex -8.96060237025598 75.090041371847 12.9
endloop
endfacet
facet normal -0.0 -0.0 1.0
outer loop
vertex -4.31525937025599 84.757349371847 12.9
vertex -8.96060237025598 75.090041371847 12.9
vertex -7.79519037025598 73.628661371847 12.9
endloop
endfacet
facet normal -0.0 -0.0 1.0
outer loop
vertex -4.31525937025599 84.757349371847 12.9
vertex -7.79519037025598 73.628661371847 12.9
vertex -7.37925937025599 71.806349371847 12.9
endloop
endfacet
facet normal 0.0 -0.999999999999998 6.37988334467611e-008
outer loop
vertex 32.758740629744 36.959273337622 6.98515712876488
vertex 2.60674062974403 36.9592732693372 5.91484235256046
vertex 32.758740629744 36.9592732693372 5.91484235256046
endloop
endfacet
facet normal 0.0 -0.999999999999998 6.37988334467611e-008
outer loop
vertex 2.60674062974403 36.9592732693372 5.91484235256046
vertex 32.758740629744 36.959273337622 6.98515712876488
vertex 2.60674062974403 36.959273337622 6.98515712876488
endloop
endfacet
facet normal 0.499980746616606 0.866036519445168 -0.0
outer loop
vertex -4.31525937025599 84.757349371847 0.0
vertex 5.32819602088631 79.1899473935381 2.43186959839683
vertex 15.517740629744 73.307349371847 0.0
endloop
endfacet
facet normal 0.499980746616606 0.866036519445168 -0.0
outer loop
vertex 5.32819602088631 79.1899473935381 2.43186959839683
vertex -4.31525937025599 84.757349371847 0.0
vertex 4.45159673780466 79.6960122832367 2.77978588786399
endloop
endfacet
facet normal 0.499980746616606 0.866036519445168 -0.0
outer loop
vertex 4.45159673780466 79.6960122832367 2.77978588786399
vertex -4.31525937025599 84.757349371847 0.0
vertex 3.68285169365996 80.139812416209 3.37782118718858
endloop
endfacet
facet normal 0.499980746616606 0.866036519445168 -0.0
outer loop
vertex 3.68285169365996 80.139812416209 3.37782118718858
vertex -4.31525937025599 84.757349371847 0.0
vertex -4.31525937025599 84.757349371847 12.9
endloop
endfacet
facet normal 0.499980746616606 0.866036519445168 -0.0
outer loop
vertex 15.517740629744 73.307349371847 0.0
vertex 5.32819602088631 79.1899473935381 2.43186959839683
vertex 6.25291075041173 78.6561052330344 2.35778223895545
endloop
endfacet
facet normal 0.499980746616606 0.866036519445168 -0.0
outer loop
vertex 3.68285169365996 80.139812416209 3.37782118718858
vertex -4.31525937025599 84.757349371847 12.9
vertex 3.07434959279942 80.4911035468074 4.18522037902172
endloop
endfacet
facet normal 0.499980746616606 0.866036519445168 -0.0
outer loop
vertex 3.07434959279942 80.4911035468074 4.18522037902172
vertex -4.31525937025599 84.757349371847 12.9
vertex 2.66755884779942 80.7259457650175 5.1469605427302
endloop
endfacet
facet normal 0.499980746616606 0.866036519445168 -0.0
outer loop
vertex 2.66755884779942 80.7259457650175 5.1469605427302
vertex -4.31525937025599 84.757349371847 12.9
vertex 2.49020157567823 80.8283349617634 6.19750067550808
endloop
endfacet
facet normal 0.499980746616606 0.866036519445168 -0.0
outer loop
vertex 2.49020157567823 80.8283349617634 6.19750067550808
vertex -4.31525937025599 84.757349371847 12.9
vertex 2.55436438143415 80.7912934824933 7.2652482034062
endloop
endfacet
facet normal 0.499980746616606 0.866036519445168 -0.0
outer loop
vertex 2.55436438143415 80.7912934824933 7.2652482034062
vertex -4.31525937025599 84.757349371847 12.9
vertex 2.85567467588896 80.6173456428052 8.27743789693451
endloop
endfacet
facet normal 0.499980746616606 0.866036519445168 -0.0
outer loop
vertex 2.85567467588896 80.6173456428052 8.27743789693451
vertex -4.31525937025599 84.757349371847 12.9
vertex 3.37359866041437 80.3183457005116 9.16509070120161
endloop
endfacet
facet normal 0.499980746616606 0.866036519445168 -0.0
outer loop
vertex 3.37359866041437 80.3183457005116 9.16509070120161
vertex -4.31525937025599 84.757349371847 12.9
vertex 4.07284067137485 79.914670007559 9.86771454451234
endloop
endfacet
facet normal 0.499980746616606 0.866036519445168 -0.0
outer loop
vertex 4.07284067137485 79.914670007559 9.86771454451234
vertex -4.31525937025599 84.757349371847 12.9
vertex 4.90574852127546 79.4338283953165 10.3374267730858
endloop
endfacet
facet normal 0.499980746616606 0.866036519445168 -0.0
outer loop
vertex 4.90574852127546 79.4338283953165 10.3374267730858
vertex -4.31525937025599 84.757349371847 12.9
vertex 5.81556091659081 78.9085894250301 10.542217274781
endloop
endfacet
facet normal 0.499980746616606 0.866036519445168 -0.0
outer loop
vertex 15.517740629744 73.307349371847 0.0
vertex 8.69487300658816 77.246348957553 3.73490881253486
vertex 15.517740629744 73.307349371847 12.9
endloop
endfacet
facet normal 0.499980746616606 0.866036519445168 -0.0
outer loop
vertex 8.69487300658816 77.246348957553 3.73490881253486
vertex 15.517740629744 73.307349371847 0.0
vertex 7.9956309956277 77.6500246505055 3.03228496922414
endloop
endfacet
facet normal 0.499980746616606 0.866036519445168 -0.0
outer loop
vertex 7.9956309956277 77.6500246505055 3.03228496922414
vertex 15.517740629744 73.307349371847 0.0
vertex 7.16272314572708 78.1308662627481 2.56257274065063
endloop
endfacet
facet normal 0.499980746616606 0.866036519445168 -0.0
outer loop
vertex 7.16272314572708 78.1308662627481 2.56257274065063
vertex 15.517740629744 73.307349371847 0.0
vertex 6.25291075041173 78.6561052330344 2.35778223895545
endloop
endfacet
facet normal 0.499980746616606 0.866036519445168 -0.0
outer loop
vertex 15.517740629744 73.307349371847 12.9
vertex 8.69487300658816 77.246348957553 3.73490881253486
vertex 9.21279699111357 76.9473490152594 4.62256161680197
endloop
endfacet
facet normal 0.499980746616606 0.866036519445168 -0.0
outer loop
vertex 15.517740629744 73.307349371847 12.9
vertex 9.21279699111357 76.9473490152594 4.62256161680197
vertex 9.51410728556839 76.7734011755713 5.63475131033027
endloop
endfacet
facet normal 0.499980746616606 0.866036519445168 -0.0
outer loop
vertex 15.517740629744 73.307349371847 12.9
vertex 9.51410728556839 76.7734011755713 5.63475131033027
vertex 9.5782700913243 76.7363596963011 6.70249883822839
endloop
endfacet
facet normal 0.499980746616606 0.866036519445168 -0.0
outer loop
vertex 15.517740629744 73.307349371847 12.9
vertex 9.5782700913243 76.7363596963011 6.70249883822839
vertex 9.40091281920311 76.8387488930471 7.75303897100627
endloop
endfacet
facet normal 0.499980746616606 0.866036519445168 -0.0
outer loop
vertex 15.517740629744 73.307349371847 12.9
vertex 9.40091281920311 76.8387488930471 7.75303897100627
vertex 8.99412207420311 77.0735911112572 8.71477913471476
endloop
endfacet
facet normal 0.499980746616606 0.866036519445168 -0.0
outer loop
vertex 15.517740629744 73.307349371847 12.9
vertex 8.99412207420311 77.0735911112572 8.71477913471476
vertex 8.38561997334257 77.4248822418555 9.52217832654789
endloop
endfacet
facet normal 0.499980746616606 0.866036519445168 -0.0
outer loop
vertex 15.517740629744 73.307349371847 12.9
vertex 8.38561997334257 77.4248822418555 9.52217832654789
vertex 7.61687492919788 77.8686823748278 10.1202136258725
endloop
endfacet
facet normal 0.499980746616606 0.866036519445168 -0.0
outer loop
vertex 15.517740629744 73.307349371847 12.9
vertex 7.61687492919788 77.8686823748278 10.1202136258725
vertex 6.74027564611622 78.3747472645264 10.4681299153396
endloop
endfacet
facet normal 0.499980746616606 0.866036519445168 -0.0
outer loop
vertex 15.517740629744 73.307349371847 12.9
vertex 6.74027564611622 78.3747472645264 10.4681299153396
vertex 5.81556091659081 78.9085894250301 10.542217274781
endloop
endfacet
facet normal 0.499980746616606 0.866036519445168 -0.0
outer loop
vertex 15.517740629744 73.307349371847 12.9
vertex 5.81556091659081 78.9085894250301 10.542217274781
vertex -4.31525937025599 84.757349371847 12.9
endloop
endfacet
facet normal 0.781831394071638 0.623489912704287 -0.0
outer loop
vertex 13.897671629744 19.321037371847 0.0
vertex 15.063083629744 17.859657371847 12.9
vertex 15.063083629744 17.859657371847 0.0
endloop
endfacet
facet normal 0.781831394071638 0.623489912704287 -0.0
outer loop
vertex 15.063083629744 17.859657371847 12.9
vertex 13.897671629744 19.321037371847 0.0
vertex 13.897671629744 19.321037371847 12.9
endloop
endfacet
facet normal 0.483898752068139 -0.27935701621716 0.82933808259186
outer loop
vertex -10.4194149659526 53.9366313260515 2.77978613099575
vertex 3.68285169365996 80.139812416209 3.37782118718858
vertex -11.1881600100973 54.3804314590238 3.37782143032035
endloop
endfacet
facet normal 0.483898752068139 -0.27935701621716 0.82933808259186
outer loop
vertex 3.68285169365996 80.139812416209 3.37782118718858
vertex -10.4194149659526 53.9366313260515 2.77978613099575
vertex 4.45159673780466 79.6960122832367 2.77978588786399
endloop
endfacet
facet normal 0.0 -0.965925842801409 -0.258818983477619
outer loop
vertex 32.758740629744 36.6822555552437 8.01900183103294
vertex 2.60674062974403 36.959273337622 6.98515712876488
vertex 32.758740629744 36.959273337622 6.98515712876488
endloop
endfacet
facet normal 0.0 -0.965925842801409 -0.258818983477619
outer loop
vertex 2.60674062974403 36.959273337622 6.98515712876488
vertex 32.758740629744 36.6822555552437 8.01900183103294
vertex 2.60674062974403 36.6822555552437 8.01900183103294
endloop
endfacet
facet normal 0.866023315909466 0.500003616288096 -0.0
outer loop
vertex 15.517740629744 73.307349371847 0.0
vertex 32.758740629744 43.445349371847 12.9
vertex 32.758740629744 43.445349371847 0.0
endloop
endfacet
facet normal 0.866023315909466 0.500003616288096 -0.0
outer loop
vertex 32.758740629744 43.445349371847 12.9
vertex 15.517740629744 73.307349371847 0.0
vertex 15.517740629744 73.307349371847 12.9
endloop
endfacet
facet normal 0.165705712061778 -0.0956626957063013 -0.981524460031589
outer loop
vertex 4.90574852127546 79.4338283953165 10.3374267730858
vertex -9.05545078716645 53.1492084678448 10.5422175179128
vertex -9.9652631824818 53.6744474381312 10.3374270162176
endloop
endfacet
facet normal 0.165705712061778 -0.0956626957063013 -0.981524460031589
outer loop
vertex -9.05545078716645 53.1492084678448 10.5422175179128
vertex 4.90574852127546 79.4338283953165 10.3374267730858
vertex 5.81556091659081 78.9085894250301 10.542217274781
endloop
endfacet
facet normal 0.433883788312491 0.900968844211387 -0.0
outer loop
vertex 15.063083629744 17.859657371847 12.9
vertex 16.747152629744 17.048652371847 0.0
vertex 15.063083629744 17.859657371847 0.0
endloop
endfacet
facet normal 0.433883788312491 0.900968844211387 -0.0
outer loop
vertex 16.747152629744 17.048652371847 0.0
vertex 15.063083629744 17.859657371847 12.9
vertex 16.747152629744 17.048652371847 12.9
endloop
endfacet
facet normal -0.0 0.258819106727439 0.965925809776719
outer loop
vertex 32.758740629744 31.3253470574862 2.6620940168042
vertex 2.60674062974403 32.3591917244075 2.38507610250979
vertex 2.60674062974403 31.3253470574862 2.6620940168042
endloop
endfacet
facet normal -0.0 0.258819106727439 0.965925809776719
outer loop
vertex 2.60674062974403 32.3591917244075 2.38507610250979
vertex 32.758740629744 31.3253470574862 2.6620940168042
vertex 32.758740629744 32.3591917244075 2.38507610250979
endloop
endfacet
facet normal 0.0 0.707106736073974 -0.707106826299118
outer loop
vertex 32.758740629744 30.3984277204328 9.70274885443091
vertex 2.60674062974403 29.6416008358898 8.94592206645726
vertex 2.60674062974403 30.3984277204328 9.70274885443091
endloop
endfacet
facet normal 0.0 0.707106736073974 -0.707106826299118
outer loop
vertex 2.60674062974403 29.6416008358898 8.94592206645726
vertex 32.758740629744 30.3984277204328 9.70274885443091
vertex 32.758740629744 29.6416008358898 8.94592206645726
endloop
endfacet
facet normal -0.433883788312491 0.900968844211387 -0.0
outer loop
vertex 18.616328629744 17.048652371847 12.9
vertex 20.300397629744 17.859657371847 0.0
vertex 18.616328629744 17.048652371847 0.0
endloop
endfacet
facet normal -0.433883788312491 0.900968844211387 -0.0
outer loop
vertex 20.300397629744 17.859657371847 0.0
vertex 18.616328629744 17.048652371847 12.9
vertex 20.300397629744 17.859657371847 12.9
endloop
endfacet
facet normal -0.86321180207622 -0.50484194036978 0.0
outer loop
vertex -1.85325937025598 48.991349371847 12.9
vertex 2.60674062974401 41.365349371847 0.0
vertex 2.60674062974401 41.365349371847 12.9
endloop
endfacet
facet normal -0.86321180207622 -0.50484194036978 0.0
outer loop
vertex 2.60674062974401 41.365349371847 0.0
vertex -1.85325937025598 48.991349371847 12.9
vertex -1.85325937025598 48.991349371847 0.0
endloop
endfacet
facet normal 0.0 0.499999944748618 -0.866025435683837
outer loop
vertex 32.758740629744 31.3253475408141 10.2379061833967
vertex 2.60674062974403 30.3984277204328 9.70274885443091
vertex 2.60674062974403 31.3253475408141 10.2379061833967
endloop
endfacet
facet normal 0.0 0.499999944748618 -0.866025435683837
outer loop
vertex 2.60674062974403 30.3984277204328 9.70274885443091
vertex 32.758740629744 31.3253475408141 10.2379061833967
vertex 32.758740629744 30.3984277204328 9.70274885443091
endloop
endfacet
facet normal -0.38006645712448 0.219414160610689 0.898558242014591
outer loop
vertex -6.87538070812956 51.8906436933203 3.03228521235591
vertex 7.16272314572708 78.1308662627481 2.56257274065063
vertex -7.70828855803018 52.3714853055628 2.56257298378239
endloop
endfacet
facet normal -0.38006645712448 0.219414160610689 0.898558242014591
outer loop
vertex 7.16272314572708 78.1308662627481 2.56257274065063
vertex -6.87538070812956 51.8906436933203 3.03228521235591
vertex 7.9956309956277 77.6500246505055 3.03228496922414
endloop
endfacet
facet normal -0.165705712061779 0.0956626957063016 0.981524460031589
outer loop
vertex -7.70828855803018 52.3714853055628 2.56257298378239
vertex 6.25291075041173 78.6561052330344 2.35778223895545
vertex -8.61810095334553 52.8967242758492 2.35778248208722
endloop
endfacet
facet normal -0.165705712061779 0.0956626957063016 0.981524460031589
outer loop
vertex 6.25291075041173 78.6561052330344 2.35778223895545
vertex -7.70828855803018 52.3714853055628 2.56257298378239
vertex 7.16272314572708 78.1308662627481 2.56257274065063
endloop
endfacet
facet normal 0.0 -1.0 0.0
outer loop
vertex 18.616328629744 25.238046371847 12.9
vertex 16.747152629744 25.238046371847 0.0
vertex 18.616328629744 25.238046371847 0.0
endloop
endfacet
facet normal 0.0 -1.0 0.0
outer loop
vertex 16.747152629744 25.238046371847 0.0
vertex 18.616328629744 25.238046371847 12.9
vertex 16.747152629744 25.238046371847 12.9
endloop
endfacet
facet normal -0.863965209192623 0.49877117682785 0.0692201594227356
outer loop
vertex 9.5782700913243 76.7363596963011 6.70249883822839
vertex -5.35690441818887 51.014020218386 5.63475155346204
vertex -5.29274161243295 50.9769787391158 6.70249908136015
endloop
endfacet
facet normal -0.863965209192623 0.49877117682785 0.0692201594227356
outer loop
vertex -5.35690441818887 51.014020218386 5.63475155346204
vertex 9.5782700913243 76.7363596963011 6.70249883822839
vertex 9.51410728556839 76.7734011755713 5.63475131033027
endloop
endfacet
endsolid Frame Vertex with Foot
