solid Frame Vertex
facet normal -0.530812476870942 0.306440538609921 0.790147018405181
outer loop
vertex 18.1943830680713 43.7306883957895 3.56611972849075
vertex 32.3329817105261 69.9129046476291 2.91010524858325
vertex 17.461965712321 44.1535163806431 2.91010522226239
endloop
endfacet
facet normal -0.530812476870942 0.306440538609921 0.790147018405181
outer loop
vertex 32.3329817105261 69.9129046476291 2.91010524858325
vertex 18.1943830680713 43.7306883957895 3.56611972849075
vertex 33.0653990662763 69.4900766627755 3.56611975481162
endloop
endfacet
facet normal -0.335615376975005 0.193752334653512 0.92185809729819
outer loop
vertex 17.461965712321 44.1535163806431 2.91010522226239
vertex 31.4784763407717 70.4062146169257 2.49532872150499
vertex 16.6074603425667 44.6468263499397 2.49532869518412
endloop
endfacet
facet normal -0.335615376975005 0.193752334653512 0.92185809729819
outer loop
vertex 31.4784763407717 70.4062146169257 2.49532872150499
vertex 17.461965712321 44.1535163806431 2.91010522226239
vertex 32.3329817105261 69.9129046476291 2.91010524858325
endloop
endfacet
facet normal 0.859214902822855 -0.496028804335088 -0.1253202937956
outer loop
vertex 12.1197367531578 47.237610280769 6.4284790743543
vertex 27.1069169027559 72.9299364357269 7.49035587470453
vertex 12.2359009045508 47.170548168741 7.49035584838366
endloop
endfacet
facet normal 0.859214902822855 -0.496028804335088 -0.1253202937956
outer loop
vertex 27.1069169027559 72.9299364357269 7.49035587470453
vertex 12.1197367531578 47.237610280769 6.4284790743543
vertex 26.9907527513628 72.9969985477549 6.42847910067517
endloop
endfacet
facet normal -0.974927891557787 -0.222521024316103 0.0
outer loop
vertex 16.7120475497543 65.7934548672341 12.9
vertex 17.1279785497543 63.9711428672341 0.0
vertex 17.1279785497543 63.9711428672341 12.9
endloop
endfacet
facet normal -0.974927891557787 -0.222521024316103 0.0
outer loop
vertex 17.1279785497543 63.9711428672341 0.0
vertex 16.7120475497543 65.7934548672341 12.9
vertex 16.7120475497543 65.7934548672341 0.0
endloop
endfacet
facet normal 0.0 -1.0 0.0
outer loop
vertex 13.8625665497543 68.0658398672341 12.9
vertex 11.9933905497543 68.0658398672341 0.0
vertex 13.8625665497543 68.0658398672341 0.0
endloop
endfacet
facet normal 0.0 -1.0 0.0
outer loop
vertex 11.9933905497543 68.0658398672341 0.0
vertex 13.8625665497543 68.0658398672341 12.9
vertex 11.9933905497543 68.0658398672341 12.9
endloop
endfacet
facet normal -6.93940602111582e-033 0.608761429008721 -0.793353340291235
outer loop
vertex 57.2659785497543 23.0091428672342 10.0007041555162
vertex 27.1139785497543 22.1600050643693 9.34913780286485
vertex 27.1139785497543 23.0091428672342 10.0007041555162
endloop
endfacet
facet normal -6.93940602111582e-033 0.608761429008721 -0.793353340291235
outer loop
vertex 27.1139785497543 22.1600050643693 9.34913780286485
vertex 57.2659785497543 23.0091428672342 10.0007041555162
vertex 57.2659785497543 22.1600050643693 9.34913780286485
endloop
endfacet
facet normal -0.433883788312503 -0.900968844211381 0.0
outer loop
vertex 15.5466355497543 67.2548348672341 12.9
vertex 13.8625665497543 68.0658398672341 0.0
vertex 15.5466355497543 67.2548348672341 0.0
endloop
endfacet
facet normal -0.433883788312503 -0.900968844211381 0.0
outer loop
vertex 13.8625665497543 68.0658398672341 0.0
vertex 15.5466355497543 67.2548348672341 12.9
vertex 13.8625665497543 68.0658398672341 12.9
endloop
endfacet
facet normal 0.781831394071626 0.623489912704302 -0.0
outer loop
vertex 9.14390954975432 62.1488308672341 0.0
vertex 10.3093215497543 60.6874508672341 12.9
vertex 10.3093215497543 60.6874508672341 0.0
endloop
endfacet
facet normal 0.781831394071626 0.623489912704302 -0.0
outer loop
vertex 10.3093215497543 60.6874508672341 12.9
vertex 9.14390954975432 62.1488308672341 0.0
vertex 9.14390954975432 62.1488308672341 12.9
endloop
endfacet
facet normal -0.858028194475015 0.495343712291286 -0.135728494353375
outer loop
vertex 19.0953754366318 43.2105412598158 7.53193108415732
vertex 34.0922033445559 68.8972977206853 6.47152095196657
vertex 19.2211873463508 43.1379094536994 6.4715209256457
endloop
endfacet
facet normal -0.858028194475015 0.495343712291286 -0.135728494353375
outer loop
vertex 34.0922033445559 68.8972977206853 6.47152095196657
vertex 19.0953754366318 43.2105412598158 7.53193108415732
vertex 33.9663914348368 68.9699295268017 7.53193111047819
endloop
endfacet
facet normal -0.684300891694236 0.395050123808479 -0.612917359278867
outer loop
vertex 18.1680249021454 43.7459050830218 9.36431545643222
vertex 33.6071773377391 69.1773055135055 8.51860945358014
vertex 18.7361613395341 43.4179172465195 8.51860942725927
endloop
endfacet
facet normal -0.684300891694236 0.395050123808479 -0.612917359278867
outer loop
vertex 33.6071773377391 69.1773055135055 8.51860945358014
vertex 18.1680249021454 43.7459050830218 9.36431545643222
vertex 33.0390409003505 69.5052933500077 9.36431548275308
endloop
endfacet
facet normal -0.798368282632335 0.460901764849021 -0.387527609914124
outer loop
vertex 18.7361613395341 43.4179172465195 8.51860942725927
vertex 33.9663914348368 68.9699295268017 7.53193111047819
vertex 19.0953754366318 43.2105412598158 7.53193108415732
endloop
endfacet
facet normal -0.798368282632335 0.460901764849021 -0.387527609914124
outer loop
vertex 33.9663914348368 68.9699295268017 7.53193111047819
vertex 18.7361613395341 43.4179172465195 8.51860942725927
vertex 33.6071773377391 69.1773055135055 8.51860945358014
endloop
endfacet
facet normal 0.974927891557787 -0.222521024316102 -0.0
outer loop
vertex 38.4049095497543 15.1304548672342 0.0
vertex 37.9889785497543 13.3081428672342 12.9
vertex 37.9889785497543 13.3081428672342 0.0
endloop
endfacet
facet normal 0.974927891557787 -0.222521024316102 -0.0
outer loop
vertex 37.9889785497543 13.3081428672342 12.9
vertex 38.4049095497543 15.1304548672342 0.0
vertex 38.4049095497543 15.1304548672342 12.9
endloop
endfacet
facet normal -0.523599525847868 0.302276469681586 -0.796537803502587
outer loop
vertex 32.3006996819892 69.9315412072763 10.0114157297042
vertex 18.1680249021454 43.7459050830218 9.36431545643222
vertex 17.4296836837841 44.1721529402904 10.0114157033833
endloop
endfacet
facet normal -0.523599525847868 0.302276469681586 -0.796537803502587
outer loop
vertex 18.1680249021454 43.7459050830218 9.36431545643222
vertex 32.3006996819892 69.9315412072763 10.0114157297042
vertex 33.0390409003505 69.5052933500077 9.36431548275308
endloop
endfacet
facet normal 8.0811094692574e-033 -0.38268343236509 -0.923879532511287
outer loop
vertex 57.2659785497543 27.1091428672342 10.0007041555162
vertex 27.1139785497543 26.1203009521545 10.4102958877852
vertex 27.1139785497543 27.1091428672342 10.0007041555162
endloop
endfacet
facet normal 8.0811094692574e-033 -0.38268343236509 -0.923879532511287
outer loop
vertex 27.1139785497543 26.1203009521545 10.4102958877852
vertex 57.2659785497543 27.1091428672342 10.0007041555162
vertex 57.2659785497543 26.1203009521545 10.4102958877852
endloop
endfacet
facet normal 0.974927891557787 0.222521024316102 -0.0
outer loop
vertex 37.9889785497543 13.3081428672342 0.0
vertex 38.4049095497543 11.4858308672342 12.9
vertex 38.4049095497543 11.4858308672342 0.0
endloop
endfacet
facet normal 0.974927891557787 0.222521024316102 -0.0
outer loop
vertex 38.4049095497543 11.4858308672342 12.9
vertex 37.9889785497543 13.3081428672342 0.0
vertex 37.9889785497543 13.3081428672342 12.9
endloop
endfacet
facet normal 0.974927891557787 0.222521024316103 -0.0
outer loop
vertex 8.72797854975432 63.9711428672341 0.0
vertex 9.14390954975432 62.1488308672341 12.9
vertex 9.14390954975432 62.1488308672341 0.0
endloop
endfacet
facet normal 0.974927891557787 0.222521024316103 -0.0
outer loop
vertex 9.14390954975432 62.1488308672341 12.9
vertex 8.72797854975432 63.9711428672341 0.0
vertex 8.72797854975432 63.9711428672341 12.9
endloop
endfacet
facet normal -0.108532698955132 0.0626564385720308 -0.992116335901684
outer loop
vertex 30.5228400100936 70.9579079569492 10.5499435441951
vertex 16.5714544183149 44.6676127312604 10.4158113556666
vertex 15.6518240118885 45.1985196899633 10.5499435178743
endloop
endfacet
facet normal -0.108532698955132 0.0626564385720308 -0.992116335901684
outer loop
vertex 16.5714544183149 44.6676127312604 10.4158113556666
vertex 30.5228400100936 70.9579079569492 10.5499435441951
vertex 31.4424704165199 70.4270009982464 10.4158113819874
endloop
endfacet
facet normal -0.32721571760408 0.188903173681369 -0.925875512758574
outer loop
vertex 31.4424704165199 70.4270009982464 10.4158113819874
vertex 17.4296836837841 44.1721529402904 10.0114157033833
vertex 16.5714544183149 44.6676127312604 10.4158113556666
endloop
endfacet
facet normal -0.32721571760408 0.188903173681369 -0.925875512758574
outer loop
vertex 17.4296836837841 44.1721529402904 10.0114157033833
vertex 31.4424704165199 70.4270009982464 10.4158113819874
vertex 32.3006996819892 69.9315412072763 10.0114157297042
endloop
endfacet
facet normal -4.88317287044868e-019 -0.793353340291235 0.608761429008721
outer loop
vertex 57.2659785497543 28.6098470227504 4.4
vertex 27.1139785497543 27.958280670099 3.55086219713515
vertex 57.2659785497543 27.958280670099 3.55086219713515
endloop
endfacet
facet normal -4.88317287044868e-019 -0.793353340291235 0.608761429008721
outer loop
vertex 27.1139785497543 27.958280670099 3.55086219713515
vertex 57.2659785497543 28.6098470227504 4.4
vertex 27.1139785497543 28.6098470227504 4.4
endloop
endfacet
facet normal 0.433883788312503 -0.900968844211381 0.0
outer loop
vertex 11.9933905497543 68.0658398672341 12.9
vertex 10.3093215497543 67.2548348672341 0.0
vertex 11.9933905497543 68.0658398672341 0.0
endloop
endfacet
facet normal 0.433883788312503 -0.900968844211381 0.0
outer loop
vertex 10.3093215497543 67.2548348672341 0.0
vertex 11.9933905497543 68.0658398672341 12.9
vertex 10.3093215497543 67.2548348672341 12.9
endloop
endfacet
facet normal 1.0 -0.0 -0.0
outer loop
vertex 57.2659785497543 13.1091428672342 0.0
vertex 57.2659785497543 22.1600050643693 3.55086219713515
vertex 57.2659785497543 13.1091428672342 12.9
endloop
endfacet
facet normal 1.0 -0.0 -0.0
outer loop
vertex 57.2659785497543 22.1600050643693 3.55086219713515
vertex 57.2659785497543 13.1091428672342 0.0
vertex 57.2659785497543 23.0091428672342 2.8992958444838
endloop
endfacet
facet normal 1.0 -0.0 -0.0
outer loop
vertex 57.2659785497543 23.0091428672342 2.8992958444838
vertex 57.2659785497543 13.1091428672342 0.0
vertex 57.2659785497543 23.9979847823138 2.48970411221482
endloop
endfacet
facet normal 1.0 -0.0 -0.0
outer loop
vertex 57.2659785497543 23.9979847823138 2.48970411221482
vertex 57.2659785497543 13.1091428672342 0.0
vertex 57.2659785497543 35.6101428672342 0.0
endloop
endfacet
facet normal 1.0 -0.0 -0.0
outer loop
vertex 57.2659785497543 13.1091428672342 12.9
vertex 57.2659785497543 22.1600050643693 3.55086219713515
vertex 57.2659785497543 21.508438711718 4.4
endloop
endfacet
facet normal 1.0 -0.0 -0.0
outer loop
vertex 57.2659785497543 13.1091428672342 12.9
vertex 57.2659785497543 21.508438711718 4.4
vertex 57.2659785497543 21.098846979449 5.38884191507966
endloop
endfacet
facet normal 1.0 -0.0 -0.0
outer loop
vertex 57.2659785497543 13.1091428672342 12.9
vertex 57.2659785497543 21.098846979449 5.38884191507966
vertex 57.2659785497543 20.9591428672342 6.45
endloop
endfacet
facet normal 1.0 -0.0 -0.0
outer loop
vertex 57.2659785497543 23.9979847823138 2.48970411221482
vertex 57.2659785497543 35.6101428672342 0.0
vertex 57.2659785497543 25.0591428672342 2.35
endloop
endfacet
facet normal 1.0 -0.0 -0.0
outer loop
vertex 57.2659785497543 25.0591428672342 2.35
vertex 57.2659785497543 35.6101428672342 0.0
vertex 57.2659785497543 26.1203009521545 2.48970411221482
endloop
endfacet
facet normal 1.0 -0.0 -0.0
outer loop
vertex 57.2659785497543 26.1203009521545 2.48970411221482
vertex 57.2659785497543 35.6101428672342 0.0
vertex 57.2659785497543 27.1091428672342 2.8992958444838
endloop
endfacet
facet normal 1.0 -0.0 -0.0
outer loop
vertex 57.2659785497543 27.1091428672342 2.8992958444838
vertex 57.2659785497543 35.6101428672342 0.0
vertex 57.2659785497543 27.958280670099 3.55086219713515
endloop
endfacet
facet normal 1.0 -0.0 -0.0
outer loop
vertex 57.2659785497543 27.958280670099 3.55086219713515
vertex 57.2659785497543 35.6101428672342 0.0
vertex 57.2659785497543 28.6098470227504 4.4
endloop
endfacet
facet normal 1.0 -0.0 -0.0
outer loop
vertex 57.2659785497543 28.6098470227504 4.4
vertex 57.2659785497543 35.6101428672342 0.0
vertex 57.2659785497543 29.0194387550193 5.38884191507966
endloop
endfacet
facet normal 1.0 -0.0 -0.0
outer loop
vertex 57.2659785497543 29.0194387550193 5.38884191507966
vertex 57.2659785497543 35.6101428672342 0.0
vertex 57.2659785497543 29.1591428672342 6.45
endloop
endfacet
facet normal 1.0 -0.0 -0.0
outer loop
vertex 57.2659785497543 13.1091428672342 12.9
vertex 57.2659785497543 23.9979847823138 10.4102958877852
vertex 57.2659785497543 35.6101428672342 12.9
endloop
endfacet
facet normal 1.0 -0.0 -0.0
outer loop
vertex 57.2659785497543 23.9979847823138 10.4102958877852
vertex 57.2659785497543 13.1091428672342 12.9
vertex 57.2659785497543 23.0091428672342 10.0007041555162
endloop
endfacet
facet normal 1.0 -0.0 -0.0
outer loop
vertex 57.2659785497543 23.0091428672342 10.0007041555162
vertex 57.2659785497543 13.1091428672342 12.9
vertex 57.2659785497543 22.1600050643693 9.34913780286485
endloop
endfacet
facet normal 1.0 -0.0 -0.0
outer loop
vertex 57.2659785497543 22.1600050643693 9.34913780286485
vertex 57.2659785497543 13.1091428672342 12.9
vertex 57.2659785497543 21.508438711718 8.5
endloop
endfacet
facet normal 1.0 -0.0 -0.0
outer loop
vertex 57.2659785497543 21.508438711718 8.5
vertex 57.2659785497543 13.1091428672342 12.9
vertex 57.2659785497543 21.098846979449 7.51115808492034
endloop
endfacet
facet normal 1.0 -0.0 -0.0
outer loop
vertex 57.2659785497543 21.098846979449 7.51115808492034
vertex 57.2659785497543 13.1091428672342 12.9
vertex 57.2659785497543 20.9591428672342 6.45
endloop
endfacet
facet normal 1.0 -0.0 -0.0
outer loop
vertex 57.2659785497543 35.6101428672342 12.9
vertex 57.2659785497543 23.9979847823138 10.4102958877852
vertex 57.2659785497543 25.0591428672342 10.55
endloop
endfacet
facet normal 1.0 -0.0 -0.0
outer loop
vertex 57.2659785497543 35.6101428672342 12.9
vertex 57.2659785497543 25.0591428672342 10.55
vertex 57.2659785497543 26.1203009521545 10.4102958877852
endloop
endfacet
facet normal 1.0 -0.0 -0.0
outer loop
vertex 57.2659785497543 35.6101428672342 12.9
vertex 57.2659785497543 26.1203009521545 10.4102958877852
vertex 57.2659785497543 27.1091428672342 10.0007041555162
endloop
endfacet
facet normal 1.0 -0.0 -0.0
outer loop
vertex 57.2659785497543 35.6101428672342 12.9
vertex 57.2659785497543 27.1091428672342 10.0007041555162
vertex 57.2659785497543 27.958280670099 9.34913780286484
endloop
endfacet
facet normal 1.0 -0.0 -0.0
outer loop
vertex 57.2659785497543 35.6101428672342 12.9
vertex 57.2659785497543 27.958280670099 9.34913780286484
vertex 57.2659785497543 28.6098470227504 8.5
endloop
endfacet
facet normal 1.0 -0.0 -0.0
outer loop
vertex 57.2659785497543 35.6101428672342 12.9
vertex 57.2659785497543 28.6098470227504 8.5
vertex 57.2659785497543 29.0194387550193 7.51115808492033
endloop
endfacet
facet normal 1.0 -0.0 -0.0
outer loop
vertex 57.2659785497543 35.6101428672342 12.9
vertex 57.2659785497543 29.0194387550193 7.51115808492033
vertex 57.2659785497543 29.1591428672342 6.45
endloop
endfacet
facet normal 1.0 -0.0 -0.0
outer loop
vertex 57.2659785497543 35.6101428672342 12.9
vertex 57.2659785497543 29.1591428672342 6.45
vertex 57.2659785497543 35.6101428672342 0.0
endloop
endfacet
facet normal 0.32721571760411 -0.188903173681386 0.925875512758561
outer loop
vertex 14.7694696811937 45.7079070032079 2.48418864433344
vertex 28.7822564139295 71.9627550611639 2.88858432293755
vertex 13.9112404157245 46.2033667941779 2.88858429661669
endloop
endfacet
facet normal 0.32721571760411 -0.188903173681386 0.925875512758561
outer loop
vertex 28.7822564139295 71.9627550611639 2.88858432293755
vertex 14.7694696811937 45.7079070032079 2.48418864433344
vertex 29.6404856793988 71.4672952701939 2.4841886706543
endloop
endfacet
facet normal 0.801847535463081 -0.46291035308981 -0.377828711023991
outer loop
vertex 12.2359009045508 47.170548168741 7.49035584838366
vertex 27.4571407203138 72.7277505776638 8.48133411693587
vertex 12.5861247221088 46.9683623106779 8.48133409061501
endloop
endfacet
facet normal 0.801847535463081 -0.46291035308981 -0.377828711023991
outer loop
vertex 27.4571407203138 72.7277505776638 8.48133411693587
vertex 12.2359009045508 47.170548168741 7.49035584838366
vertex 27.1069169027559 72.9299364357269 7.49035587470453
endloop
endfacet
facet normal 0.117546643768843 -0.0678602292813301 -0.990746070302863
outer loop
vertex 29.604479755147 71.4880816515145 10.4046713311367
vertex 15.6518240118885 45.1985196899633 10.5499435178743
vertex 14.7334637569419 45.7286933845286 10.4046713048159
endloop
endfacet
facet normal 0.117546643768843 -0.0678602292813301 -0.990746070302863
outer loop
vertex 15.6518240118885 45.1985196899633 10.5499435178743
vertex 29.604479755147 71.4880816515145 10.4046713311367
vertex 30.5228400100936 70.9579079569492 10.5499435441951
endloop
endfacet
facet normal 0.689835583677201 -0.398245326276989 -0.604588725987568
outer loop
vertex 12.5861247221088 46.9683623106779 8.48133409061501
vertex 28.0175570296424 72.4042196056647 9.33388029783011
vertex 13.1465410314374 46.6448313386788 9.33388027150924
endloop
endfacet
facet normal 0.689835583677201 -0.398245326276989 -0.604588725987568
outer loop
vertex 28.0175570296424 72.4042196056647 9.33388029783011
vertex 12.5861247221088 46.9683623106779 8.48133409061501
vertex 27.4571407203138 72.7277505776638 8.48133411693587
endloop
endfacet
facet normal -0.0 -0.60876142900872 0.793353340291236
outer loop
vertex 57.2659785497543 27.1091428672342 2.8992958444838
vertex 27.1139785497543 27.958280670099 3.55086219713515
vertex 27.1139785497543 27.1091428672342 2.8992958444838
endloop
endfacet
facet normal -0.0 -0.60876142900872 0.793353340291236
outer loop
vertex 27.1139785497543 27.958280670099 3.55086219713515
vertex 57.2659785497543 27.1091428672342 2.8992958444838
vertex 57.2659785497543 27.958280670099 3.55086219713515
endloop
endfacet
facet normal 0.858028194475015 -0.495343712291287 0.135728494353371
outer loop
vertex 27.1165646610819 72.9243667416385 5.36806894216355
vertex 12.1197367531578 47.237610280769 6.4284790743543
vertex 12.2455486628768 47.1649784746525 5.36806891584268
endloop
endfacet
facet normal 0.858028194475015 -0.495343712291287 0.135728494353371
outer loop
vertex 12.1197367531578 47.237610280769 6.4284790743543
vertex 27.1165646610819 72.9243667416385 5.36806894216355
vertex 26.9907527513628 72.9969985477549 6.42847910067517
endloop
endfacet
facet normal -0.962594534068921 -0.270946051790087 0.0
outer loop
vertex 1.91497854975432 63.2601428672341 12.9
vertex 5.31997854975432 51.1631428672342 0.0
vertex 5.31997854975432 51.1631428672342 12.9
endloop
endfacet
facet normal -0.962594534068921 -0.270946051790087 0.0
outer loop
vertex 5.31997854975432 51.1631428672342 0.0
vertex 1.91497854975432 63.2601428672341 12.9
vertex 1.91497854975432 63.2601428672341 0.0
endloop
endfacet
facet normal 0.0 0.0 -1.0
outer loop
vertex 7.90097854975432 73.6291428672341 0.0
vertex 5.31997854975432 51.1631428672342 0.0
vertex 1.91497854975432 63.2601428672341 0.0
endloop
endfacet
facet normal 0.0 0.0 -1.0
outer loop
vertex 5.31997854975432 51.1631428672342 0.0
vertex 7.90097854975432 73.6291428672341 0.0
vertex 8.72797854975432 63.9711428672341 0.0
endloop
endfacet
facet normal 0.0 0.0 -1.0
outer loop
vertex 5.31997854975432 51.1631428672342 0.0
vertex 8.72797854975432 63.9711428672341 0.0
vertex 9.14390954975432 62.1488308672341 0.0
endloop
endfacet
facet normal 0.0 0.0 -1.0
outer loop
vertex 5.31997854975432 51.1631428672342 0.0
vertex 9.14390954975432 62.1488308672341 0.0
vertex 22.6539785497543 41.1561428672342 0.0
endloop
endfacet
facet normal 0.0 0.0 -1.0
outer loop
vertex 22.6539785497543 41.1561428672342 0.0
vertex 9.14390954975432 62.1488308672341 0.0
vertex 10.3093215497543 60.6874508672341 0.0
endloop
endfacet
facet normal 0.0 0.0 -1.0
outer loop
vertex 22.6539785497543 41.1561428672342 0.0
vertex 10.3093215497543 60.6874508672341 0.0
vertex 11.9933905497543 59.8764458672342 0.0
endloop
endfacet
facet normal 0.0 0.0 -1.0
outer loop
vertex 22.6539785497543 41.1561428672342 0.0
vertex 11.9933905497543 59.8764458672342 0.0
vertex 13.8625665497543 59.8764458672342 0.0
endloop
endfacet
facet normal 0.0 0.0 -1.0
outer loop
vertex 22.6539785497543 41.1561428672342 0.0
vertex 13.8625665497543 59.8764458672342 0.0
vertex 15.5466355497543 60.6874508672341 0.0
endloop
endfacet
facet normal 0.0 0.0 -1.0
outer loop
vertex 22.6539785497543 41.1561428672342 0.0
vertex 15.5466355497543 60.6874508672341 0.0
vertex 16.7120475497543 62.1488308672341 0.0
endloop
endfacet
facet normal 0.0 0.0 -1.0
outer loop
vertex 22.6539785497543 41.1561428672342 0.0
vertex 16.7120475497543 62.1488308672341 0.0
vertex 17.1279785497543 63.9711428672341 0.0
endloop
endfacet
facet normal 0.0 0.0 -1.0
outer loop
vertex 22.6539785497543 41.1561428672342 0.0
vertex 17.1279785497543 63.9711428672341 0.0
vertex 20.1919785497543 76.9221428672341 0.0
endloop
endfacet
facet normal 0.0 0.0 -1.0
outer loop
vertex 22.6539785497543 41.1561428672342 0.0
vertex 20.1919785497543 76.9221428672341 0.0
vertex 40.0249785497543 65.4721428672341 0.0
endloop
endfacet
facet normal 0.0 0.0 -1.0
outer loop
vertex 22.6539785497543 41.1561428672342 0.0
vertex 40.0249785497543 65.4721428672341 0.0
vertex 27.1139785497543 33.5301428672342 0.0
endloop
endfacet
facet normal 0.0 0.0 -1.0
outer loop
vertex 27.1139785497543 33.5301428672342 0.0
vertex 40.0249785497543 65.4721428672341 0.0
vertex 27.1139785497543 13.2391428672342 0.0
endloop
endfacet
facet normal 0.0 0.0 -1.0
outer loop
vertex 27.1139785497543 13.2391428672342 0.0
vertex 40.0249785497543 65.4721428672341 0.0
vertex 36.2939785497543 4.05914286723417 0.0
endloop
endfacet
facet normal 0.0 0.0 -1.0
outer loop
vertex 36.2939785497543 4.05914286723417 0.0
vertex 40.0249785497543 65.4721428672341 0.0
vertex 37.9889785497543 13.3081428672342 0.0
endloop
endfacet
facet normal 0.0 0.0 -1.0
outer loop
vertex 37.9889785497543 13.3081428672342 0.0
vertex 40.0249785497543 65.4721428672341 0.0
vertex 38.4049095497543 15.1304548672342 0.0
endloop
endfacet
facet normal 0.0 0.0 -1.0
outer loop
vertex 38.4049095497543 15.1304548672342 0.0
vertex 40.0249785497543 65.4721428672341 0.0
vertex 39.5703215497543 16.5918348672342 0.0
endloop
endfacet
facet normal 0.0 0.0 -1.0
outer loop
vertex 39.5703215497543 16.5918348672342 0.0
vertex 40.0249785497543 65.4721428672341 0.0
vertex 41.2543905497543 17.4028398672342 0.0
endloop
endfacet
facet normal 0.0 0.0 -1.0
outer loop
vertex 41.2543905497543 17.4028398672342 0.0
vertex 40.0249785497543 65.4721428672341 0.0
vertex 57.2659785497543 35.6101428672342 0.0
endloop
endfacet
facet normal 0.0 0.0 -1.0
outer loop
vertex 41.2543905497543 17.4028398672342 0.0
vertex 57.2659785497543 35.6101428672342 0.0
vertex 43.1235665497543 17.4028398672342 0.0
endloop
endfacet
facet normal 0.0 0.0 -1.0
outer loop
vertex 43.1235665497543 17.4028398672342 0.0
vertex 57.2659785497543 35.6101428672342 0.0
vertex 44.8076355497543 16.5918348672342 0.0
endloop
endfacet
facet normal 0.0 0.0 -1.0
outer loop
vertex 44.8076355497543 16.5918348672342 0.0
vertex 57.2659785497543 35.6101428672342 0.0
vertex 45.9730475497543 15.1304548672342 0.0
endloop
endfacet
facet normal 0.0 0.0 -1.0
outer loop
vertex 45.9730475497543 15.1304548672342 0.0
vertex 57.2659785497543 35.6101428672342 0.0
vertex 46.3889785497543 13.3081428672342 0.0
endloop
endfacet
facet normal 0.0 0.0 -1.0
outer loop
vertex 46.3889785497543 13.3081428672342 0.0
vertex 57.2659785497543 35.6101428672342 0.0
vertex 48.2159785497543 4.05914286723417 0.0
endloop
endfacet
facet normal 0.0 0.0 -1.0
outer loop
vertex 48.2159785497543 4.05914286723417 0.0
vertex 57.2659785497543 35.6101428672342 0.0
vertex 57.2659785497543 13.1091428672342 0.0
endloop
endfacet
facet normal 0.0 0.0 -1.0
outer loop
vertex 36.2939785497543 4.05914286723417 0.0
vertex 39.5703215497543 10.0244508672342 0.0
vertex 48.2159785497543 4.05914286723417 0.0
endloop
endfacet
facet normal 0.0 0.0 -1.0
outer loop
vertex 39.5703215497543 10.0244508672342 0.0
vertex 36.2939785497543 4.05914286723417 0.0
vertex 38.4049095497543 11.4858308672342 0.0
endloop
endfacet
facet normal 0.0 0.0 -1.0
outer loop
vertex 38.4049095497543 11.4858308672342 0.0
vertex 36.2939785497543 4.05914286723417 0.0
vertex 37.9889785497543 13.3081428672342 0.0
endloop
endfacet
facet normal 0.0 0.0 -1.0
outer loop
vertex 48.2159785497543 4.05914286723417 0.0
vertex 39.5703215497543 10.0244508672342 0.0
vertex 41.2543905497543 9.21344586723417 0.0
endloop
endfacet
facet normal 0.0 0.0 -1.0
outer loop
vertex 48.2159785497543 4.05914286723417 0.0
vertex 41.2543905497543 9.21344586723417 0.0
vertex 43.1235665497543 9.21344586723417 0.0
endloop
endfacet
facet normal 0.0 0.0 -1.0
outer loop
vertex 48.2159785497543 4.05914286723417 0.0
vertex 43.1235665497543 9.21344586723417 0.0
vertex 44.8076355497543 10.0244508672342 0.0
endloop
endfacet
facet normal 0.0 0.0 -1.0
outer loop
vertex 48.2159785497543 4.05914286723417 0.0
vertex 44.8076355497543 10.0244508672342 0.0
vertex 45.9730475497543 11.4858308672342 0.0
endloop
endfacet
facet normal 0.0 0.0 -1.0
outer loop
vertex 48.2159785497543 4.05914286723417 0.0
vertex 45.9730475497543 11.4858308672342 0.0
vertex 46.3889785497543 13.3081428672342 0.0
endloop
endfacet
facet normal 0.0 0.0 -1.0
outer loop
vertex 7.90097854975432 73.6291428672341 0.0
vertex 9.14390954975432 65.7934548672341 0.0
vertex 8.72797854975432 63.9711428672341 0.0
endloop
endfacet
facet normal 0.0 0.0 -1.0
outer loop
vertex 9.14390954975432 65.7934548672341 0.0
vertex 7.90097854975432 73.6291428672341 0.0
vertex 10.3093215497543 67.2548348672341 0.0
endloop
endfacet
facet normal 0.0 0.0 -1.0
outer loop
vertex 10.3093215497543 67.2548348672341 0.0
vertex 7.90097854975432 73.6291428672341 0.0
vertex 20.1919785497543 76.9221428672341 0.0
endloop
endfacet
facet normal 0.0 0.0 -1.0
outer loop
vertex 10.3093215497543 67.2548348672341 0.0
vertex 20.1919785497543 76.9221428672341 0.0
vertex 11.9933905497543 68.0658398672341 0.0
endloop
endfacet
facet normal 0.0 0.0 -1.0
outer loop
vertex 11.9933905497543 68.0658398672341 0.0
vertex 20.1919785497543 76.9221428672341 0.0
vertex 13.8625665497543 68.0658398672341 0.0
endloop
endfacet
facet normal 0.0 0.0 -1.0
outer loop
vertex 13.8625665497543 68.0658398672341 0.0
vertex 20.1919785497543 76.9221428672341 0.0
vertex 15.5466355497543 67.2548348672341 0.0
endloop
endfacet
facet normal 0.0 0.0 -1.0
outer loop
vertex 15.5466355497543 67.2548348672341 0.0
vertex 20.1919785497543 76.9221428672341 0.0
vertex 16.7120475497543 65.7934548672341 0.0
endloop
endfacet
facet normal 0.0 0.0 -1.0
outer loop
vertex 16.7120475497543 65.7934548672341 0.0
vertex 20.1919785497543 76.9221428672341 0.0
vertex 17.1279785497543 63.9711428672341 0.0
endloop
endfacet
facet normal -0.258792389885369 0.965932968138793 -0.0
outer loop
vertex 7.90097854975432 73.6291428672341 12.9
vertex 20.1919785497543 76.9221428672341 0.0
vertex 7.90097854975432 73.6291428672341 0.0
endloop
endfacet
facet normal -0.258792389885369 0.965932968138793 -0.0
outer loop
vertex 20.1919785497543 76.9221428672341 0.0
vertex 7.90097854975432 73.6291428672341 12.9
vertex 20.1919785497543 76.9221428672341 12.9
endloop
endfacet
facet normal -0.0 -0.0 1.0
outer loop
vertex 36.2939785497543 4.05914286723417 12.9
vertex 27.1139785497543 33.5301428672342 12.9
vertex 27.1139785497543 13.2391428672342 12.9
endloop
endfacet
facet normal -0.0 -0.0 1.0
outer loop
vertex 36.2939785497543 4.05914286723417 12.9
vertex 38.4049095497543 11.4858308672342 12.9
vertex 37.9889785497543 13.3081428672342 12.9
endloop
endfacet
facet normal -0.0 -0.0 1.0
outer loop
vertex 38.4049095497543 11.4858308672342 12.9
vertex 36.2939785497543 4.05914286723417 12.9
vertex 39.5703215497543 10.0244508672342 12.9
endloop
endfacet
facet normal -0.0 -0.0 1.0
outer loop
vertex 39.5703215497543 10.0244508672342 12.9
vertex 36.2939785497543 4.05914286723417 12.9
vertex 48.2159785497543 4.05914286723417 12.9
endloop
endfacet
facet normal -0.0 -0.0 1.0
outer loop
vertex 39.5703215497543 10.0244508672342 12.9
vertex 48.2159785497543 4.05914286723417 12.9
vertex 41.2543905497543 9.21344586723417 12.9
endloop
endfacet
facet normal -0.0 -0.0 1.0
outer loop
vertex 41.2543905497543 9.21344586723417 12.9
vertex 48.2159785497543 4.05914286723417 12.9
vertex 43.1235665497543 9.21344586723417 12.9
endloop
endfacet
facet normal -0.0 -0.0 1.0
outer loop
vertex 43.1235665497543 9.21344586723417 12.9
vertex 48.2159785497543 4.05914286723417 12.9
vertex 44.8076355497543 10.0244508672342 12.9
endloop
endfacet
facet normal -0.0 -0.0 1.0
outer loop
vertex 44.8076355497543 10.0244508672342 12.9
vertex 48.2159785497543 4.05914286723417 12.9
vertex 45.9730475497543 11.4858308672342 12.9
endloop
endfacet
facet normal -0.0 -0.0 1.0
outer loop
vertex 45.9730475497543 11.4858308672342 12.9
vertex 48.2159785497543 4.05914286723417 12.9
vertex 46.3889785497543 13.3081428672342 12.9
endloop
endfacet
facet normal -0.0 -0.0 1.0
outer loop
vertex 5.31997854975432 51.1631428672342 12.9
vertex 7.90097854975432 73.6291428672341 12.9
vertex 1.91497854975432 63.2601428672341 12.9
endloop
endfacet
facet normal -0.0 -0.0 1.0
outer loop
vertex 7.90097854975432 73.6291428672341 12.9
vertex 5.31997854975432 51.1631428672342 12.9
vertex 8.72797854975432 63.9711428672341 12.9
endloop
endfacet
facet normal -0.0 -0.0 1.0
outer loop
vertex 8.72797854975432 63.9711428672341 12.9
vertex 5.31997854975432 51.1631428672342 12.9
vertex 9.14390954975432 62.1488308672341 12.9
endloop
endfacet
facet normal -0.0 -0.0 1.0
outer loop
vertex 9.14390954975432 62.1488308672341 12.9
vertex 5.31997854975432 51.1631428672342 12.9
vertex 22.6539785497543 41.1561428672342 12.9
endloop
endfacet
facet normal -0.0 -0.0 1.0
outer loop
vertex 9.14390954975432 62.1488308672341 12.9
vertex 22.6539785497543 41.1561428672342 12.9
vertex 10.3093215497543 60.6874508672341 12.9
endloop
endfacet
facet normal -0.0 -0.0 1.0
outer loop
vertex 10.3093215497543 60.6874508672341 12.9
vertex 22.6539785497543 41.1561428672342 12.9
vertex 11.9933905497543 59.8764458672342 12.9
endloop
endfacet
facet normal -0.0 -0.0 1.0
outer loop
vertex 11.9933905497543 59.8764458672342 12.9
vertex 22.6539785497543 41.1561428672342 12.9
vertex 13.8625665497543 59.8764458672342 12.9
endloop
endfacet
facet normal -0.0 -0.0 1.0
outer loop
vertex 13.8625665497543 59.8764458672342 12.9
vertex 22.6539785497543 41.1561428672342 12.9
vertex 15.5466355497543 60.6874508672341 12.9
endloop
endfacet
facet normal -0.0 -0.0 1.0
outer loop
vertex 15.5466355497543 60.6874508672341 12.9
vertex 22.6539785497543 41.1561428672342 12.9
vertex 16.7120475497543 62.1488308672341 12.9
endloop
endfacet
facet normal -0.0 -0.0 1.0
outer loop
vertex 16.7120475497543 62.1488308672341 12.9
vertex 22.6539785497543 41.1561428672342 12.9
vertex 17.1279785497543 63.9711428672341 12.9
endloop
endfacet
facet normal -0.0 -0.0 1.0
outer loop
vertex 17.1279785497543 63.9711428672341 12.9
vertex 22.6539785497543 41.1561428672342 12.9
vertex 20.1919785497543 76.9221428672341 12.9
endloop
endfacet
facet normal -0.0 -0.0 1.0
outer loop
vertex 20.1919785497543 76.9221428672341 12.9
vertex 22.6539785497543 41.1561428672342 12.9
vertex 40.0249785497543 65.4721428672341 12.9
endloop
endfacet
facet normal -0.0 -0.0 1.0
outer loop
vertex 40.0249785497543 65.4721428672341 12.9
vertex 22.6539785497543 41.1561428672342 12.9
vertex 27.1139785497543 33.5301428672342 12.9
endloop
endfacet
facet normal -0.0 -0.0 1.0
outer loop
vertex 40.0249785497543 65.4721428672341 12.9
vertex 27.1139785497543 33.5301428672342 12.9
vertex 36.2939785497543 4.05914286723417 12.9
endloop
endfacet
facet normal -0.0 -0.0 1.0
outer loop
vertex 40.0249785497543 65.4721428672341 12.9
vertex 36.2939785497543 4.05914286723417 12.9
vertex 37.9889785497543 13.3081428672342 12.9
endloop
endfacet
facet normal -0.0 -0.0 1.0
outer loop
vertex 40.0249785497543 65.4721428672341 12.9
vertex 37.9889785497543 13.3081428672342 12.9
vertex 38.4049095497543 15.1304548672342 12.9
endloop
endfacet
facet normal -0.0 -0.0 1.0
outer loop
vertex 40.0249785497543 65.4721428672341 12.9
vertex 38.4049095497543 15.1304548672342 12.9
vertex 39.5703215497543 16.5918348672342 12.9
endloop
endfacet
facet normal -0.0 -0.0 1.0
outer loop
vertex 40.0249785497543 65.4721428672341 12.9
vertex 39.5703215497543 16.5918348672342 12.9
vertex 41.2543905497543 17.4028398672342 12.9
endloop
endfacet
facet normal -0.0 -0.0 1.0
outer loop
vertex 40.0249785497543 65.4721428672341 12.9
vertex 41.2543905497543 17.4028398672342 12.9
vertex 57.2659785497543 35.6101428672342 12.9
endloop
endfacet
facet normal -0.0 -0.0 1.0
outer loop
vertex 57.2659785497543 35.6101428672342 12.9
vertex 41.2543905497543 17.4028398672342 12.9
vertex 43.1235665497543 17.4028398672342 12.9
endloop
endfacet
facet normal -0.0 -0.0 1.0
outer loop
vertex 57.2659785497543 35.6101428672342 12.9
vertex 43.1235665497543 17.4028398672342 12.9
vertex 44.8076355497543 16.5918348672342 12.9
endloop
endfacet
facet normal -0.0 -0.0 1.0
outer loop
vertex 57.2659785497543 35.6101428672342 12.9
vertex 44.8076355497543 16.5918348672342 12.9
vertex 45.9730475497543 15.1304548672342 12.9
endloop
endfacet
facet normal -0.0 -0.0 1.0
outer loop
vertex 57.2659785497543 35.6101428672342 12.9
vertex 45.9730475497543 15.1304548672342 12.9
vertex 46.3889785497543 13.3081428672342 12.9
endloop
endfacet
facet normal -0.0 -0.0 1.0
outer loop
vertex 57.2659785497543 35.6101428672342 12.9
vertex 46.3889785497543 13.3081428672342 12.9
vertex 48.2159785497543 4.05914286723417 12.9
endloop
endfacet
facet normal -0.0 -0.0 1.0
outer loop
vertex 57.2659785497543 35.6101428672342 12.9
vertex 48.2159785497543 4.05914286723417 12.9
vertex 57.2659785497543 13.1091428672342 12.9
endloop
endfacet
facet normal -0.0 -0.0 1.0
outer loop
vertex 7.90097854975432 73.6291428672341 12.9
vertex 10.3093215497543 67.2548348672341 12.9
vertex 20.1919785497543 76.9221428672341 12.9
endloop
endfacet
facet normal -0.0 -0.0 1.0
outer loop
vertex 10.3093215497543 67.2548348672341 12.9
vertex 7.90097854975432 73.6291428672341 12.9
vertex 9.14390954975432 65.7934548672341 12.9
endloop
endfacet
facet normal -0.0 -0.0 1.0
outer loop
vertex 9.14390954975432 65.7934548672341 12.9
vertex 7.90097854975432 73.6291428672341 12.9
vertex 8.72797854975432 63.9711428672341 12.9
endloop
endfacet
facet normal -0.0 -0.0 1.0
outer loop
vertex 20.1919785497543 76.9221428672341 12.9
vertex 10.3093215497543 67.2548348672341 12.9
vertex 11.9933905497543 68.0658398672341 12.9
endloop
endfacet
facet normal -0.0 -0.0 1.0
outer loop
vertex 20.1919785497543 76.9221428672341 12.9
vertex 11.9933905497543 68.0658398672341 12.9
vertex 13.8625665497543 68.0658398672341 12.9
endloop
endfacet
facet normal -0.0 -0.0 1.0
outer loop
vertex 20.1919785497543 76.9221428672341 12.9
vertex 13.8625665497543 68.0658398672341 12.9
vertex 15.5466355497543 67.2548348672341 12.9
endloop
endfacet
facet normal -0.0 -0.0 1.0
outer loop
vertex 20.1919785497543 76.9221428672341 12.9
vertex 15.5466355497543 67.2548348672341 12.9
vertex 16.7120475497543 65.7934548672341 12.9
endloop
endfacet
facet normal -0.0 -0.0 1.0
outer loop
vertex 20.1919785497543 76.9221428672341 12.9
vertex 16.7120475497543 65.7934548672341 12.9
vertex 17.1279785497543 63.9711428672341 12.9
endloop
endfacet
facet normal 0.433883788312503 0.900968844211381 -0.0
outer loop
vertex 10.3093215497543 60.6874508672341 12.9
vertex 11.9933905497543 59.8764458672342 0.0
vertex 10.3093215497543 60.6874508672341 0.0
endloop
endfacet
facet normal 0.433883788312503 0.900968844211381 -0.0
outer loop
vertex 11.9933905497543 59.8764458672342 0.0
vertex 10.3093215497543 60.6874508672341 12.9
vertex 11.9933905497543 59.8764458672342 12.9
endloop
endfacet
facet normal -0.0 1.0 -0.0
outer loop
vertex 11.9933905497543 59.8764458672342 12.9
vertex 13.8625665497543 59.8764458672342 0.0
vertex 11.9933905497543 59.8764458672342 0.0
endloop
endfacet
facet normal -0.0 1.0 -0.0
outer loop
vertex 13.8625665497543 59.8764458672342 0.0
vertex 11.9933905497543 59.8764458672342 12.9
vertex 13.8625665497543 59.8764458672342 12.9
endloop
endfacet
facet normal 0.974927891557787 -0.222521024316103 -0.0
outer loop
vertex 9.14390954975432 65.7934548672341 0.0
vertex 8.72797854975432 63.9711428672341 12.9
vertex 8.72797854975432 63.9711428672341 0.0
endloop
endfacet
facet normal 0.974927891557787 -0.222521024316103 -0.0
outer loop
vertex 8.72797854975432 63.9711428672341 12.9
vertex 9.14390954975432 65.7934548672341 0.0
vertex 9.14390954975432 65.7934548672341 12.9
endloop
endfacet
facet normal 0.499980746616607 0.866036519445167 -0.0
outer loop
vertex 20.1919785497543 76.9221428672341 0.0
vertex 29.6404856793988 71.4672952701939 2.4841886706543
vertex 40.0249785497543 65.4721428672341 0.0
endloop
endfacet
facet normal 0.499980746616607 0.866036519445167 -0.0
outer loop
vertex 29.6404856793988 71.4672952701939 2.4841886706543
vertex 20.1919785497543 76.9221428672341 0.0
vertex 28.7822564139295 71.9627550611639 2.88858432293755
endloop
endfacet
facet normal 0.499980746616607 0.866036519445167 -0.0
outer loop
vertex 28.7822564139295 71.9627550611639 2.88858432293755
vertex 20.1919785497543 76.9221428672341 0.0
vertex 28.0439151955682 72.3890029184325 3.53568456988865
endloop
endfacet
facet normal 0.499980746616607 0.866036519445167 -0.0
outer loop
vertex 28.0439151955682 72.3890029184325 3.53568456988865
vertex 20.1919785497543 76.9221428672341 0.0
vertex 20.1919785497543 76.9221428672341 12.9
endloop
endfacet
facet normal 0.499980746616607 0.866036519445167 -0.0
outer loop
vertex 40.0249785497543 65.4721428672341 0.0
vertex 29.6404856793988 71.4672952701939 2.4841886706543
vertex 30.5601160858251 70.936388311491 2.35005650844659
endloop
endfacet
facet normal 0.499980746616607 0.866036519445167 -0.0
outer loop
vertex 28.0439151955682 72.3890029184325 3.53568456988865
vertex 20.1919785497543 76.9221428672341 12.9
vertex 27.4757787581796 72.7169907549347 4.3813905990616
endloop
endfacet
facet normal 0.499980746616607 0.866036519445167 -0.0
outer loop
vertex 27.4757787581796 72.7169907549347 4.3813905990616
vertex 20.1919785497543 76.9221428672341 12.9
vertex 27.1165646610819 72.9243667416385 5.36806894216355
endloop
endfacet
facet normal 0.499980746616607 0.866036519445167 -0.0
outer loop
vertex 27.1165646610819 72.9243667416385 5.36806894216355
vertex 20.1919785497543 76.9221428672341 12.9
vertex 26.9907527513628 72.9969985477549 6.42847910067517
endloop
endfacet
facet normal 0.499980746616607 0.866036519445167 -0.0
outer loop
vertex 26.9907527513628 72.9969985477549 6.42847910067517
vertex 20.1919785497543 76.9221428672341 12.9
vertex 27.1069169027559 72.9299364357269 7.49035587470453
endloop
endfacet
facet normal 0.499980746616607 0.866036519445167 -0.0
outer loop
vertex 27.1069169027559 72.9299364357269 7.49035587470453
vertex 20.1919785497543 76.9221428672341 12.9
vertex 27.4571407203138 72.7277505776638 8.48133411693587
endloop
endfacet
facet normal 0.499980746616607 0.866036519445167 -0.0
outer loop
vertex 27.4571407203138 72.7277505776638 8.48133411693587
vertex 20.1919785497543 76.9221428672341 12.9
vertex 28.0175570296424 72.4042196056647 9.33388029783011
endloop
endfacet
facet normal 0.499980746616607 0.866036519445167 -0.0
outer loop
vertex 28.0175570296424 72.4042196056647 9.33388029783011
vertex 20.1919785497543 76.9221428672341 12.9
vertex 28.7499743853926 71.9813916208111 9.98989480405848
endloop
endfacet
facet normal 0.499980746616607 0.866036519445167 -0.0
outer loop
vertex 28.7499743853926 71.9813916208111 9.98989480405848
vertex 20.1919785497543 76.9221428672341 12.9
vertex 29.604479755147 71.4880816515145 10.4046713311367
endloop
endfacet
facet normal 0.499980746616607 0.866036519445167 -0.0
outer loop
vertex 29.604479755147 71.4880816515145 10.4046713311367
vertex 20.1919785497543 76.9221428672341 12.9
vertex 30.5228400100936 70.9579079569492 10.5499435441951
endloop
endfacet
facet normal 0.499980746616607 0.866036519445167 -0.0
outer loop
vertex 40.0249785497543 65.4721428672341 0.0
vertex 33.0653990662763 69.4900766627755 3.56611975481162
vertex 40.0249785497543 65.4721428672341 12.9
endloop
endfacet
facet normal 0.499980746616607 0.866036519445167 -0.0
outer loop
vertex 33.0653990662763 69.4900766627755 3.56611975481162
vertex 40.0249785497543 65.4721428672341 0.0
vertex 32.3329817105261 69.9129046476291 2.91010524858325
endloop
endfacet
facet normal 0.499980746616607 0.866036519445167 -0.0
outer loop
vertex 32.3329817105261 69.9129046476291 2.91010524858325
vertex 40.0249785497543 65.4721428672341 0.0
vertex 31.4784763407717 70.4062146169257 2.49532872150499
endloop
endfacet
facet normal 0.499980746616607 0.866036519445167 -0.0
outer loop
vertex 31.4784763407717 70.4062146169257 2.49532872150499
vertex 40.0249785497543 65.4721428672341 0.0
vertex 30.5601160858251 70.936388311491 2.35005650844659
endloop
endfacet
facet normal 0.499980746616607 0.866036519445167 -0.0
outer loop
vertex 40.0249785497543 65.4721428672341 12.9
vertex 33.0653990662763 69.4900766627755 3.56611975481162
vertex 33.6258153756049 69.1665456907764 4.41866593570586
endloop
endfacet
facet normal 0.499980746616607 0.866036519445167 -0.0
outer loop
vertex 40.0249785497543 65.4721428672341 12.9
vertex 33.6258153756049 69.1665456907764 4.41866593570586
vertex 33.9760391931629 68.9643598327133 5.40964417793721
endloop
endfacet
facet normal 0.499980746616607 0.866036519445167 -0.0
outer loop
vertex 40.0249785497543 65.4721428672341 12.9
vertex 33.9760391931629 68.9643598327133 5.40964417793721
vertex 34.0922033445559 68.8972977206853 6.47152095196657
endloop
endfacet
facet normal 0.499980746616607 0.866036519445167 -0.0
outer loop
vertex 40.0249785497543 65.4721428672341 12.9
vertex 34.0922033445559 68.8972977206853 6.47152095196657
vertex 33.9663914348368 68.9699295268017 7.53193111047819
endloop
endfacet
facet normal 0.499980746616607 0.866036519445167 -0.0
outer loop
vertex 40.0249785497543 65.4721428672341 12.9
vertex 33.9663914348368 68.9699295268017 7.53193111047819
vertex 33.6071773377391 69.1773055135055 8.51860945358014
endloop
endfacet
facet normal 0.499980746616607 0.866036519445167 -0.0
outer loop
vertex 40.0249785497543 65.4721428672341 12.9
vertex 33.6071773377391 69.1773055135055 8.51860945358014
vertex 33.0390409003505 69.5052933500077 9.36431548275308
endloop
endfacet
facet normal 0.499980746616607 0.866036519445167 -0.0
outer loop
vertex 40.0249785497543 65.4721428672341 12.9
vertex 33.0390409003505 69.5052933500077 9.36431548275308
vertex 32.3006996819892 69.9315412072763 10.0114157297042
endloop
endfacet
facet normal 0.499980746616607 0.866036519445167 -0.0
outer loop
vertex 40.0249785497543 65.4721428672341 12.9
vertex 32.3006996819892 69.9315412072763 10.0114157297042
vertex 31.4424704165199 70.4270009982464 10.4158113819874
endloop
endfacet
facet normal 0.499980746616607 0.866036519445167 -0.0
outer loop
vertex 40.0249785497543 65.4721428672341 12.9
vertex 31.4424704165199 70.4270009982464 10.4158113819874
vertex 30.5228400100936 70.9579079569492 10.5499435441951
endloop
endfacet
facet normal 0.499980746616607 0.866036519445167 -0.0
outer loop
vertex 40.0249785497543 65.4721428672341 12.9
vertex 30.5228400100936 70.9579079569492 10.5499435441951
vertex 20.1919785497543 76.9221428672341 12.9
endloop
endfacet
facet normal 0.866023315909466 0.500003616288096 -0.0
outer loop
vertex 40.0249785497543 65.4721428672341 0.0
vertex 57.2659785497543 35.6101428672342 12.9
vertex 57.2659785497543 35.6101428672342 0.0
endloop
endfacet
facet normal 0.866023315909466 0.500003616288096 -0.0
outer loop
vertex 57.2659785497543 35.6101428672342 12.9
vertex 40.0249785497543 65.4721428672341 0.0
vertex 40.0249785497543 65.4721428672341 12.9
endloop
endfacet
facet normal -0.499970413440659 -0.866042484918596 0.0
outer loop
vertex 22.6539785497543 41.1561428672342 0.0
vertex 16.6074603425667 44.6468263499397 2.49532869518412
vertex 5.31997854975432 51.1631428672342 0.0
endloop
endfacet
facet normal -0.499970413440659 -0.866042484918596 0.0
outer loop
vertex 16.6074603425667 44.6468263499397 2.49532869518412
vertex 22.6539785497543 41.1561428672342 0.0
vertex 17.461965712321 44.1535163806431 2.91010522226239
endloop
endfacet
facet normal -0.499970413440659 -0.866042484918596 0.0
outer loop
vertex 17.461965712321 44.1535163806431 2.91010522226239
vertex 22.6539785497543 41.1561428672342 0.0
vertex 18.1943830680713 43.7306883957895 3.56611972849075
endloop
endfacet
facet normal -0.499970413440659 -0.866042484918596 0.0
outer loop
vertex 18.1943830680713 43.7306883957895 3.56611972849075
vertex 22.6539785497543 41.1561428672342 0.0
vertex 18.7547993773998 43.4071574237904 4.41866590938499
endloop
endfacet
facet normal -0.499970413440659 -0.866042484918596 0.0
outer loop
vertex 18.7547993773998 43.4071574237904 4.41866590938499
vertex 22.6539785497543 41.1561428672342 0.0
vertex 22.6539785497543 41.1561428672342 12.9
endloop
endfacet
facet normal -0.499970413440659 -0.866042484918596 0.0
outer loop
vertex 5.31997854975432 51.1631428672342 0.0
vertex 16.6074603425667 44.6468263499397 2.49532869518412
vertex 15.6891000876201 45.1770000445051 2.35005648212572
endloop
endfacet
facet normal -0.499970413440659 -0.866042484918596 0.0
outer loop
vertex 18.7547993773998 43.4071574237904 4.41866590938499
vertex 22.6539785497543 41.1561428672342 12.9
vertex 19.1050231949578 43.2049715657274 5.40964415161634
endloop
endfacet
facet normal -0.499970413440659 -0.866042484918596 0.0
outer loop
vertex 19.1050231949578 43.2049715657274 5.40964415161634
vertex 22.6539785497543 41.1561428672342 12.9
vertex 19.2211873463508 43.1379094536994 6.4715209256457
endloop
endfacet
facet normal -0.499970413440659 -0.866042484918596 0.0
outer loop
vertex 19.2211873463508 43.1379094536994 6.4715209256457
vertex 22.6539785497543 41.1561428672342 12.9
vertex 19.0953754366318 43.2105412598158 7.53193108415732
endloop
endfacet
facet normal -0.499970413440659 -0.866042484918596 0.0
outer loop
vertex 19.0953754366318 43.2105412598158 7.53193108415732
vertex 22.6539785497543 41.1561428672342 12.9
vertex 18.7361613395341 43.4179172465195 8.51860942725927
endloop
endfacet
facet normal -0.499970413440659 -0.866042484918596 0.0
outer loop
vertex 18.7361613395341 43.4179172465195 8.51860942725927
vertex 22.6539785497543 41.1561428672342 12.9
vertex 18.1680249021454 43.7459050830218 9.36431545643222
endloop
endfacet
facet normal -0.499970413440659 -0.866042484918596 0.0
outer loop
vertex 18.1680249021454 43.7459050830218 9.36431545643222
vertex 22.6539785497543 41.1561428672342 12.9
vertex 17.4296836837841 44.1721529402904 10.0114157033833
endloop
endfacet
facet normal -0.499970413440659 -0.866042484918596 0.0
outer loop
vertex 17.4296836837841 44.1721529402904 10.0114157033833
vertex 22.6539785497543 41.1561428672342 12.9
vertex 16.5714544183149 44.6676127312604 10.4158113556666
endloop
endfacet
facet normal -0.499970413440659 -0.866042484918596 0.0
outer loop
vertex 16.5714544183149 44.6676127312604 10.4158113556666
vertex 22.6539785497543 41.1561428672342 12.9
vertex 15.6518240118885 45.1985196899633 10.5499435178743
endloop
endfacet
facet normal -0.499970413440659 -0.866042484918596 0.0
outer loop
vertex 5.31997854975432 51.1631428672342 0.0
vertex 13.1728991973632 46.6296146514466 3.53568454356778
vertex 5.31997854975432 51.1631428672342 12.9
endloop
endfacet
facet normal -0.499970413440659 -0.866042484918596 0.0
outer loop
vertex 13.1728991973632 46.6296146514466 3.53568454356778
vertex 5.31997854975432 51.1631428672342 0.0
vertex 13.9112404157245 46.2033667941779 2.88858429661669
endloop
endfacet
facet normal -0.499970413440659 -0.866042484918596 0.0
outer loop
vertex 13.9112404157245 46.2033667941779 2.88858429661669
vertex 5.31997854975432 51.1631428672342 0.0
vertex 14.7694696811937 45.7079070032079 2.48418864433344
endloop
endfacet
facet normal -0.499970413440659 -0.866042484918596 0.0
outer loop
vertex 14.7694696811937 45.7079070032079 2.48418864433344
vertex 5.31997854975432 51.1631428672342 0.0
vertex 15.6891000876201 45.1770000445051 2.35005648212572
endloop
endfacet
facet normal -0.499970413440659 -0.866042484918596 0.0
outer loop
vertex 5.31997854975432 51.1631428672342 12.9
vertex 13.1728991973632 46.6296146514466 3.53568454356778
vertex 12.6047627599746 46.9576024879488 4.38139057274073
endloop
endfacet
facet normal -0.499970413440659 -0.866042484918596 0.0
outer loop
vertex 5.31997854975432 51.1631428672342 12.9
vertex 12.6047627599746 46.9576024879488 4.38139057274073
vertex 12.2455486628768 47.1649784746525 5.36806891584268
endloop
endfacet
facet normal -0.499970413440659 -0.866042484918596 0.0
outer loop
vertex 5.31997854975432 51.1631428672342 12.9
vertex 12.2455486628768 47.1649784746525 5.36806891584268
vertex 12.1197367531578 47.237610280769 6.4284790743543
endloop
endfacet
facet normal -0.499970413440659 -0.866042484918596 0.0
outer loop
vertex 5.31997854975432 51.1631428672342 12.9
vertex 12.1197367531578 47.237610280769 6.4284790743543
vertex 12.2359009045508 47.170548168741 7.49035584838366
endloop
endfacet
facet normal -0.499970413440659 -0.866042484918596 0.0
outer loop
vertex 5.31997854975432 51.1631428672342 12.9
vertex 12.2359009045508 47.170548168741 7.49035584838366
vertex 12.5861247221088 46.9683623106779 8.48133409061501
endloop
endfacet
facet normal -0.499970413440659 -0.866042484918596 0.0
outer loop
vertex 5.31997854975432 51.1631428672342 12.9
vertex 12.5861247221088 46.9683623106779 8.48133409061501
vertex 13.1465410314374 46.6448313386788 9.33388027150924
endloop
endfacet
facet normal -0.499970413440659 -0.866042484918596 0.0
outer loop
vertex 5.31997854975432 51.1631428672342 12.9
vertex 13.1465410314374 46.6448313386788 9.33388027150924
vertex 13.8789583871876 46.2220033538252 9.98989477773761
endloop
endfacet
facet normal -0.499970413440659 -0.866042484918596 0.0
outer loop
vertex 5.31997854975432 51.1631428672342 12.9
vertex 13.8789583871876 46.2220033538252 9.98989477773761
vertex 14.7334637569419 45.7286933845286 10.4046713048159
endloop
endfacet
facet normal -0.499970413440659 -0.866042484918596 0.0
outer loop
vertex 5.31997854975432 51.1631428672342 12.9
vertex 14.7334637569419 45.7286933845286 10.4046713048159
vertex 15.6518240118885 45.1985196899633 10.5499435178743
endloop
endfacet
facet normal -0.499970413440659 -0.866042484918596 0.0
outer loop
vertex 5.31997854975432 51.1631428672342 12.9
vertex 15.6518240118885 45.1985196899633 10.5499435178743
vertex 22.6539785497543 41.1561428672342 12.9
endloop
endfacet
facet normal -0.86321180207622 -0.50484194036978 0.0
outer loop
vertex 22.6539785497543 41.1561428672342 12.9
vertex 27.1139785497543 33.5301428672342 0.0
vertex 27.1139785497543 33.5301428672342 12.9
endloop
endfacet
facet normal -0.86321180207622 -0.50484194036978 0.0
outer loop
vertex 27.1139785497543 33.5301428672342 0.0
vertex 22.6539785497543 41.1561428672342 12.9
vertex 22.6539785497543 41.1561428672342 0.0
endloop
endfacet
facet normal -1.0 0.0 0.0
outer loop
vertex 27.1139785497543 13.2391428672342 12.9
vertex 27.1139785497543 22.1600050643693 9.34913780286485
vertex 27.1139785497543 13.2391428672342 0.0
endloop
endfacet
facet normal -1.0 0.0 0.0
outer loop
vertex 27.1139785497543 22.1600050643693 9.34913780286485
vertex 27.1139785497543 13.2391428672342 12.9
vertex 27.1139785497543 23.0091428672342 10.0007041555162
endloop
endfacet
facet normal -1.0 0.0 0.0
outer loop
vertex 27.1139785497543 23.0091428672342 10.0007041555162
vertex 27.1139785497543 13.2391428672342 12.9
vertex 27.1139785497543 23.9979847823138 10.4102958877852
endloop
endfacet
facet normal -1.0 0.0 0.0
outer loop
vertex 27.1139785497543 23.9979847823138 10.4102958877852
vertex 27.1139785497543 13.2391428672342 12.9
vertex 27.1139785497543 33.5301428672342 12.9
endloop
endfacet
facet normal -1.0 0.0 0.0
outer loop
vertex 27.1139785497543 13.2391428672342 0.0
vertex 27.1139785497543 22.1600050643693 9.34913780286485
vertex 27.1139785497543 21.508438711718 8.5
endloop
endfacet
facet normal -1.0 0.0 0.0
outer loop
vertex 27.1139785497543 13.2391428672342 0.0
vertex 27.1139785497543 21.508438711718 8.5
vertex 27.1139785497543 21.098846979449 7.51115808492034
endloop
endfacet
facet normal -1.0 0.0 0.0
outer loop
vertex 27.1139785497543 13.2391428672342 0.0
vertex 27.1139785497543 21.098846979449 7.51115808492034
vertex 27.1139785497543 20.9591428672342 6.45
endloop
endfacet
facet normal -1.0 0.0 0.0
outer loop
vertex 27.1139785497543 23.9979847823138 10.4102958877852
vertex 27.1139785497543 33.5301428672342 12.9
vertex 27.1139785497543 25.0591428672342 10.55
endloop
endfacet
facet normal -1.0 0.0 0.0
outer loop
vertex 27.1139785497543 25.0591428672342 10.55
vertex 27.1139785497543 33.5301428672342 12.9
vertex 27.1139785497543 26.1203009521545 10.4102958877852
endloop
endfacet
facet normal -1.0 0.0 0.0
outer loop
vertex 27.1139785497543 26.1203009521545 10.4102958877852
vertex 27.1139785497543 33.5301428672342 12.9
vertex 27.1139785497543 27.1091428672342 10.0007041555162
endloop
endfacet
facet normal -1.0 0.0 0.0
outer loop
vertex 27.1139785497543 27.1091428672342 10.0007041555162
vertex 27.1139785497543 33.5301428672342 12.9
vertex 27.1139785497543 27.958280670099 9.34913780286484
endloop
endfacet
facet normal -1.0 0.0 0.0
outer loop
vertex 27.1139785497543 27.958280670099 9.34913780286484
vertex 27.1139785497543 33.5301428672342 12.9
vertex 27.1139785497543 28.6098470227504 8.5
endloop
endfacet
facet normal -1.0 0.0 0.0
outer loop
vertex 27.1139785497543 28.6098470227504 8.5
vertex 27.1139785497543 33.5301428672342 12.9
vertex 27.1139785497543 29.0194387550193 7.51115808492033
endloop
endfacet
facet normal -1.0 0.0 0.0
outer loop
vertex 27.1139785497543 29.0194387550193 7.51115808492033
vertex 27.1139785497543 33.5301428672342 12.9
vertex 27.1139785497543 29.1591428672342 6.45
endloop
endfacet
facet normal -1.0 0.0 0.0
outer loop
vertex 27.1139785497543 13.2391428672342 0.0
vertex 27.1139785497543 23.9979847823138 2.48970411221482
vertex 27.1139785497543 33.5301428672342 0.0
endloop
endfacet
facet normal -1.0 0.0 0.0
outer loop
vertex 27.1139785497543 23.9979847823138 2.48970411221482
vertex 27.1139785497543 13.2391428672342 0.0
vertex 27.1139785497543 23.0091428672342 2.8992958444838
endloop
endfacet
facet normal -1.0 0.0 0.0
outer loop
vertex 27.1139785497543 23.0091428672342 2.8992958444838
vertex 27.1139785497543 13.2391428672342 0.0
vertex 27.1139785497543 22.1600050643693 3.55086219713515
endloop
endfacet
facet normal -1.0 0.0 0.0
outer loop
vertex 27.1139785497543 22.1600050643693 3.55086219713515
vertex 27.1139785497543 13.2391428672342 0.0
vertex 27.1139785497543 21.508438711718 4.4
endloop
endfacet
facet normal -1.0 0.0 0.0
outer loop
vertex 27.1139785497543 21.508438711718 4.4
vertex 27.1139785497543 13.2391428672342 0.0
vertex 27.1139785497543 21.098846979449 5.38884191507966
endloop
endfacet
facet normal -1.0 0.0 0.0
outer loop
vertex 27.1139785497543 21.098846979449 5.38884191507966
vertex 27.1139785497543 13.2391428672342 0.0
vertex 27.1139785497543 20.9591428672342 6.45
endloop
endfacet
facet normal -1.0 0.0 0.0
outer loop
vertex 27.1139785497543 33.5301428672342 0.0
vertex 27.1139785497543 23.9979847823138 2.48970411221482
vertex 27.1139785497543 25.0591428672342 2.35
endloop
endfacet
facet normal -1.0 0.0 0.0
outer loop
vertex 27.1139785497543 33.5301428672342 0.0
vertex 27.1139785497543 25.0591428672342 2.35
vertex 27.1139785497543 26.1203009521545 2.48970411221482
endloop
endfacet
facet normal -1.0 0.0 0.0
outer loop
vertex 27.1139785497543 33.5301428672342 0.0
vertex 27.1139785497543 26.1203009521545 2.48970411221482
vertex 27.1139785497543 27.1091428672342 2.8992958444838
endloop
endfacet
facet normal -1.0 0.0 0.0
outer loop
vertex 27.1139785497543 33.5301428672342 0.0
vertex 27.1139785497543 27.1091428672342 2.8992958444838
vertex 27.1139785497543 27.958280670099 3.55086219713515
endloop
endfacet
facet normal -1.0 0.0 0.0
outer loop
vertex 27.1139785497543 33.5301428672342 0.0
vertex 27.1139785497543 27.958280670099 3.55086219713515
vertex 27.1139785497543 28.6098470227504 4.4
endloop
endfacet
facet normal -1.0 0.0 0.0
outer loop
vertex 27.1139785497543 33.5301428672342 0.0
vertex 27.1139785497543 28.6098470227504 4.4
vertex 27.1139785497543 29.0194387550193 5.38884191507966
endloop
endfacet
facet normal -1.0 0.0 0.0
outer loop
vertex 27.1139785497543 33.5301428672342 0.0
vertex 27.1139785497543 29.0194387550193 5.38884191507966
vertex 27.1139785497543 29.1591428672342 6.45
endloop
endfacet
facet normal -1.0 0.0 0.0
outer loop
vertex 27.1139785497543 33.5301428672342 0.0
vertex 27.1139785497543 29.1591428672342 6.45
vertex 27.1139785497543 33.5301428672342 12.9
endloop
endfacet
facet normal 0.798368282632335 -0.460901764849021 0.387527609914125
outer loop
vertex 27.4757787581796 72.7169907549347 4.3813905990616
vertex 12.2455486628768 47.1649784746525 5.36806891584268
vertex 12.6047627599746 46.9576024879488 4.38139057274073
endloop
endfacet
facet normal 0.798368282632335 -0.460901764849021 0.387527609914125
outer loop
vertex 12.2455486628768 47.1649784746525 5.36806891584268
vertex 27.4757787581796 72.7169907549347 4.3813905990616
vertex 27.1165646610819 72.9243667416385 5.36806894216355
endloop
endfacet
facet normal -0.707106781186548 -0.707106781186547 0.0
outer loop
vertex 27.1139785497543 13.2391428672342 12.9
vertex 36.2939785497543 4.05914286723417 0.0
vertex 36.2939785497543 4.05914286723417 12.9
endloop
endfacet
facet normal -0.707106781186548 -0.707106781186547 0.0
outer loop
vertex 36.2939785497543 4.05914286723417 0.0
vertex 27.1139785497543 13.2391428672342 12.9
vertex 27.1139785497543 13.2391428672342 0.0
endloop
endfacet
facet normal 0.0 -1.0 0.0
outer loop
vertex 48.2159785497543 4.05914286723417 12.9
vertex 36.2939785497543 4.05914286723417 0.0
vertex 48.2159785497543 4.05914286723417 0.0
endloop
endfacet
facet normal 0.0 -1.0 0.0
outer loop
vertex 36.2939785497543 4.05914286723417 0.0
vertex 48.2159785497543 4.05914286723417 12.9
vertex 36.2939785497543 4.05914286723417 12.9
endloop
endfacet
facet normal 0.108532698955132 -0.0626564385720311 0.992116335901684
outer loop
vertex 15.6891000876201 45.1770000445051 2.35005648212572
vertex 29.6404856793988 71.4672952701939 2.4841886706543
vertex 14.7694696811937 45.7079070032079 2.48418864433344
endloop
endfacet
facet normal 0.108532698955132 -0.0626564385720311 0.992116335901684
outer loop
vertex 29.6404856793988 71.4672952701939 2.4841886706543
vertex 15.6891000876201 45.1770000445051 2.35005648212572
vertex 30.5601160858251 70.936388311491 2.35005650844659
endloop
endfacet
facet normal 0.335615376975006 -0.193752334653513 -0.921858097298189
outer loop
vertex 28.7499743853926 71.9813916208111 9.98989480405848
vertex 14.7334637569419 45.7286933845286 10.4046713048159
vertex 13.8789583871876 46.2220033538252 9.98989477773761
endloop
endfacet
facet normal 0.335615376975006 -0.193752334653513 -0.921858097298189
outer loop
vertex 14.7334637569419 45.7286933845286 10.4046713048159
vertex 28.7499743853926 71.9813916208111 9.98989480405848
vertex 29.604479755147 71.4880816515145 10.4046713311367
endloop
endfacet
facet normal 0.530812476870926 -0.306440538609912 -0.790147018405195
outer loop
vertex 28.0175570296424 72.4042196056647 9.33388029783011
vertex 13.8789583871876 46.2220033538252 9.98989477773761
vertex 13.1465410314374 46.6448313386788 9.33388027150924
endloop
endfacet
facet normal 0.530812476870926 -0.306440538609912 -0.790147018405195
outer loop
vertex 13.8789583871876 46.2220033538252 9.98989477773761
vertex 28.0175570296424 72.4042196056647 9.33388029783011
vertex 28.7499743853926 71.9813916208111 9.98989480405848
endloop
endfacet
facet normal 0.707106781186548 -0.707106781186547 -0.0
outer loop
vertex 57.2659785497543 13.1091428672342 0.0
vertex 48.2159785497543 4.05914286723417 12.9
vertex 48.2159785497543 4.05914286723417 0.0
endloop
endfacet
facet normal 0.707106781186548 -0.707106781186547 -0.0
outer loop
vertex 48.2159785497543 4.05914286723417 12.9
vertex 57.2659785497543 13.1091428672342 0.0
vertex 57.2659785497543 13.1091428672342 12.9
endloop
endfacet
facet normal -0.433883788312503 0.900968844211381 -0.0
outer loop
vertex 13.8625665497543 59.8764458672342 12.9
vertex 15.5466355497543 60.6874508672341 0.0
vertex 13.8625665497543 59.8764458672342 0.0
endloop
endfacet
facet normal -0.433883788312503 0.900968844211381 -0.0
outer loop
vertex 15.5466355497543 60.6874508672341 0.0
vertex 13.8625665497543 59.8764458672342 12.9
vertex 15.5466355497543 60.6874508672341 12.9
endloop
endfacet
facet normal -0.781831394071626 0.623489912704302 0.0
outer loop
vertex 16.7120475497543 62.1488308672341 12.9
vertex 15.5466355497543 60.6874508672341 0.0
vertex 15.5466355497543 60.6874508672341 12.9
endloop
endfacet
facet normal -0.781831394071626 0.623489912704302 0.0
outer loop
vertex 15.5466355497543 60.6874508672341 0.0
vertex 16.7120475497543 62.1488308672341 12.9
vertex 16.7120475497543 62.1488308672341 0.0
endloop
endfacet
facet normal -0.974927891557787 0.222521024316103 0.0
outer loop
vertex 17.1279785497543 63.9711428672341 12.9
vertex 16.7120475497543 62.1488308672341 0.0
vertex 16.7120475497543 62.1488308672341 12.9
endloop
endfacet
facet normal -0.974927891557787 0.222521024316103 0.0
outer loop
vertex 16.7120475497543 62.1488308672341 0.0
vertex 17.1279785497543 63.9711428672341 12.9
vertex 17.1279785497543 63.9711428672341 0.0
endloop
endfacet
facet normal -0.78183139407163 -0.623489912704296 0.0
outer loop
vertex 15.5466355497543 67.2548348672341 12.9
vertex 16.7120475497543 65.7934548672341 0.0
vertex 16.7120475497543 65.7934548672341 12.9
endloop
endfacet
facet normal -0.78183139407163 -0.623489912704296 0.0
outer loop
vertex 16.7120475497543 65.7934548672341 0.0
vertex 15.5466355497543 67.2548348672341 12.9
vertex 15.5466355497543 67.2548348672341 0.0
endloop
endfacet
facet normal 0.781831394071628 -0.623489912704299 -0.0
outer loop
vertex 39.5703215497543 16.5918348672342 0.0
vertex 38.4049095497543 15.1304548672342 12.9
vertex 38.4049095497543 15.1304548672342 0.0
endloop
endfacet
facet normal 0.781831394071628 -0.623489912704299 -0.0
outer loop
vertex 38.4049095497543 15.1304548672342 12.9
vertex 39.5703215497543 16.5918348672342 0.0
vertex 39.5703215497543 16.5918348672342 12.9
endloop
endfacet
facet normal 1.52561173052789e-019 -0.99144486137381 0.130526192220053
outer loop
vertex 57.2659785497543 29.1591428672342 6.45
vertex 27.1139785497543 29.0194387550193 5.38884191507966
vertex 57.2659785497543 29.0194387550193 5.38884191507966
endloop
endfacet
facet normal 1.52561173052789e-019 -0.99144486137381 0.130526192220053
outer loop
vertex 27.1139785497543 29.0194387550193 5.38884191507966
vertex 57.2659785497543 29.1591428672342 6.45
vertex 27.1139785497543 29.1591428672342 6.45
endloop
endfacet
facet normal -1.60680475738059e-019 0.991444861373811 0.130526192220048
outer loop
vertex 27.1139785497543 20.9591428672342 6.45
vertex 57.2659785497543 21.098846979449 5.38884191507966
vertex 27.1139785497543 21.098846979449 5.38884191507966
endloop
endfacet
facet normal -1.60680475738059e-019 0.991444861373811 0.130526192220048
outer loop
vertex 57.2659785497543 21.098846979449 5.38884191507966
vertex 27.1139785497543 20.9591428672342 6.45
vertex 57.2659785497543 20.9591428672342 6.45
endloop
endfacet
facet normal -0.0 0.60876142900872 0.793353340291236
outer loop
vertex 57.2659785497543 22.1600050643693 3.55086219713515
vertex 27.1139785497543 23.0091428672342 2.8992958444838
vertex 27.1139785497543 22.1600050643693 3.55086219713515
endloop
endfacet
facet normal -0.0 0.60876142900872 0.793353340291236
outer loop
vertex 27.1139785497543 23.0091428672342 2.8992958444838
vertex 57.2659785497543 22.1600050643693 3.55086219713515
vertex 57.2659785497543 23.0091428672342 2.8992958444838
endloop
endfacet
facet normal -0.0 0.923879532511287 -0.382683432365089
outer loop
vertex 27.1139785497543 21.508438711718 8.5
vertex 57.2659785497543 21.098846979449 7.51115808492034
vertex 27.1139785497543 21.098846979449 7.51115808492034
endloop
endfacet
facet normal -0.0 0.923879532511287 -0.382683432365089
outer loop
vertex 57.2659785497543 21.098846979449 7.51115808492034
vertex 27.1139785497543 21.508438711718 8.5
vertex 57.2659785497543 21.508438711718 8.5
endloop
endfacet
facet normal -0.689835583677206 0.398245326276992 0.60458872598756
outer loop
vertex 33.6258153756049 69.1665456907764 4.41866593570586
vertex 18.1943830680713 43.7306883957895 3.56611972849075
vertex 18.7547993773998 43.4071574237904 4.41866590938499
endloop
endfacet
facet normal -0.689835583677206 0.398245326276992 0.60458872598756
outer loop
vertex 18.1943830680713 43.7306883957895 3.56611972849075
vertex 33.6258153756049 69.1665456907764 4.41866593570586
vertex 33.0653990662763 69.4900766627755 3.56611975481162
endloop
endfacet
facet normal -4.7109131832969e-019 0.923879532511286 0.382683432365093
outer loop
vertex 27.1139785497543 21.098846979449 5.38884191507966
vertex 57.2659785497543 21.508438711718 4.4
vertex 27.1139785497543 21.508438711718 4.4
endloop
endfacet
facet normal -4.7109131832969e-019 0.923879532511286 0.382683432365093
outer loop
vertex 57.2659785497543 21.508438711718 4.4
vertex 27.1139785497543 21.098846979449 5.38884191507966
vertex 57.2659785497543 21.098846979449 5.38884191507966
endloop
endfacet
facet normal 0.523599525847852 -0.302276469681577 0.796537803502601
outer loop
vertex 13.9112404157245 46.2033667941779 2.88858429661669
vertex 28.0439151955682 72.3890029184325 3.53568456988865
vertex 13.1728991973632 46.6296146514466 3.53568454356778
endloop
endfacet
facet normal 0.523599525847852 -0.302276469681577 0.796537803502601
outer loop
vertex 28.0439151955682 72.3890029184325 3.53568456988865
vertex 13.9112404157245 46.2033667941779 2.88858429661669
vertex 28.7822564139295 71.9627550611639 2.88858432293755
endloop
endfacet
facet normal 0.684300891694235 -0.395050123808478 0.612917359278868
outer loop
vertex 28.0439151955682 72.3890029184325 3.53568456988865
vertex 12.6047627599746 46.9576024879488 4.38139057274073
vertex 13.1728991973632 46.6296146514466 3.53568454356778
endloop
endfacet
facet normal 0.684300891694235 -0.395050123808478 0.612917359278868
outer loop
vertex 12.6047627599746 46.9576024879488 4.38139057274073
vertex 28.0439151955682 72.3890029184325 3.53568456988865
vertex 27.4757787581796 72.7169907549347 4.3813905990616
endloop
endfacet
facet normal 4.33604933086696e-033 -0.130526192220052 0.99144486137381
outer loop
vertex 57.2659785497543 25.0591428672342 2.35
vertex 27.1139785497543 26.1203009521545 2.48970411221482
vertex 27.1139785497543 25.0591428672342 2.35
endloop
endfacet
facet normal 4.33604933086696e-033 -0.130526192220052 0.99144486137381
outer loop
vertex 27.1139785497543 26.1203009521545 2.48970411221482
vertex 57.2659785497543 25.0591428672342 2.35
vertex 57.2659785497543 26.1203009521545 2.48970411221482
endloop
endfacet
facet normal -0.801847535463078 0.462910353089809 0.377828711023998
outer loop
vertex 33.9760391931629 68.9643598327133 5.40964417793721
vertex 18.7547993773998 43.4071574237904 4.41866590938499
vertex 19.1050231949578 43.2049715657274 5.40964415161634
endloop
endfacet
facet normal -0.801847535463078 0.462910353089809 0.377828711023998
outer loop
vertex 18.7547993773998 43.4071574237904 4.41866590938499
vertex 33.9760391931629 68.9643598327133 5.40964417793721
vertex 33.6258153756049 69.1665456907764 4.41866593570586
endloop
endfacet
facet normal 0.433883788312506 -0.900968844211379 0.0
outer loop
vertex 41.2543905497543 17.4028398672342 12.9
vertex 39.5703215497543 16.5918348672342 0.0
vertex 41.2543905497543 17.4028398672342 0.0
endloop
endfacet
facet normal 0.433883788312506 -0.900968844211379 0.0
outer loop
vertex 39.5703215497543 16.5918348672342 0.0
vertex 41.2543905497543 17.4028398672342 12.9
vertex 39.5703215497543 16.5918348672342 12.9
endloop
endfacet
facet normal 3.23244378770296e-032 -0.923879532511288 0.382683432365088
outer loop
vertex 57.2659785497543 29.0194387550193 5.38884191507966
vertex 27.1139785497543 28.6098470227504 4.4
vertex 57.2659785497543 28.6098470227504 4.4
endloop
endfacet
facet normal 3.23244378770296e-032 -0.923879532511288 0.382683432365088
outer loop
vertex 27.1139785497543 28.6098470227504 4.4
vertex 57.2659785497543 29.0194387550193 5.38884191507966
vertex 27.1139785497543 29.0194387550193 5.38884191507966
endloop
endfacet
facet normal 4.56681379256638e-033 -0.130526192220053 -0.99144486137381
outer loop
vertex 57.2659785497543 26.1203009521545 10.4102958877852
vertex 27.1139785497543 25.0591428672342 10.55
vertex 27.1139785497543 26.1203009521545 10.4102958877852
endloop
endfacet
facet normal 4.56681379256638e-033 -0.130526192220053 -0.99144486137381
outer loop
vertex 27.1139785497543 25.0591428672342 10.55
vertex 57.2659785497543 26.1203009521545 10.4102958877852
vertex 57.2659785497543 25.0591428672342 10.55
endloop
endfacet
facet normal 1.52561173052789e-019 0.99144486137381 -0.130526192220053
outer loop
vertex 27.1139785497543 21.098846979449 7.51115808492034
vertex 57.2659785497543 20.9591428672342 6.45
vertex 27.1139785497543 20.9591428672342 6.45
endloop
endfacet
facet normal 1.52561173052789e-019 0.99144486137381 -0.130526192220053
outer loop
vertex 57.2659785497543 20.9591428672342 6.45
vertex 27.1139785497543 21.098846979449 7.51115808492034
vertex 57.2659785497543 21.098846979449 7.51115808492034
endloop
endfacet
facet normal 0.0 0.130526192220051 -0.99144486137381
outer loop
vertex 57.2659785497543 25.0591428672342 10.55
vertex 27.1139785497543 23.9979847823138 10.4102958877852
vertex 27.1139785497543 25.0591428672342 10.55
endloop
endfacet
facet normal 0.0 0.130526192220051 -0.99144486137381
outer loop
vertex 27.1139785497543 23.9979847823138 10.4102958877852
vertex 57.2659785497543 25.0591428672342 10.55
vertex 57.2659785497543 23.9979847823138 10.4102958877852
endloop
endfacet
facet normal -0.0 0.130526192220052 0.99144486137381
outer loop
vertex 57.2659785497543 23.9979847823138 2.48970411221482
vertex 27.1139785497543 25.0591428672342 2.35
vertex 27.1139785497543 23.9979847823138 2.48970411221482
endloop
endfacet
facet normal -0.0 0.130526192220052 0.99144486137381
outer loop
vertex 27.1139785497543 25.0591428672342 2.35
vertex 57.2659785497543 23.9979847823138 2.48970411221482
vertex 57.2659785497543 25.0591428672342 2.35
endloop
endfacet
facet normal -4.88317287044868e-019 -0.793353340291235 -0.608761429008721
outer loop
vertex 57.2659785497543 27.958280670099 9.34913780286484
vertex 27.1139785497543 28.6098470227504 8.5
vertex 57.2659785497543 28.6098470227504 8.5
endloop
endfacet
facet normal -4.88317287044868e-019 -0.793353340291235 -0.608761429008721
outer loop
vertex 27.1139785497543 28.6098470227504 8.5
vertex 57.2659785497543 27.958280670099 9.34913780286484
vertex 27.1139785497543 27.958280670099 9.34913780286484
endloop
endfacet
facet normal -0.0 0.793353340291237 -0.608761429008718
outer loop
vertex 27.1139785497543 22.1600050643693 9.34913780286485
vertex 57.2659785497543 21.508438711718 8.5
vertex 27.1139785497543 21.508438711718 8.5
endloop
endfacet
facet normal -0.0 0.793353340291237 -0.608761429008718
outer loop
vertex 57.2659785497543 21.508438711718 8.5
vertex 27.1139785497543 22.1600050643693 9.34913780286485
vertex 57.2659785497543 22.1600050643693 9.34913780286485
endloop
endfacet
facet normal 0.0 -0.923879532511286 -0.382683432365092
outer loop
vertex 57.2659785497543 28.6098470227504 8.5
vertex 27.1139785497543 29.0194387550193 7.51115808492033
vertex 57.2659785497543 29.0194387550193 7.51115808492033
endloop
endfacet
facet normal 0.0 -0.923879532511286 -0.382683432365092
outer loop
vertex 27.1139785497543 29.0194387550193 7.51115808492033
vertex 57.2659785497543 28.6098470227504 8.5
vertex 27.1139785497543 28.6098470227504 8.5
endloop
endfacet
facet normal 1.43597680610677e-032 -0.608761429008723 -0.793353340291233
outer loop
vertex 57.2659785497543 27.958280670099 9.34913780286484
vertex 27.1139785497543 27.1091428672342 10.0007041555162
vertex 27.1139785497543 27.958280670099 9.34913780286484
endloop
endfacet
facet normal 1.43597680610677e-032 -0.608761429008723 -0.793353340291233
outer loop
vertex 27.1139785497543 27.1091428672342 10.0007041555162
vertex 57.2659785497543 27.958280670099 9.34913780286484
vertex 57.2659785497543 27.1091428672342 10.0007041555162
endloop
endfacet
facet normal 0.0 -1.0 0.0
outer loop
vertex 43.1235665497543 17.4028398672342 12.9
vertex 41.2543905497543 17.4028398672342 0.0
vertex 43.1235665497543 17.4028398672342 0.0
endloop
endfacet
facet normal 0.0 -1.0 0.0
outer loop
vertex 41.2543905497543 17.4028398672342 0.0
vertex 43.1235665497543 17.4028398672342 12.9
vertex 41.2543905497543 17.4028398672342 12.9
endloop
endfacet
facet normal -0.433883788312504 -0.90096884421138 0.0
outer loop
vertex 44.8076355497543 16.5918348672342 12.9
vertex 43.1235665497543 17.4028398672342 0.0
vertex 44.8076355497543 16.5918348672342 0.0
endloop
endfacet
facet normal -0.433883788312504 -0.90096884421138 0.0
outer loop
vertex 43.1235665497543 17.4028398672342 0.0
vertex 44.8076355497543 16.5918348672342 12.9
vertex 43.1235665497543 17.4028398672342 12.9
endloop
endfacet
facet normal -0.781831394071629 -0.623489912704297 0.0
outer loop
vertex 44.8076355497543 16.5918348672342 12.9
vertex 45.9730475497543 15.1304548672342 0.0
vertex 45.9730475497543 15.1304548672342 12.9
endloop
endfacet
facet normal -0.781831394071629 -0.623489912704297 0.0
outer loop
vertex 45.9730475497543 15.1304548672342 0.0
vertex 44.8076355497543 16.5918348672342 12.9
vertex 44.8076355497543 16.5918348672342 0.0
endloop
endfacet
facet normal -0.974927891557788 -0.222521024316099 0.0
outer loop
vertex 45.9730475497543 15.1304548672342 12.9
vertex 46.3889785497543 13.3081428672342 0.0
vertex 46.3889785497543 13.3081428672342 12.9
endloop
endfacet
facet normal -0.974927891557788 -0.222521024316099 0.0
outer loop
vertex 46.3889785497543 13.3081428672342 0.0
vertex 45.9730475497543 15.1304548672342 12.9
vertex 45.9730475497543 15.1304548672342 0.0
endloop
endfacet
facet normal -0.974927891557788 0.222521024316099 0.0
outer loop
vertex 46.3889785497543 13.3081428672342 12.9
vertex 45.9730475497543 11.4858308672342 0.0
vertex 45.9730475497543 11.4858308672342 12.9
endloop
endfacet
facet normal -0.974927891557788 0.222521024316099 0.0
outer loop
vertex 45.9730475497543 11.4858308672342 0.0
vertex 46.3889785497543 13.3081428672342 12.9
vertex 46.3889785497543 13.3081428672342 0.0
endloop
endfacet
facet normal -2.66239676027292e-033 0.793353340291238 0.608761429008717
outer loop
vertex 27.1139785497543 21.508438711718 4.4
vertex 57.2659785497543 22.1600050643693 3.55086219713515
vertex 27.1139785497543 22.1600050643693 3.55086219713515
endloop
endfacet
facet normal -2.66239676027292e-033 0.793353340291238 0.608761429008717
outer loop
vertex 57.2659785497543 22.1600050643693 3.55086219713515
vertex 27.1139785497543 21.508438711718 4.4
vertex 57.2659785497543 21.508438711718 4.4
endloop
endfacet
facet normal -0.859214902822855 0.496028804335088 0.125320293795603
outer loop
vertex 34.0922033445559 68.8972977206853 6.47152095196657
vertex 19.1050231949578 43.2049715657274 5.40964415161634
vertex 19.2211873463508 43.1379094536994 6.4715209256457
endloop
endfacet
facet normal -0.859214902822855 0.496028804335088 0.125320293795603
outer loop
vertex 19.1050231949578 43.2049715657274 5.40964415161634
vertex 34.0922033445559 68.8972977206853 6.47152095196657
vertex 33.9760391931629 68.9643598327133 5.40964417793721
endloop
endfacet
facet normal -0.781831394071629 0.623489912704297 0.0
outer loop
vertex 45.9730475497543 11.4858308672342 12.9
vertex 44.8076355497543 10.0244508672342 0.0
vertex 44.8076355497543 10.0244508672342 12.9
endloop
endfacet
facet normal -0.781831394071629 0.623489912704297 0.0
outer loop
vertex 44.8076355497543 10.0244508672342 0.0
vertex 45.9730475497543 11.4858308672342 12.9
vertex 45.9730475497543 11.4858308672342 0.0
endloop
endfacet
facet normal 0.0 -0.991444861373811 -0.130526192220048
outer loop
vertex 57.2659785497543 29.0194387550193 7.51115808492033
vertex 27.1139785497543 29.1591428672342 6.45
vertex 57.2659785497543 29.1591428672342 6.45
endloop
endfacet
facet normal 0.0 -0.991444861373811 -0.130526192220048
outer loop
vertex 27.1139785497543 29.1591428672342 6.45
vertex 57.2659785497543 29.0194387550193 7.51115808492033
vertex 27.1139785497543 29.0194387550193 7.51115808492033
endloop
endfacet
facet normal -5.30811109549478e-033 0.382683432365088 -0.923879532511288
outer loop
vertex 57.2659785497543 23.9979847823138 10.4102958877852
vertex 27.1139785497543 23.0091428672342 10.0007041555162
vertex 27.1139785497543 23.9979847823138 10.4102958877852
endloop
endfacet
facet normal -5.30811109549478e-033 0.382683432365088 -0.923879532511288
outer loop
vertex 27.1139785497543 23.0091428672342 10.0007041555162
vertex 57.2659785497543 23.9979847823138 10.4102958877852
vertex 57.2659785497543 23.0091428672342 10.0007041555162
endloop
endfacet
facet normal -0.433883788312504 0.90096884421138 -0.0
outer loop
vertex 43.1235665497543 9.21344586723417 12.9
vertex 44.8076355497543 10.0244508672342 0.0
vertex 43.1235665497543 9.21344586723417 0.0
endloop
endfacet
facet normal -0.433883788312504 0.90096884421138 -0.0
outer loop
vertex 44.8076355497543 10.0244508672342 0.0
vertex 43.1235665497543 9.21344586723417 12.9
vertex 44.8076355497543 10.0244508672342 12.9
endloop
endfacet
facet normal -0.117546643768838 0.0678602292813276 0.990746070302864
outer loop
vertex 16.6074603425667 44.6468263499397 2.49532869518412
vertex 30.5601160858251 70.936388311491 2.35005650844659
vertex 15.6891000876201 45.1770000445051 2.35005648212572
endloop
endfacet
facet normal -0.117546643768838 0.0678602292813276 0.990746070302864
outer loop
vertex 30.5601160858251 70.936388311491 2.35005650844659
vertex 16.6074603425667 44.6468263499397 2.49532869518412
vertex 31.4784763407717 70.4062146169257 2.49532872150499
endloop
endfacet
facet normal -0.0 -0.382683432365091 0.923879532511287
outer loop
vertex 57.2659785497543 26.1203009521545 2.48970411221482
vertex 27.1139785497543 27.1091428672342 2.8992958444838
vertex 27.1139785497543 26.1203009521545 2.48970411221482
endloop
endfacet
facet normal -0.0 -0.382683432365091 0.923879532511287
outer loop
vertex 27.1139785497543 27.1091428672342 2.8992958444838
vertex 57.2659785497543 26.1203009521545 2.48970411221482
vertex 57.2659785497543 27.1091428672342 2.8992958444838
endloop
endfacet
facet normal 0.781831394071628 0.623489912704299 -0.0
outer loop
vertex 38.4049095497543 11.4858308672342 0.0
vertex 39.5703215497543 10.0244508672342 12.9
vertex 39.5703215497543 10.0244508672342 0.0
endloop
endfacet
facet normal 0.781831394071628 0.623489912704299 -0.0
outer loop
vertex 39.5703215497543 10.0244508672342 12.9
vertex 38.4049095497543 11.4858308672342 0.0
vertex 38.4049095497543 11.4858308672342 12.9
endloop
endfacet
facet normal 0.433883788312506 0.900968844211379 -0.0
outer loop
vertex 39.5703215497543 10.0244508672342 12.9
vertex 41.2543905497543 9.21344586723417 0.0
vertex 39.5703215497543 10.0244508672342 0.0
endloop
endfacet
facet normal 0.433883788312506 0.900968844211379 -0.0
outer loop
vertex 41.2543905497543 9.21344586723417 0.0
vertex 39.5703215497543 10.0244508672342 12.9
vertex 41.2543905497543 9.21344586723417 12.9
endloop
endfacet
facet normal -0.0 1.0 -0.0
outer loop
vertex 41.2543905497543 9.21344586723417 12.9
vertex 43.1235665497543 9.21344586723417 0.0
vertex 41.2543905497543 9.21344586723417 0.0
endloop
endfacet
facet normal -0.0 1.0 -0.0
outer loop
vertex 43.1235665497543 9.21344586723417 0.0
vertex 41.2543905497543 9.21344586723417 12.9
vertex 43.1235665497543 9.21344586723417 12.9
endloop
endfacet
facet normal -0.0 0.382683432365091 0.923879532511287
outer loop
vertex 57.2659785497543 23.0091428672342 2.8992958444838
vertex 27.1139785497543 23.9979847823138 2.48970411221482
vertex 27.1139785497543 23.0091428672342 2.8992958444838
endloop
endfacet
facet normal -0.0 0.382683432365091 0.923879532511287
outer loop
vertex 27.1139785497543 23.9979847823138 2.48970411221482
vertex 57.2659785497543 23.0091428672342 2.8992958444838
vertex 57.2659785497543 23.9979847823138 2.48970411221482
endloop
endfacet
facet normal -0.866045111628456 0.499965863459152 0.0
outer loop
vertex 7.90097854975432 73.6291428672341 12.9
vertex 1.91497854975432 63.2601428672341 0.0
vertex 1.91497854975432 63.2601428672341 12.9
endloop
endfacet
facet normal -0.866045111628456 0.499965863459152 0.0
outer loop
vertex 1.91497854975432 63.2601428672341 0.0
vertex 7.90097854975432 73.6291428672341 12.9
vertex 7.90097854975432 73.6291428672341 0.0
endloop
endfacet
facet normal 0.78183139407163 -0.623489912704296 -0.0
outer loop
vertex 10.3093215497543 67.2548348672341 0.0
vertex 9.14390954975432 65.7934548672341 12.9
vertex 9.14390954975432 65.7934548672341 0.0
endloop
endfacet
facet normal 0.78183139407163 -0.623489912704296 -0.0
outer loop
vertex 9.14390954975432 65.7934548672341 12.9
vertex 10.3093215497543 67.2548348672341 0.0
vertex 10.3093215497543 67.2548348672341 12.9
endloop
endfacet
endsolid Frame Vertex
