solid lm8uu pillow
facet normal 0.0 0.0 -1.0
outer loop
vertex -9.75001047420912 4.38750471339367 9.7803222817716
vertex -11.4562623071965 2.19375235669684 9.7803222817716
vertex -11.4562623071965 4.84469342954064 9.7803222817716
endloop
endfacet
facet normal 0.0 0.0 -1.0
outer loop
vertex -11.4562623071965 2.19375235669684 9.7803222817716
vertex -9.75001047420912 4.38750471339367 9.7803222817716
vertex -8.04375864122462 2.19375235669684 9.7803222817716
endloop
endfacet
facet normal 0.0 0.0 -1.0
outer loop
vertex -8.04375864122462 2.19375235669684 9.7803222817716
vertex -9.75001047420912 4.38750471339367 9.7803222817716
vertex -8.04375864122462 4.84469342954064 9.7803222817716
endloop
endfacet
facet normal -0.0 -0.0 1.0
outer loop
vertex -8.04375864122462 2.19375235669684 17.7039592124554
vertex -11.4562623071965 4.84469342954064 17.7039592124554
vertex -11.4562623071965 2.19375235669684 17.7039592124554
endloop
endfacet
facet normal -0.0 -0.0 1.0
outer loop
vertex -11.4562623071965 4.84469342954064 17.7039592124554
vertex -8.04375864122462 2.19375235669684 17.7039592124554
vertex -9.75001047420912 4.38750471339367 17.7039592124554
endloop
endfacet
facet normal -0.0 -0.0 1.0
outer loop
vertex -9.75001047420912 4.38750471339367 17.7039592124554
vertex -8.04375864122462 2.19375235669684 17.7039592124554
vertex -8.04375864122462 4.84469342954064 17.7039592124554
endloop
endfacet
facet normal 0.866025409981218 -8.37944049608301e-018 -0.499999989266864
outer loop
vertex -13.1625141401839 5.30188214568761 20.6592741622803
vertex -11.4562623071965 2.19375235669684 23.6145891121081
vertex -13.1625141401839 2.19375235669684 20.6592741622803
endloop
endfacet
facet normal 0.866025409981218 -8.37944049608301e-018 -0.499999989266864
outer loop
vertex -11.4562623071965 2.19375235669684 23.6145891121081
vertex -13.1625141401839 5.30188214568761 20.6592741622803
vertex -11.4562623071965 4.84469342954064 23.6145891121081
endloop
endfacet
facet normal 0.0 0.0 -1.0
outer loop
vertex -9.75001047420912 4.38750471339367 23.6145891121081
vertex -11.4562623071965 2.19375235669684 23.6145891121081
vertex -11.4562623071965 4.84469342954064 23.6145891121081
endloop
endfacet
facet normal 0.0 0.0 -1.0
outer loop
vertex -11.4562623071965 2.19375235669684 23.6145891121081
vertex -9.75001047420912 4.38750471339367 23.6145891121081
vertex -8.04375864122462 2.19375235669684 23.6145891121081
endloop
endfacet
facet normal 0.0 0.0 -1.0
outer loop
vertex -8.04375864122462 2.19375235669684 23.6145891121081
vertex -9.75001047420912 4.38750471339367 23.6145891121081
vertex -8.04375864122462 4.84469342954064 23.6145891121081
endloop
endfacet
facet normal -0.866025409981218 -8.37944049608301e-018 -0.499999989266864
outer loop
vertex -8.04375864122462 4.84469342954064 23.6145891121081
vertex -6.33750680823723 2.19375235669684 20.6592741622803
vertex -8.04375864122462 2.19375235669684 23.6145891121081
endloop
endfacet
facet normal -0.866025409981218 -8.37944049608301e-018 -0.499999989266864
outer loop
vertex -6.33750680823723 2.19375235669684 20.6592741622803
vertex -8.04375864122462 4.84469342954064 23.6145891121081
vertex -6.33750680823723 5.30188214568761 20.6592741622803
endloop
endfacet
facet normal -0.0 1.0 -0.0
outer loop
vertex -3.66094270786639 15.600016758734 29.2500314226274
vertex 0.0 15.600016758734 0.0
vertex -3.66094270786639 15.600016758734 0.0
endloop
endfacet
facet normal -0.0 1.0 -0.0
outer loop
vertex 0.0 15.600016758734 0.0
vertex -3.66094270786639 15.600016758734 29.2500314226274
vertex 0.0 15.600016758734 29.2500314226274
endloop
endfacet
facet normal -1.0 0.0 0.0
outer loop
vertex -19.5000209484183 15.600016758734 29.2500314226274
vertex -19.5000209484183 0.0 0.0
vertex -19.5000209484183 0.0 29.2500314226274
endloop
endfacet
facet normal -1.0 0.0 0.0
outer loop
vertex -19.5000209484183 0.0 0.0
vertex -19.5000209484183 15.600016758734 29.2500314226274
vertex -19.5000209484183 15.600016758734 0.0
endloop
endfacet
facet normal 0.130526192216338 -0.0 0.991444861374299
outer loop
vertex -9.75001047420912 0.0 18.5787213665327
vertex -10.2884971620924 2.19375235669684 18.649614483908
vertex -10.2884971620924 0.0 18.649614483908
endloop
endfacet
facet normal 0.130526192216338 -0.0 0.991444861374299
outer loop
vertex -10.2884971620924 2.19375235669684 18.649614483908
vertex -9.75001047420912 0.0 18.5787213665327
vertex -9.75001047420912 2.19375235669684 18.5787213665327
endloop
endfacet
facet normal 0.382683432366934 -0.0 0.923879532510523
outer loop
vertex -10.2884971620924 0.0 18.649614483908
vertex -10.7902868720858 2.19375235669684 18.8574625872478
vertex -10.7902868720858 0.0 18.8574625872478
endloop
endfacet
facet normal 0.382683432366934 -0.0 0.923879532510523
outer loop
vertex -10.7902868720858 2.19375235669684 18.8574625872478
vertex -10.2884971620924 0.0 18.649614483908
vertex -10.2884971620924 2.19375235669684 18.649614483908
endloop
endfacet
facet normal 0.608761429010624 -0.0 0.793353340289775
outer loop
vertex -10.7902868720858 0.0 18.8574625872478
vertex -11.2211834647011 2.19375235669684 19.1881011717913
vertex -11.2211834647011 0.0 19.1881011717913
endloop
endfacet
facet normal 0.608761429010624 -0.0 0.793353340289775
outer loop
vertex -11.2211834647011 2.19375235669684 19.1881011717913
vertex -10.7902868720858 0.0 18.8574625872478
vertex -10.7902868720858 2.19375235669684 18.8574625872478
endloop
endfacet
facet normal 0.793353340289775 -0.0 0.608761429010624
outer loop
vertex -11.2211834647011 2.19375235669684 19.1881011717913
vertex -11.5518220492446 0.0 19.6189977644065
vertex -11.2211834647011 0.0 19.1881011717913
endloop
endfacet
facet normal 0.793353340289775 -0.0 0.608761429010624
outer loop
vertex -11.5518220492446 0.0 19.6189977644065
vertex -11.2211834647011 2.19375235669684 19.1881011717913
vertex -11.5518220492446 2.19375235669684 19.6189977644065
endloop
endfacet
facet normal 0.923879532510523 -0.0 0.382683432366934
outer loop
vertex -11.5518220492446 2.19375235669684 19.6189977644065
vertex -11.7596701525843 0.0 20.1207874744
vertex -11.5518220492446 0.0 19.6189977644065
endloop
endfacet
facet normal 0.923879532510523 -0.0 0.382683432366934
outer loop
vertex -11.7596701525843 0.0 20.1207874744
vertex -11.5518220492446 2.19375235669684 19.6189977644065
vertex -11.7596701525843 2.19375235669684 20.1207874744
endloop
endfacet
facet normal 0.991444861374209 -0.0 0.130526192217026
outer loop
vertex -11.7596701525843 2.19375235669684 20.1207874744
vertex -11.8305632699597 0.0 20.6592741622803
vertex -11.7596701525843 0.0 20.1207874744
endloop
endfacet
facet normal 0.991444861374209 -0.0 0.130526192217026
outer loop
vertex -11.8305632699597 0.0 20.6592741622803
vertex -11.7596701525843 2.19375235669684 20.1207874744
vertex -11.8305632699597 2.19375235669684 20.6592741622803
endloop
endfacet
facet normal -0.130526192222252 -0.0 0.991444861373521
outer loop
vertex -9.21152378632878 0.0 4.81534765357437
vertex -9.75001047420912 2.19375235669684 4.74445453619614
vertex -9.75001047420912 0.0 4.74445453619614
endloop
endfacet
facet normal -0.130526192222252 -0.0 0.991444861373521
outer loop
vertex -9.75001047420912 2.19375235669684 4.74445453619614
vertex -9.21152378632878 0.0 4.81534765357437
vertex -9.21152378632878 2.19375235669684 4.81534765357437
endloop
endfacet
facet normal 0.130526192221564 -0.0 0.991444861373611
outer loop
vertex -9.75001047420912 0.0 4.74445453619614
vertex -10.2884971620924 2.19375235669684 4.81534765357437
vertex -10.2884971620924 0.0 4.81534765357437
endloop
endfacet
facet normal 0.130526192221564 -0.0 0.991444861373611
outer loop
vertex -10.2884971620924 2.19375235669684 4.81534765357437
vertex -9.75001047420912 0.0 4.74445453619614
vertex -9.75001047420912 2.19375235669684 4.74445453619614
endloop
endfacet
facet normal 0.382683432366934 -0.0 0.923879532510523
outer loop
vertex -10.2884971620924 0.0 4.81534765357437
vertex -10.7902868720858 2.19375235669684 5.02319575691411
vertex -10.7902868720858 0.0 5.02319575691411
endloop
endfacet
facet normal 0.382683432366934 -0.0 0.923879532510523
outer loop
vertex -10.7902868720858 2.19375235669684 5.02319575691411
vertex -10.2884971620924 0.0 4.81534765357437
vertex -10.2884971620924 2.19375235669684 4.81534765357437
endloop
endfacet
facet normal 0.608761429007277 -0.0 0.793353340292343
outer loop
vertex -10.7902868720858 0.0 5.02319575691411
vertex -11.2211834647011 2.19375235669684 5.35383434145472
vertex -11.2211834647011 0.0 5.35383434145472
endloop
endfacet
facet normal 0.608761429007277 -0.0 0.793353340292343
outer loop
vertex -11.2211834647011 2.19375235669684 5.35383434145472
vertex -10.7902868720858 0.0 5.02319575691411
vertex -10.7902868720858 2.19375235669684 5.02319575691411
endloop
endfacet
facet normal 0.793353340291745 -0.0 0.608761429008056
outer loop
vertex -11.2211834647011 2.19375235669684 5.35383434145472
vertex -11.5518220492446 0.0 5.78473093407285
vertex -11.2211834647011 0.0 5.35383434145472
endloop
endfacet
facet normal 0.793353340291745 -0.0 0.608761429008056
outer loop
vertex -11.5518220492446 0.0 5.78473093407285
vertex -11.2211834647011 2.19375235669684 5.35383434145472
vertex -11.5518220492446 2.19375235669684 5.78473093407285
endloop
endfacet
facet normal 0.923879532510523 -0.0 0.382683432366934
outer loop
vertex -11.5518220492446 2.19375235669684 5.78473093407285
vertex -11.7596701525843 0.0 6.28652064406633
vertex -11.5518220492446 0.0 5.78473093407285
endloop
endfacet
facet normal 0.923879532510523 -0.0 0.382683432366934
outer loop
vertex -11.7596701525843 0.0 6.28652064406633
vertex -11.5518220492446 2.19375235669684 5.78473093407285
vertex -11.7596701525843 2.19375235669684 6.28652064406633
endloop
endfacet
facet normal 0.991444861374209 -0.0 0.130526192217026
outer loop
vertex -11.7596701525843 2.19375235669684 6.28652064406633
vertex -11.8305632699597 0.0 6.82500733194668
vertex -11.7596701525843 0.0 6.28652064406633
endloop
endfacet
facet normal 0.991444861374209 -0.0 0.130526192217026
outer loop
vertex -11.8305632699597 0.0 6.82500733194668
vertex -11.7596701525843 2.19375235669684 6.28652064406633
vertex -11.8305632699597 2.19375235669684 6.82500733194668
endloop
endfacet
facet normal 0.991444861374299 -0.0 -0.130526192216338
outer loop
vertex -11.8305632699597 2.19375235669684 6.82500733194668
vertex -11.7596701525843 0.0 7.36349401982991
vertex -11.8305632699597 0.0 6.82500733194668
endloop
endfacet
facet normal 0.991444861374299 -0.0 -0.130526192216338
outer loop
vertex -11.7596701525843 0.0 7.36349401982991
vertex -11.8305632699597 2.19375235669684 6.82500733194668
vertex -11.7596701525843 2.19375235669684 7.36349401982991
endloop
endfacet
facet normal 0.923879532510523 -0.0 -0.382683432366934
outer loop
vertex -11.7596701525843 2.19375235669684 7.36349401982991
vertex -11.5518220492446 0.0 7.86528372982339
vertex -11.7596701525843 0.0 7.36349401982991
endloop
endfacet
facet normal 0.923879532510523 -0.0 -0.382683432366934
outer loop
vertex -11.5518220492446 0.0 7.86528372982339
vertex -11.7596701525843 2.19375235669684 7.36349401982991
vertex -11.5518220492446 2.19375235669684 7.86528372982339
endloop
endfacet
facet normal 0.793353340289775 -0.0 -0.608761429010624
outer loop
vertex -11.5518220492446 2.19375235669684 7.86528372982339
vertex -11.2211834647011 0.0 8.29618032243864
vertex -11.5518220492446 0.0 7.86528372982339
endloop
endfacet
facet normal 0.793353340289775 -0.0 -0.608761429010624
outer loop
vertex -11.2211834647011 0.0 8.29618032243864
vertex -11.5518220492446 2.19375235669684 7.86528372982339
vertex -11.2211834647011 2.19375235669684 8.29618032243864
endloop
endfacet
facet normal 0.608761429010624 0.0 -0.793353340289775
outer loop
vertex -10.7902868720858 2.19375235669684 8.62681890698213
vertex -11.2211834647011 0.0 8.29618032243864
vertex -11.2211834647011 2.19375235669684 8.29618032243864
endloop
endfacet
facet normal 0.608761429010624 0.0 -0.793353340289775
outer loop
vertex -11.2211834647011 0.0 8.29618032243864
vertex -10.7902868720858 2.19375235669684 8.62681890698213
vertex -10.7902868720858 0.0 8.62681890698213
endloop
endfacet
facet normal 0.382683432362396 0.0 -0.923879532512403
outer loop
vertex -10.2884971620924 2.19375235669684 8.83466701031898
vertex -10.7902868720858 0.0 8.62681890698213
vertex -10.7902868720858 2.19375235669684 8.62681890698213
endloop
endfacet
facet normal 0.382683432362396 0.0 -0.923879532512403
outer loop
vertex -10.7902868720858 0.0 8.62681890698213
vertex -10.2884971620924 2.19375235669684 8.83466701031898
vertex -10.2884971620924 0.0 8.83466701031898
endloop
endfacet
facet normal 0.130526192221564 0.0 -0.991444861373611
outer loop
vertex -9.75001047420912 2.19375235669684 8.90556012769721
vertex -10.2884971620924 0.0 8.83466701031898
vertex -10.2884971620924 2.19375235669684 8.83466701031898
endloop
endfacet
facet normal 0.130526192221564 0.0 -0.991444861373611
outer loop
vertex -10.2884971620924 0.0 8.83466701031898
vertex -9.75001047420912 2.19375235669684 8.90556012769721
vertex -9.75001047420912 0.0 8.90556012769721
endloop
endfacet
facet normal -0.130526192222252 0.0 -0.991444861373521
outer loop
vertex -9.21152378632878 2.19375235669684 8.83466701031898
vertex -9.75001047420912 0.0 8.90556012769721
vertex -9.75001047420912 2.19375235669684 8.90556012769721
endloop
endfacet
facet normal -0.130526192222252 0.0 -0.991444861373521
outer loop
vertex -9.75001047420912 0.0 8.90556012769721
vertex -9.21152378632878 2.19375235669684 8.83466701031898
vertex -9.21152378632878 0.0 8.83466701031898
endloop
endfacet
facet normal -0.382683432362396 0.0 -0.923879532512403
outer loop
vertex -8.7097340763353 2.19375235669684 8.62681890698213
vertex -9.21152378632878 0.0 8.83466701031898
vertex -9.21152378632878 2.19375235669684 8.83466701031898
endloop
endfacet
facet normal -0.382683432362396 0.0 -0.923879532512403
outer loop
vertex -9.21152378632878 0.0 8.83466701031898
vertex -8.7097340763353 2.19375235669684 8.62681890698213
vertex -8.7097340763353 0.0 8.62681890698213
endloop
endfacet
facet normal -0.608761429010624 0.0 -0.793353340289775
outer loop
vertex -8.27883748372005 2.19375235669684 8.29618032243864
vertex -8.7097340763353 0.0 8.62681890698213
vertex -8.7097340763353 2.19375235669684 8.62681890698213
endloop
endfacet
facet normal -0.608761429010624 0.0 -0.793353340289775
outer loop
vertex -8.7097340763353 0.0 8.62681890698213
vertex -8.27883748372005 2.19375235669684 8.29618032243864
vertex -8.27883748372005 0.0 8.29618032243864
endloop
endfacet
facet normal -0.793353340289775 0.0 -0.608761429010624
outer loop
vertex -8.27883748372005 2.19375235669684 8.29618032243864
vertex -7.94819889917655 0.0 7.86528372982339
vertex -8.27883748372005 0.0 8.29618032243864
endloop
endfacet
facet normal -0.793353340289775 0.0 -0.608761429010624
outer loop
vertex -7.94819889917655 0.0 7.86528372982339
vertex -8.27883748372005 2.19375235669684 8.29618032243864
vertex -7.94819889917655 2.19375235669684 7.86528372982339
endloop
endfacet
facet normal -0.923879532510523 0.0 -0.382683432366934
outer loop
vertex -7.94819889917655 2.19375235669684 7.86528372982339
vertex -7.74035079583682 0.0 7.36349401982991
vertex -7.94819889917655 0.0 7.86528372982339
endloop
endfacet
facet normal -0.923879532510523 0.0 -0.382683432366934
outer loop
vertex -7.74035079583682 0.0 7.36349401982991
vertex -7.94819889917655 2.19375235669684 7.86528372982339
vertex -7.74035079583682 2.19375235669684 7.36349401982991
endloop
endfacet
facet normal -0.991444861374299 0.0 -0.130526192216338
outer loop
vertex -7.74035079583682 2.19375235669684 7.36349401982991
vertex -7.66945767846148 0.0 6.82500733194668
vertex -7.74035079583682 0.0 7.36349401982991
endloop
endfacet
facet normal -0.991444861374299 0.0 -0.130526192216338
outer loop
vertex -7.66945767846148 0.0 6.82500733194668
vertex -7.74035079583682 2.19375235669684 7.36349401982991
vertex -7.66945767846148 2.19375235669684 6.82500733194668
endloop
endfacet
facet normal -0.991444861374209 0.0 0.130526192217026
outer loop
vertex -7.66945767846148 2.19375235669684 6.82500733194668
vertex -7.74035079583682 0.0 6.28652064406633
vertex -7.66945767846148 0.0 6.82500733194668
endloop
endfacet
facet normal -0.991444861374209 0.0 0.130526192217026
outer loop
vertex -7.74035079583682 0.0 6.28652064406633
vertex -7.66945767846148 2.19375235669684 6.82500733194668
vertex -7.74035079583682 2.19375235669684 6.28652064406633
endloop
endfacet
facet normal -0.923879532510523 0.0 0.382683432366934
outer loop
vertex -7.74035079583682 2.19375235669684 6.28652064406633
vertex -7.94819889917655 0.0 5.78473093407285
vertex -7.74035079583682 0.0 6.28652064406633
endloop
endfacet
facet normal -0.923879532510523 0.0 0.382683432366934
outer loop
vertex -7.94819889917655 0.0 5.78473093407285
vertex -7.74035079583682 2.19375235669684 6.28652064406633
vertex -7.94819889917655 2.19375235669684 5.78473093407285
endloop
endfacet
facet normal -0.793353340291745 0.0 0.608761429008056
outer loop
vertex -7.94819889917655 2.19375235669684 5.78473093407285
vertex -8.27883748372005 0.0 5.35383434145472
vertex -7.94819889917655 0.0 5.78473093407285
endloop
endfacet
facet normal -0.793353340291745 0.0 0.608761429008056
outer loop
vertex -8.27883748372005 0.0 5.35383434145472
vertex -7.94819889917655 2.19375235669684 5.78473093407285
vertex -8.27883748372005 2.19375235669684 5.35383434145472
endloop
endfacet
facet normal -0.608761429007277 -0.0 0.793353340292343
outer loop
vertex -8.27883748372005 0.0 5.35383434145472
vertex -8.7097340763353 2.19375235669684 5.02319575691411
vertex -8.7097340763353 0.0 5.02319575691411
endloop
endfacet
facet normal -0.608761429007277 -0.0 0.793353340292343
outer loop
vertex -8.7097340763353 2.19375235669684 5.02319575691411
vertex -8.27883748372005 0.0 5.35383434145472
vertex -8.27883748372005 2.19375235669684 5.35383434145472
endloop
endfacet
facet normal -0.382683432366934 -0.0 0.923879532510523
outer loop
vertex -8.7097340763353 0.0 5.02319575691411
vertex -9.21152378632878 2.19375235669684 4.81534765357437
vertex -9.21152378632878 0.0 4.81534765357437
endloop
endfacet
facet normal -0.382683432366934 -0.0 0.923879532510523
outer loop
vertex -9.21152378632878 2.19375235669684 4.81534765357437
vertex -8.7097340763353 0.0 5.02319575691411
vertex -8.7097340763353 2.19375235669684 5.02319575691411
endloop
endfacet
facet normal -0.130526192217026 -0.0 0.991444861374209
outer loop
vertex -9.21152378632878 0.0 18.649614483908
vertex -9.75001047420912 2.19375235669684 18.5787213665327
vertex -9.75001047420912 0.0 18.5787213665327
endloop
endfacet
facet normal -0.130526192217026 -0.0 0.991444861374209
outer loop
vertex -9.75001047420912 2.19375235669684 18.5787213665327
vertex -9.21152378632878 0.0 18.649614483908
vertex -9.21152378632878 2.19375235669684 18.649614483908
endloop
endfacet
facet normal -0.866025409981006 0.0 0.49999998926723
outer loop
vertex -6.33750680823723 5.30188214568761 6.82500733194668
vertex -8.04375864122462 2.19375235669684 3.86969238212175
vertex -6.33750680823723 2.19375235669684 6.82500733194668
endloop
endfacet
facet normal -0.866025409981006 0.0 0.49999998926723
outer loop
vertex -8.04375864122462 2.19375235669684 3.86969238212175
vertex -6.33750680823723 5.30188214568761 6.82500733194668
vertex -8.04375864122462 4.84469342954064 3.86969238212175
endloop
endfacet
facet normal 0.866025409981006 -0.0 0.49999998926723
outer loop
vertex -11.4562623071965 4.84469342954064 3.86969238212175
vertex -13.1625141401839 2.19375235669684 6.82500733194668
vertex -11.4562623071965 2.19375235669684 3.86969238212175
endloop
endfacet
facet normal 0.866025409981006 -0.0 0.49999998926723
outer loop
vertex -13.1625141401839 2.19375235669684 6.82500733194668
vertex -11.4562623071965 4.84469342954064 3.86969238212175
vertex -13.1625141401839 5.30188214568761 6.82500733194668
endloop
endfacet
facet normal -0.382683432366934 -0.0 0.923879532510523
outer loop
vertex -8.7097340763353 0.0 18.8574625872478
vertex -9.21152378632878 2.19375235669684 18.649614483908
vertex -9.21152378632878 0.0 18.649614483908
endloop
endfacet
facet normal -0.382683432366934 -0.0 0.923879532510523
outer loop
vertex -9.21152378632878 2.19375235669684 18.649614483908
vertex -8.7097340763353 0.0 18.8574625872478
vertex -8.7097340763353 2.19375235669684 18.8574625872478
endloop
endfacet
facet normal -0.608761429010624 -0.0 0.793353340289775
outer loop
vertex -8.27883748372005 0.0 19.1881011717913
vertex -8.7097340763353 2.19375235669684 18.8574625872478
vertex -8.7097340763353 0.0 18.8574625872478
endloop
endfacet
facet normal -0.608761429010624 -0.0 0.793353340289775
outer loop
vertex -8.7097340763353 2.19375235669684 18.8574625872478
vertex -8.27883748372005 0.0 19.1881011717913
vertex -8.27883748372005 2.19375235669684 19.1881011717913
endloop
endfacet
facet normal -0.866025409981006 1.67588809921947e-017 -0.49999998926723
outer loop
vertex -8.04375864122462 4.84469342954064 9.7803222817716
vertex -6.33750680823723 2.19375235669684 6.82500733194668
vertex -8.04375864122462 2.19375235669684 9.7803222817716
endloop
endfacet
facet normal -0.866025409981006 1.67588809921947e-017 -0.49999998926723
outer loop
vertex -6.33750680823723 2.19375235669684 6.82500733194668
vertex -8.04375864122462 4.84469342954064 9.7803222817716
vertex -6.33750680823723 5.30188214568761 6.82500733194668
endloop
endfacet
facet normal -0.866025409981006 0.0 0.49999998926723
outer loop
vertex -6.33750680823723 5.30188214568761 20.6592741622803
vertex -8.04375864122462 2.19375235669684 17.7039592124554
vertex -6.33750680823723 2.19375235669684 20.6592741622803
endloop
endfacet
facet normal -0.866025409981006 0.0 0.49999998926723
outer loop
vertex -8.04375864122462 2.19375235669684 17.7039592124554
vertex -6.33750680823723 5.30188214568761 20.6592741622803
vertex -8.04375864122462 4.84469342954064 17.7039592124554
endloop
endfacet
facet normal 0.965925856658698 0.258818931761491 -0.0
outer loop
vertex -17.0625183298681 11.7000125690498 0.0
vertex -16.082828502408 8.04375864122173 29.2500314226274
vertex -16.082828502408 8.04375864122173 0.0
endloop
endfacet
facet normal 0.965925856658698 0.258818931761491 -0.0
outer loop
vertex -16.082828502408 8.04375864122173 29.2500314226274
vertex -17.0625183298681 11.7000125690498 0.0
vertex -17.0625183298681 11.7000125690498 29.2500314226274
endloop
endfacet
facet normal 0.965925856658698 -0.258818931761491 -0.0
outer loop
vertex -16.082828502408 15.3562664968779 0.0
vertex -17.0625183298681 11.7000125690498 29.2500314226274
vertex -17.0625183298681 11.7000125690498 0.0
endloop
endfacet
facet normal 0.965925856658698 -0.258818931761491 -0.0
outer loop
vertex -17.0625183298681 11.7000125690498 29.2500314226274
vertex -16.082828502408 15.3562664968779 0.0
vertex -16.082828502408 15.3562664968779 29.2500314226274
endloop
endfacet
facet normal 0.707106781190736 -0.707106781182359 4.59778429806403e-019
outer loop
vertex -15.8390782405547 15.600016758734 29.2500314226274
vertex -16.082828502408 15.3562664968779 29.2500314226274
vertex -16.082828502408 15.3562664968779 0.0
endloop
endfacet
facet normal 0.707106781190736 -0.707106781182359 -0.0
outer loop
vertex -15.8390782405547 15.600016758734 29.2500314226274
vertex -16.082828502408 15.3562664968779 0.0
vertex -15.8390782405547 15.600016758734 0.0
endloop
endfacet
facet normal -0.0 1.0 -0.0
outer loop
vertex -19.5000209484183 15.600016758734 29.2500314226274
vertex -15.8390782405547 15.600016758734 0.0
vertex -19.5000209484183 15.600016758734 0.0
endloop
endfacet
facet normal -0.0 1.0 -0.0
outer loop
vertex -15.8390782405547 15.600016758734 0.0
vertex -19.5000209484183 15.600016758734 29.2500314226274
vertex -15.8390782405547 15.600016758734 29.2500314226274
endloop
endfacet
facet normal -0.707106781186548 -0.707106781186548 0.0
outer loop
vertex -3.66094270786639 15.600016758734 0.0
vertex -3.41719244601022 15.3562664968779 0.0
vertex -3.66094270786639 15.600016758734 29.2500314226274
endloop
endfacet
facet normal -0.707106781186548 -0.707106781186548 0.0
outer loop
vertex -3.66094270786639 15.600016758734 29.2500314226274
vertex -3.41719244601022 15.3562664968779 0.0
vertex -3.41719244601022 15.3562664968779 29.2500314226274
endloop
endfacet
facet normal -0.965925856658889 -0.25881893176078 0.0
outer loop
vertex -3.41719244601022 15.3562664968779 29.2500314226274
vertex -2.437502618553 11.7000125690498 0.0
vertex -2.437502618553 11.7000125690498 29.2500314226274
endloop
endfacet
facet normal -0.965925856658889 -0.25881893176078 0.0
outer loop
vertex -2.437502618553 11.7000125690498 0.0
vertex -3.41719244601022 15.3562664968779 29.2500314226274
vertex -3.41719244601022 15.3562664968779 0.0
endloop
endfacet
facet normal -0.965925856658889 0.25881893176078 0.0
outer loop
vertex -2.437502618553 11.7000125690498 29.2500314226274
vertex -3.41719244601022 8.04375864122173 0.0
vertex -3.41719244601022 8.04375864122173 29.2500314226274
endloop
endfacet
facet normal -0.965925856658889 0.25881893176078 0.0
outer loop
vertex -3.41719244601022 8.04375864122173 0.0
vertex -2.437502618553 11.7000125690498 29.2500314226274
vertex -2.437502618553 11.7000125690498 0.0
endloop
endfacet
facet normal -0.707106781187248 0.707106781185847 0.0
outer loop
vertex -4.63594375528817 6.82500733194668 26.5687785422211
vertex -6.09375654638106 5.36719454085089 2.68125288040917
vertex -6.09375654638106 5.36719454085089 26.5687785422211
endloop
endfacet
facet normal -0.707106781187248 0.707106781185847 0.0
outer loop
vertex -6.09375654638106 5.36719454085089 2.68125288040917
vertex -4.63594375528817 6.82500733194668 26.5687785422211
vertex -4.63594375528817 6.82500733194668 2.68125288040917
endloop
endfacet
facet normal -0.70710678118571 0.707106781187385 6.93659031353322e-019
outer loop
vertex -4.63594375528817 6.82500733194668 2.68125288040917
vertex -3.41719244601022 8.04375864122173 0.0
vertex -4.63594375528817 6.82500733194668 0.0
endloop
endfacet
facet normal -0.70710678118571 0.707106781187385 6.93659031353322e-019
outer loop
vertex -3.41719244601022 8.04375864122173 0.0
vertex -4.63594375528817 6.82500733194668 2.68125288040917
vertex -3.41719244601022 8.04375864122173 29.2500314226274
endloop
endfacet
facet normal -0.70710678118571 0.707106781187385 6.93659031353322e-019
outer loop
vertex -3.41719244601022 8.04375864122173 29.2500314226274
vertex -4.63594375528817 6.82500733194668 2.68125288040917
vertex -4.63594375528817 6.82500733194668 26.5687785422211
endloop
endfacet
facet normal -0.70710678118571 0.707106781187385 6.93659031353322e-019
outer loop
vertex -3.41719244601022 8.04375864122173 29.2500314226274
vertex -4.63594375528817 6.82500733194668 26.5687785422211
vertex -4.63594375528817 6.82500733194668 29.2500314226274
endloop
endfacet
facet normal 0.0 -1.0 0.0
outer loop
vertex 0.0 0.0 0.0
vertex -8.7097340763353 0.0 5.02319575691411
vertex -19.5000209484183 0.0 0.0
endloop
endfacet
facet normal 0.0 -1.0 0.0
outer loop
vertex -8.7097340763353 0.0 5.02319575691411
vertex 0.0 0.0 0.0
vertex -8.27883748372005 0.0 5.35383434145472
endloop
endfacet
facet normal 0.0 -1.0 0.0
outer loop
vertex -8.27883748372005 0.0 5.35383434145472
vertex 0.0 0.0 0.0
vertex -7.94819889917655 0.0 5.78473093407285
endloop
endfacet
facet normal 0.0 -1.0 0.0
outer loop
vertex -7.94819889917655 0.0 5.78473093407285
vertex 0.0 0.0 0.0
vertex -7.74035079583682 0.0 6.28652064406633
endloop
endfacet
facet normal 0.0 -1.0 0.0
outer loop
vertex -7.74035079583682 0.0 6.28652064406633
vertex 0.0 0.0 0.0
vertex 0.0 0.0 29.2500314226274
endloop
endfacet
facet normal 0.0 -1.0 0.0
outer loop
vertex -19.5000209484183 0.0 0.0
vertex -8.7097340763353 0.0 5.02319575691411
vertex -9.21152378632878 0.0 4.81534765357437
endloop
endfacet
facet normal 0.0 -1.0 0.0
outer loop
vertex -19.5000209484183 0.0 0.0
vertex -9.21152378632878 0.0 4.81534765357437
vertex -9.75001047420912 0.0 4.74445453619614
endloop
endfacet
facet normal 0.0 -1.0 0.0
outer loop
vertex -7.74035079583682 0.0 6.28652064406633
vertex 0.0 0.0 29.2500314226274
vertex -7.66945767846148 0.0 6.82500733194668
endloop
endfacet
facet normal 0.0 -1.0 0.0
outer loop
vertex -7.66945767846148 0.0 6.82500733194668
vertex 0.0 0.0 29.2500314226274
vertex -7.74035079583682 0.0 7.36349401982991
endloop
endfacet
facet normal 0.0 -1.0 0.0
outer loop
vertex -7.74035079583682 0.0 7.36349401982991
vertex 0.0 0.0 29.2500314226274
vertex -7.94819889917655 0.0 7.86528372982339
endloop
endfacet
facet normal 0.0 -1.0 0.0
outer loop
vertex -7.94819889917655 0.0 7.86528372982339
vertex 0.0 0.0 29.2500314226274
vertex -8.27883748372005 0.0 8.29618032243864
endloop
endfacet
facet normal 0.0 -1.0 0.0
outer loop
vertex -8.27883748372005 0.0 8.29618032243864
vertex 0.0 0.0 29.2500314226274
vertex -8.7097340763353 0.0 8.62681890698213
endloop
endfacet
facet normal 0.0 -1.0 0.0
outer loop
vertex -8.7097340763353 0.0 8.62681890698213
vertex 0.0 0.0 29.2500314226274
vertex -9.21152378632878 0.0 8.83466701031898
endloop
endfacet
facet normal 0.0 -1.0 0.0
outer loop
vertex -9.21152378632878 0.0 8.83466701031898
vertex 0.0 0.0 29.2500314226274
vertex -9.75001047420912 0.0 8.90556012769721
endloop
endfacet
facet normal 0.0 -1.0 0.0
outer loop
vertex -9.75001047420912 0.0 8.90556012769721
vertex 0.0 0.0 29.2500314226274
vertex -8.27883748372005 0.0 19.1881011717913
endloop
endfacet
facet normal 0.0 -1.0 0.0
outer loop
vertex -9.75001047420912 0.0 8.90556012769721
vertex -8.27883748372005 0.0 19.1881011717913
vertex -8.7097340763353 0.0 18.8574625872478
endloop
endfacet
facet normal 0.0 -1.0 0.0
outer loop
vertex -9.75001047420912 0.0 8.90556012769721
vertex -8.7097340763353 0.0 18.8574625872478
vertex -9.21152378632878 0.0 18.649614483908
endloop
endfacet
facet normal 0.0 -1.0 0.0
outer loop
vertex -9.75001047420912 0.0 8.90556012769721
vertex -9.21152378632878 0.0 18.649614483908
vertex -9.75001047420912 0.0 18.5787213665327
endloop
endfacet
facet normal 0.0 -1.0 0.0
outer loop
vertex -8.27883748372005 0.0 19.1881011717913
vertex 0.0 0.0 29.2500314226274
vertex -7.94819889917655 0.0 19.6189977644065
endloop
endfacet
facet normal 0.0 -1.0 0.0
outer loop
vertex -7.94819889917655 0.0 19.6189977644065
vertex 0.0 0.0 29.2500314226274
vertex -7.74035079583682 0.0 20.1207874744
endloop
endfacet
facet normal 0.0 -1.0 0.0
outer loop
vertex -7.74035079583682 0.0 20.1207874744
vertex 0.0 0.0 29.2500314226274
vertex -7.66945767846148 0.0 20.6592741622803
endloop
endfacet
facet normal 0.0 -1.0 0.0
outer loop
vertex -7.66945767846148 0.0 20.6592741622803
vertex 0.0 0.0 29.2500314226274
vertex -7.74035079583682 0.0 21.1977608501636
endloop
endfacet
facet normal 0.0 -1.0 0.0
outer loop
vertex -7.74035079583682 0.0 21.1977608501636
vertex 0.0 0.0 29.2500314226274
vertex -7.94819889917655 0.0 21.699550560157
endloop
endfacet
facet normal 0.0 -1.0 0.0
outer loop
vertex -7.94819889917655 0.0 21.699550560157
vertex 0.0 0.0 29.2500314226274
vertex -8.27883748372005 0.0 22.1304471527723
endloop
endfacet
facet normal 0.0 -1.0 0.0
outer loop
vertex -8.27883748372005 0.0 22.1304471527723
vertex 0.0 0.0 29.2500314226274
vertex -8.7097340763353 0.0 22.4610857373158
endloop
endfacet
facet normal 0.0 -1.0 0.0
outer loop
vertex -8.7097340763353 0.0 22.4610857373158
vertex 0.0 0.0 29.2500314226274
vertex -9.21152378632878 0.0 22.6689338406555
endloop
endfacet
facet normal 0.0 -1.0 0.0
outer loop
vertex -9.21152378632878 0.0 22.6689338406555
vertex 0.0 0.0 29.2500314226274
vertex -9.75001047420912 0.0 22.7398269580309
endloop
endfacet
facet normal 0.0 -1.0 0.0
outer loop
vertex -19.5000209484183 0.0 0.0
vertex -11.7596701525843 0.0 6.28652064406633
vertex -19.5000209484183 0.0 29.2500314226274
endloop
endfacet
facet normal 0.0 -1.0 0.0
outer loop
vertex -11.7596701525843 0.0 6.28652064406633
vertex -19.5000209484183 0.0 0.0
vertex -11.5518220492446 0.0 5.78473093407285
endloop
endfacet
facet normal 0.0 -1.0 0.0
outer loop
vertex -11.5518220492446 0.0 5.78473093407285
vertex -19.5000209484183 0.0 0.0
vertex -11.2211834647011 0.0 5.35383434145472
endloop
endfacet
facet normal 0.0 -1.0 0.0
outer loop
vertex -11.2211834647011 0.0 5.35383434145472
vertex -19.5000209484183 0.0 0.0
vertex -10.7902868720858 0.0 5.02319575691411
endloop
endfacet
facet normal 0.0 -1.0 0.0
outer loop
vertex -10.7902868720858 0.0 5.02319575691411
vertex -19.5000209484183 0.0 0.0
vertex -10.2884971620924 0.0 4.81534765357437
endloop
endfacet
facet normal 0.0 -1.0 0.0
outer loop
vertex -10.2884971620924 0.0 4.81534765357437
vertex -19.5000209484183 0.0 0.0
vertex -9.75001047420912 0.0 4.74445453619614
endloop
endfacet
facet normal 0.0 -1.0 0.0
outer loop
vertex -19.5000209484183 0.0 29.2500314226274
vertex -11.7596701525843 0.0 6.28652064406633
vertex -11.8305632699597 0.0 6.82500733194668
endloop
endfacet
facet normal 0.0 -1.0 0.0
outer loop
vertex -19.5000209484183 0.0 29.2500314226274
vertex -11.8305632699597 0.0 6.82500733194668
vertex -11.7596701525843 0.0 7.36349401982991
endloop
endfacet
facet normal 0.0 -1.0 0.0
outer loop
vertex -19.5000209484183 0.0 29.2500314226274
vertex -11.7596701525843 0.0 7.36349401982991
vertex -11.5518220492446 0.0 7.86528372982339
endloop
endfacet
facet normal 0.0 -1.0 0.0
outer loop
vertex -19.5000209484183 0.0 29.2500314226274
vertex -11.5518220492446 0.0 7.86528372982339
vertex -11.2211834647011 0.0 8.29618032243864
endloop
endfacet
facet normal 0.0 -1.0 0.0
outer loop
vertex -19.5000209484183 0.0 29.2500314226274
vertex -11.2211834647011 0.0 8.29618032243864
vertex -10.7902868720858 0.0 8.62681890698213
endloop
endfacet
facet normal 0.0 -1.0 0.0
outer loop
vertex -19.5000209484183 0.0 29.2500314226274
vertex -10.7902868720858 0.0 8.62681890698213
vertex -10.2884971620924 0.0 8.83466701031898
endloop
endfacet
facet normal 0.0 -1.0 0.0
outer loop
vertex -19.5000209484183 0.0 29.2500314226274
vertex -10.2884971620924 0.0 8.83466701031898
vertex -9.75001047420912 0.0 8.90556012769721
endloop
endfacet
facet normal 0.0 -1.0 0.0
outer loop
vertex -19.5000209484183 0.0 29.2500314226274
vertex -9.75001047420912 0.0 8.90556012769721
vertex -11.2211834647011 0.0 19.1881011717913
endloop
endfacet
facet normal 0.0 -1.0 0.0
outer loop
vertex -11.2211834647011 0.0 19.1881011717913
vertex -9.75001047420912 0.0 8.90556012769721
vertex -10.7902868720858 0.0 18.8574625872478
endloop
endfacet
facet normal 0.0 -1.0 0.0
outer loop
vertex -10.7902868720858 0.0 18.8574625872478
vertex -9.75001047420912 0.0 8.90556012769721
vertex -10.2884971620924 0.0 18.649614483908
endloop
endfacet
facet normal 0.0 -1.0 0.0
outer loop
vertex -10.2884971620924 0.0 18.649614483908
vertex -9.75001047420912 0.0 8.90556012769721
vertex -9.75001047420912 0.0 18.5787213665327
endloop
endfacet
facet normal 0.0 -1.0 0.0
outer loop
vertex -19.5000209484183 0.0 29.2500314226274
vertex -11.2211834647011 0.0 19.1881011717913
vertex -11.5518220492446 0.0 19.6189977644065
endloop
endfacet
facet normal 0.0 -1.0 0.0
outer loop
vertex -19.5000209484183 0.0 29.2500314226274
vertex -11.5518220492446 0.0 19.6189977644065
vertex -11.7596701525843 0.0 20.1207874744
endloop
endfacet
facet normal 0.0 -1.0 0.0
outer loop
vertex -19.5000209484183 0.0 29.2500314226274
vertex -11.7596701525843 0.0 20.1207874744
vertex -11.8305632699597 0.0 20.6592741622803
endloop
endfacet
facet normal 0.0 -1.0 0.0
outer loop
vertex -19.5000209484183 0.0 29.2500314226274
vertex -11.8305632699597 0.0 20.6592741622803
vertex -11.7596701525843 0.0 21.1977608501636
endloop
endfacet
facet normal 0.0 -1.0 0.0
outer loop
vertex -19.5000209484183 0.0 29.2500314226274
vertex -11.7596701525843 0.0 21.1977608501636
vertex -11.5518220492446 0.0 21.699550560157
endloop
endfacet
facet normal 0.0 -1.0 0.0
outer loop
vertex -19.5000209484183 0.0 29.2500314226274
vertex -11.5518220492446 0.0 21.699550560157
vertex -11.2211834647011 0.0 22.1304471527723
endloop
endfacet
facet normal 0.0 -1.0 0.0
outer loop
vertex -19.5000209484183 0.0 29.2500314226274
vertex -11.2211834647011 0.0 22.1304471527723
vertex -10.7902868720858 0.0 22.4610857373158
endloop
endfacet
facet normal 0.0 -1.0 0.0
outer loop
vertex -19.5000209484183 0.0 29.2500314226274
vertex -10.7902868720858 0.0 22.4610857373158
vertex -10.2884971620924 0.0 22.6689338406555
endloop
endfacet
facet normal 0.0 -1.0 0.0
outer loop
vertex -19.5000209484183 0.0 29.2500314226274
vertex -10.2884971620924 0.0 22.6689338406555
vertex -9.75001047420912 0.0 22.7398269580309
endloop
endfacet
facet normal 0.0 -1.0 0.0
outer loop
vertex -19.5000209484183 0.0 29.2500314226274
vertex -9.75001047420912 0.0 22.7398269580309
vertex 0.0 0.0 29.2500314226274
endloop
endfacet
facet normal -0.0 -0.0 1.0
outer loop
vertex -19.5000209484183 0.0 29.2500314226274
vertex -16.082828502408 8.04375864122173 29.2500314226274
vertex -19.5000209484183 15.600016758734 29.2500314226274
endloop
endfacet
facet normal -0.0 -0.0 1.0
outer loop
vertex -16.082828502408 8.04375864122173 29.2500314226274
vertex -19.5000209484183 0.0 29.2500314226274
vertex -14.864077193133 6.82500733194668 29.2500314226274
endloop
endfacet
facet normal -0.0 -0.0 1.0
outer loop
vertex -14.864077193133 6.82500733194668 29.2500314226274
vertex -19.5000209484183 0.0 29.2500314226274
vertex 0.0 0.0 29.2500314226274
endloop
endfacet
facet normal -0.0 -0.0 1.0
outer loop
vertex -19.5000209484183 15.600016758734 29.2500314226274
vertex -16.082828502408 8.04375864122173 29.2500314226274
vertex -17.0625183298681 11.7000125690498 29.2500314226274
endloop
endfacet
facet normal -0.0 -0.0 1.0
outer loop
vertex -14.864077193133 6.82500733194668 29.2500314226274
vertex 0.0 0.0 29.2500314226274
vertex -4.63594375528817 6.82500733194668 29.2500314226274
endloop
endfacet
facet normal -0.0 -0.0 1.0
outer loop
vertex -4.63594375528817 6.82500733194668 29.2500314226274
vertex 0.0 0.0 29.2500314226274
vertex -3.41719244601022 8.04375864122173 29.2500314226274
endloop
endfacet
facet normal -0.0 -0.0 1.0
outer loop
vertex -3.41719244601022 8.04375864122173 29.2500314226274
vertex 0.0 0.0 29.2500314226274
vertex -2.437502618553 11.7000125690498 29.2500314226274
endloop
endfacet
facet normal -0.0 -0.0 1.0
outer loop
vertex -3.41719244601022 15.3562664968779 29.2500314226274
vertex 0.0 15.600016758734 29.2500314226274
vertex -3.66094270786639 15.600016758734 29.2500314226274
endloop
endfacet
facet normal -0.0 -0.0 1.0
outer loop
vertex 0.0 15.600016758734 29.2500314226274
vertex -3.41719244601022 15.3562664968779 29.2500314226274
vertex -2.437502618553 11.7000125690498 29.2500314226274
endloop
endfacet
facet normal -0.0 -0.0 1.0
outer loop
vertex 0.0 15.600016758734 29.2500314226274
vertex -2.437502618553 11.7000125690498 29.2500314226274
vertex 0.0 0.0 29.2500314226274
endloop
endfacet
facet normal -0.0 -0.0 1.0
outer loop
vertex -19.5000209484183 15.600016758734 29.2500314226274
vertex -16.082828502408 15.3562664968779 29.2500314226274
vertex -15.8390782405547 15.600016758734 29.2500314226274
endloop
endfacet
facet normal -0.0 -0.0 1.0
outer loop
vertex -16.082828502408 15.3562664968779 29.2500314226274
vertex -19.5000209484183 15.600016758734 29.2500314226274
vertex -17.0625183298681 11.7000125690498 29.2500314226274
endloop
endfacet
facet normal -0.0 1.0 -0.0
outer loop
vertex -14.864077193133 6.82500733194668 2.68125288040917
vertex -4.63594375528817 6.82500733194668 0.0
vertex -14.864077193133 6.82500733194668 0.0
endloop
endfacet
facet normal -0.0 1.0 -0.0
outer loop
vertex -4.63594375528817 6.82500733194668 0.0
vertex -14.864077193133 6.82500733194668 2.68125288040917
vertex -4.63594375528817 6.82500733194668 2.68125288040917
endloop
endfacet
facet normal -0.0 1.0 -0.0
outer loop
vertex -14.864077193133 6.82500733194668 29.2500314226274
vertex -4.63594375528817 6.82500733194668 26.5687785422211
vertex -14.864077193133 6.82500733194668 26.5687785422211
endloop
endfacet
facet normal -0.0 1.0 -0.0
outer loop
vertex -4.63594375528817 6.82500733194668 26.5687785422211
vertex -14.864077193133 6.82500733194668 29.2500314226274
vertex -4.63594375528817 6.82500733194668 29.2500314226274
endloop
endfacet
facet normal 0.707106781186548 0.707106781186548 -0.0
outer loop
vertex -16.082828502408 8.04375864122173 0.0
vertex -14.864077193133 6.82500733194668 2.68125288040917
vertex -14.864077193133 6.82500733194668 0.0
endloop
endfacet
facet normal 0.707106781186548 0.707106781186548 -0.0
outer loop
vertex -14.864077193133 6.82500733194668 2.68125288040917
vertex -16.082828502408 8.04375864122173 0.0
vertex -14.864077193133 6.82500733194668 26.5687785422211
endloop
endfacet
facet normal 0.707106781186548 0.707106781186548 -0.0
outer loop
vertex -14.864077193133 6.82500733194668 26.5687785422211
vertex -16.082828502408 8.04375864122173 0.0
vertex -14.864077193133 6.82500733194668 29.2500314226274
endloop
endfacet
facet normal 0.707106781186548 0.707106781186548 -0.0
outer loop
vertex -14.864077193133 6.82500733194668 29.2500314226274
vertex -16.082828502408 8.04375864122173 0.0
vertex -16.082828502408 8.04375864122173 29.2500314226274
endloop
endfacet
facet normal 0.707106781186548 0.707106781186548 -0.0
outer loop
vertex -14.864077193133 6.82500733194668 2.68125288040917
vertex -13.4062644020372 5.36719454085089 26.5687785422211
vertex -13.4062644020372 5.36719454085089 2.68125288040917
endloop
endfacet
facet normal 0.707106781186548 0.707106781186548 -0.0
outer loop
vertex -13.4062644020372 5.36719454085089 26.5687785422211
vertex -14.864077193133 6.82500733194668 2.68125288040917
vertex -14.864077193133 6.82500733194668 26.5687785422211
endloop
endfacet
facet normal 0.0 0.0 -1.0
outer loop
vertex -4.63594375528817 6.82500733194668 26.5687785422211
vertex -13.4062644020372 5.36719454085089 26.5687785422211
vertex -14.864077193133 6.82500733194668 26.5687785422211
endloop
endfacet
facet normal 0.0 0.0 -1.0
outer loop
vertex -13.4062644020372 5.36719454085089 26.5687785422211
vertex -4.63594375528817 6.82500733194668 26.5687785422211
vertex -9.75001047420912 4.38750471339367 26.5687785422211
endloop
endfacet
facet normal 0.0 0.0 -1.0
outer loop
vertex -9.75001047420912 4.38750471339367 26.5687785422211
vertex -4.63594375528817 6.82500733194668 26.5687785422211
vertex -6.09375654638106 5.36719454085089 26.5687785422211
endloop
endfacet
facet normal -0.0 -0.0 1.0
outer loop
vertex -13.4062644020372 5.36719454085089 2.68125288040917
vertex -4.63594375528817 6.82500733194668 2.68125288040917
vertex -14.864077193133 6.82500733194668 2.68125288040917
endloop
endfacet
facet normal -0.0 -0.0 1.0
outer loop
vertex -4.63594375528817 6.82500733194668 2.68125288040917
vertex -13.4062644020372 5.36719454085089 2.68125288040917
vertex -9.75001047420912 4.38750471339367 2.68125288040917
endloop
endfacet
facet normal -0.0 -0.0 1.0
outer loop
vertex -4.63594375528817 6.82500733194668 2.68125288040917
vertex -9.75001047420912 4.38750471339367 2.68125288040917
vertex -6.09375654638106 5.36719454085089 2.68125288040917
endloop
endfacet
facet normal 1.0 -0.0 -0.0
outer loop
vertex 0.0 15.600016758734 0.0
vertex 0.0 0.0 29.2500314226274
vertex 0.0 0.0 0.0
endloop
endfacet
facet normal 1.0 -0.0 -0.0
outer loop
vertex 0.0 0.0 29.2500314226274
vertex 0.0 15.600016758734 0.0
vertex 0.0 15.600016758734 29.2500314226274
endloop
endfacet
facet normal 0.0 0.0 -1.0
outer loop
vertex -19.5000209484183 15.600016758734 0.0
vertex -17.0625183298681 11.7000125690498 0.0
vertex -19.5000209484183 0.0 0.0
endloop
endfacet
facet normal 0.0 0.0 -1.0
outer loop
vertex -17.0625183298681 11.7000125690498 0.0
vertex -19.5000209484183 15.600016758734 0.0
vertex -16.082828502408 15.3562664968779 0.0
endloop
endfacet
facet normal 0.0 0.0 -1.0
outer loop
vertex -16.082828502408 15.3562664968779 0.0
vertex -19.5000209484183 15.600016758734 0.0
vertex -15.8390782405547 15.600016758734 0.0
endloop
endfacet
facet normal 0.0 0.0 -1.0
outer loop
vertex 0.0 15.600016758734 0.0
vertex -3.41719244601022 15.3562664968779 0.0
vertex -3.66094270786639 15.600016758734 0.0
endloop
endfacet
facet normal 0.0 0.0 -1.0
outer loop
vertex -3.41719244601022 15.3562664968779 0.0
vertex 0.0 15.600016758734 0.0
vertex -2.437502618553 11.7000125690498 0.0
endloop
endfacet
facet normal 0.0 0.0 -1.0
outer loop
vertex -19.5000209484183 0.0 0.0
vertex -14.864077193133 6.82500733194668 0.0
vertex 0.0 0.0 0.0
endloop
endfacet
facet normal 0.0 0.0 -1.0
outer loop
vertex -14.864077193133 6.82500733194668 0.0
vertex -19.5000209484183 0.0 0.0
vertex -16.082828502408 8.04375864122173 0.0
endloop
endfacet
facet normal 0.0 0.0 -1.0
outer loop
vertex -16.082828502408 8.04375864122173 0.0
vertex -19.5000209484183 0.0 0.0
vertex -17.0625183298681 11.7000125690498 0.0
endloop
endfacet
facet normal 0.0 0.0 -1.0
outer loop
vertex 0.0 0.0 0.0
vertex -14.864077193133 6.82500733194668 0.0
vertex -4.63594375528817 6.82500733194668 0.0
endloop
endfacet
facet normal 0.0 0.0 -1.0
outer loop
vertex 0.0 0.0 0.0
vertex -4.63594375528817 6.82500733194668 0.0
vertex -3.41719244601022 8.04375864122173 0.0
endloop
endfacet
facet normal 0.0 0.0 -1.0
outer loop
vertex 0.0 0.0 0.0
vertex -3.41719244601022 8.04375864122173 0.0
vertex -2.437502618553 11.7000125690498 0.0
endloop
endfacet
facet normal 0.0 0.0 -1.0
outer loop
vertex 0.0 0.0 0.0
vertex -2.437502618553 11.7000125690498 0.0
vertex 0.0 15.600016758734 0.0
endloop
endfacet
facet normal -0.25881896463996 0.965925847848943 2.6273267922191e-010
outer loop
vertex -9.75001047420912 4.38750471339367 17.7039592124554
vertex -8.04375864122462 4.84469342954064 9.7803222817716
vertex -9.75001047420912 4.38750471339367 9.7803222817716
endloop
endfacet
facet normal -0.25881896463996 0.965925847848943 2.6273267922191e-010
outer loop
vertex -9.75001047420912 4.38750471339367 26.5687785422211
vertex -8.04375864122462 4.84469342954064 23.6145891121081
vertex -9.75001047420912 4.38750471339367 23.6145891121081
endloop
endfacet
facet normal -0.25881896463996 0.965925847848943 2.6273267922191e-010
outer loop
vertex -9.75001047420912 4.38750471339367 3.86969238212175
vertex -6.09375654638106 5.36719454085089 2.68125288040917
vertex -9.75001047420912 4.38750471339367 2.68125288040917
endloop
endfacet
facet normal -0.25881896463996 0.965925847848943 2.6273267922191e-010
outer loop
vertex -6.09375654638106 5.36719454085089 2.68125288040917
vertex -9.75001047420912 4.38750471339367 3.86969238212175
vertex -8.04375864122462 4.84469342954064 3.86969238212175
endloop
endfacet
facet normal -0.25881896463996 0.965925847848943 2.6273267922191e-010
outer loop
vertex -6.09375654638106 5.36719454085089 2.68125288040917
vertex -8.04375864122462 4.84469342954064 3.86969238212175
vertex -6.33750680823723 5.30188214568761 6.82500733194668
endloop
endfacet
facet normal -0.25881896463996 0.965925847848943 2.6273267922191e-010
outer loop
vertex -6.09375654638106 5.36719454085089 2.68125288040917
vertex -6.33750680823723 5.30188214568761 6.82500733194668
vertex -6.09375654638106 5.36719454085089 26.5687785422211
endloop
endfacet
facet normal -0.25881896463996 0.965925847848943 2.6273267922191e-010
outer loop
vertex -6.09375654638106 5.36719454085089 26.5687785422211
vertex -6.33750680823723 5.30188214568761 6.82500733194668
vertex -6.33750680823723 5.30188214568761 20.6592741622803
endloop
endfacet
facet normal -0.25881896463996 0.965925847848943 2.6273267922191e-010
outer loop
vertex -6.33750680823723 5.30188214568761 20.6592741622803
vertex -6.33750680823723 5.30188214568761 6.82500733194668
vertex -8.04375864122462 4.84469342954064 9.7803222817716
endloop
endfacet
facet normal -0.25881896463996 0.965925847848943 2.6273267922191e-010
outer loop
vertex -6.33750680823723 5.30188214568761 20.6592741622803
vertex -8.04375864122462 4.84469342954064 9.7803222817716
vertex -8.04375864122462 4.84469342954064 17.7039592124554
endloop
endfacet
facet normal -0.25881896463996 0.965925847848943 2.6273267922191e-010
outer loop
vertex -8.04375864122462 4.84469342954064 17.7039592124554
vertex -8.04375864122462 4.84469342954064 9.7803222817716
vertex -9.75001047420912 4.38750471339367 17.7039592124554
endloop
endfacet
facet normal -0.25881896463996 0.965925847848943 2.6273267922191e-010
outer loop
vertex -6.09375654638106 5.36719454085089 26.5687785422211
vertex -6.33750680823723 5.30188214568761 20.6592741622803
vertex -8.04375864122462 4.84469342954064 23.6145891121081
endloop
endfacet
facet normal -0.25881896463996 0.965925847848943 2.6273267922191e-010
outer loop
vertex -6.09375654638106 5.36719454085089 26.5687785422211
vertex -8.04375864122462 4.84469342954064 23.6145891121081
vertex -9.75001047420912 4.38750471339367 26.5687785422211
endloop
endfacet
facet normal 0.258818964639853 0.965925847848972 2.62731549032449e-010
outer loop
vertex -13.4062644020372 5.36719454085089 2.68125288040917
vertex -11.4562623071965 4.84469342954064 3.86969238212175
vertex -9.75001047420912 4.38750471339367 2.68125288040917
endloop
endfacet
facet normal 0.258818964639853 0.965925847848972 2.62731549032449e-010
outer loop
vertex -11.4562623071965 4.84469342954064 3.86969238212175
vertex -13.4062644020372 5.36719454085089 2.68125288040917
vertex -13.1625141401839 5.30188214568761 6.82500733194668
endloop
endfacet
facet normal 0.258818964639853 0.965925847848972 2.62731549032449e-010
outer loop
vertex -13.1625141401839 5.30188214568761 6.82500733194668
vertex -13.4062644020372 5.36719454085089 2.68125288040917
vertex -13.4062644020372 5.36719454085089 26.5687785422211
endloop
endfacet
facet normal 0.258818964639853 0.965925847848972 2.62731549032449e-010
outer loop
vertex -13.1625141401839 5.30188214568761 6.82500733194668
vertex -13.4062644020372 5.36719454085089 26.5687785422211
vertex -13.1625141401839 5.30188214568761 20.6592741622803
endloop
endfacet
facet normal 0.258818964639853 0.965925847848972 2.62731549032449e-010
outer loop
vertex -13.1625141401839 5.30188214568761 6.82500733194668
vertex -13.1625141401839 5.30188214568761 20.6592741622803
vertex -11.4562623071965 4.84469342954064 9.7803222817716
endloop
endfacet
facet normal 0.258818964639853 0.965925847848972 2.62731549032449e-010
outer loop
vertex -11.4562623071965 4.84469342954064 9.7803222817716
vertex -13.1625141401839 5.30188214568761 20.6592741622803
vertex -9.75001047420912 4.38750471339367 9.7803222817716
endloop
endfacet
facet normal 0.258818964639853 0.965925847848972 2.62731549032449e-010
outer loop
vertex -9.75001047420912 4.38750471339367 9.7803222817716
vertex -13.1625141401839 5.30188214568761 20.6592741622803
vertex -11.4562623071965 4.84469342954064 17.7039592124554
endloop
endfacet
facet normal 0.258818964639853 0.965925847848972 2.62731549032449e-010
outer loop
vertex -13.1625141401839 5.30188214568761 20.6592741622803
vertex -13.4062644020372 5.36719454085089 26.5687785422211
vertex -11.4562623071965 4.84469342954064 23.6145891121081
endloop
endfacet
facet normal 0.258818964639853 0.965925847848972 2.62731549032449e-010
outer loop
vertex -11.4562623071965 4.84469342954064 23.6145891121081
vertex -13.4062644020372 5.36719454085089 26.5687785422211
vertex -9.75001047420912 4.38750471339367 23.6145891121081
endloop
endfacet
facet normal 0.258818964639853 0.965925847848972 2.62731549032449e-010
outer loop
vertex -9.75001047420912 4.38750471339367 23.6145891121081
vertex -13.4062644020372 5.36719454085089 26.5687785422211
vertex -9.75001047420912 4.38750471339367 26.5687785422211
endloop
endfacet
facet normal 0.258818964639853 0.965925847848972 2.62731549032449e-010
outer loop
vertex -9.75001047420912 4.38750471339367 17.7039592124554
vertex -9.75001047420912 4.38750471339367 9.7803222817716
vertex -11.4562623071965 4.84469342954064 17.7039592124554
endloop
endfacet
facet normal 0.258818964639853 0.965925847848972 2.62731549032449e-010
outer loop
vertex -9.75001047420912 4.38750471339367 3.86969238212175
vertex -9.75001047420912 4.38750471339367 2.68125288040917
vertex -11.4562623071965 4.84469342954064 3.86969238212175
endloop
endfacet
facet normal 0.866025409981006 -0.0 0.49999998926723
outer loop
vertex -11.4562623071965 4.84469342954064 17.7039592124554
vertex -13.1625141401839 2.19375235669684 20.6592741622803
vertex -11.4562623071965 2.19375235669684 17.7039592124554
endloop
endfacet
facet normal 0.866025409981006 -0.0 0.49999998926723
outer loop
vertex -13.1625141401839 2.19375235669684 20.6592741622803
vertex -11.4562623071965 4.84469342954064 17.7039592124554
vertex -13.1625141401839 5.30188214568761 20.6592741622803
endloop
endfacet
facet normal -0.0 -0.0 1.0
outer loop
vertex -8.04375864122462 2.19375235669684 3.86969238212175
vertex -11.4562623071965 4.84469342954064 3.86969238212175
vertex -11.4562623071965 2.19375235669684 3.86969238212175
endloop
endfacet
facet normal -0.0 -0.0 1.0
outer loop
vertex -11.4562623071965 4.84469342954064 3.86969238212175
vertex -8.04375864122462 2.19375235669684 3.86969238212175
vertex -9.75001047420912 4.38750471339367 3.86969238212175
endloop
endfacet
facet normal -0.0 -0.0 1.0
outer loop
vertex -9.75001047420912 4.38750471339367 3.86969238212175
vertex -8.04375864122462 2.19375235669684 3.86969238212175
vertex -8.04375864122462 4.84469342954064 3.86969238212175
endloop
endfacet
facet normal -0.0 1.0 -0.0
outer loop
vertex -11.4562623071965 2.19375235669684 3.86969238212175
vertex -10.7902868720858 2.19375235669684 5.02319575691411
vertex -8.04375864122462 2.19375235669684 3.86969238212175
endloop
endfacet
facet normal -0.0 1.0 -0.0
outer loop
vertex -10.7902868720858 2.19375235669684 5.02319575691411
vertex -11.4562623071965 2.19375235669684 3.86969238212175
vertex -13.1625141401839 2.19375235669684 6.82500733194668
endloop
endfacet
facet normal -0.0 1.0 -0.0
outer loop
vertex -8.04375864122462 2.19375235669684 3.86969238212175
vertex -10.7902868720858 2.19375235669684 5.02319575691411
vertex -10.2884971620924 2.19375235669684 4.81534765357437
endloop
endfacet
facet normal -0.0 1.0 -0.0
outer loop
vertex -8.04375864122462 2.19375235669684 3.86969238212175
vertex -10.2884971620924 2.19375235669684 4.81534765357437
vertex -9.75001047420912 2.19375235669684 4.74445453619614
endloop
endfacet
facet normal -0.0 1.0 -0.0
outer loop
vertex -10.7902868720858 2.19375235669684 5.02319575691411
vertex -13.1625141401839 2.19375235669684 6.82500733194668
vertex -11.2211834647011 2.19375235669684 5.35383434145472
endloop
endfacet
facet normal -0.0 1.0 -0.0
outer loop
vertex -11.2211834647011 2.19375235669684 5.35383434145472
vertex -13.1625141401839 2.19375235669684 6.82500733194668
vertex -11.5518220492446 2.19375235669684 5.78473093407285
endloop
endfacet
facet normal -0.0 1.0 -0.0
outer loop
vertex -11.5518220492446 2.19375235669684 5.78473093407285
vertex -13.1625141401839 2.19375235669684 6.82500733194668
vertex -11.7596701525843 2.19375235669684 6.28652064406633
endloop
endfacet
facet normal -0.0 1.0 -0.0
outer loop
vertex -11.7596701525843 2.19375235669684 6.28652064406633
vertex -13.1625141401839 2.19375235669684 6.82500733194668
vertex -11.8305632699597 2.19375235669684 6.82500733194668
endloop
endfacet
facet normal -0.0 1.0 -0.0
outer loop
vertex -11.8305632699597 2.19375235669684 6.82500733194668
vertex -13.1625141401839 2.19375235669684 6.82500733194668
vertex -11.4562623071965 2.19375235669684 9.7803222817716
endloop
endfacet
facet normal -0.0 1.0 -0.0
outer loop
vertex -11.8305632699597 2.19375235669684 6.82500733194668
vertex -11.4562623071965 2.19375235669684 9.7803222817716
vertex -11.7596701525843 2.19375235669684 7.36349401982991
endloop
endfacet
facet normal -0.0 1.0 -0.0
outer loop
vertex -11.7596701525843 2.19375235669684 7.36349401982991
vertex -11.4562623071965 2.19375235669684 9.7803222817716
vertex -11.5518220492446 2.19375235669684 7.86528372982339
endloop
endfacet
facet normal -0.0 1.0 -0.0
outer loop
vertex -11.5518220492446 2.19375235669684 7.86528372982339
vertex -11.4562623071965 2.19375235669684 9.7803222817716
vertex -11.2211834647011 2.19375235669684 8.29618032243864
endloop
endfacet
facet normal -0.0 1.0 -0.0
outer loop
vertex -11.2211834647011 2.19375235669684 8.29618032243864
vertex -11.4562623071965 2.19375235669684 9.7803222817716
vertex -10.7902868720858 2.19375235669684 8.62681890698213
endloop
endfacet
facet normal -0.0 1.0 -0.0
outer loop
vertex -10.7902868720858 2.19375235669684 8.62681890698213
vertex -11.4562623071965 2.19375235669684 9.7803222817716
vertex -10.2884971620924 2.19375235669684 8.83466701031898
endloop
endfacet
facet normal -0.0 1.0 -0.0
outer loop
vertex -10.2884971620924 2.19375235669684 8.83466701031898
vertex -11.4562623071965 2.19375235669684 9.7803222817716
vertex -9.75001047420912 2.19375235669684 8.90556012769721
endloop
endfacet
facet normal -0.0 1.0 -0.0
outer loop
vertex -8.04375864122462 2.19375235669684 3.86969238212175
vertex -8.7097340763353 2.19375235669684 5.02319575691411
vertex -6.33750680823723 2.19375235669684 6.82500733194668
endloop
endfacet
facet normal -0.0 1.0 -0.0
outer loop
vertex -8.7097340763353 2.19375235669684 5.02319575691411
vertex -8.04375864122462 2.19375235669684 3.86969238212175
vertex -9.21152378632878 2.19375235669684 4.81534765357437
endloop
endfacet
facet normal -0.0 1.0 -0.0
outer loop
vertex -9.21152378632878 2.19375235669684 4.81534765357437
vertex -8.04375864122462 2.19375235669684 3.86969238212175
vertex -9.75001047420912 2.19375235669684 4.74445453619614
endloop
endfacet
facet normal -0.0 1.0 -0.0
outer loop
vertex -6.33750680823723 2.19375235669684 6.82500733194668
vertex -8.7097340763353 2.19375235669684 5.02319575691411
vertex -8.27883748372005 2.19375235669684 5.35383434145472
endloop
endfacet
facet normal -0.0 1.0 -0.0
outer loop
vertex -6.33750680823723 2.19375235669684 6.82500733194668
vertex -8.27883748372005 2.19375235669684 5.35383434145472
vertex -7.94819889917655 2.19375235669684 5.78473093407285
endloop
endfacet
facet normal -0.0 1.0 -0.0
outer loop
vertex -6.33750680823723 2.19375235669684 6.82500733194668
vertex -7.94819889917655 2.19375235669684 5.78473093407285
vertex -7.74035079583682 2.19375235669684 6.28652064406633
endloop
endfacet
facet normal -0.0 1.0 -0.0
outer loop
vertex -6.33750680823723 2.19375235669684 6.82500733194668
vertex -7.74035079583682 2.19375235669684 6.28652064406633
vertex -7.66945767846148 2.19375235669684 6.82500733194668
endloop
endfacet
facet normal -0.0 1.0 -0.0
outer loop
vertex -6.33750680823723 2.19375235669684 6.82500733194668
vertex -7.66945767846148 2.19375235669684 6.82500733194668
vertex -7.74035079583682 2.19375235669684 7.36349401982991
endloop
endfacet
facet normal -0.0 1.0 -0.0
outer loop
vertex -6.33750680823723 2.19375235669684 6.82500733194668
vertex -7.74035079583682 2.19375235669684 7.36349401982991
vertex -8.04375864122462 2.19375235669684 9.7803222817716
endloop
endfacet
facet normal -0.0 1.0 -0.0
outer loop
vertex -8.04375864122462 2.19375235669684 9.7803222817716
vertex -7.74035079583682 2.19375235669684 7.36349401982991
vertex -7.94819889917655 2.19375235669684 7.86528372982339
endloop
endfacet
facet normal -0.0 1.0 -0.0
outer loop
vertex -8.04375864122462 2.19375235669684 9.7803222817716
vertex -7.94819889917655 2.19375235669684 7.86528372982339
vertex -8.27883748372005 2.19375235669684 8.29618032243864
endloop
endfacet
facet normal -0.0 1.0 -0.0
outer loop
vertex -8.04375864122462 2.19375235669684 9.7803222817716
vertex -8.27883748372005 2.19375235669684 8.29618032243864
vertex -8.7097340763353 2.19375235669684 8.62681890698213
endloop
endfacet
facet normal -0.0 1.0 -0.0
outer loop
vertex -8.04375864122462 2.19375235669684 9.7803222817716
vertex -8.7097340763353 2.19375235669684 8.62681890698213
vertex -9.21152378632878 2.19375235669684 8.83466701031898
endloop
endfacet
facet normal -0.0 1.0 -0.0
outer loop
vertex -8.04375864122462 2.19375235669684 9.7803222817716
vertex -9.21152378632878 2.19375235669684 8.83466701031898
vertex -9.75001047420912 2.19375235669684 8.90556012769721
endloop
endfacet
facet normal -0.0 1.0 -0.0
outer loop
vertex -8.04375864122462 2.19375235669684 9.7803222817716
vertex -9.75001047420912 2.19375235669684 8.90556012769721
vertex -11.4562623071965 2.19375235669684 9.7803222817716
endloop
endfacet
facet normal -0.0 1.0 -0.0
outer loop
vertex -11.4562623071965 2.19375235669684 17.7039592124554
vertex -10.7902868720858 2.19375235669684 18.8574625872478
vertex -8.04375864122462 2.19375235669684 17.7039592124554
endloop
endfacet
facet normal -0.0 1.0 -0.0
outer loop
vertex -10.7902868720858 2.19375235669684 18.8574625872478
vertex -11.4562623071965 2.19375235669684 17.7039592124554
vertex -13.1625141401839 2.19375235669684 20.6592741622803
endloop
endfacet
facet normal -0.0 1.0 -0.0
outer loop
vertex -8.04375864122462 2.19375235669684 17.7039592124554
vertex -10.7902868720858 2.19375235669684 18.8574625872478
vertex -10.2884971620924 2.19375235669684 18.649614483908
endloop
endfacet
facet normal -0.0 1.0 -0.0
outer loop
vertex -8.04375864122462 2.19375235669684 17.7039592124554
vertex -10.2884971620924 2.19375235669684 18.649614483908
vertex -9.75001047420912 2.19375235669684 18.5787213665327
endloop
endfacet
facet normal -0.0 1.0 -0.0
outer loop
vertex -10.7902868720858 2.19375235669684 18.8574625872478
vertex -13.1625141401839 2.19375235669684 20.6592741622803
vertex -11.2211834647011 2.19375235669684 19.1881011717913
endloop
endfacet
facet normal -0.0 1.0 -0.0
outer loop
vertex -11.2211834647011 2.19375235669684 19.1881011717913
vertex -13.1625141401839 2.19375235669684 20.6592741622803
vertex -11.5518220492446 2.19375235669684 19.6189977644065
endloop
endfacet
facet normal -0.0 1.0 -0.0
outer loop
vertex -11.5518220492446 2.19375235669684 19.6189977644065
vertex -13.1625141401839 2.19375235669684 20.6592741622803
vertex -11.7596701525843 2.19375235669684 20.1207874744
endloop
endfacet
facet normal -0.0 1.0 -0.0
outer loop
vertex -11.7596701525843 2.19375235669684 20.1207874744
vertex -13.1625141401839 2.19375235669684 20.6592741622803
vertex -11.8305632699597 2.19375235669684 20.6592741622803
endloop
endfacet
facet normal -0.0 1.0 -0.0
outer loop
vertex -11.8305632699597 2.19375235669684 20.6592741622803
vertex -13.1625141401839 2.19375235669684 20.6592741622803
vertex -11.4562623071965 2.19375235669684 23.6145891121081
endloop
endfacet
facet normal -0.0 1.0 -0.0
outer loop
vertex -11.8305632699597 2.19375235669684 20.6592741622803
vertex -11.4562623071965 2.19375235669684 23.6145891121081
vertex -11.7596701525843 2.19375235669684 21.1977608501636
endloop
endfacet
facet normal -0.0 1.0 -0.0
outer loop
vertex -11.7596701525843 2.19375235669684 21.1977608501636
vertex -11.4562623071965 2.19375235669684 23.6145891121081
vertex -11.5518220492446 2.19375235669684 21.699550560157
endloop
endfacet
facet normal -0.0 1.0 -0.0
outer loop
vertex -11.5518220492446 2.19375235669684 21.699550560157
vertex -11.4562623071965 2.19375235669684 23.6145891121081
vertex -11.2211834647011 2.19375235669684 22.1304471527723
endloop
endfacet
facet normal -0.0 1.0 -0.0
outer loop
vertex -11.2211834647011 2.19375235669684 22.1304471527723
vertex -11.4562623071965 2.19375235669684 23.6145891121081
vertex -10.7902868720858 2.19375235669684 22.4610857373158
endloop
endfacet
facet normal -0.0 1.0 -0.0
outer loop
vertex -10.7902868720858 2.19375235669684 22.4610857373158
vertex -11.4562623071965 2.19375235669684 23.6145891121081
vertex -10.2884971620924 2.19375235669684 22.6689338406555
endloop
endfacet
facet normal -0.0 1.0 -0.0
outer loop
vertex -10.2884971620924 2.19375235669684 22.6689338406555
vertex -11.4562623071965 2.19375235669684 23.6145891121081
vertex -9.75001047420912 2.19375235669684 22.7398269580309
endloop
endfacet
facet normal -0.0 1.0 -0.0
outer loop
vertex -8.04375864122462 2.19375235669684 17.7039592124554
vertex -8.7097340763353 2.19375235669684 18.8574625872478
vertex -6.33750680823723 2.19375235669684 20.6592741622803
endloop
endfacet
facet normal -0.0 1.0 -0.0
outer loop
vertex -8.7097340763353 2.19375235669684 18.8574625872478
vertex -8.04375864122462 2.19375235669684 17.7039592124554
vertex -9.21152378632878 2.19375235669684 18.649614483908
endloop
endfacet
facet normal -0.0 1.0 -0.0
outer loop
vertex -9.21152378632878 2.19375235669684 18.649614483908
vertex -8.04375864122462 2.19375235669684 17.7039592124554
vertex -9.75001047420912 2.19375235669684 18.5787213665327
endloop
endfacet
facet normal -0.0 1.0 -0.0
outer loop
vertex -6.33750680823723 2.19375235669684 20.6592741622803
vertex -8.7097340763353 2.19375235669684 18.8574625872478
vertex -8.27883748372005 2.19375235669684 19.1881011717913
endloop
endfacet
facet normal -0.0 1.0 -0.0
outer loop
vertex -6.33750680823723 2.19375235669684 20.6592741622803
vertex -8.27883748372005 2.19375235669684 19.1881011717913
vertex -7.94819889917655 2.19375235669684 19.6189977644065
endloop
endfacet
facet normal -0.0 1.0 -0.0
outer loop
vertex -6.33750680823723 2.19375235669684 20.6592741622803
vertex -7.94819889917655 2.19375235669684 19.6189977644065
vertex -7.74035079583682 2.19375235669684 20.1207874744
endloop
endfacet
facet normal -0.0 1.0 -0.0
outer loop
vertex -6.33750680823723 2.19375235669684 20.6592741622803
vertex -7.74035079583682 2.19375235669684 20.1207874744
vertex -7.66945767846148 2.19375235669684 20.6592741622803
endloop
endfacet
facet normal -0.0 1.0 -0.0
outer loop
vertex -6.33750680823723 2.19375235669684 20.6592741622803
vertex -7.66945767846148 2.19375235669684 20.6592741622803
vertex -7.74035079583682 2.19375235669684 21.1977608501636
endloop
endfacet
facet normal -0.0 1.0 -0.0
outer loop
vertex -6.33750680823723 2.19375235669684 20.6592741622803
vertex -7.74035079583682 2.19375235669684 21.1977608501636
vertex -8.04375864122462 2.19375235669684 23.6145891121081
endloop
endfacet
facet normal -0.0 1.0 -0.0
outer loop
vertex -8.04375864122462 2.19375235669684 23.6145891121081
vertex -7.74035079583682 2.19375235669684 21.1977608501636
vertex -7.94819889917655 2.19375235669684 21.699550560157
endloop
endfacet
facet normal -0.0 1.0 -0.0
outer loop
vertex -8.04375864122462 2.19375235669684 23.6145891121081
vertex -7.94819889917655 2.19375235669684 21.699550560157
vertex -8.27883748372005 2.19375235669684 22.1304471527723
endloop
endfacet
facet normal -0.0 1.0 -0.0
outer loop
vertex -8.04375864122462 2.19375235669684 23.6145891121081
vertex -8.27883748372005 2.19375235669684 22.1304471527723
vertex -8.7097340763353 2.19375235669684 22.4610857373158
endloop
endfacet
facet normal -0.0 1.0 -0.0
outer loop
vertex -8.04375864122462 2.19375235669684 23.6145891121081
vertex -8.7097340763353 2.19375235669684 22.4610857373158
vertex -9.21152378632878 2.19375235669684 22.6689338406555
endloop
endfacet
facet normal -0.0 1.0 -0.0
outer loop
vertex -8.04375864122462 2.19375235669684 23.6145891121081
vertex -9.21152378632878 2.19375235669684 22.6689338406555
vertex -9.75001047420912 2.19375235669684 22.7398269580309
endloop
endfacet
facet normal -0.0 1.0 -0.0
outer loop
vertex -8.04375864122462 2.19375235669684 23.6145891121081
vertex -9.75001047420912 2.19375235669684 22.7398269580309
vertex -11.4562623071965 2.19375235669684 23.6145891121081
endloop
endfacet
facet normal 0.991444861374299 -0.0 -0.130526192216338
outer loop
vertex -11.8305632699597 2.19375235669684 20.6592741622803
vertex -11.7596701525843 0.0 21.1977608501636
vertex -11.8305632699597 0.0 20.6592741622803
endloop
endfacet
facet normal 0.991444861374299 -0.0 -0.130526192216338
outer loop
vertex -11.7596701525843 0.0 21.1977608501636
vertex -11.8305632699597 2.19375235669684 20.6592741622803
vertex -11.7596701525843 2.19375235669684 21.1977608501636
endloop
endfacet
facet normal 0.923879532510523 -0.0 -0.382683432366934
outer loop
vertex -11.7596701525843 2.19375235669684 21.1977608501636
vertex -11.5518220492446 0.0 21.699550560157
vertex -11.7596701525843 0.0 21.1977608501636
endloop
endfacet
facet normal 0.923879532510523 -0.0 -0.382683432366934
outer loop
vertex -11.5518220492446 0.0 21.699550560157
vertex -11.7596701525843 2.19375235669684 21.1977608501636
vertex -11.5518220492446 2.19375235669684 21.699550560157
endloop
endfacet
facet normal 0.793353340289775 -0.0 -0.608761429010624
outer loop
vertex -11.5518220492446 2.19375235669684 21.699550560157
vertex -11.2211834647011 0.0 22.1304471527723
vertex -11.5518220492446 0.0 21.699550560157
endloop
endfacet
facet normal 0.793353340289775 -0.0 -0.608761429010624
outer loop
vertex -11.2211834647011 0.0 22.1304471527723
vertex -11.5518220492446 2.19375235669684 21.699550560157
vertex -11.2211834647011 2.19375235669684 22.1304471527723
endloop
endfacet
facet normal 0.608761429010624 0.0 -0.793353340289775
outer loop
vertex -10.7902868720858 2.19375235669684 22.4610857373158
vertex -11.2211834647011 0.0 22.1304471527723
vertex -11.2211834647011 2.19375235669684 22.1304471527723
endloop
endfacet
facet normal 0.608761429010624 0.0 -0.793353340289775
outer loop
vertex -11.2211834647011 0.0 22.1304471527723
vertex -10.7902868720858 2.19375235669684 22.4610857373158
vertex -10.7902868720858 0.0 22.4610857373158
endloop
endfacet
facet normal 0.382683432366934 0.0 -0.923879532510523
outer loop
vertex -10.2884971620924 2.19375235669684 22.6689338406555
vertex -10.7902868720858 0.0 22.4610857373158
vertex -10.7902868720858 2.19375235669684 22.4610857373158
endloop
endfacet
facet normal 0.382683432366934 0.0 -0.923879532510523
outer loop
vertex -10.7902868720858 0.0 22.4610857373158
vertex -10.2884971620924 2.19375235669684 22.6689338406555
vertex -10.2884971620924 0.0 22.6689338406555
endloop
endfacet
facet normal 0.130526192216338 0.0 -0.991444861374299
outer loop
vertex -9.75001047420912 2.19375235669684 22.7398269580309
vertex -10.2884971620924 0.0 22.6689338406555
vertex -10.2884971620924 2.19375235669684 22.6689338406555
endloop
endfacet
facet normal 0.130526192216338 0.0 -0.991444861374299
outer loop
vertex -10.2884971620924 0.0 22.6689338406555
vertex -9.75001047420912 2.19375235669684 22.7398269580309
vertex -9.75001047420912 0.0 22.7398269580309
endloop
endfacet
facet normal -0.130526192217026 0.0 -0.991444861374209
outer loop
vertex -9.21152378632878 2.19375235669684 22.6689338406555
vertex -9.75001047420912 0.0 22.7398269580309
vertex -9.75001047420912 2.19375235669684 22.7398269580309
endloop
endfacet
facet normal -0.130526192217026 0.0 -0.991444861374209
outer loop
vertex -9.75001047420912 0.0 22.7398269580309
vertex -9.21152378632878 2.19375235669684 22.6689338406555
vertex -9.21152378632878 0.0 22.6689338406555
endloop
endfacet
facet normal -0.382683432366934 0.0 -0.923879532510523
outer loop
vertex -8.7097340763353 2.19375235669684 22.4610857373158
vertex -9.21152378632878 0.0 22.6689338406555
vertex -9.21152378632878 2.19375235669684 22.6689338406555
endloop
endfacet
facet normal -0.382683432366934 0.0 -0.923879532510523
outer loop
vertex -9.21152378632878 0.0 22.6689338406555
vertex -8.7097340763353 2.19375235669684 22.4610857373158
vertex -8.7097340763353 0.0 22.4610857373158
endloop
endfacet
facet normal -0.608761429010624 0.0 -0.793353340289775
outer loop
vertex -8.27883748372005 2.19375235669684 22.1304471527723
vertex -8.7097340763353 0.0 22.4610857373158
vertex -8.7097340763353 2.19375235669684 22.4610857373158
endloop
endfacet
facet normal -0.608761429010624 0.0 -0.793353340289775
outer loop
vertex -8.7097340763353 0.0 22.4610857373158
vertex -8.27883748372005 2.19375235669684 22.1304471527723
vertex -8.27883748372005 0.0 22.1304471527723
endloop
endfacet
facet normal -0.793353340289775 0.0 -0.608761429010624
outer loop
vertex -8.27883748372005 2.19375235669684 22.1304471527723
vertex -7.94819889917655 0.0 21.699550560157
vertex -8.27883748372005 0.0 22.1304471527723
endloop
endfacet
facet normal -0.793353340289775 0.0 -0.608761429010624
outer loop
vertex -7.94819889917655 0.0 21.699550560157
vertex -8.27883748372005 2.19375235669684 22.1304471527723
vertex -7.94819889917655 2.19375235669684 21.699550560157
endloop
endfacet
facet normal -0.923879532510523 0.0 -0.382683432366934
outer loop
vertex -7.94819889917655 2.19375235669684 21.699550560157
vertex -7.74035079583682 0.0 21.1977608501636
vertex -7.94819889917655 0.0 21.699550560157
endloop
endfacet
facet normal -0.923879532510523 0.0 -0.382683432366934
outer loop
vertex -7.74035079583682 0.0 21.1977608501636
vertex -7.94819889917655 2.19375235669684 21.699550560157
vertex -7.74035079583682 2.19375235669684 21.1977608501636
endloop
endfacet
facet normal -0.991444861374299 0.0 -0.130526192216338
outer loop
vertex -7.74035079583682 2.19375235669684 21.1977608501636
vertex -7.66945767846148 0.0 20.6592741622803
vertex -7.74035079583682 0.0 21.1977608501636
endloop
endfacet
facet normal -0.991444861374299 0.0 -0.130526192216338
outer loop
vertex -7.66945767846148 0.0 20.6592741622803
vertex -7.74035079583682 2.19375235669684 21.1977608501636
vertex -7.66945767846148 2.19375235669684 20.6592741622803
endloop
endfacet
facet normal -0.991444861374209 0.0 0.130526192217026
outer loop
vertex -7.66945767846148 2.19375235669684 20.6592741622803
vertex -7.74035079583682 0.0 20.1207874744
vertex -7.66945767846148 0.0 20.6592741622803
endloop
endfacet
facet normal -0.991444861374209 0.0 0.130526192217026
outer loop
vertex -7.74035079583682 0.0 20.1207874744
vertex -7.66945767846148 2.19375235669684 20.6592741622803
vertex -7.74035079583682 2.19375235669684 20.1207874744
endloop
endfacet
facet normal -0.923879532510523 0.0 0.382683432366934
outer loop
vertex -7.74035079583682 2.19375235669684 20.1207874744
vertex -7.94819889917655 0.0 19.6189977644065
vertex -7.74035079583682 0.0 20.1207874744
endloop
endfacet
facet normal -0.923879532510523 0.0 0.382683432366934
outer loop
vertex -7.94819889917655 0.0 19.6189977644065
vertex -7.74035079583682 2.19375235669684 20.1207874744
vertex -7.94819889917655 2.19375235669684 19.6189977644065
endloop
endfacet
facet normal -0.793353340289775 0.0 0.608761429010624
outer loop
vertex -7.94819889917655 2.19375235669684 19.6189977644065
vertex -8.27883748372005 0.0 19.1881011717913
vertex -7.94819889917655 0.0 19.6189977644065
endloop
endfacet
facet normal -0.793353340289775 0.0 0.608761429010624
outer loop
vertex -8.27883748372005 0.0 19.1881011717913
vertex -7.94819889917655 2.19375235669684 19.6189977644065
vertex -8.27883748372005 2.19375235669684 19.1881011717913
endloop
endfacet
facet normal 0.866025409981006 -0.0 -0.49999998926723
outer loop
vertex -13.1625141401839 5.30188214568761 6.82500733194668
vertex -11.4562623071965 2.19375235669684 9.7803222817716
vertex -13.1625141401839 2.19375235669684 6.82500733194668
endloop
endfacet
facet normal 0.866025409981006 -0.0 -0.49999998926723
outer loop
vertex -11.4562623071965 2.19375235669684 9.7803222817716
vertex -13.1625141401839 5.30188214568761 6.82500733194668
vertex -11.4562623071965 4.84469342954064 9.7803222817716
endloop
endfacet
endsolid lm8uu pillow
